<svg width="387" height="167" viewBox="0 0 387 167" fill="none" xmlns="http://www.w3.org/2000/svg">
<g filter="url(#filter0_d_56_394)">
<path d="M220.992 41.1291C221.209 40.4589 222.157 40.4589 222.375 41.1291L223.806 45.5339C223.904 45.8336 224.183 46.0365 224.498 46.0365H229.13C229.834 46.0365 230.127 46.9382 229.557 47.3524L225.81 50.0747C225.555 50.2599 225.449 50.5882 225.546 50.8879L226.977 55.2927C227.195 55.9629 226.428 56.5201 225.858 56.106L222.111 53.3836C221.856 53.1984 221.511 53.1984 221.256 53.3836L217.509 56.106C216.939 56.5201 216.172 55.9629 216.389 55.2927L217.821 50.8879C217.918 50.5882 217.811 50.2599 217.556 50.0747L213.81 47.3524C213.239 46.9382 213.532 46.0365 214.237 46.0365H218.869C219.184 46.0365 219.463 45.8336 219.56 45.5339L220.992 41.1291Z" fill="#FF9110"/>
<path d="M241.358 41.1291C241.576 40.4589 242.524 40.4589 242.741 41.1291L244.173 45.5339C244.27 45.8336 244.549 46.0365 244.864 46.0365H249.496C250.2 46.0365 250.493 46.9382 249.923 47.3524L246.176 50.0747C245.921 50.2599 245.815 50.5882 245.912 50.8879L247.343 55.2927C247.561 55.9629 246.794 56.5201 246.224 56.106L242.477 53.3836C242.222 53.1984 241.877 53.1984 241.622 53.3836L237.875 56.106C237.305 56.5201 236.538 55.9629 236.756 55.2927L238.187 50.8879C238.284 50.5882 238.178 50.2599 237.923 50.0747L234.176 47.3524C233.606 46.9382 233.899 46.0365 234.603 46.0365H239.235C239.55 46.0365 239.829 45.8336 239.927 45.5339L241.358 41.1291Z" fill="#FF9110"/>
<path d="M261.725 41.1291C261.943 40.4589 262.891 40.4589 263.109 41.1291L264.54 45.5339C264.637 45.8336 264.916 46.0365 265.232 46.0365H269.863C270.568 46.0365 270.861 46.9382 270.291 47.3524L266.544 50.0747C266.289 50.2599 266.182 50.5882 266.279 50.8879L267.711 55.2927C267.928 55.9629 267.161 56.5201 266.591 56.106L262.844 53.3836C262.589 53.1984 262.244 53.1984 261.989 53.3836L258.242 56.106C257.672 56.5201 256.905 55.9629 257.123 55.2927L258.554 50.8879C258.651 50.5882 258.545 50.2599 258.29 50.0747L254.543 47.3524C253.973 46.9382 254.266 46.0365 254.97 46.0365H259.602C259.917 46.0365 260.196 45.8336 260.294 45.5339L261.725 41.1291Z" fill="#FF9110"/>
<path d="M282.091 41.1291C282.309 40.4589 283.257 40.4589 283.475 41.1291L284.906 45.5339C285.003 45.8336 285.283 46.0365 285.598 46.0365H290.229C290.934 46.0365 291.227 46.9382 290.657 47.3524L286.91 50.0747C286.655 50.2599 286.548 50.5882 286.646 50.8879L288.077 55.2927C288.295 55.9629 287.528 56.5201 286.957 56.106L283.21 53.3836C282.956 53.1984 282.61 53.1984 282.355 53.3836L278.608 56.106C278.038 56.5201 277.271 55.9629 277.489 55.2927L278.92 50.8879C279.018 50.5882 278.911 50.2599 278.656 50.0747L274.909 47.3524C274.339 46.9382 274.632 46.0365 275.337 46.0365H279.968C280.283 46.0365 280.563 45.8336 280.66 45.5339L282.091 41.1291Z" fill="#FF9110"/>
<path d="M302.458 41.1291C302.676 40.4589 303.624 40.4589 303.842 41.1291L305.273 45.5339C305.37 45.8336 305.65 46.0365 305.965 46.0365H310.596C311.301 46.0365 311.594 46.9382 311.024 47.3524L307.277 50.0747C307.022 50.2599 306.915 50.5882 307.013 50.8879L308.444 55.2927C308.662 55.9629 307.895 56.5201 307.325 56.106L303.578 53.3836C303.323 53.1984 302.978 53.1984 302.723 53.3836L298.976 56.106C298.406 56.5201 297.639 55.9629 297.856 55.2927L299.288 50.8879C299.385 50.5882 299.278 50.2599 299.023 50.0747L295.276 47.3524C294.706 46.9382 294.999 46.0365 295.704 46.0365H300.335C300.65 46.0365 300.93 45.8336 301.027 45.5339L302.458 41.1291Z" fill="#FF9110"/>
</g>
<defs>
<filter id="filter0_d_56_394" x="138.762" y="0.448818" width="247.309" height="165.843" filterUnits="userSpaceOnUse" color-interpolation-filters="sRGB">
<feFlood flood-opacity="0" result="BackgroundImageFix"/>
<feColorMatrix in="SourceAlpha" type="matrix" values="0 0 0 0 0 0 0 0 0 0 0 0 0 0 0 0 0 0 127 0" result="hardAlpha"/>
<feOffset dy="34.1869"/>
<feGaussianBlur stdDeviation="36.369"/>
<feComposite in2="hardAlpha" operator="out"/>
<feColorMatrix type="matrix" values="0 0 0 0 0.0833333 0 0 0 0 0.0833333 0 0 0 0 0.0833333 0 0 0 0.15 0"/>
<feBlend mode="normal" in2="BackgroundImageFix" result="effect1_dropShadow_56_394"/>
<feBlend mode="normal" in="SourceGraphic" in2="effect1_dropShadow_56_394" result="shape"/>
</filter>
</defs>
</svg>
