<svg width="599" height="373" viewBox="0 0 599 373" fill="none" xmlns="http://www.w3.org/2000/svg">
<g clip-path="url(#clip0_485_718)">
<path d="M74.6801 368.164C74.6801 368.164 37.5728 280.783 84.496 214.757C131.419 148.73 102.811 90.1851 185.196 31.901C291.094 -43.0032 393.236 30.902 423.693 81.0122C454.151 131.122 557.608 105.545 527.548 248.111C504.228 358.707 521.625 363.566 521.625 363.566L74.6801 368.164Z" fill="#DAF8FF"/>
<path d="M97.0354 344.516C97.0354 344.516 31.1955 310.107 47.0597 232.716C62.9239 155.326 127.538 136.969 154.115 142.645C203.92 153.294 122.545 184.706 103.106 130.781C78.7201 63.1429 165.678 11.9201 246.282 25.1685C298.084 33.6829 323.095 58.4997 369.144 74.0867C415.035 89.6171 434.281 68.8191 415.999 56.7627C398.649 45.3193 335.634 63.9943 357.275 89.583C386.892 124.628 458.293 70.329 513.625 130.793C568.956 191.257 520.921 267.273 478.39 273.608C435.858 279.943 454.502 218.866 520.921 267.273C587.34 315.681 503.446 368.152 503.446 368.152" stroke="#DA2727" stroke-opacity="0.18" stroke-miterlimit="10"/>
<path d="M301.909 178.814C280.359 220.251 256.132 237.133 256.132 237.133L277.046 270.543L313.563 232.569L301.909 178.814Z" fill="#1C145E"/>
<path d="M355.345 168.927L301.897 178.815C298.516 279.966 297.245 363.305 297.245 363.305H393.168C393.168 363.305 395.948 208.411 380.515 174.614L355.345 168.927Z" fill="#1C145E"/>
<path d="M349.149 220.467L375.181 218.265" stroke="#6876EB" stroke-width="4" stroke-miterlimit="10"/>
<path d="M337.189 198.728C337.189 198.728 353.711 311.549 339.334 357.198" stroke="#6876EB" stroke-miterlimit="10"/>
<path d="M319.895 255.24C319.895 255.24 335.861 261.666 356.548 262.347C377.235 263.028 364.367 274.04 333.694 271.951" stroke="#6876EB" stroke-miterlimit="10"/>
<path d="M324.003 164.805L337.189 199.862L355.346 168.926L343.385 149.354L324.003 164.805Z" fill="#E9A394"/>
<path d="M337.189 199.863L361.814 193.062L355.345 168.927L337.189 199.863Z" fill="#6876EB"/>
<path d="M326.931 172.594L313.574 187.534L337.189 199.863L326.931 172.594Z" fill="#6876EB"/>
<path d="M277.046 270.532C277.046 270.532 284.853 254.252 268.092 233.284C258.798 221.659 254.52 201.588 254.52 201.588L240.562 203.711L253.351 270.532H277.046Z" fill="#E9A394"/>
<path d="M237.714 180.643L231.995 185.842L239.632 192.585L215.711 192.177L215.2 200.396L240.563 203.722L254.52 201.588L237.714 180.643Z" fill="#E9A394"/>
<path d="M241.89 193.436L218.934 183.957L217.458 188.044L236.614 196.093L241.89 193.436Z" fill="#E9A394"/>
<path d="M380.538 174.614C380.538 174.614 411.381 192.177 421.117 257.988L385.338 266.627L380.538 174.614Z" fill="#1C145E"/>
<path d="M313.552 121.972L301.909 151.784L310.817 154.531L313.552 171.322L341.989 164.805L346.097 119.225L313.552 121.972Z" fill="#E9A394"/>
<path d="M332.536 129.057H310.783L313.154 122.631L332.536 121.428V129.057Z" fill="#E37A82"/>
<path d="M343.895 142.657C343.895 142.657 330.017 139.785 330.017 125.424C330.017 125.424 309.432 128.228 302.328 117.045C293.908 103.808 306.777 88.5845 317.398 91.6838C317.398 91.6838 310.703 98.325 320.871 99.097C328.122 99.6533 341.365 90.0036 346.097 99.3354C346.097 99.3354 382.591 107.68 355.345 141.692L343.895 142.657Z" fill="#16005C"/>
<path d="M330.017 124.289C330.017 124.289 302.499 129.602 296.745 109.871C293.386 98.3255 304.938 91.7637 304.938 91.7637" stroke="#16005C" stroke-width="2" stroke-miterlimit="10"/>
<path d="M318.374 150.831C324.108 150.831 328.757 146.18 328.757 140.443C328.757 134.706 324.108 130.056 318.374 130.056C312.639 130.056 307.991 134.706 307.991 140.443C307.991 146.18 312.639 150.831 318.374 150.831Z" stroke="#16005C" stroke-width="0.5" stroke-miterlimit="10"/>
<path d="M328.201 137.083L342.999 137.889" stroke="#16005C" stroke-width="0.5" stroke-miterlimit="10"/>
<path d="M361.814 145.28C361.814 151.716 353.189 156.927 346.766 156.927C340.332 156.927 338.528 151.705 338.528 145.28C338.528 138.854 343.748 133.632 350.171 133.632C356.605 133.621 361.814 138.843 361.814 145.28Z" fill="#E9A394"/>
<path d="M416.839 259.009V312.741H390.059L387.834 266.013L416.839 259.009Z" fill="#E9A394"/>
<path d="M299.821 246.862L300.944 209.421L283.593 263.732L299.821 246.862Z" fill="#1C145C"/>
<path d="M325.387 168.37L341.989 164.806L328.372 176.431L325.387 168.37Z" fill="#E37A82"/>
<path d="M315.56 145.268C316.657 145.268 317.546 143.413 317.546 141.124C317.546 138.836 316.657 136.98 315.56 136.98C314.463 136.98 313.574 138.836 313.574 141.124C313.574 143.413 314.463 145.268 315.56 145.268Z" fill="#16005C"/>
<path d="M320.962 131.032C320.962 125.469 316.536 129.215 316.536 129.215L320.962 131.032Z" fill="#16005C"/>
<path d="M316.536 155.644L322.868 153.964C322.868 153.964 325.569 177.43 316.536 155.644Z" fill="white"/>
<path d="M180.204 260.86C180.204 260.86 222.883 254.253 223.722 328.714C223.859 340.793 231.552 363.317 231.552 363.317H192.868L180.204 260.86Z" fill="#D81919"/>
<path d="M135.573 254.253L109.779 260.349L117.655 363.317H218.026C218.026 363.317 214.656 281.851 176.811 257.409L135.573 254.253Z" fill="#D81919"/>
<path d="M109.779 260.349C83.1912 266.411 89.4098 286.835 94.5504 328.76C81.2848 339.545 94.0057 344.392 94.0057 344.392C79.4351 359.843 97.6143 363.317 97.6143 363.317H146.149C146.16 363.317 136.39 254.275 109.779 260.349Z" fill="#D81919"/>
<path d="M143.266 339.533L131.624 286.04" stroke="#D81919" stroke-miterlimit="10"/>
<path d="M97.6143 363.316C97.6143 363.316 105.807 344.494 131.714 335.026C153.184 327.181 184.607 347.548 204.715 328.191L208.437 349.977L146.16 363.305H97.6143V363.316Z" fill="#F6A49D"/>
<path d="M182.995 201.225L202.196 230.469L189.883 234.863L187.75 258.635L150.722 245.761L154.206 197.422L182.995 201.225Z" fill="#F6A49D"/>
<path d="M154.501 231.944L135.573 254.252L159.857 284.019L170.796 249.257L154.501 231.944Z" fill="#E37A82"/>
<path d="M160.833 218.129L187.92 208.729L182.995 201.225L156.237 204.006L160.833 218.129Z" fill="#E37A82"/>
<path d="M158.495 228.369C158.495 228.369 166.7 244.796 160.992 213.133C160.992 213.133 168.777 214.008 174.87 203.734C174.87 203.734 172.975 220.479 190.859 203.734C208.743 186.989 186.014 173.888 158.234 178.815C134.166 183.083 110.074 196.695 145.275 242.82L158.495 228.369Z" fill="#16005C"/>
<path d="M154.115 234.896C152.266 237.371 149.088 239.619 145.797 240.107C139.193 241.072 132.747 235.861 131.794 229.254C130.83 222.647 134.166 219.218 140.77 218.265C144.481 217.72 148.77 218.821 151.993 221.069C152.958 222.272 154.115 234.896 154.115 234.896Z" fill="#F6A49D"/>
<path d="M180.242 225.776C181.227 225.508 181.53 223.461 180.918 221.204C180.306 218.947 179.01 217.335 178.024 217.602C177.038 217.87 176.736 219.917 177.348 222.174C177.96 224.431 179.256 226.043 180.242 225.776Z" fill="#16005C"/>
<path d="M172.726 215.949C172.726 215.949 171.761 210.522 176.8 213.133L172.726 215.949Z" fill="#16005C"/>
<path d="M132.543 255.172L136.946 250.12L135.323 246.374L145.275 242.82L173.815 257.181L174.87 268.148L170.036 266.615L162.149 296.018L132.543 255.172Z" fill="#D81919"/>
<path d="M158.314 262.347L174.87 268.148L173.815 257.182" stroke="#D81919" stroke-miterlimit="10"/>
<path d="M160.992 213.134C160.992 213.134 164.317 232.524 169.197 236.509C170.797 237.814 173.826 234.488 187.75 234.204C196.272 234.034 196.261 263.778 184.959 262.926C173.656 262.075 156.476 255.025 153.9 233.341C151.641 214.314 160.992 213.134 160.992 213.134Z" fill="#16005C"/>
<path d="M174.87 240.107C174.87 240.107 177.741 245.454 183.404 241.833" stroke="#C4C6C5" stroke-miterlimit="10"/>
<path d="M239.473 351.078H144.186V358.139C144.186 361 146.5 363.316 149.36 363.316H239.473C242.333 363.316 244.648 361 244.648 358.139V356.255C244.648 353.394 242.333 351.078 239.473 351.078Z" fill="#1C145E"/>
<path d="M316.854 280.272H206.008C202.718 280.272 199.937 282.725 199.518 285.994L190.587 355.937C190.088 359.854 193.14 363.316 197.078 363.316H307.923C311.214 363.316 313.994 360.864 314.414 357.595L323.345 287.652C323.855 283.735 320.803 280.272 316.854 280.272Z" fill="#888888"/>
<path d="M322.221 280.272H211.376C208.085 280.272 205.305 282.725 204.885 285.994L195.954 355.937C195.455 359.854 198.508 363.316 202.445 363.316H313.291C316.582 363.316 319.362 360.864 319.782 357.595L328.712 287.652C329.212 283.735 326.17 280.272 322.221 280.272Z" fill="#DBDBDB"/>
<path d="M269.473 329.317C274.088 324.937 274.632 318.016 270.69 313.859C266.747 309.702 259.81 309.883 255.196 314.263C250.581 318.643 250.037 325.564 253.979 329.721C257.922 333.878 264.859 333.697 269.473 329.317Z" fill="white"/>
<path d="M319.804 362.727H181.837" stroke="#1C145E" stroke-miterlimit="10"/>
<path d="M380.776 269.124L426.576 269.998L416.192 213.95L391.84 216.709C391.84 216.709 380.867 232.909 389.536 245.499C399.307 259.701 379.777 260.223 380.776 269.124Z" fill="#16005C"/>
<path d="M391.84 216.697C391.84 216.697 380.867 232.897 389.536 245.487C399.307 259.701 379.777 260.223 380.776 269.123" stroke="#615370" stroke-width="2" stroke-miterlimit="10"/>
<path d="M400.975 262.347C400.975 262.347 380.141 282.804 369.145 359.899H392.339L400.975 262.347Z" fill="#615370"/>
<path d="M456.057 256.647L446.99 359.899H379.618L388.004 320.46C388.004 320.46 362.358 307.075 400.986 262.346L410.586 257.408L452.301 254.252L456.057 256.647Z" fill="#D81919"/>
<path d="M400.975 308.562C400.975 308.562 396.935 315.488 400.816 321.039L395.097 359.91" stroke="#615370" stroke-miterlimit="10"/>
<path d="M391.567 320.642L430.581 321.8" stroke="#615370" stroke-miterlimit="10"/>
<path d="M438.275 340.077L434.156 290.421" stroke="#615370" stroke-miterlimit="10"/>
<path d="M456.057 256.647C456.057 256.647 459.779 261.325 464.08 272.189C470.185 287.583 477.471 315.408 476.994 359.899H446.979L456.057 256.647Z" fill="#D81919"/>
<path d="M476.994 363.304C476.994 363.304 462.003 328.997 424.283 338.817C383.102 349.534 367.805 347.536 367.805 347.536L364.685 363.304H476.994Z" fill="#E9A394"/>
<path d="M437.742 331.608L424.363 334.605L454.764 363.316H483.417C483.405 363.305 471.059 333.357 437.742 331.608Z" fill="#615370"/>
<path d="M438.57 340.509L444.948 338.557" stroke="#D81919" stroke-miterlimit="10"/>
<path d="M367.817 347.536L348.242 343.483L334.216 363.305H364.685L367.817 347.536Z" fill="#E9A394"/>
<path d="M400.975 308.563L437.345 272.178L430.582 268.988L456.057 256.647L444.358 249.2H417.146L400.975 269.419L405.446 270.532L400.975 273.665V308.563Z" fill="#615370"/>
<path d="M426.406 261.575L438.275 253.355L425.452 224.679L405.582 237.167L411.177 260.962L400.975 308.563L426.406 261.575Z" fill="#E9A394"/>
<path d="M407.182 243.956L421.129 236.679L408.68 250.313L407.182 243.956Z" fill="#E37A82"/>
<path d="M381.695 202.428L375.613 236.202H384.748L395.006 250.313L421.129 236.679L402.859 195.957L381.695 202.428Z" fill="#E9A394"/>
<path d="M448.296 199.862C442.258 183.503 434.894 177.202 434.894 177.202C420.108 162.512 394.847 178.814 394.847 178.814C362.472 170.97 375.5 216 375.5 216L387 200.5C390.688 222.626 421.5 214.5 421.5 214.5L425.01 229.969C425.01 229.969 418.803 235.452 425.271 244.863C430.593 252.606 417.838 255.251 421.14 263.493L472.103 252.924C472.092 219.366 459.201 229.424 448.296 199.862Z" fill="#16005C"/>
<path d="M373.547 211.452C373.547 211.452 368.883 188.498 377.451 181.016C381.922 177.122 395.982 178.814 395.982 178.814" stroke="#615370" stroke-width="2" stroke-miterlimit="10"/>
<path d="M475.439 251.947C475.439 251.947 479.513 236.678 457.328 219.365" stroke="#16005C" stroke-width="2" stroke-miterlimit="10"/>
<path d="M419.608 231.399C425.675 231.399 430.593 226.479 430.593 220.41C430.593 214.341 425.675 209.421 419.608 209.421C413.542 209.421 408.624 214.341 408.624 220.41C408.624 226.479 413.542 231.399 419.608 231.399Z" fill="#E9A394"/>
<path d="M389 235L402.5 232C402.489 231.989 396.5 237 389 235Z" fill="white"/>
<path d="M384 218C384 218 387.45 211.25 395 218" stroke="#1C145E" stroke-width="0.5" stroke-miterlimit="10"/>
<path d="M384 213C384 213 388.567 208.5 394 213H384Z" fill="#16005C"/>
<path d="M285.148 94.4308C281.199 83.4415 268.784 77.9469 257.902 82.6355C248.54 86.677 243.569 97.303 246.474 107.089C248.097 112.561 251.763 116.784 256.358 119.259C260.602 121.541 264.234 124.788 266.901 128.795L267.672 129.953L282.924 124.47L282.776 123.096C282.277 118.226 283.128 113.356 284.921 108.803C286.68 104.353 286.895 99.2783 285.148 94.4308Z" fill="#FFD600"/>
<path d="M285.148 94.4308C281.199 83.4415 268.784 77.9469 257.902 82.6355C248.54 86.677 243.569 97.303 246.474 107.089C248.097 112.561 251.763 116.784 256.358 119.259C260.602 121.541 264.234 124.788 266.901 128.795L267.672 129.953L282.924 124.47L282.776 123.096C282.277 118.226 283.128 113.356 284.921 108.803C286.68 104.353 286.895 99.2783 285.148 94.4308Z" fill="#FFD600"/>
<path d="M271.167 125.446L259.014 108.303C259.014 108.303 259.241 104.829 263.053 105.386C266.866 105.942 269.147 111.959 266.424 110.982C263.7 110.006 262.736 102.933 267.888 101.855C273.04 100.776 274.764 112.481 271.916 110.222C269.068 107.963 269.669 100.515 275.184 100.447L278.418 125.185" stroke="white" stroke-miterlimit="10"/>
<path d="M282.572 136.186L275.411 138.763C272.688 139.739 269.692 138.331 268.705 135.607L267.195 131.395C266.219 128.67 267.627 125.673 270.35 124.686L277.51 122.109C280.234 121.132 283.23 122.54 284.217 125.265L285.726 129.476C286.702 132.201 285.295 135.209 282.572 136.186Z" fill="#16005C"/>
<path d="M284.259 118.296L262.699 126.05L266.484 136.583L288.044 128.829L284.259 118.296Z" fill="#6876EB"/>
<path d="M265.482 75.767L263.326 63.4268" stroke="#FFD600" stroke-miterlimit="10"/>
<path d="M249.936 83.1117L239.643 73.042" stroke="#FFD600" stroke-miterlimit="10"/>
<path d="M239.201 101.401L227.456 102.241" stroke="#FFD600" stroke-miterlimit="10"/>
<path d="M282.424 82.5215L287.712 72.7129" stroke="#FFD600" stroke-miterlimit="10"/>
<path d="M447.921 173.172H520.807C523.338 173.172 525.766 171.117 526.232 168.585L533.767 127.012C534.221 124.481 532.541 122.426 530.011 122.426H457.124C454.593 122.426 452.165 124.481 451.699 127.012L444.164 168.585C443.699 171.117 445.39 173.172 447.921 173.172Z" fill="#5EB9F7"/>
<path d="M506.355 151.034C508.484 149.089 508.894 146.072 507.271 144.294C505.648 142.516 502.606 142.652 500.478 144.597C498.349 146.542 497.94 149.56 499.563 151.338C501.186 153.115 504.227 152.979 506.355 151.034Z" fill="white"/>
<path d="M491.885 151.029C494.014 149.083 494.423 146.066 492.8 144.288C491.177 142.511 488.136 142.646 486.008 144.591C483.879 146.536 483.47 149.554 485.093 151.332C486.716 153.109 489.757 152.974 491.885 151.029Z" fill="white"/>
<path d="M477.407 151.029C479.535 149.084 479.945 146.067 478.322 144.289C476.699 142.512 473.658 142.647 471.529 144.592C469.401 146.537 468.991 149.555 470.614 151.333C472.237 153.11 475.278 152.975 477.407 151.029Z" fill="white"/>
<path d="M487.15 170.436L461.822 185.5L466.361 169.255L487.15 170.436Z" fill="#5EB9F7"/>
<path d="M213.123 167.008H140.236C137.706 167.008 135.277 164.953 134.812 162.421L127.277 120.848C126.823 118.317 128.503 116.262 131.033 116.262H203.92C206.451 116.262 208.879 118.317 209.344 120.848L216.879 162.421C217.333 164.953 215.654 167.008 213.123 167.008Z" fill="#10B35E"/>
<path d="M161.452 145.15C163.075 143.373 162.666 140.355 160.537 138.41C158.409 136.465 155.367 136.329 153.744 138.107C152.121 139.884 152.531 142.902 154.66 144.847C156.788 146.792 159.829 146.928 161.452 145.15Z" fill="white"/>
<path d="M175.923 145.157C177.546 143.38 177.136 140.362 175.008 138.417C172.879 136.472 169.838 136.336 168.215 138.113C166.592 139.891 167.002 142.909 169.13 144.854C171.259 146.799 174.3 146.935 175.923 145.157Z" fill="white"/>
<path d="M190.401 145.155C192.024 143.378 191.614 140.36 189.486 138.415C187.357 136.47 184.316 136.334 182.693 138.112C181.07 139.889 181.48 142.907 183.608 144.852C185.737 146.797 188.778 146.933 190.401 145.155Z" fill="white"/>
<path d="M187.125 164.283L191.12 178.815L207.291 163.262L187.125 164.283Z" fill="#10B35E"/>
<path d="M528.31 73.3023C526.956 73.3023 525.439 73.0486 523.805 72.55L523.629 72.4952C523.232 72.3742 522.704 72.2127 522.056 72.0052C512.365 69.0047 476.091 57.6137 456.603 51.4916L448.343 48.8975C437.718 52.0796 424.71 55.8929 421.473 56.4752C419.874 56.7634 417.565 57.0142 415.155 57.2217L418.225 59.6486L418.41 60.4211C418.718 61.7239 418.237 63.5513 416.452 64.4881C414.959 65.2749 412.875 65.3095 409.849 64.5861C405.03 63.4331 398.455 60.2741 394.642 58.3112C390.82 58.4265 387.303 58.487 384.435 58.487C378.688 58.487 377.636 58.2449 377.238 58.1527C370.851 56.6798 370.053 53.002 369.957 51.9297C369.911 51.5723 369.894 50.9613 370.104 50.183C354.194 43.6516 344.457 39.6654 343.91 39.455L343.846 39.429C342.832 39.0255 342.232 37.9821 342.405 36.8926C342.768 34.6357 346.807 33.4338 349.585 33.4338C350.608 33.4338 351.634 33.5635 352.632 33.8229C355.534 34.5723 368.98 38.7834 380.069 42.2854C384.79 40.484 394.996 36.8551 409.267 31.9032L332 -4.32773L334.303 -6.63072C334.395 -6.72295 334.482 -6.81231 334.559 -6.8959C336.289 -8.70601 337.58 -9 343.777 -9C345.002 -9 348.726 -9 412.772 11.8134L428.204 7.1065L428.293 7.72908C428.613 7.76943 428.93 7.82997 429.241 7.91355C432.761 8.84743 435.222 12.3696 435.222 16.4827C435.222 17.3619 435.11 18.2237 434.891 19.048C436.998 19.7398 439.01 20.4027 440.915 21.0311C468.894 11.5021 498.492 1.61564 502.116 0.823002C505.756 0.0274763 511.417 -1.05339 516.738 -0.819925C521.476 -0.612397 525.189 0.615471 527.774 2.82911C528.423 3.3854 528.999 3.99934 529.492 4.65939C531.357 7.14108 532.199 9.97442 531.925 12.8452C531.397 18.4168 526.633 23.7462 519.787 26.4182C516.19 27.8219 501.666 32.4624 487.799 36.8032L490.384 38.426L496.855 36.4516L496.945 37.0713C497.265 37.1116 497.582 37.1722 497.896 37.2557C501.415 38.1896 503.874 41.7118 503.874 45.822C503.874 46.1737 503.856 46.5225 503.819 46.8683L535.778 66.9525L535.412 68.5378C535.349 68.8116 534.963 70.2383 533.579 71.4864L533.533 71.5267C533.455 71.5959 533.372 71.668 533.282 71.7343C531.968 72.7748 530.299 73.3023 528.31 73.3023ZM448.371 44.1186L457.97 47.1335C477.454 53.2527 513.726 64.6437 523.422 67.6471C524.067 67.8518 524.578 68.0103 524.964 68.1256L525.14 68.1803C526.339 68.5464 527.405 68.7337 528.304 68.7337C528.841 68.7337 529.305 68.6703 529.697 68.5406L498.59 48.9926L499.08 47.3324C499.222 46.8511 499.294 46.3438 499.294 45.8278C499.294 43.8217 498.207 42.075 496.711 41.6801C496.319 41.5764 495.921 41.5706 495.521 41.6715L494.982 41.807L489.71 43.4153L476.95 35.3966L481.691 33.9209C500.602 28.0323 514.902 23.4176 518.115 22.1638C523.367 20.1145 526.999 16.2896 527.365 12.4186C527.532 10.6748 527.013 8.98866 525.826 7.40626C525.529 7.01138 525.183 6.64245 524.791 6.30521C523.001 4.77181 520.222 3.91287 516.53 3.75146C511.699 3.53816 506.482 4.54987 503.087 5.29351C500.167 5.93339 474.333 14.4766 441.659 25.6111L440.932 25.859L440.203 25.6197C437.398 24.6945 434.337 23.6857 431.089 22.6192L428.276 21.6969L429.878 19.2094C430.377 18.4341 430.642 17.4944 430.642 16.4914C430.642 14.4853 429.556 12.7386 428.06 12.3437C427.668 12.2399 427.264 12.2371 426.872 12.3351L426.324 12.4705L412.723 16.6182L412.037 16.3963C354.5 -2.3101 345.126 -4.39114 343.769 -4.41709C343.333 -4.41709 342.933 -4.41709 342.567 -4.41132L421.399 32.5518L416.075 34.3907C398.202 40.5675 385.733 44.9919 380.965 46.8453L380.216 47.1364L379.449 46.8943C369.522 43.7583 361.91 41.3804 357.071 39.9046C362.662 42.1961 369.211 44.8824 374.146 46.9087L376.999 48.0818L375.048 50.4713C374.993 50.5404 374.935 50.6067 374.889 50.673C374.618 51.0477 374.535 51.3043 374.506 51.4138L374.555 51.6328L374.549 51.6386C374.716 52.0018 375.428 53.0509 378.262 53.7024C378.36 53.7254 379.354 53.9214 384.43 53.9214C387.399 53.9214 391.085 53.8551 395.089 53.7312L395.685 53.7139L396.216 53.9877C399.052 55.4635 406.163 59.0145 410.91 60.1473C411.181 60.2107 411.437 60.2683 411.685 60.3173L403.021 53.466L408.981 53.0942C414.469 52.7512 418.508 52.3678 420.661 51.9816C423.076 51.5493 432.677 48.8283 447.697 44.3232L448.371 44.1186Z" fill="white"/>
<path d="M458.223 29.1712L437.537 37.3801L431.469 39.7869L335.92 -5.01617C337.194 -6.29017 336.981 -6.71387 343.777 -6.71387C350.571 -6.71387 458.223 29.1712 458.223 29.1712Z" fill="#D2EFFF"/>
<g opacity="0.5">
<path d="M437.54 37.3797L431.469 39.7865L335.92 -5.01367L339.742 -4.80326L437.54 37.3797Z" fill="#40A3DB"/>
</g>
<path d="M386.739 46.7936L380.034 49.284L376.832 50.4744C376.832 50.4744 345.616 37.6537 344.711 37.3165L344.697 37.3107C344.273 37.1695 347.669 34.904 352.058 36.0368C356.448 37.1695 386.739 46.7936 386.739 46.7936Z" fill="#D2EFFF"/>
<g opacity="0.5">
<path d="M380.034 49.2867L376.832 50.4771C376.832 50.4771 345.616 37.6565 344.711 37.3193L344.697 37.3135C344.697 37.3135 346.821 36.4632 350.502 37.5989C353.718 38.5846 374.78 47.1423 380.034 49.2867Z" fill="#40A3DB"/>
</g>
<path d="M415.386 62.4676C414.622 62.8711 413.158 63.0297 410.379 62.3667C403.868 60.8103 393.532 55.1465 393.532 55.1465L398.424 54.7487L407.405 54.0166L416.182 60.9544C416.182 60.9515 416.415 61.9286 415.386 62.4676Z" fill="#D2EFFF"/>
<g opacity="0.6">
<path d="M415.386 62.4676C414.622 62.8711 413.158 63.0297 410.379 62.3667C403.868 60.8103 393.532 55.1465 393.532 55.1465L398.424 54.7487L407.405 54.0166L416.182 60.9544C416.182 60.9515 416.415 61.9286 415.386 62.4676Z" fill="#58ABDD"/>
</g>
<g opacity="0.5">
<path d="M415.386 62.4679C414.622 62.8714 413.158 63.03 410.379 62.367C403.868 60.8106 393.532 55.1468 393.532 55.1468L398.424 54.749L398.839 55.0084C398.842 55.0055 409.901 61.5427 415.386 62.4679Z" fill="#3299C6"/>
</g>
<path d="M533.182 68.0253C533.182 68.0253 532.965 68.9592 532.046 69.7893C532 69.8297 531.948 69.8815 531.89 69.919C530.714 70.8731 528.512 71.5965 524.477 70.3629C524.073 70.2389 523.491 70.0631 522.753 69.8268C510.074 65.901 451.049 47.3474 446.23 45.84C446.147 45.8083 446.08 45.7881 446.034 45.7737C446.008 45.7679 445.982 45.7593 445.968 45.7535C445.948 45.7477 445.936 45.7391 445.928 45.7391C445.922 45.7333 445.913 45.7333 445.913 45.7333L457.267 42.3812L481.155 35.3252L533.182 68.0253Z" fill="#D2EFFF"/>
<g opacity="0.6">
<path d="M533.182 68.0253C533.182 68.0253 532.965 68.9592 532.046 69.7893C532 69.8297 531.948 69.8815 531.89 69.919C530.714 70.8731 528.512 71.5965 524.477 70.3629C524.073 70.2389 523.491 70.0631 522.753 69.8268C510.074 65.901 451.049 47.3474 446.23 45.84C446.147 45.8083 446.08 45.7881 446.034 45.7737C446.008 45.7679 445.982 45.7593 445.968 45.7535C445.948 45.7477 445.936 45.7391 445.928 45.7391C445.922 45.7333 445.913 45.7333 445.913 45.7333L457.267 42.3812L481.155 35.3252L533.182 68.0253Z" fill="#58ABDD"/>
</g>
<g opacity="0.5">
<path d="M532.043 69.789C531.997 69.8294 531.945 69.8813 531.887 69.9187C530.711 70.8728 528.509 71.5962 524.474 70.3626C524.071 70.2387 523.488 70.0628 522.75 69.8265C510.071 65.9007 451.046 47.3471 446.227 45.8397C446.149 45.8137 446.077 45.7936 446.031 45.7734C446.005 45.7676 445.979 45.759 445.965 45.7532C445.945 45.7474 445.933 45.7388 445.925 45.7388C445.919 45.733 445.91 45.733 445.91 45.733L457.264 42.3809C472.583 48.6413 520.251 67.8751 532.043 69.789Z" fill="#3299C6"/>
</g>
<path d="M494.964 39.418L475.736 45.2806C475.736 45.2806 473.295 51.3307 478.178 55.2593L496.757 52.3943L494.964 39.418Z" fill="#D2EFFF"/>
<g opacity="0.4">
<path d="M496.757 52.3913L478.178 55.2592C473.298 51.3334 475.733 45.2834 475.733 45.2834L475.877 45.2373C475.765 47.3155 476.249 50.0912 478.915 52.2414L496.365 49.5493L496.757 52.3913Z" fill="#58ABDD"/>
</g>
<path d="M501.582 45.8256C501.582 48.7886 499.919 51.2876 497.642 52.0802C497.152 52.2532 496.636 52.3425 496.1 52.3425C493.073 52.3425 490.618 49.4256 490.618 45.8256C490.618 42.2255 493.073 39.3086 496.1 39.3086C496.512 39.3086 496.916 39.3634 497.299 39.4671C499.749 40.1156 501.582 42.7155 501.582 45.8256Z" fill="#4C415B"/>
<path d="M501.582 45.8252C501.582 48.7883 499.919 51.2873 497.642 52.0799C495.192 51.4314 493.359 48.8315 493.359 45.7215C493.359 42.7584 495.022 40.2594 497.299 39.4668C499.749 40.1153 501.582 42.7152 501.582 45.8252Z" fill="#615370"/>
<path d="M426.319 10.0752L407.091 15.9379C407.091 15.9379 404.649 21.9879 409.532 25.9165L428.112 23.0515L426.319 10.0752Z" fill="#D2EFFF"/>
<g opacity="0.4">
<path d="M428.112 23.0485L409.532 25.9164C404.652 21.9907 407.088 15.9406 407.088 15.9406L407.232 15.8945C407.12 17.9727 407.604 20.7484 410.27 22.8986L427.72 20.2065L428.112 23.0485Z" fill="#58ABDD"/>
</g>
<path d="M432.934 16.4828C432.934 19.4458 431.271 21.9448 428.993 22.7375C428.503 22.9104 427.988 22.9998 427.451 22.9998C424.425 22.9998 421.969 20.0828 421.969 16.4828C421.969 12.8828 424.425 9.96582 427.451 9.96582C427.864 9.96582 428.267 10.0206 428.65 10.1244C431.1 10.7729 432.934 13.3727 432.934 16.4828Z" fill="#4C415B"/>
<path d="M432.934 16.4825C432.934 19.4455 431.271 21.9445 428.994 22.7371C426.544 22.0886 424.71 19.4887 424.71 16.3787C424.71 13.4156 426.374 10.9167 428.651 10.124C431.101 10.7725 432.934 13.3724 432.934 16.4825Z" fill="#615370"/>
<path d="M529.645 12.6293C529.189 17.4341 524.92 21.9594 518.951 24.2883C510.246 27.6866 429.348 52.7399 421.067 54.2272C412.786 55.7144 381.164 56.7146 377.751 55.9249C372.231 54.6509 372.231 51.6792 372.231 51.6792C372.231 51.6792 372.027 50.7309 373.033 49.3358C373.811 48.2578 375.307 46.9118 378.175 45.5225C384.758 42.3375 495.806 4.54143 502.602 3.05703C506.205 2.27015 511.601 1.24116 516.634 1.46598C520.332 1.62739 523.831 2.46615 526.284 4.56737C526.788 4.99972 527.249 5.48396 527.659 6.0316C529.261 8.16453 529.855 10.4243 529.645 12.6293Z" fill="#D2EFFF"/>
<g opacity="0.5">
<path d="M529.645 12.6289C529.189 17.4338 524.92 21.959 518.951 24.288C510.246 27.6862 429.348 52.7395 421.067 54.2268C412.786 55.7141 381.164 56.7143 377.751 55.9245C372.231 54.6505 372.231 51.6788 372.231 51.6788C372.231 51.6788 372.027 50.7305 373.033 49.3355C379.994 50.7968 396.259 53.3391 413.847 49.9811C434.847 45.9718 511.987 20.5006 529.645 12.6289Z" fill="#40A3DB"/>
</g>
<path d="M526.284 4.56424C518.121 4.23277 506.425 7.23041 506.425 7.23041C506.425 7.23041 506.566 4.61036 508.69 3.40842C509.572 2.9069 512.971 2.16325 516.634 1.45996C520.329 1.62425 523.831 2.46302 526.284 4.56424Z" fill="#615370"/>
<path d="M404.03 41.311L402.995 41.6626C402.724 41.7549 402.427 41.6108 402.335 41.3369L401.698 39.4663C401.606 39.1954 401.75 38.8985 402.023 38.8062L403.058 38.4546C403.329 38.3624 403.626 38.5065 403.718 38.7803L404.355 40.6509C404.448 40.9219 404.301 41.2188 404.03 41.311Z" fill="#615370"/>
<path d="M408.535 39.7778L407.5 40.1294C407.229 40.2217 406.932 40.0776 406.84 39.8037L406.203 37.9331C406.111 37.6622 406.255 37.3653 406.529 37.273L407.564 36.9214C407.835 36.8292 408.131 36.9733 408.224 37.2471L408.861 39.1177C408.953 39.3887 408.806 39.6856 408.535 39.7778Z" fill="#615370"/>
<path d="M413.04 38.2436L412.005 38.5953C411.734 38.6875 411.437 38.5434 411.345 38.2696L410.708 36.3989C410.616 36.128 410.76 35.8311 411.034 35.7389L412.068 35.3872C412.339 35.295 412.636 35.4391 412.729 35.7129L413.366 37.5836C413.458 37.8545 413.311 38.1514 413.04 38.2436Z" fill="#615370"/>
<path d="M417.545 36.7104L416.51 37.0621C416.239 37.1543 415.942 37.0102 415.85 36.7364L415.213 34.8657C415.121 34.5948 415.265 34.2979 415.539 34.2057L416.573 33.854C416.844 33.7618 417.141 33.9059 417.233 34.1797L417.87 36.0504C417.963 36.3213 417.819 36.6182 417.545 36.7104Z" fill="#615370"/>
<path d="M422.05 35.1772L421.015 35.5289C420.744 35.6211 420.447 35.477 420.355 35.2032L419.718 33.3325C419.626 33.0616 419.77 32.7647 420.044 32.6725L421.079 32.3208C421.35 32.2286 421.647 32.3727 421.739 32.6465L422.376 34.5172C422.468 34.7881 422.324 35.085 422.05 35.1772Z" fill="#615370"/>
<path d="M426.555 33.644L425.52 33.9957C425.249 34.0879 424.952 33.9438 424.86 33.6699L424.223 31.7993C424.131 31.5284 424.275 31.2315 424.549 31.1393L425.584 30.7876C425.855 30.6954 426.151 30.8395 426.244 31.1133L426.881 32.984C426.973 33.2549 426.829 33.5518 426.555 33.644Z" fill="#615370"/>
<path d="M431.06 32.1108L430.026 32.4625C429.755 32.5547 429.458 32.4106 429.366 32.1367L428.729 30.2661C428.636 29.9952 428.78 29.6983 429.054 29.6061L430.089 29.2544C430.36 29.1622 430.657 29.3063 430.749 29.5801L431.386 31.4507C431.478 31.7217 431.334 32.0186 431.06 32.1108Z" fill="#615370"/>
<path d="M435.568 30.5776L434.533 30.9292C434.262 31.0215 433.966 30.8774 433.873 30.6035L433.236 28.7329C433.144 28.462 433.288 28.1651 433.562 28.0729L434.597 27.7212C434.868 27.629 435.165 27.7731 435.257 28.0469L435.894 29.9175C435.983 30.1885 435.839 30.4854 435.568 30.5776Z" fill="#615370"/>
<path d="M440.073 29.0434L439.038 29.3951C438.767 29.4873 438.47 29.3432 438.378 29.0694L437.741 27.1987C437.649 26.9278 437.793 26.6309 438.067 26.5387L439.102 26.187C439.373 26.0948 439.67 26.2389 439.762 26.5127L440.399 28.3834C440.491 28.6543 440.344 28.9512 440.073 29.0434Z" fill="#615370"/>
<path d="M444.578 27.5102L443.544 27.8619C443.273 27.9541 442.976 27.81 442.884 27.5362L442.247 25.6655C442.154 25.3946 442.298 25.0977 442.572 25.0055L443.607 24.6538C443.878 24.5616 444.175 24.7057 444.267 24.9795L444.904 26.8502C444.996 27.1211 444.849 27.418 444.578 27.5102Z" fill="#615370"/>
<path d="M449.083 25.977L448.049 26.3287C447.778 26.4209 447.481 26.2768 447.388 26.003L446.751 24.1323C446.659 23.8614 446.803 23.5645 447.077 23.4723L448.112 23.1206C448.383 23.0284 448.68 23.1725 448.772 23.4463L449.409 25.317C449.501 25.5879 449.354 25.8848 449.083 25.977Z" fill="#615370"/>
<path d="M453.589 24.4438L452.554 24.7955C452.283 24.8877 451.986 24.7436 451.894 24.4698L451.257 22.5991C451.165 22.3282 451.309 22.0313 451.583 21.9391L452.617 21.5874C452.888 21.4952 453.185 21.6393 453.277 21.9131L453.914 23.7838C454.007 24.0547 453.86 24.3516 453.589 24.4438Z" fill="#615370"/>
<path d="M458.094 22.9106L457.059 23.2623C456.788 23.3545 456.491 23.2104 456.399 22.9365L455.762 21.0659C455.669 20.795 455.814 20.4981 456.087 20.4059L457.122 20.0542C457.393 19.962 457.69 20.1061 457.782 20.3799L458.419 22.2506C458.511 22.5215 458.364 22.8184 458.094 22.9106Z" fill="#615370"/>
<path d="M462.599 21.3774L461.564 21.7291C461.293 21.8213 460.996 21.6772 460.904 21.4033L460.267 19.5327C460.175 19.2618 460.319 18.9649 460.593 18.8727L461.628 18.521C461.898 18.4288 462.195 18.5729 462.288 18.8467L462.925 20.7174C463.017 20.9883 462.873 21.2852 462.599 21.3774Z" fill="#615370"/>
<path d="M467.104 19.8432L466.069 20.1949C465.798 20.2871 465.501 20.143 465.409 19.8692L464.772 17.9985C464.68 17.7276 464.824 17.4307 465.098 17.3385L466.132 16.9868C466.403 16.8946 466.7 17.0387 466.793 17.3125L467.429 19.1832C467.522 19.4541 467.378 19.751 467.104 19.8432Z" fill="#615370"/>
<path d="M471.609 18.31L470.574 18.6617C470.303 18.7539 470.007 18.6098 469.914 18.336L469.277 16.4653C469.185 16.1944 469.329 15.8975 469.603 15.8053L470.638 15.4536C470.909 15.3614 471.206 15.5055 471.298 15.7793L471.935 17.65C472.027 17.9209 471.883 18.2178 471.609 18.31Z" fill="#615370"/>
<path d="M476.114 16.7768L475.079 17.1285C474.808 17.2207 474.511 17.0766 474.419 16.8028L473.782 14.9321C473.69 14.6612 473.834 14.3643 474.108 14.2721L475.143 13.9204C475.414 13.8282 475.71 13.9723 475.803 14.2461L476.44 16.1168C476.532 16.3877 476.388 16.6846 476.114 16.7768Z" fill="#615370"/>
<path d="M480.622 15.2436L479.587 15.5953C479.316 15.6875 479.019 15.5434 478.927 15.2696L478.29 13.3989C478.198 13.128 478.342 12.8311 478.616 12.7389L479.651 12.3872C479.921 12.295 480.218 12.4391 480.311 12.7129L480.948 14.5836C481.037 14.8545 480.893 15.1514 480.622 15.2436Z" fill="#615370"/>
<path d="M485.127 13.7104L484.092 14.0621C483.822 14.1543 483.525 14.0102 483.432 13.7364L482.795 11.8657C482.703 11.5948 482.847 11.2979 483.121 11.2057L484.156 10.854C484.427 10.7618 484.724 10.9059 484.816 11.1797L485.453 13.0504C485.545 13.3213 485.398 13.6182 485.127 13.7104Z" fill="#615370"/>
<path d="M489.632 12.1762L488.597 12.5279C488.326 12.6201 488.03 12.476 487.937 12.2022L487.3 10.3315C487.208 10.0606 487.352 9.76372 487.626 9.67148L488.661 9.31984C488.932 9.2276 489.229 9.37172 489.321 9.64554L489.958 11.5162C490.05 11.7871 489.903 12.084 489.632 12.1762Z" fill="#615370"/>
<path d="M494.137 10.643L493.102 10.9947C492.831 11.0869 492.534 10.9428 492.442 10.669L491.805 8.79834C491.713 8.5274 491.857 8.23051 492.131 8.13828L493.166 7.78663C493.437 7.6944 493.733 7.83852 493.826 8.11234L494.463 9.98297C494.555 10.2568 494.408 10.5508 494.137 10.643Z" fill="#615370"/>
</g>
<path d="M104.595 346.835C104.595 346.835 101.747 317.444 74.7484 303.966C49.6317 291.428 35.687 292.114 5.98161 294.154C-12.5028 295.425 16.9864 295.105 25.3567 318.735C32.7614 339.64 42.7891 369.651 78.7779 370.749C114.767 371.845 104.595 346.835 104.595 346.835Z" fill="#006731"/>
<path d="M86.191 349.155C83.179 328.154 63.1381 314.912 46.8586 307.502C29.0977 299.42 11.8238 296.324 11.6509 296.295L11.9276 294.719C12.1005 294.75 29.5502 297.872 47.4927 306.032C58.0565 310.837 66.7352 316.426 73.281 322.643C81.5187 330.465 86.3957 339.308 87.7734 348.927L86.191 349.155Z" fill="#599E85"/>
<path d="M28.1066 311.861L27.4609 310.397C27.8443 310.226 37.0217 306.295 54.4252 309.489L54.137 311.062C37.2695 307.967 28.1959 311.82 28.1066 311.861Z" fill="#599E85"/>
<path d="M37.0822 336.211L36.5576 334.698C36.8141 334.608 62.4871 325.892 82.3695 334.156L81.7555 335.634C62.4295 327.604 37.3359 336.121 37.0822 336.211Z" fill="#599E85"/>
<path d="M62.3025 315.994C55.7884 311.18 55.5204 298.515 55.5117 297.976L57.1114 297.95C57.1143 298.074 57.3766 310.364 63.2537 314.705L62.3025 315.994Z" fill="#599E85"/>
<path d="M82.7068 337.808C79.6486 328.878 80.3288 312.111 81.1099 310.457L82.5569 311.143L82.5626 311.131C81.9948 312.581 81.2569 328.627 84.22 337.289L82.7068 337.808Z" fill="#599E85"/>
<path d="M116.885 340.993C116.885 340.993 121.083 328.82 112.818 318.58C105.127 309.054 99.4721 306.799 87.3214 302.224C79.76 299.378 91.5149 304.596 90.5509 315.484C89.6986 325.117 88.2368 338.839 102.311 345.798C116.387 352.757 116.885 340.993 116.885 340.993Z" fill="#006731"/>
<path d="M109.165 338.579C111.778 329.704 106.23 320.819 101.116 314.928C95.5358 308.503 89.2467 304.145 89.1836 304.101L89.5794 303.525C89.6425 303.569 95.9971 307.971 101.635 314.46C104.955 318.282 107.383 322.07 108.852 325.724C110.702 330.321 111.033 334.711 109.835 338.776L109.165 338.579Z" fill="#599E85"/>
<path d="M92.8892 313.257L92.8989 312.561C93.081 312.563 97.4347 312.667 103.758 317.089L103.357 317.66C97.2284 313.374 92.9304 313.257 92.8892 313.257Z" fill="#599E85"/>
<path d="M92.0347 324.541L92.1002 323.847C92.2192 323.859 103.981 325.054 110.368 331.935L109.855 332.411C103.649 325.721 92.1512 324.553 92.0347 324.541Z" fill="#599E85"/>
<path d="M105.703 321.096C103.991 318.007 106.181 312.935 106.276 312.719L106.914 312.998C106.892 313.047 104.77 317.969 106.312 320.756L105.703 321.096Z" fill="#599E85"/>
<path d="M109.84 333.446C110.246 329.35 113.555 322.823 114.165 322.311L114.614 322.845L114.619 322.84C114.131 323.313 110.928 329.542 110.535 333.514L109.84 333.446Z" fill="#599E85"/>
<path d="M510.885 337.353C510.885 337.353 513.284 312.592 536.029 301.238C557.188 290.675 568.936 291.253 593.961 292.972C609.533 294.043 584.69 293.774 577.638 313.68C571.4 331.292 562.953 356.574 532.634 357.499C502.316 358.422 510.885 337.353 510.885 337.353Z" fill="#006731"/>
<path d="M526.389 339.307C528.926 321.615 545.809 310.46 559.524 304.217C574.487 297.409 589.039 294.801 589.184 294.776L588.951 293.448C588.806 293.475 574.105 296.105 558.99 302.979C550.088 307.027 542.779 311.735 537.265 316.973C530.325 323.563 526.216 331.013 525.056 339.115L526.389 339.307Z" fill="#599E85"/>
<path d="M575.322 307.888L575.866 306.655C575.543 306.511 567.811 303.199 553.15 305.89L553.393 307.216C567.603 304.608 575.247 307.854 575.322 307.888Z" fill="#599E85"/>
<path d="M567.758 328.402L568.2 327.127C567.984 327.052 546.356 319.709 529.606 326.671L530.124 327.916C546.407 321.151 567.547 328.327 567.758 328.402Z" fill="#599E85"/>
<path d="M546.511 311.37C551.999 307.315 552.225 296.646 552.232 296.192L550.884 296.17C550.882 296.274 550.661 306.628 545.71 310.285L546.511 311.37Z" fill="#599E85"/>
<path d="M529.325 329.747C531.901 322.225 531.328 308.1 530.67 306.706L529.451 307.284L529.446 307.274C529.924 308.496 530.546 322.013 528.05 329.31L529.325 329.747Z" fill="#599E85"/>
<path d="M490.33 350.494C490.33 350.494 481.091 339.409 485.678 325.391C489.947 312.352 494.975 307.738 505.888 298.113C512.677 292.122 502.437 302.265 507.779 313.291C512.505 323.045 519.493 336.842 507.515 349.731C495.532 362.623 490.33 350.494 490.33 350.494Z" fill="#006731"/>
<path d="M497.457 344.894C491.19 336.633 493.47 325.116 496.486 316.911C499.776 307.961 504.635 300.89 504.683 300.819L504.04 300.375C503.991 300.445 499.084 307.584 495.757 316.627C493.8 321.952 492.761 326.889 492.673 331.301C492.564 336.851 493.963 341.584 496.833 345.367L497.457 344.894Z" fill="#599E85"/>
<path d="M504.441 311.888L504.154 311.159C503.965 311.234 499.443 313.075 494.577 320.221L495.223 320.661C499.941 313.736 504.397 311.905 504.441 311.888Z" fill="#599E85"/>
<path d="M509.824 323.373L509.479 322.671C509.36 322.729 497.51 328.661 493.555 338.413L494.278 338.707C498.125 329.227 509.707 323.429 509.824 323.373Z" fill="#599E85"/>
<path d="M494.133 325.197C494.696 321.28 490.386 316.834 490.202 316.647L489.643 317.196C489.684 317.24 493.868 321.552 493.358 325.085L494.133 325.197Z" fill="#599E85"/>
<path d="M494.708 339.782C492.654 335.652 486.591 330.128 485.748 329.834L485.491 330.572L485.486 330.57C486.185 330.871 492.018 336.125 494.011 340.132L494.708 339.782Z" fill="#599E85"/>
<path d="M598.999 360.282H4V370.723H598.999V360.282Z" fill="#10B35E"/>
<path d="M467.141 360.935C467.141 360.935 476.948 332.165 508.007 342.626C508.007 342.626 515.853 318.106 537.43 318.924C559.007 319.743 565.871 339.919 565.871 339.919C565.871 339.919 594.859 336.415 598.999 360.935H467.141Z" fill="#10B35E"/>
<path d="M532.829 360.792L531.537 360.583C534.322 343.295 523.599 330.853 523.49 330.729L524.471 329.864C524.587 329.995 535.716 342.877 532.829 360.792Z" fill="#9DC89E"/>
<path d="M533.159 350.213L532.159 349.37C532.258 349.254 542.08 337.506 543.751 330.153L545.026 330.442C543.285 338.106 533.572 349.722 533.159 350.213Z" fill="#9DC89E"/>
<path d="M532.608 356.434C524.874 356.014 518.031 348.052 517.742 347.712L518.738 346.864C518.806 346.942 525.508 354.736 532.678 355.127L532.608 356.434Z" fill="#9DC89E"/>
<path d="M556.936 361.428L556.081 360.438C556.637 359.957 569.803 348.649 576.675 348.457L576.711 349.766C570.303 349.946 557.069 361.314 556.936 361.428Z" fill="#9DC89E"/>
<path d="M582.539 359.248C582.434 359.243 571.957 358.607 563.473 356.414L563.8 355.149C572.158 357.308 582.512 357.937 582.617 357.942L582.539 359.248Z" fill="#9DC89E"/>
<path d="M504.465 360.783C497.566 355.048 483.002 350.461 482.856 350.417L483.244 349.169C483.852 349.358 498.205 353.88 505.3 359.78L504.465 360.783Z" fill="#9DC89E"/>
<path d="M499.278 356.254L497.969 356.215C498.139 350.4 495.614 345.859 495.587 345.815L496.726 345.172C496.84 345.369 499.457 350.079 499.278 356.254Z" fill="#9DC89E"/>
<path d="M4 360.935C4 360.935 6.61517 337.071 33.7503 338.377C33.7503 338.377 36.3655 319.416 51.7312 314.676C67.0968 309.936 85.0777 318.6 89.327 337.807C89.327 337.807 102.403 326.637 120.058 333.652C137.711 340.667 134.443 360.938 134.443 360.938H4V360.935Z" fill="#10B35E"/>
<path d="M68.6895 360.334C66.8077 336.87 53.7488 324.981 53.6177 324.865L54.487 323.889C54.623 324.008 68.0679 336.214 69.9959 360.232L68.6895 360.334Z" fill="#9DC89E"/>
<path d="M67.5873 352.395C67.3906 342.401 74.9666 330.005 75.2895 329.48L76.4016 330.168C76.3239 330.291 68.7042 342.763 68.8936 352.369L67.5873 352.395Z" fill="#9DC89E"/>
<path d="M93.3067 360.709L92.3208 359.852C92.872 359.218 105.975 344.328 119.587 342.959L119.718 344.26C106.623 345.577 93.4402 360.559 93.3067 360.709Z" fill="#9DC89E"/>
<path d="M117.494 355.584C114.066 355.584 107.133 355.334 100.38 353.596L100.706 352.328C109.935 354.705 119.527 354.244 119.619 354.237L119.687 355.543C119.66 355.543 118.852 355.584 117.494 355.584Z" fill="#9DC89E"/>
<path d="M37.9269 360.801C31.9681 356.304 18.5086 353.051 18.375 353.017L18.6785 351.744C19.2419 351.878 32.5363 355.095 38.7161 359.757L37.9269 360.801Z" fill="#9DC89E"/>
<path d="M34.6272 358.621C30.9874 350.659 32.6555 345.584 32.7284 345.373L33.9668 345.796C33.9498 345.844 32.4127 350.63 35.8171 358.077L34.6272 358.621Z" fill="#9DC89E"/>
<defs>
<clipPath id="clip0_485_718">
<rect width="513" height="373" fill="white" transform="translate(41)"/>
</clipPath>
</defs>
</svg>
