<svg width="590" height="159" viewBox="0 0 590 159" fill="none" xmlns="http://www.w3.org/2000/svg">
<path d="M26.2 158.8C22.0667 158.8 18 158.2 14 157C10 155.933 6.73333 154 4.2 151.2C1.53333 148.4 0.199999 144.6 0.199999 139.8C0.199999 138.867 0.599999 138.4 1.4 138.4C2.2 138.4 2.6 138.933 2.6 140C2.6 143.2 3.6 145.667 5.6 147.4C7.6 149.267 10 150.533 12.8 151.2C15.6 152 18.1333 152.4 20.4 152.4C21.8667 152.4 23.2667 152.333 24.6 152.2C26.0667 152.2 27.4667 152.133 28.8 152C36.5333 150.933 43.6667 148.533 50.2 144.8C56.8667 141.2 63 136.733 68.6 131.4C74.3333 126.067 79.7333 120.467 84.8 114.6C89.8667 108.6 94.7333 102.867 99.4 97.4C101.267 95.1333 103.533 92.4 106.2 89.2C109 86 111.733 82.8 114.4 79.6C117.2 76.4 119.533 73.7333 121.4 71.6C111.133 74.1333 100.467 77.2667 89.4 81C78.3333 84.7333 67.4 87.5333 56.6 89.4C54.7333 89.6667 52.8 90.0667 50.8 90.6C48.9333 91.1333 47.0667 91.4 45.2 91.4C42.9333 91.4 40.7333 90.7333 38.6 89.4C37 88.3333 35.5333 86.8 34.2 84.8C32.8667 82.6667 32.2 80.5333 32.2 78.4C32.2 76.6667 33.4 74.9333 35.8 73.2C38.2 71.3333 41.2 69.5333 44.8 67.8C48.5333 65.9333 52.4 64.3333 56.4 63C60.5333 61.5333 64.3333 60.4 67.8 59.6C71.2667 58.6667 73.8667 58.2 75.6 58.2C77.2 58.2 78 58.4667 78 59C78 59.6667 77.0667 60.1333 75.2 60.4C73.2 60.8 70.6 61.4667 67.4 62.4C64.2 63.3333 60.8667 64.4667 57.4 65.8C54.0667 67 51 68.2667 48.2 69.6C44.7333 71.2 42.1333 72.8667 40.4 74.6C38.8 76.2 38 77.7333 38 79.2C38 81.8667 40.4667 83.2 45.4 83.2C46.0667 83.2 46.7333 83.2 47.4 83.2C48.0667 83.0667 48.8 82.9333 49.6 82.8C58.1333 81.4667 66.6667 79.7333 75.2 77.6C83.8667 75.3333 92.4 73.0667 100.8 70.8C109.2 68.5333 117.467 66.8 125.6 65.6L134.4 56C141.067 48.6667 147.333 41.4667 153.2 34.4C159.2 27.2 165.6 20 172.4 12.8C174.533 10.6667 176.333 8.53333 177.8 6.39999C179.267 4.26666 181 2.13333 183 -1.00136e-05C185 0.933327 187 1.53333 189 1.79999C191 1.93333 192.8 2.33333 194.4 3C196 3.66667 197.067 5.26666 197.6 7.8C197.867 9.26666 197.6 11.1333 196.8 13.4C196 15.5333 195.2 17.1333 194.4 18.2C191.867 22.0667 189.133 26.4 186.2 31.2C183.4 35.8667 180.6 40.5333 177.8 45.2C175 49.8667 172.467 54.0667 170.2 57.8C168.067 61.5333 166.467 64.3333 165.4 66.2C166.867 66.7333 168.467 67.5333 170.2 68.6C171.933 69.6667 173.4 70.9333 174.6 72.4C175.933 73.7333 176.467 75.2667 176.2 77C177.933 78.6 178.8 80.4667 178.8 82.6C178.8 84.0667 177.867 85.5333 176 87C174.133 88.3333 171.933 89.7333 169.4 91.2C166.867 92.6667 164.467 94.1333 162.2 95.6C162.067 95.7333 161.867 95.6667 161.6 95.4C161.467 95 161.467 94.7333 161.6 94.6C163.467 93.1333 165.667 91.2 168.2 88.8C170.867 86.4 172.2 83 172.2 78.6C172.2 76.6 171.267 74.8 169.4 73.2C167.667 71.4667 165.8 70.2 163.8 69.4C159.933 76.3333 156.467 83.8667 153.4 92C150.467 100.133 148.267 107.467 146.8 114C146.667 115.067 146.467 116.133 146.2 117.2C146.067 118.267 146 119.333 146 120.4C146 121.733 146.2 123.2 146.6 124.8C147.133 126.267 148.267 127 150 127C152.667 127 155.333 125.733 158 123.2C160.667 120.533 162.667 118.2 164 116.2C164.533 115.533 165.067 115.067 165.6 114.8C166.133 114.533 166.2 114.867 165.8 115.8C165.533 116.467 165.2 117.133 164.8 117.8C164.4 118.467 164 119.133 163.6 119.8C162.8 120.867 161.867 122.4 160.8 124.4C159.733 126.4 158.533 128.2 157.2 129.8C155.867 131.4 154.333 132.2 152.6 132.2C151.533 132.2 150 131.6 148 130.4C146 129.333 144.4 128.333 143.2 127.4C142 126.333 141 124.933 140.2 123.2C139.533 121.333 139.067 119.733 138.8 118.4C138.8 118 138.733 117.6 138.6 117.2C138.6 116.8 138.6 116.333 138.6 115.8C138.6 111.933 139.4 107.4 141 102.2C142.6 96.8667 144.6 91.2667 147 85.4C149.4 79.4 151.8 73.5333 154.2 67.8C153.533 67.8 152.867 67.8 152.2 67.8C151.533 67.6667 150.867 67.6 150.2 67.6C146.333 67.6 142.467 67.9333 138.6 68.6C134.867 69.1333 131.067 69.8 127.2 70.6C122.533 76.3333 117.267 83.0667 111.4 90.8C105.533 98.4 99.2 106.2 92.4 114.2C85.7333 122.067 78.6667 129.333 71.2 136C63.8667 142.8 56.4 148.267 48.8 152.4C41.2 156.667 33.6667 158.8 26.2 158.8ZM131.6 64.8C134.667 64.4 137.6 64.1333 140.4 64C143.2 63.8667 146.067 63.8 149 63.8H155.6C156.533 61.8 158.2 58.6 160.6 54.2C163.133 49.8 165.933 45 169 39.8C172.067 34.6 175 29.7333 177.8 25.2C180.6 20.6667 182.8 17.2667 184.4 15C185.333 13.5333 185.8 12.4667 185.8 11.8C185.8 10.8667 185 10.8 183.4 11.6C181.933 12.2667 180.267 13.4 178.4 15C175.6 17.4 172.067 20.8667 167.8 25.4C163.533 29.8 159 34.6 154.2 39.8C149.533 44.8667 145.133 49.6667 141 54.2C137 58.7333 133.867 62.2667 131.6 64.8ZM192.022 130.6C188.822 130.6 186.022 129.4 183.622 127C181.355 124.733 180.222 121 180.222 115.8C180.222 109.133 181.955 101 185.422 91.4C188.889 81.8 193.289 71.7333 198.622 61.2C202.755 53.3333 207.155 45.8 211.822 38.6C216.489 31.4 221.089 25 225.622 19.4C230.155 13.6667 234.289 9.19999 238.022 6C241.889 2.66666 245.022 0.999989 247.422 0.999989C249.689 0.999989 251.355 1.59999 252.422 2.79999C253.622 3.99999 254.622 5.33333 255.422 6.8C256.355 8.26666 257.555 9.46666 259.022 10.4C258.889 13.4667 257.289 17.3333 254.222 22C251.155 26.6667 247.489 31.7333 243.222 37.2C240.422 40.5333 236.422 45.2667 231.222 51.4C226.155 57.4 221.089 63.6 216.022 70C211.889 75.0667 208.222 79.9333 205.022 84.6C201.822 89.2667 199.355 93.1333 197.622 96.2C197.089 97.1333 196.689 97.4667 196.422 97.2C196.155 96.9333 196.155 96.5333 196.422 96C197.755 93.3333 199.822 89.9333 202.622 85.8C205.555 81.5333 208.822 77 212.422 72.2C216.022 67.4 219.555 62.8 223.022 58.4C226.489 53.8667 229.489 49.9333 232.022 46.6C234.555 43.2667 236.289 41.0667 237.222 40C239.222 37.4667 241.155 35.0667 243.022 32.8C244.889 30.4 246.555 28.1333 248.022 26C249.622 23.6 250.755 21.4667 251.422 19.6C252.222 17.7333 252.622 16.2 252.622 15C252.622 12.8667 251.755 11.8 250.022 11.8C248.822 11.8 247.289 12.4 245.422 13.6C243.689 14.8 241.689 16.7333 239.422 19.4C236.089 23.4 232.155 28.3333 227.622 34.2C223.222 39.9333 218.689 46.2667 214.022 53.2C209.355 60.1333 205.022 67.4 201.022 75C197.155 82.4667 193.955 90 191.422 97.6C189.022 105.067 187.822 112.267 187.822 119.2C187.822 122.4 188.422 124.667 189.622 126C190.955 127.333 192.489 128 194.222 128C196.089 128 198.089 127.467 200.222 126.4C202.355 125.2 204.155 123.733 205.622 122C209.489 117.867 212.355 114.267 214.222 111.2C216.089 108.133 217.289 106.133 217.822 105.2C216.889 103.067 216.222 100.867 215.822 98.6C215.422 96.3333 215.222 94.1333 215.222 92C215.222 87.3333 216.089 83.8667 217.822 81.6C219.555 79.2 221.355 78 223.222 78C224.822 78 225.955 78.5333 226.622 79.6C227.289 80.6667 227.622 82 227.622 83.6C227.622 86.2667 227.022 89.2667 225.822 92.6C224.755 95.8 223.822 98.3333 223.022 100.2C221.289 104.067 219.022 108 216.222 112C213.555 115.867 211.089 119.133 208.822 121.8C206.422 124.467 203.689 126.6 200.622 128.2C197.689 129.8 194.822 130.6 192.022 130.6ZM243.784 130C239.918 130 236.584 128.533 233.784 125.6C231.118 122.667 229.784 118.667 229.784 113.6C229.784 111.733 229.984 109.733 230.384 107.6C230.918 105.333 231.651 103 232.584 100.6C234.584 95.9333 237.318 91.4667 240.784 87.2C244.384 82.9333 248.251 79.4 252.384 76.6C256.518 73.8 260.451 72.4 264.184 72.4C264.584 72.4 265.051 72.6 265.584 73C266.118 73.2667 266.518 73.5333 266.784 73.8L267.784 74.8C269.384 76.4 270.918 77.3333 272.384 77.6C273.984 77.8667 275.251 78.6667 276.184 80C277.784 82.5333 278.584 85.6 278.584 89.2C278.584 94.1333 277.051 99.5333 273.984 105.4C271.051 111.133 267.051 116.333 261.984 121C259.451 123.267 256.651 125.333 253.584 127.2C250.518 129.067 247.251 130 243.784 130ZM245.184 127.8C248.384 127.8 251.651 126.733 254.984 124.6C258.318 122.333 261.384 119.4 264.184 115.8C267.118 112.2 269.584 108.4 271.584 104.4C273.718 100.4 275.051 96.6 275.584 93C275.718 92.3333 275.784 91.6667 275.784 91C275.918 90.2 275.984 89.5333 275.984 89C275.984 85.4 275.118 82.8 273.384 81.2C271.651 79.4667 269.584 78.6 267.184 78.6C264.651 78.6 262.051 79.4 259.384 81C256.851 82.4667 253.651 85.5333 249.784 90.2C245.918 94.7333 242.451 99.4667 239.384 104.4C236.584 108.8 235.184 113.067 235.184 117.2C235.184 120.133 235.984 122.667 237.584 124.8C239.318 126.8 241.851 127.8 245.184 127.8ZM289.728 127.6C286.795 127.6 284.528 126.933 282.928 125.6C281.461 124.267 280.861 122.533 281.128 120.4C281.395 118.933 281.795 117.267 282.328 115.4C282.861 113.533 283.528 111.667 284.328 109.8L289.128 98.6C288.995 98.3333 288.861 98.1333 288.728 98C288.728 97.7333 288.728 97.5333 288.728 97.4C288.595 96.8667 288.661 96.4 288.928 96C292.395 90.6667 295.595 86.2 298.528 82.6C301.461 79 303.395 77.2 304.328 77.2C306.195 77.2 308.395 78.4667 310.928 81C309.195 83.1333 307.395 85.5333 305.528 88.2C303.661 90.7333 301.861 93.3333 300.128 96C298.261 98.8 296.261 101.867 294.128 105.2C292.128 108.4 290.728 111.333 289.928 114C289.128 116.4 288.728 118.267 288.728 119.6C288.728 121.467 289.395 122.4 290.728 122.4C292.461 122.4 294.995 120.6 298.328 117C300.595 114.6 303.061 111.667 305.728 108.2C308.528 104.6 311.195 101 313.728 97.4C316.395 93.6667 318.861 90.2 321.128 87C323.528 83.6667 325.528 81 327.128 79C328.595 77.1333 329.928 76.2 331.128 76.2C332.861 76.2 334.861 77.6667 337.128 80.6C335.261 83.2667 332.995 86.7333 330.328 91C327.661 95.1333 325.195 99.4 322.928 103.8C320.795 108.067 319.395 111.867 318.728 115.2C318.595 115.733 318.461 116.267 318.328 116.8C318.328 117.333 318.328 117.933 318.328 118.6C318.328 122.467 319.328 124.4 321.328 124.4C322.395 124.4 323.661 123.8 325.128 122.6C326.728 121.4 328.261 120 329.728 118.4C331.195 116.8 332.328 115.467 333.128 114.4C337.395 108.667 341.461 102.733 345.328 96.6C346.128 95.4 346.661 94.8 346.928 94.8C347.195 94.8 347.261 95.0667 347.128 95.6C347.128 96 347.061 96.3333 346.928 96.6C344.261 101 341.128 105.8 337.528 111C334.061 116.2 330.595 120.467 327.128 123.8C325.261 125.667 323.395 126.6 321.528 126.6C317.928 126.6 315.261 125.733 313.528 124C311.795 122.267 310.928 120.333 310.928 118.2C310.928 116.867 311.128 115.467 311.528 114C311.928 112.4 312.395 110.8 312.928 109.2L318.328 95C316.328 97.5333 314.661 99.6667 313.328 101.4C311.995 103 310.795 104.533 309.728 106C308.795 107.333 307.728 108.867 306.528 110.6C305.328 112.2 304.061 113.8 302.728 115.4C300.195 118.733 297.728 121.6 295.328 124C292.928 126.4 291.061 127.6 289.728 127.6ZM351.159 130C348.359 130 345.893 128.867 343.759 126.6C341.759 124.333 340.759 121.067 340.759 116.8C340.759 113.6 341.493 109.733 342.959 105.2C344.559 100.533 346.493 95.6667 348.759 90.6C351.159 85.4 353.626 80.5333 356.159 76C358.826 71.3333 361.159 67.4 363.159 64.2C360.893 64.2 358.893 64.2 357.159 64.2C355.426 64.0667 354.026 64.0667 352.959 64.2C352.026 64.2 351.426 64.0667 351.159 63.8C351.026 63.4 351.026 63.1333 351.159 63C351.159 62.6 351.359 62.0667 351.759 61.4C352.293 60.7333 352.759 60.4 353.159 60.4H365.359C366.026 59.6 366.893 58.2 367.959 56.2C369.159 54.2 370.359 52.0667 371.559 49.8C372.759 47.5333 373.759 45.5333 374.559 43.8C375.493 41.9333 375.959 40.8 375.959 40.4C375.959 39.2 375.559 38.3333 374.759 37.8C374.226 37.5333 373.959 37.4 373.959 37.4C373.826 37.4 373.759 37.4 373.759 37.4C373.759 37.2667 373.693 37.2 373.559 37.2C373.426 37.0667 373.359 36.8667 373.359 36.6C373.359 36.2 373.559 35.9333 373.959 35.8C374.359 35.5333 374.693 35.4 374.959 35.4C375.759 35.4 376.493 35.6 377.159 36C377.959 36.2667 379.226 36.8667 380.959 37.8C381.759 38.2 382.559 38.6 383.359 39C384.293 39.2667 385.026 39.6 385.559 40L387.159 41C386.359 42.3333 385.093 44.2 383.359 46.6C381.759 49 380.159 51.4667 378.559 54C376.959 56.5333 375.626 58.6667 374.559 60.4H410.359C411.959 60.4 412.759 60.6 412.759 61C412.759 61.4 412.159 61.8667 410.959 62.4C409.893 62.8 409.093 63 408.559 63C406.826 63.1333 404.359 63.2 401.159 63.2C398.093 63.2 394.759 63.2667 391.159 63.4C387.693 63.4 384.426 63.5333 381.359 63.8C378.426 63.9333 376.359 64.2 375.159 64.6C373.159 65.2667 370.893 67.4667 368.359 71.2C365.826 74.8 363.359 79.0667 360.959 84C358.693 88.9333 356.626 93.7333 354.759 98.4C354.359 99.4667 353.626 101.267 352.559 103.8C351.626 106.333 350.693 109.067 349.759 112C348.959 114.933 348.559 117.667 348.559 120.2C348.559 122.6 349.026 124.333 349.959 125.4C350.893 126.467 352.026 127 353.359 127C354.959 127 356.759 126.067 358.759 124.2C360.893 122.333 363.226 119.933 365.759 117C368.426 113.667 370.893 110.333 373.159 107C375.559 103.533 377.093 101.2 377.759 100C378.826 98.2667 379.493 97.4 379.759 97.4C379.893 97.4 379.959 97.4667 379.959 97.6C379.959 98 379.759 98.7333 379.359 99.8C378.959 100.733 378.559 101.533 378.159 102.2C375.759 105.667 373.159 109.533 370.359 113.8C367.559 118.067 364.693 121.733 361.759 124.8C358.293 128.267 354.759 130 351.159 130ZM462.923 129.4C459.19 129.4 455.79 127.867 452.723 124.8C449.657 121.6 448.123 118.2 448.123 114.6C448.123 110.467 449.523 105.667 452.323 100.2C455.123 94.6 458.39 88.9333 462.123 83.2C468.79 73.0667 475.923 63.2667 483.523 53.8C491.257 44.2 498.39 34.3333 504.923 24.2C506.39 21.9333 507.59 19.9333 508.523 18.2C509.457 16.3333 510.19 14.7333 510.723 13.4C510.99 12.8667 511.123 12.4 511.123 12C511.123 11.6 511.123 11.2667 511.123 11C511.123 9.79999 510.657 8.99999 509.723 8.6C508.923 8.06666 507.923 7.8 506.723 7.8C505.523 7.8 504.257 7.93333 502.923 8.19999C501.59 8.46666 500.39 8.73333 499.323 8.99999C491.99 10.7333 484.323 13.8 476.323 18.2C468.457 22.4667 461.123 26.8667 454.323 31.4C448.457 35.2667 442.723 39.8667 437.123 45.2C431.657 50.5333 427.123 56.0667 423.523 61.8C419.923 67.5333 418.123 72.8667 418.123 77.8C418.123 80.3333 418.723 82.7333 419.923 85C420.323 85.8 420.523 86.3333 420.523 86.6C420.523 86.7333 420.457 86.8 420.323 86.8C420.057 86.8 419.723 86.6667 419.323 86.4C418.923 86 418.59 85.7333 418.323 85.6C416.99 83.8667 415.79 81.4667 414.723 78.4C413.657 75.2 413.19 72.6667 413.323 70.8C413.99 63.7333 417.523 56.6 423.923 49.4C430.457 42.0667 438.59 35.2 448.323 28.8C449.923 27.7333 452.457 26.2 455.923 24.2C459.39 22.2 463.323 20 467.723 17.6C472.257 15.2 476.857 13 481.523 11C486.323 8.86666 490.79 7.13333 494.923 5.8C499.19 4.33333 502.79 3.59999 505.723 3.59999C507.723 3.59999 509.99 3.93332 512.523 4.59999C515.057 5.26666 517.257 6.33333 519.123 7.8C520.99 9.26666 521.923 11.1333 521.923 13.4C521.923 16.3333 520.923 19.4667 518.923 22.8C516.923 26 514.323 29.4 511.123 33C505.657 39.4 499.923 45.8667 493.923 52.4C488.057 58.9333 482.457 65.6667 477.123 72.6C471.923 79.4 467.523 86.4 463.923 93.6C460.457 100.8 458.323 108.133 457.523 115.6C457.523 116 457.457 116.4 457.323 116.8C457.323 117.2 457.323 117.6 457.323 118C457.323 120.8 457.923 122.933 459.123 124.4C460.323 125.733 461.79 126.4 463.523 126.4C466.057 126.4 468.857 125.333 471.923 123.2C475.123 120.933 477.657 119 479.523 117.4C485.257 112.6 490.657 107.467 495.723 102C500.79 96.5333 505.923 91.1333 511.123 85.8C516.857 80.2 522.79 74.2 528.923 67.8C535.19 61.4 540.99 55.2 546.323 49.2C546.59 48.9333 546.923 48.8 547.323 48.8C547.857 48.6667 547.79 49.1333 547.123 50.2C544.057 54.0667 540.257 58.6667 535.723 64C531.19 69.3333 526.19 74.9333 520.723 80.8C515.39 86.6667 509.99 92.4 504.523 98C499.19 103.467 494.123 108.4 489.323 112.8C484.657 117.2 480.723 120.6 477.523 123C475.39 124.6 472.99 126.067 470.323 127.4C467.79 128.733 465.323 129.4 462.923 129.4ZM512.523 150C509.99 150 507.99 149.2 506.523 147.6C505.057 146.133 503.99 144.333 503.323 142.2C502.657 140.067 502.323 138.067 502.323 136.2C502.323 131.267 503.723 125.333 506.523 118.4C509.457 111.467 513.19 104.267 517.723 96.8C522.39 89.2 527.323 81.8 532.523 74.6C537.857 67.2667 542.923 60.7333 547.723 55C552.657 49.1333 556.79 44.5333 560.123 41.2C559.323 40.1333 558.923 39.2 558.923 38.4C558.923 36.6667 559.723 35.0667 561.323 33.6C562.923 32 564.723 30.5333 566.723 29.2C568.723 27.8667 570.257 26.8 571.323 26C573.19 26.1333 575.257 26.6667 577.523 27.6C579.79 28.5333 580.923 30.0667 580.923 32.2C580.923 34.0667 579.79 36.1333 577.523 38.4C575.39 40.5333 573.723 42.1333 572.523 43.2L566.523 48.4C565.59 49.2 564.723 49.9333 563.923 50.6C563.257 51.2667 562.657 51.9333 562.123 52.6C558.79 56.0667 554.723 60.4667 549.923 65.8C545.257 71 540.457 76.7333 535.523 83C530.59 89.2667 525.99 95.7333 521.723 102.4C517.457 109.067 513.99 115.6 511.323 122C508.657 128.267 507.323 134.067 507.323 139.4C507.323 141.533 507.723 143.467 508.523 145.2C509.457 147.067 511.123 148.333 513.523 149C513.923 149 514.123 149.133 514.123 149.4C514.123 149.8 513.59 150 512.523 150ZM559.177 127C556.11 127 553.31 126.267 550.777 124.8C548.377 123.2 547.177 120.933 547.177 118C547.177 116.933 547.377 115.8 547.777 114.6C548.177 113.267 548.71 112.267 549.377 111.6C549.377 113.067 549.843 114.4 550.777 115.6C551.71 116.667 552.777 117.533 553.977 118.2C555.177 118.733 556.31 119.133 557.377 119.4C558.577 119.667 559.643 119.8 560.577 119.8C563.643 119.8 566.043 118.733 567.777 116.6C569.51 114.333 570.377 111.933 570.377 109.4C570.377 107.133 569.777 105.133 568.577 103.4C567.777 102.333 566.91 101.4 565.977 100.6C565.043 99.6667 564.043 98.7333 562.977 97.8C562.177 97.1333 561.443 96.3333 560.777 95.4C560.11 94.4667 559.243 93.0667 558.177 91.2L549.777 104C547.777 106.933 545.91 109.667 544.177 112.2C542.443 114.733 540.177 117.667 537.377 121C536.577 121.933 535.977 122.4 535.577 122.4C535.043 122.267 535.11 121.733 535.777 120.8C538.843 116.933 541.377 113.6 543.377 110.8C545.377 108 547.71 104.6 550.377 100.6C551.71 98.7333 553.043 96.6 554.377 94.2C555.843 91.8 556.91 89.3333 557.577 86.8C557.577 82.6667 558.977 79.0667 561.777 76C564.577 72.8 567.977 70.4 571.977 68.8C576.11 67.0667 579.977 66.4 583.577 66.8C584.377 66.8 585.243 67.4 586.177 68.6C587.11 69.8 587.91 71.1333 588.577 72.6C589.243 73.9333 589.577 75 589.577 75.8C589.577 76.2 589.443 76.4 589.177 76.4C588.777 76.4 588.243 76.1333 587.577 75.6C586.51 74.6667 584.91 74.2 582.777 74.2C579.977 74.2 576.91 75 573.577 76.6C570.243 78.0667 567.31 80 564.777 82.4C562.377 84.6667 561.177 87.0667 561.177 89.6C561.177 91.4667 561.91 93.2 563.377 94.8C564.977 96.4 566.71 97.9333 568.577 99.4C570.577 100.733 572.177 102.2 573.377 103.8C574.71 105.267 575.643 106.733 576.177 108.2C576.71 109.667 576.977 111.133 576.977 112.6C576.977 115.133 576.177 117.467 574.577 119.6C572.977 121.6 571.043 123.267 568.777 124.6C565.977 126.2 562.777 127 559.177 127Z" fill="#0012A5" fill-opacity="0.06"/>
</svg>
