<svg width="825" height="216" viewBox="0 0 825 216" fill="none" xmlns="http://www.w3.org/2000/svg">
<path d="M26.2 163.8C22.0667 163.8 18 163.2 14 162C10 160.933 6.73333 159 4.2 156.2C1.53333 153.4 0.199999 149.6 0.199999 144.8C0.199999 143.867 0.599999 143.4 1.4 143.4C2.2 143.4 2.6 143.933 2.6 145C2.6 148.2 3.6 150.667 5.6 152.4C7.6 154.267 10 155.533 12.8 156.2C15.6 157 18.1333 157.4 20.4 157.4C21.8667 157.4 23.2667 157.333 24.6 157.2C26.0667 157.2 27.4667 157.133 28.8 157C36.5333 155.933 43.6667 153.533 50.2 149.8C56.8667 146.2 63 141.733 68.6 136.4C74.3333 131.067 79.7333 125.467 84.8 119.6C89.8667 113.6 94.7333 107.867 99.4 102.4C101.267 100.133 103.533 97.4 106.2 94.2C109 91 111.733 87.8 114.4 84.6C117.2 81.4 119.533 78.7333 121.4 76.6C111.133 79.1333 100.467 82.2667 89.4 86C78.3333 89.7333 67.4 92.5333 56.6 94.4C54.7333 94.6667 52.8 95.0667 50.8 95.6C48.9333 96.1333 47.0667 96.4 45.2 96.4C42.9333 96.4 40.7333 95.7333 38.6 94.4C37 93.3333 35.5333 91.8 34.2 89.8C32.8667 87.6667 32.2 85.5333 32.2 83.4C32.2 81.6667 33.4 79.9333 35.8 78.2C38.2 76.3333 41.2 74.5333 44.8 72.8C48.5333 70.9333 52.4 69.3333 56.4 68C60.5333 66.5333 64.3333 65.4 67.8 64.6C71.2667 63.6667 73.8667 63.2 75.6 63.2C77.2 63.2 78 63.4667 78 64C78 64.6667 77.0667 65.1333 75.2 65.4C73.2 65.8 70.6 66.4667 67.4 67.4C64.2 68.3333 60.8667 69.4667 57.4 70.8C54.0667 72 51 73.2667 48.2 74.6C44.7333 76.2 42.1333 77.8667 40.4 79.6C38.8 81.2 38 82.7333 38 84.2C38 86.8667 40.4667 88.2 45.4 88.2C46.0667 88.2 46.7333 88.2 47.4 88.2C48.0667 88.0667 48.8 87.9333 49.6 87.8C58.1333 86.4667 66.6667 84.7333 75.2 82.6C83.8667 80.3333 92.4 78.0667 100.8 75.8C109.2 73.5333 117.467 71.8 125.6 70.6L134.4 61C141.067 53.6667 147.333 46.4667 153.2 39.4C159.2 32.2 165.6 25 172.4 17.8C174.533 15.6667 176.333 13.5333 177.8 11.4C179.267 9.26666 181 7.13333 183 4.99999C185 5.93333 187 6.53333 189 6.79999C191 6.93333 192.8 7.33333 194.4 8C196 8.66667 197.067 10.2667 197.6 12.8C197.867 14.2667 197.6 16.1333 196.8 18.4C196 20.5333 195.2 22.1333 194.4 23.2C191.867 27.0667 189.133 31.4 186.2 36.2C183.4 40.8667 180.6 45.5333 177.8 50.2C175 54.8667 172.467 59.0667 170.2 62.8C168.067 66.5333 166.467 69.3333 165.4 71.2C166.867 71.7333 168.467 72.5333 170.2 73.6C171.933 74.6667 173.4 75.9333 174.6 77.4C175.933 78.7333 176.467 80.2667 176.2 82C177.933 83.6 178.8 85.4667 178.8 87.6C178.8 89.0667 177.867 90.5333 176 92C174.133 93.3333 171.933 94.7333 169.4 96.2C166.867 97.6667 164.467 99.1333 162.2 100.6C162.067 100.733 161.867 100.667 161.6 100.4C161.467 100 161.467 99.7333 161.6 99.6C163.467 98.1333 165.667 96.2 168.2 93.8C170.867 91.4 172.2 88 172.2 83.6C172.2 81.6 171.267 79.8 169.4 78.2C167.667 76.4667 165.8 75.2 163.8 74.4C159.933 81.3333 156.467 88.8667 153.4 97C150.467 105.133 148.267 112.467 146.8 119C146.667 120.067 146.467 121.133 146.2 122.2C146.067 123.267 146 124.333 146 125.4C146 126.733 146.2 128.2 146.6 129.8C147.133 131.267 148.267 132 150 132C152.667 132 155.333 130.733 158 128.2C160.667 125.533 162.667 123.2 164 121.2C164.533 120.533 165.067 120.067 165.6 119.8C166.133 119.533 166.2 119.867 165.8 120.8C165.533 121.467 165.2 122.133 164.8 122.8C164.4 123.467 164 124.133 163.6 124.8C162.8 125.867 161.867 127.4 160.8 129.4C159.733 131.4 158.533 133.2 157.2 134.8C155.867 136.4 154.333 137.2 152.6 137.2C151.533 137.2 150 136.6 148 135.4C146 134.333 144.4 133.333 143.2 132.4C142 131.333 141 129.933 140.2 128.2C139.533 126.333 139.067 124.733 138.8 123.4C138.8 123 138.733 122.6 138.6 122.2C138.6 121.8 138.6 121.333 138.6 120.8C138.6 116.933 139.4 112.4 141 107.2C142.6 101.867 144.6 96.2667 147 90.4C149.4 84.4 151.8 78.5333 154.2 72.8C153.533 72.8 152.867 72.8 152.2 72.8C151.533 72.6667 150.867 72.6 150.2 72.6C146.333 72.6 142.467 72.9333 138.6 73.6C134.867 74.1333 131.067 74.8 127.2 75.6C122.533 81.3333 117.267 88.0667 111.4 95.8C105.533 103.4 99.2 111.2 92.4 119.2C85.7333 127.067 78.6667 134.333 71.2 141C63.8667 147.8 56.4 153.267 48.8 157.4C41.2 161.667 33.6667 163.8 26.2 163.8ZM131.6 69.8C134.667 69.4 137.6 69.1333 140.4 69C143.2 68.8667 146.067 68.8 149 68.8H155.6C156.533 66.8 158.2 63.6 160.6 59.2C163.133 54.8 165.933 50 169 44.8C172.067 39.6 175 34.7333 177.8 30.2C180.6 25.6667 182.8 22.2667 184.4 20C185.333 18.5333 185.8 17.4667 185.8 16.8C185.8 15.8667 185 15.8 183.4 16.6C181.933 17.2667 180.267 18.4 178.4 20C175.6 22.4 172.067 25.8667 167.8 30.4C163.533 34.8 159 39.6 154.2 44.8C149.533 49.8667 145.133 54.6667 141 59.2C137 63.7333 133.867 67.2667 131.6 69.8ZM107.022 215.4C105.422 215.4 103.622 215.2 101.622 214.8C99.4885 214.533 97.6219 214.067 96.0219 213.4C95.0885 213 94.8219 212.6 95.2219 212.2C95.6219 211.8 96.0885 211.733 96.6219 212C98.0885 212.533 99.6219 212.867 101.222 213C102.689 213.133 104.222 213.2 105.822 213.2C109.955 213.2 114.355 211.867 119.022 209.2C123.555 206.533 128.222 203 133.022 198.6C137.689 194.2 142.289 189.4 146.822 184.2C152.689 177.533 158.422 169.8 164.022 161C169.489 152.333 174.489 143.4 179.022 134.2C183.555 125 187.222 116.333 190.022 108.2C192.955 100.067 194.622 93.2 195.022 87.6C191.689 92.8 188.622 97.6 185.822 102C183.155 106.267 179.955 111.067 176.222 116.4C175.822 116.933 175.489 117.2 175.222 117.2C175.089 117.2 174.955 117 174.822 116.6C174.822 116.067 174.889 115.667 175.022 115.4C178.489 110.733 181.689 105.667 184.622 100.2C187.689 94.7333 190.155 89.2 192.022 83.6C194.022 77.8667 194.955 72.3333 194.822 67C195.355 66.8667 195.822 66.8 196.222 66.8C196.755 66.8 197.222 66.8 197.622 66.8C202.289 66.8 204.622 68.8 204.622 72.8C204.622 74.4 204.089 76.4 203.022 78.8C202.355 80.4 201.355 81.8667 200.022 83.2C198.822 84.5333 197.489 85.8667 196.022 87.2C196.289 88.2667 196.489 89.4 196.622 90.6C196.755 91.8 196.822 93.1333 196.822 94.6C196.822 97.5333 196.489 100.867 195.822 104.6C195.289 108.333 194.289 112.8 192.822 118C196.022 111.333 199.755 104.933 204.022 98.8C208.422 92.6667 212.755 87.6667 217.022 83.8C221.422 79.9333 225.155 78 228.222 78C230.222 78 232.022 78.6667 233.622 80C235.355 81.3333 236.755 82.8667 237.822 84.6C238.889 86.2 239.422 87.6667 239.422 89C239.422 93.4 237.955 98.0667 235.022 103C232.089 107.8 228.289 112.333 223.622 116.6C219.089 120.867 214.289 124.333 209.222 127C204.289 129.533 199.755 130.8 195.622 130.8C194.822 130.8 193.955 130.733 193.022 130.6C192.222 130.333 191.089 129.333 189.622 127.6L188.622 130C183.689 140.8 178.289 151.6 172.422 162.4C166.689 173.2 160.022 182.933 152.422 191.6C144.822 199.867 137.489 205.867 130.422 209.6C123.222 213.467 115.422 215.4 107.022 215.4ZM190.822 126C193.089 126 195.355 125.533 197.622 124.6C200.022 123.533 201.889 122.6 203.222 121.8C206.955 119.667 210.822 116.8 214.822 113.2C218.955 109.467 222.689 105.467 226.022 101.2C229.355 96.9333 231.755 92.8667 233.222 89C233.622 87.5333 233.822 86.3333 233.822 85.4C233.822 82.0667 232.355 80.4 229.422 80.4C227.822 80.4 225.955 81.0667 223.822 82.4C221.822 83.7333 219.822 85.4 217.822 87.4C215.822 89.2667 214.022 91.0667 212.422 92.8C209.222 96.2667 206.089 100.133 203.022 104.4C200.089 108.533 197.489 112.533 195.222 116.4C193.089 120.267 191.622 123.467 190.822 126ZM169.912 215.4C168.312 215.4 166.512 215.2 164.512 214.8C162.379 214.533 160.512 214.067 158.912 213.4C157.979 213 157.712 212.6 158.112 212.2C158.512 211.8 158.979 211.733 159.512 212C160.979 212.533 162.512 212.867 164.112 213C165.579 213.133 167.112 213.2 168.712 213.2C172.846 213.2 177.246 211.867 181.912 209.2C186.446 206.533 191.112 203 195.912 198.6C200.579 194.2 205.179 189.4 209.712 184.2C215.579 177.533 221.312 169.8 226.912 161C232.379 152.333 237.379 143.4 241.913 134.2C246.446 125 250.113 116.333 252.913 108.2C255.846 100.067 257.513 93.2 257.913 87.6C254.579 92.8 251.513 97.6 248.713 102C246.046 106.267 242.846 111.067 239.113 116.4C238.713 116.933 238.379 117.2 238.113 117.2C237.979 117.2 237.846 117 237.713 116.6C237.713 116.067 237.779 115.667 237.913 115.4C241.379 110.733 244.579 105.667 247.512 100.2C250.579 94.7333 253.046 89.2 254.913 83.6C256.913 77.8667 257.846 72.3333 257.713 67C258.246 66.8667 258.713 66.8 259.113 66.8C259.646 66.8 260.113 66.8 260.513 66.8C265.179 66.8 267.513 68.8 267.513 72.8C267.513 74.4 266.979 76.4 265.913 78.8C265.246 80.4 264.246 81.8667 262.913 83.2C261.713 84.5333 260.379 85.8667 258.913 87.2C259.179 88.2667 259.379 89.4 259.513 90.6C259.646 91.8 259.713 93.1333 259.713 94.6C259.713 97.5333 259.379 100.867 258.713 104.6C258.179 108.333 257.179 112.8 255.713 118C258.913 111.333 262.646 104.933 266.913 98.8C271.313 92.6667 275.646 87.6667 279.913 83.8C284.313 79.9333 288.046 78 291.113 78C293.113 78 294.913 78.6667 296.513 80C298.246 81.3333 299.646 82.8667 300.713 84.6C301.779 86.2 302.313 87.6667 302.313 89C302.313 93.4 300.846 98.0667 297.913 103C294.979 107.8 291.179 112.333 286.513 116.6C281.979 120.867 277.179 124.333 272.113 127C267.179 129.533 262.646 130.8 258.513 130.8C257.713 130.8 256.846 130.733 255.913 130.6C255.113 130.333 253.979 129.333 252.513 127.6L251.513 130C246.579 140.8 241.179 151.6 235.313 162.4C229.579 173.2 222.912 182.933 215.312 191.6C207.712 199.867 200.379 205.867 193.312 209.6C186.112 213.467 178.312 215.4 169.912 215.4ZM253.713 126C255.979 126 258.246 125.533 260.513 124.6C262.913 123.533 264.779 122.6 266.113 121.8C269.846 119.667 273.713 116.8 277.713 113.2C281.846 109.467 285.579 105.467 288.913 101.2C292.246 96.9333 294.646 92.8667 296.113 89C296.513 87.5333 296.713 86.3333 296.713 85.4C296.713 82.0667 295.246 80.4 292.313 80.4C290.713 80.4 288.846 81.0667 286.713 82.4C284.713 83.7333 282.713 85.4 280.713 87.4C278.713 89.2667 276.913 91.0667 275.313 92.8C272.113 96.2667 268.979 100.133 265.913 104.4C262.979 108.533 260.379 112.533 258.113 116.4C255.979 120.267 254.513 123.467 253.713 126ZM318.203 135.6C314.87 135.6 312.003 134.4 309.603 132C307.203 129.733 306.003 126 306.003 120.8C306.003 114.133 307.736 106 311.203 96.4C314.67 86.8 319.07 76.7333 324.403 66.2C328.536 58.3333 332.936 50.8 337.603 43.6C342.27 36.4 346.87 30 351.403 24.4C355.936 18.6667 360.07 14.2 363.803 11C367.67 7.66666 370.803 5.99999 373.203 5.99999C375.47 5.99999 377.136 6.59999 378.203 7.79999C379.403 8.99999 380.403 10.3333 381.203 11.8C382.136 13.2667 383.336 14.4667 384.803 15.4C384.67 18.4667 383.07 22.3333 380.003 27C376.936 31.6667 373.27 36.7333 369.003 42.2C366.203 45.5333 362.203 50.2667 357.003 56.4C351.936 62.4 346.87 68.6 341.803 75C337.67 80.0667 334.003 84.9333 330.803 89.6C327.603 94.2667 325.136 98.1333 323.403 101.2C322.87 102.133 322.47 102.467 322.203 102.2C321.936 101.933 321.936 101.533 322.203 101C323.536 98.3333 325.603 94.9333 328.403 90.8C331.336 86.5333 334.603 82 338.203 77.2C341.803 72.4 345.336 67.8 348.803 63.4C352.27 58.8667 355.27 54.9333 357.803 51.6C360.336 48.2667 362.07 46.0667 363.003 45C365.003 42.4667 366.936 40.0667 368.803 37.8C370.67 35.4 372.336 33.1333 373.803 31C375.403 28.6 376.536 26.4667 377.203 24.6C378.003 22.7333 378.403 21.2 378.403 20C378.403 17.8667 377.536 16.8 375.803 16.8C374.603 16.8 373.07 17.4 371.203 18.6C369.47 19.8 367.47 21.7333 365.203 24.4C361.87 28.4 357.936 33.3333 353.403 39.2C349.003 44.9333 344.47 51.2667 339.803 58.2C335.136 65.1333 330.803 72.4 326.803 80C322.936 87.4667 319.736 95 317.203 102.6C314.803 110.067 313.603 117.267 313.603 124.2C313.603 127.4 314.27 129.667 315.603 131C316.936 132.333 318.536 133 320.403 133C322.403 133 324.47 132.467 326.603 131.4C328.87 130.2 330.736 128.733 332.203 127C334.47 124.6 336.67 121.933 338.803 119C341.07 116.067 343.07 113.333 344.803 110.8C346.67 108.133 348.003 106.133 348.803 104.8C349.203 104.133 349.603 103.8 350.003 103.8C350.67 103.8 350.67 104.333 350.003 105.4C347.87 109 345.336 112.8 342.403 116.8C339.603 120.667 337.07 124 334.803 126.8C332.67 129.467 330.07 131.6 327.003 133.2C324.07 134.8 321.136 135.6 318.203 135.6ZM312.628 195C310.761 195 308.761 194.333 306.628 193C304.361 191.667 302.495 190 301.028 188C299.428 186.133 298.628 184.2 298.628 182.2C298.628 180.067 299.828 177.4 302.228 174.2C304.628 171 307.561 167.733 311.028 164.4C314.495 161.067 317.961 158 321.428 155.2C324.761 152.4 327.428 150.267 329.428 148.8C333.561 146 337.361 143.6 340.828 141.6C344.428 139.6 347.961 137.733 351.428 136C354.895 134.4 359.161 132.6 364.228 130.6C369.295 128.467 373.895 126.733 378.028 125.4C379.095 123.533 380.161 120.933 381.228 117.6C382.295 114.133 383.228 110.6 384.028 107C384.828 103.4 385.228 100.533 385.228 98.4C385.228 97.7333 385.161 97 385.028 96.2C384.895 95.4 384.561 95 384.028 95C383.495 95 382.895 95.3333 382.228 96C380.628 97.7333 378.561 100.4 376.028 104C373.495 107.467 370.761 111.133 367.828 115C364.895 118.733 362.028 122 359.228 124.8C356.561 127.467 354.161 128.8 352.028 128.8C349.361 128.8 347.295 128.267 345.828 127.2C344.361 126.267 343.628 124.467 343.628 121.8C343.628 119.4 344.095 116.8 345.028 114C345.961 111.2 347.028 108.6 348.228 106.2C349.428 103.8 350.361 102.067 351.028 101C350.361 101.4 350.028 101.467 350.028 101.2C350.161 100.933 350.295 100.733 350.428 100.6C350.561 100.067 350.895 99.4 351.428 98.6C354.895 93.5333 357.895 89.5333 360.428 86.6C363.095 83.6667 364.895 82.2 365.828 82.2C366.895 82.2 367.895 82.6 368.828 83.4C369.895 84.0667 371.095 84.9333 372.428 86C370.961 87.2 368.895 89.4667 366.228 92.8C363.561 96.1333 360.828 99.8667 358.028 104C355.361 108 353.161 111.867 351.428 115.6C350.628 117.2 350.028 118.6 349.628 119.8C349.361 121 349.228 121.933 349.228 122.6C349.228 124.2 349.895 125 351.228 125C352.428 125 353.895 124.467 355.628 123.4C357.361 122.333 359.028 120.933 360.628 119.2C365.695 114 370.295 108.533 374.428 102.8C378.561 97.0667 382.561 91.2667 386.428 85.4C386.695 85.4 386.961 85.4 387.228 85.4C387.628 85.2667 387.961 85.2 388.228 85.2C390.095 85.2 391.561 85.7333 392.628 86.8C393.428 87.6 393.828 89.2667 393.828 91.8C393.828 94.3333 393.428 97.4 392.628 101C391.961 104.6 391.095 108.2 390.028 111.8C389.095 115.267 388.161 118.333 387.228 121C386.295 123.667 385.628 125.333 385.228 126C388.828 126.533 391.495 128 393.228 130.4C395.095 132.667 396.028 135.333 396.028 138.4C396.028 138.933 396.028 139.467 396.028 140C396.028 140.533 395.961 141.067 395.828 141.6C395.695 142.533 395.295 142.933 394.628 142.8C394.095 142.8 393.895 142.4 394.028 141.6C394.295 138.133 393.828 135.067 392.628 132.4C391.428 129.867 388.561 128.6 384.028 128.6C381.628 133.267 378.428 138.533 374.428 144.4C370.561 150.267 366.095 156.133 361.028 162C356.095 168 350.828 173.467 345.228 178.4C339.761 183.467 334.228 187.467 328.628 190.4C323.028 193.467 317.695 195 312.628 195ZM310.428 191.2C313.628 191.2 317.961 189.667 323.428 186.6C327.295 184.467 331.428 181.467 335.828 177.6C340.228 173.733 344.561 169.4 348.828 164.6C353.228 159.933 357.295 155.267 361.028 150.6C364.895 145.933 368.161 141.6 370.828 137.6C373.495 133.733 375.361 130.733 376.428 128.6C372.828 129.4 368.361 130.933 363.028 133.2C357.695 135.467 352.028 138.333 346.028 141.8C340.161 145.4 334.428 149.4 328.828 153.8C323.228 158.2 318.295 162.867 314.028 167.8C311.628 170.733 309.628 173.8 308.028 177C306.295 180.333 305.428 183.267 305.428 185.8C305.428 189.4 307.095 191.2 310.428 191.2ZM515.653 141.8C513.653 141.8 511.453 141.133 509.053 139.8C506.786 138.467 505.653 136.2 505.653 133C505.653 131.267 507.053 128.333 509.853 124.2C512.653 119.933 516.12 114.933 520.253 109.2C524.52 103.467 528.786 97.5333 533.053 91.4C535.586 87.8 538.986 83.2667 543.253 77.8C547.52 72.2 552.12 66.2667 557.053 60C562.12 53.6 566.92 47.3333 571.453 41.2C576.12 35.0667 580.053 29.5333 583.253 24.6C584.986 21.9333 586.386 19.4 587.453 17C588.52 14.6 589.053 12.5333 589.053 10.8C589.053 8.26667 587.92 6.33333 585.653 4.99999C583.386 3.53333 579.586 2.79999 574.253 2.79999C569.986 2.79999 564.053 3.46666 556.453 4.79999C548.986 5.99999 540.653 7.79999 531.453 10.2C522.386 12.6 513.12 15.4 503.653 18.6C495.786 21.2667 488.053 24.2 480.453 27.4C472.986 30.6 466.186 33.9333 460.053 37.4C453.92 40.7333 448.92 44.0667 445.053 47.4C444.12 48.3333 443.253 49.4667 442.453 50.8C441.786 52 441.453 53.1333 441.453 54.2C441.453 55.1333 441.853 56.0667 442.653 57C443.453 57.8 444.92 58.2 447.053 58.2C448.786 58.2 449.653 58.5333 449.653 59.2C449.653 59.4667 449.32 59.7333 448.653 60C447.986 60.2667 447.253 60.3333 446.453 60.2C440.72 58.2 436.586 56 434.053 53.6C431.653 51.2 430.453 48.7333 430.453 46.2C430.453 44.2 432.453 41.8 436.453 39C440.453 36.2 445.853 33.2667 452.653 30.2C459.453 27 467.12 23.8667 475.653 20.8C484.32 17.6 493.253 14.6667 502.453 12C514.32 8.53333 526.12 5.73333 537.853 3.6C549.586 1.33333 560.12 0.199992 569.453 0.199992C578.386 0.199992 585.586 1.46666 591.053 3.99999C596.653 6.39999 599.453 10.4667 599.453 16.2C599.453 18.7333 598.12 22.2667 595.453 26.8C592.92 31.2 589.453 36.2667 585.053 42C580.786 47.6 576.12 53.4667 571.053 59.6C565.986 65.7333 560.986 71.8 556.053 77.8C551.12 83.6667 546.653 89.0667 542.653 94C538.653 98.9333 535.586 103.067 533.453 106.4C532.92 107.467 532.653 108.4 532.653 109.2V109.4C532.653 110.2 532.92 110.667 533.453 110.8C533.986 110.933 534.52 110.667 535.053 110C537.72 106.933 541.52 102.867 546.453 97.8C551.386 92.7333 556.986 87.2 563.253 81.2C569.52 75.2 575.986 69.4 582.653 63.8C589.453 58.0667 596.053 53.1333 602.453 49C607.12 45.9333 611.853 43.5333 616.653 41.8C621.453 40.0667 625.386 39.2 628.453 39.2C630.72 39.2 632.52 40.4 633.853 42.8C635.32 45.2 636.053 47.0667 636.053 48.4C636.053 50.8 635.053 54 633.053 58C631.053 62 628.52 66.5333 625.453 71.6C622.52 76.5333 619.386 81.8 616.053 87.4C612.853 93 609.92 98.6667 607.253 104.4C604.586 110 602.72 115.467 601.653 120.8C601.52 121.333 601.386 121.867 601.253 122.4C601.253 122.933 601.253 123.467 601.253 124C601.253 126.533 602.186 127.8 604.053 127.8C604.32 127.8 604.586 127.8 604.853 127.8C605.253 127.667 605.653 127.533 606.053 127.4C608.453 126.6 610.653 125.2 612.653 123.2C614.786 121.067 616.52 118.8 617.853 116.4C618.253 115.733 618.653 115.533 619.053 115.8C619.453 115.933 619.52 116.333 619.253 117C618.453 118.333 617.653 119.667 616.853 121C616.186 122.333 615.52 123.733 614.853 125.2C613.653 127.333 612.386 129.067 611.053 130.4C609.853 131.6 608.586 132.2 607.253 132.2C606.453 132.2 605.186 131.867 603.453 131.2C601.72 130.4 599.72 129.133 597.453 127.4C595.586 126.067 594.653 123.667 594.653 120.2C594.653 117.267 595.253 114 596.453 110.4C597.653 106.667 599.053 103 600.653 99.4C602.386 95.6667 603.986 92.3333 605.453 89.4C606.92 86.4667 607.986 84.3333 608.653 83C610.92 78.8667 613.386 74.2667 616.053 69.2C618.853 64.1333 621.186 59.2667 623.053 54.6C623.853 52.7333 624.253 51.2 624.253 50C624.253 48 623.586 46.6667 622.253 46C620.92 45.2 619.52 44.8 618.053 44.8C614.32 44.9333 609.586 46.9333 603.853 50.8C598.12 54.6667 591.853 59.7333 585.053 66C578.253 72.1333 571.386 78.8667 564.453 86.2C557.52 93.5333 550.986 100.8 544.853 108C538.72 115.2 533.386 121.733 528.853 127.6C524.32 133.333 521.053 137.733 519.053 140.8C518.386 141.467 517.253 141.8 515.653 141.8ZM643.003 135C639.136 135 635.803 133.533 633.003 130.6C630.336 127.667 629.003 123.667 629.003 118.6C629.003 116.733 629.203 114.733 629.603 112.6C630.136 110.333 630.87 108 631.803 105.6C633.803 100.933 636.536 96.4667 640.003 92.2C643.603 87.9333 647.47 84.4 651.603 81.6C655.736 78.8 659.67 77.4 663.403 77.4C663.803 77.4 664.27 77.6 664.803 78C665.336 78.2667 665.736 78.5333 666.003 78.8L667.003 79.8C668.603 81.4 670.136 82.3333 671.603 82.6C673.203 82.8667 674.47 83.6667 675.403 85C677.003 87.5333 677.803 90.6 677.803 94.2C677.803 99.1333 676.27 104.533 673.203 110.4C670.27 116.133 666.27 121.333 661.203 126C658.67 128.267 655.87 130.333 652.803 132.2C649.736 134.067 646.47 135 643.003 135ZM644.403 132.8C647.603 132.8 650.87 131.733 654.203 129.6C657.536 127.333 660.603 124.4 663.403 120.8C666.336 117.2 668.803 113.4 670.803 109.4C672.936 105.4 674.27 101.6 674.803 98C674.936 97.3333 675.003 96.6667 675.003 96C675.136 95.2 675.203 94.5333 675.203 94C675.203 90.4 674.336 87.8 672.603 86.2C670.87 84.4667 668.803 83.6 666.403 83.6C663.87 83.6 661.27 84.4 658.603 86C656.07 87.4667 652.87 90.5333 649.003 95.2C645.136 99.7333 641.67 104.467 638.603 109.4C635.803 113.8 634.403 118.067 634.403 122.2C634.403 125.133 635.203 127.667 636.803 129.8C638.536 131.8 641.07 132.8 644.403 132.8ZM695.747 134.8C691.214 134.8 688.014 133.333 686.147 130.4C684.414 127.467 683.547 124.067 683.547 120.2C683.547 117.133 683.947 114.067 684.747 111C685.547 107.933 686.614 105.133 687.947 102.6C686.88 101.933 686.48 101.4 686.747 101C687.814 99.6667 689.014 98 690.347 96C691.68 94 693.08 92.0667 694.547 90.2C696.147 88.2 697.614 86.4667 698.947 85C700.28 83.5333 701.414 82.7333 702.347 82.6C703.014 82.3333 703.547 82.1333 703.947 82C704.347 81.8667 704.68 81.8 704.947 81.8C705.214 81.8 705.68 82.1333 706.347 82.8C706.88 83.4667 707.347 84.1333 707.747 84.8C708.28 85.4667 709.014 85.9333 709.947 86.2C707.414 89 704.947 92.0667 702.547 95.4C700.28 98.6 698.147 101.933 696.147 105.4C694.014 109.133 692.48 112.467 691.547 115.4C690.747 118.333 690.347 120.933 690.347 123.2C690.347 124.267 690.48 125.267 690.747 126.2C691.014 127.133 691.28 127.933 691.547 128.6C692.48 130.6 694.214 131.6 696.747 131.6C699.28 131.6 701.414 130.8 703.147 129.2C704.88 127.867 706.68 125.867 708.547 123.2C710.414 120.533 712.08 118 713.547 115.6C715.147 113.067 716.147 111.533 716.547 111C717.08 110.2 718.347 108.4 720.347 105.6C722.347 102.667 724.547 99.4667 726.947 96C729.347 92.5333 731.547 89.4667 733.547 86.8C735.547 84.1333 736.814 82.6667 737.347 82.4C738.414 82 739.214 81.8 739.747 81.8C740.28 81.8 740.68 82 740.947 82.4C741.214 82.8 741.614 83.3333 742.147 84C742.947 85.2 743.947 86.0667 745.147 86.6C742.48 89.2667 739.947 92.2667 737.547 95.6C735.28 98.9333 733.147 102.333 731.147 105.8C728.88 109.933 727.214 113.533 726.147 116.6C725.214 119.533 724.747 122 724.747 124C724.747 125.733 725.014 127.067 725.547 128C727.014 130.667 729.08 132 731.747 132C733.48 132 734.947 131.467 736.147 130.4C738.814 128.4 741.547 125.333 744.347 121.2C747.28 116.933 750.147 112.333 752.947 107.4C755.88 102.333 758.547 97.4667 760.947 92.8C763.347 88 765.347 84.1333 766.947 81.2C769.88 75.7333 772.88 70.2667 775.947 64.8C779.147 59.2 782.68 54.1333 786.547 49.6C790.547 44.9333 795.08 41.2667 800.147 38.6C805.347 35.8 811.347 34.4 818.147 34.4C818.947 34.4 819.747 34.4 820.547 34.4C821.48 34.4 822.414 34.4667 823.347 34.6C824.28 34.7333 824.747 35 824.747 35.4C824.88 35.6667 824.414 35.8 823.347 35.8C818.014 35.8 812.68 37.4 807.347 40.6C802.014 43.6667 796.88 47.6667 791.947 52.6C787.147 57.5333 782.814 62.7333 778.947 68.2C775.08 73.5333 771.947 78.4 769.547 82.8C768.08 85.4667 766.214 88.9333 763.947 93.2C761.814 97.4667 759.347 102 756.547 106.8C753.88 111.6 751.014 116.133 747.947 120.4C745.014 124.667 742.08 128.133 739.147 130.8C736.214 133.467 733.414 134.8 730.747 134.8C726.347 134.8 723.214 133.333 721.347 130.4C719.614 127.467 718.747 123.533 718.747 118.6C718.747 117.533 718.747 116.467 718.747 115.4C718.88 114.333 719.014 113.267 719.147 112.2C716.347 116.6 713.88 120.2 711.747 123C709.747 125.667 707.814 127.933 705.947 129.8C704.214 131.533 702.414 132.8 700.547 133.6C698.814 134.4 697.214 134.8 695.747 134.8Z" fill="#0012A5" fill-opacity="0.06"/>
</svg>
