<svg width="426" height="181" viewBox="0 0 426 181" fill="none" xmlns="http://www.w3.org/2000/svg">
<path d="M53.6 137.8C50.2667 137.8 47.1333 137.533 44.2 137C41.2667 136.6 38.6667 135.867 36.4 134.8C33.0667 133.2 30.1333 130.933 27.6 128C25.0667 125.067 23.0667 121.867 21.6 118.4C20.4 115.333 19.8 112.533 19.8 110C19.8 105.467 21.0667 101.6 23.6 98.4C26.2667 95.0667 29.4667 92.2667 33.2 90C37.0667 87.6 40.7333 85.7333 44.2 84.4C45.6667 83.7333 46.3333 83.6667 46.2 84.2C46.2 84.7333 45.8667 85.1333 45.2 85.4C41.8667 86.8667 38.6 89.2667 35.4 92.6C32.2 95.9333 29.6 99.6667 27.6 103.8C25.6 107.933 24.6 112 24.6 116C24.6 120.667 26.4 124.667 30 128C33.7333 131.333 40.0667 133 49 133C53.4 133 58.0667 132.467 63 131.4C68.0667 130.2 73 128.8 77.8 127.2C82.7333 125.467 87.2 123.8 91.2 122.2C93.0667 121.4 95.7333 120.133 99.2 118.4C102.8 116.533 106.6 114.4 110.6 112C114.733 109.467 118.667 106.8 122.4 104C126.267 101.2 129.4 98.4 131.8 95.6C134.2 92.8 135.4 90.2 135.4 87.8C135.4 85.5333 134 83.8 131.2 82.6C128.533 81.2667 125.133 80.3333 121 79.8C117 79.2667 113 79 109 79C103.133 79 98.8667 79.3333 96.2 80C94.0667 80.5333 91.7333 81.7333 89.2 83.6C86.6667 85.3333 84.3333 86.2 82.2 86.2C80.8667 86.2 79.7333 85.7333 78.8 84.8C78 83.8667 77.6 82.8 77.6 81.6C77.6 80.5333 78 79.5333 78.8 78.6C79.7333 77.5333 81.2667 76.8 83.4 76.4C84.7333 76.1333 86.1333 76 87.6 76C89.2 75.8667 90.8 75.7333 92.4 75.6C94 75.4667 95.5333 75.3333 97 75.2C98.6 74.9333 100.067 74.5333 101.4 74C106.6 72.1333 111.867 69.9333 117.2 67.4C122.533 64.7333 127.533 61.6 132.2 58C136.867 54.2667 140.733 49.9333 143.8 45C145.4 42.2 146.2 39.4667 146.2 36.8C146.2 33.4667 144.8 30.8 142 28.8C139.2 26.6667 135.6 25.0667 131.2 24C126.8 22.8 122.133 22 117.2 21.6C114.533 23.7333 112.8 25.3333 112 26.4C108.8 29.8667 104.867 34.2667 100.2 39.6C95.5333 44.8 90.6667 50.6 85.6 57C80.5333 63.2667 75.8 69.7333 71.4 76.4C67 82.9333 63.4 89.4 60.6 95.8C57.8 102.2 56.4 108.067 56.4 113.4C56.4 115.8 56.8 118.067 57.6 120.2C58.4 122.333 60.2667 123.533 63.2 123.8C63.7333 123.8 63.8667 124 63.6 124.4C63.4667 124.667 63.0667 124.8 62.4 124.8C59.4667 124.8 56.8667 123.333 54.6 120.4C52.3333 117.467 51.2 113.733 51.2 109.2C51.2 104.8 52.3333 99.6667 54.6 93.8C57 87.9333 60.1333 81.7333 64 75.2C67.8667 68.6667 72.1333 62.1333 76.8 55.6C81.6 48.9333 86.4667 42.6 91.4 36.6C96.3333 30.6 100.933 25.3333 105.2 20.8C101.733 20.6667 97.6 20.7333 92.8 21C88 21.1333 83.1333 21.3333 78.2 21.6C73.4 21.8667 69.0667 22.2 65.2 22.6C61.4667 22.8667 58.8667 23.1333 57.4 23.4C41.6667 26.3333 29.4667 29.8667 20.8 34C12.2667 38 8 42.1333 8 46.4C8 47.2 8.06667 47.8 8.2 48.2C8.46667 48.8667 8.93333 49.6667 9.6 50.6C10.4 51.4 11.0667 52 11.6 52.4C11.7333 52.5333 11.8 52.7333 11.8 53C11.8 53.2667 11.6667 53.5333 11.4 53.8C11.1333 54.0667 10.8 54.1333 10.4 54C7.2 52.2667 4.66667 49.8667 2.8 46.8C1.06667 43.7333 0.2 41.4 0.2 39.8C0.2 36.4667 2.8 33.4 8 30.6C13.2 27.8 19.9333 25.3333 28.2 23.2C36.4667 21.0667 45.2 19.4667 54.4 18.4C59.3333 17.7333 64.9333 17.2 71.2 16.8C77.6 16.4 84.2 16.2 91 16.2C96.7333 16.2 102.267 16.4 107.6 16.8L109.2 15.2C108.267 14.2667 107.8 13.4 107.8 12.6C107.8 11.8 108.133 11.0667 108.8 10.4C109.467 9.6 110.267 8.73333 111.2 7.79999C112.667 6.46666 114.467 5.13333 116.6 3.79999C118.733 2.46666 120.333 1.2 121.4 -4.29153e-06C123.267 0.133327 125.267 0.666662 127.4 1.6C129.667 2.4 130.8 3.86666 130.8 5.99999C130.8 6.26666 130.733 6.59999 130.6 6.99999C130.6 7.26666 130.533 7.6 130.4 8C130.133 8.93333 129.133 10.2667 127.4 12C125.8 13.7333 123.667 15.8 121 18.2C124.733 19 128.6 20 132.6 21.2C136.733 22.4 140.333 24.2 143.4 26.6C146.467 28.8667 148.267 32.1333 148.8 36.4C150.933 39.3333 152 42.2 152 45C152 49 150.333 52.7333 147 56.2C143.667 59.6667 139.533 62.7333 134.6 65.4C129.8 67.9333 124.933 70 120 71.6C115.2 73.2 111.267 74.1333 108.2 74.4C107.667 74.5333 107.4 74.7333 107.4 75C107.533 75.2667 108 75.4 108.8 75.4C112.267 75.4 116.2 75.8 120.6 76.6C125 77.2667 128.867 78.3333 132.2 79.8C135.667 81.2667 137.467 83.1333 137.6 85.4V85.6C137.6 86.2667 137.867 86.9333 138.4 87.6C138.933 88.1333 139.4 88.6667 139.8 89.2C141.533 90.9333 142.4 92.6 142.4 94.2C142.4 95.4 142.067 96.5333 141.4 97.6C137.667 103.733 131.8 109.733 123.8 115.6C115.933 121.333 107.067 126 97.2 129.6C93.8667 130.8 89.7333 132 84.8 133.2C79.8667 134.533 74.6667 135.6 69.2 136.4C63.8667 137.333 58.6667 137.8 53.6 137.8ZM160.684 135.6C157.084 135.6 153.751 134.333 150.684 131.8C147.751 129.133 146.284 125.267 146.284 120.2C146.284 116.2 147.351 111.867 149.484 107.2C151.618 102.533 154.351 98.0667 157.684 93.8C161.151 89.5333 164.818 86 168.684 83.2C172.551 80.4 176.151 78.9333 179.484 78.8C180.018 79.3333 180.618 79.7333 181.284 80C182.084 80.2667 182.818 80.5333 183.484 80.8L188.684 82C191.618 82.8 193.084 84.6667 193.084 87.6C193.084 89.3333 192.484 91.2 191.284 93.2C190.218 95.2 188.551 96.9333 186.284 98.4C185.084 99.2 183.751 100 182.284 100.8C180.951 101.6 179.551 102.4 178.084 103.2L169.084 108C166.284 109.467 163.818 111.067 161.684 112.8C159.551 114.4 158.018 116.133 157.084 118C157.084 118 156.884 118.067 156.484 118.2C156.218 118.2 156.151 117.933 156.284 117.4C157.218 115.133 159.018 112.867 161.684 110.6C164.484 108.2 167.284 106.133 170.084 104.4C171.418 103.333 172.751 102.4 174.084 101.6C175.551 100.8 176.951 99.9333 178.284 99C179.618 98.0667 180.884 97.1333 182.084 96.2C183.418 95.1333 184.551 94.1333 185.484 93.2C186.551 92.1333 187.284 91.0667 187.684 90C188.218 88.9333 188.484 88 188.484 87.2C188.484 84.6667 187.018 83.4 184.084 83.4C182.218 83.4 180.084 84.2 177.684 85.8C174.751 87.8 171.951 90.2 169.284 93C166.618 95.6667 164.084 98.6 161.684 101.8C159.151 105.267 156.884 109.267 154.884 113.8C153.018 118.333 152.084 122.133 152.084 125.2C152.084 128.267 152.951 130.467 154.684 131.8C156.551 133 158.684 133.6 161.084 133.6C164.418 133.6 167.618 132.733 170.684 131C172.951 129.667 175.084 128 177.084 126C179.084 123.867 180.751 122 182.084 120.4C183.151 119.067 184.351 117.467 185.684 115.6C187.151 113.733 188.151 112.333 188.684 111.4C188.951 111.133 189.151 111.133 189.284 111.4C189.418 111.667 189.484 111.867 189.484 112C188.951 112.933 188.018 114.467 186.684 116.6C185.484 118.6 183.684 121.133 181.284 124.2C178.484 127.8 175.551 130.6 172.484 132.6C169.418 134.6 165.484 135.6 160.684 135.6ZM221.881 135.6C218.415 135.6 215.948 134.6 214.481 132.6C213.148 130.467 212.481 128 212.481 125.2C212.481 122 212.948 118.8 213.881 115.6C214.948 112.267 216.081 109.267 217.281 106.6C218.615 103.8 219.681 101.667 220.481 100.2C222.748 95.9333 223.881 93.1333 223.881 91.8C223.881 90.3333 223.215 89.8667 221.881 90.4C220.815 90.8 219.348 91.9333 217.481 93.8C215.615 95.6667 213.681 97.8 211.681 100.2C209.681 102.6 207.881 104.8 206.281 106.8C204.815 108.8 203.881 110.133 203.481 110.8C199.748 116.133 197.148 120.533 195.681 124C194.215 127.467 193.148 130 192.481 131.6C192.215 132.267 191.481 132.6 190.281 132.6C189.081 132.6 187.881 132.133 186.681 131.2C185.481 130.133 184.881 128.6 184.881 126.6C184.881 125.533 185.481 123.667 186.681 121C187.881 118.2 189.348 114.933 191.081 111.2C192.681 107.6 194.281 104 195.881 100.4C197.481 96.6667 198.748 93.7333 199.681 91.6C198.748 90.8 198.281 90.2 198.281 89.8C198.281 89.4 198.348 89.0667 198.481 88.8C198.748 88.1333 199.281 87.0667 200.081 85.6C200.881 84 201.681 82.4667 202.481 81C203.281 79.4 203.815 78.4 204.081 78C204.481 77.7333 205.481 77.2667 207.081 76.6C208.815 75.9333 210.481 75.6 212.081 75.6H212.881C214.481 75.6 215.281 76.0667 215.281 77C215.281 77.9333 214.815 79.1333 213.881 80.6C213.481 81.2667 212.548 83 211.081 85.8C209.615 88.4667 207.948 91.5333 206.081 95C204.215 98.4667 202.481 101.8 200.881 105C199.415 108.067 198.348 110.4 197.681 112C197.281 113.2 197.081 114.4 197.081 115.6C197.215 116.667 197.548 116.8 198.081 116C201.815 110.4 205.281 105.6 208.481 101.6C211.681 97.6 214.881 93.8667 218.081 90.4C221.281 86.9333 224.815 83.3333 228.681 79.6C230.015 80.1333 231.415 80.4 232.881 80.4C234.348 80.4 235.615 80.8 236.681 81.6C237.215 82 237.481 82.6667 237.481 83.6C237.481 85.4667 236.348 88.2667 234.081 92C231.948 95.6 229.548 99.6667 226.881 104.2C224.881 107.667 222.881 111.667 220.881 116.2C218.881 120.733 217.881 124.667 217.881 128C217.881 129.733 218.148 131.2 218.681 132.4C219.348 133.467 220.348 134 221.681 134C222.881 134 224.215 133.533 225.681 132.6C226.748 131.933 229.081 129.733 232.681 126C236.281 122.133 240.215 116.933 244.481 110.4C244.881 110 245.148 109.8 245.281 109.8C245.548 109.8 245.681 109.933 245.681 110.2C245.681 110.467 245.481 111 245.081 111.8C240.681 119.267 236.281 125.133 231.881 129.4C227.615 133.533 224.281 135.6 221.881 135.6ZM281.755 75.2C279.755 74.4 278.021 73.1333 276.555 71.4C275.221 69.5333 274.755 67.5333 275.155 65.4C275.421 64.2 275.755 63.4667 276.155 63.2C276.688 62.8 278.088 62.5333 280.355 62.4L290.955 60.6C292.155 60.3333 292.755 60.3333 292.755 60.6C292.755 61.1333 292.288 61.5333 291.355 61.8C289.221 62.3333 287.355 63.1333 285.755 64.2C284.155 65.2667 282.821 66.7333 281.755 68.6C281.488 69 281.355 69.6 281.355 70.4C281.355 71.2 281.488 72 281.755 72.8C282.155 73.4667 282.555 74.0667 282.955 74.6C283.355 75.1333 283.355 75.4 282.955 75.4C282.688 75.4 282.288 75.3333 281.755 75.2ZM258.355 135.8C253.821 135.8 250.621 134.4 248.755 131.6C247.021 128.667 246.155 125.2 246.155 121.2C246.155 118.133 246.555 115 247.355 111.8C248.288 108.6 249.421 105.733 250.755 103.2C249.555 102.667 249.155 102.2 249.555 101.8C250.488 100.467 251.621 98.8 252.955 96.8C254.421 94.8 255.888 92.8 257.355 90.8C259.088 88.5333 260.621 86.6667 261.955 85.2C263.421 83.7333 264.955 83 266.555 83C267.621 83 268.555 83.3333 269.355 84C270.288 84.6667 271.221 85.3333 272.155 86C269.088 89.2 266.021 93.1333 262.955 97.8C259.888 102.467 257.355 107.4 255.355 112.6C253.488 117.667 252.555 122.667 252.555 127.6C252.555 129.733 253.021 131.267 253.955 132.2C255.021 133 256.288 133.4 257.755 133.4C260.821 133.4 263.555 132.333 265.955 130.2C268.488 127.933 271.421 124.667 274.755 120.4C278.221 116 281.488 111.4 284.555 106.6C285.355 105.533 285.955 104.933 286.355 104.8C286.888 104.667 286.955 104.933 286.555 105.6C285.488 107.733 283.821 110.467 281.555 113.8C279.421 117 277.155 120.2 274.755 123.4C272.355 126.6 270.288 129.067 268.555 130.8C266.821 132.533 265.021 133.8 263.155 134.6C261.421 135.4 259.821 135.8 258.355 135.8ZM224.525 180.2C223.058 180.2 221.658 180 220.325 179.6C218.858 179.333 217.525 179 216.325 178.6C215.658 178.333 215.458 178 215.725 177.6C215.992 177.2 216.458 177.133 217.125 177.4C218.192 177.8 219.458 178.133 220.925 178.4C222.258 178.667 223.592 178.8 224.925 178.8C233.592 178.8 241.592 175.6 248.925 169.2C256.258 162.8 262.992 154.533 269.125 144.4C273.392 137.333 277.458 129.533 281.325 121C285.192 112.467 288.925 103.8 292.525 95C296.258 86.2 299.792 78 303.125 70.4C300.058 70.4 297.258 70.4 294.725 70.4C292.192 70.4 289.725 70.4667 287.325 70.6C286.392 70.6 285.792 70.4 285.525 70C285.392 69.6 285.325 69.3333 285.325 69.2C285.325 68.2667 285.858 67.8 286.925 67.8H304.325C308.592 58.3333 312.858 49.4 317.125 41C321.392 32.4667 325.792 25 330.325 18.6C332.592 15.4 334.858 12.8 337.125 10.8C339.525 8.79999 342.525 7.13332 346.125 5.79999C347.325 7.13332 348.858 8.33333 350.725 9.39999C352.592 10.3333 354.458 11.2667 356.325 12.2C358.192 13.1333 359.658 14.4 360.725 16C361.258 16.6667 361.525 17.4667 361.525 18.4C361.525 19.6 360.992 20.9333 359.925 22.4C358.858 23.8667 357.392 25.5333 355.525 27.4C354.058 29 351.458 31.9333 347.725 36.2C344.125 40.3333 340.058 45.2 335.525 50.8C331.125 56.2667 326.858 61.8667 322.725 67.6H347.325C349.058 67.6 349.925 67.7333 349.925 68C349.925 68.4 349.458 68.8667 348.525 69.4C347.592 69.9333 346.658 70.2667 345.725 70.4C342.792 70.5333 339.925 70.6 337.125 70.6C334.325 70.6 331.392 70.6 328.325 70.6H320.925C318.658 74.0667 316.858 77.3333 315.525 80.4C314.192 83.3333 313.725 85.8 314.125 87.8C314.258 88.0667 314.192 88.3333 313.925 88.6C313.658 88.7333 313.458 88.5333 313.325 88C313.192 87.6 313.125 86.9333 313.125 86C313.125 82.4 314.792 77.2667 318.125 70.6H311.725C307.192 80.3333 302.992 90.4 299.125 100.8C295.392 111.2 291.192 121.333 286.525 131.2C281.992 141.067 276.325 150.333 269.525 159C264.325 165.4 257.858 170.533 250.125 174.4C242.258 178.267 233.725 180.2 224.525 180.2ZM313.125 67.8L319.525 67.6C322.458 62.4 325.792 57.2 329.525 52C333.258 46.8 336.858 42.0667 340.325 37.8C343.792 33.5333 346.525 30.2667 348.525 28C351.725 24.1333 353.725 21.1333 354.525 19C354.792 18.2 354.925 17.5333 354.925 17C354.925 15.4 354.058 14.6 352.325 14.6C348.592 14.6 343.925 17.7333 338.325 24C334.992 27.7333 331.058 33.6667 326.525 41.8C321.992 49.8 317.525 58.4667 313.125 67.8ZM352.325 75.2C350.325 74.4 348.592 73.1333 347.125 71.4C345.792 69.5333 345.325 67.5333 345.725 65.4C345.992 64.2 346.325 63.4667 346.725 63.2C347.258 62.8 348.658 62.5333 350.925 62.4L361.525 60.6C362.725 60.3333 363.325 60.3333 363.325 60.6C363.325 61.1333 362.858 61.5333 361.925 61.8C359.792 62.3333 357.925 63.1333 356.325 64.2C354.725 65.2667 353.392 66.7333 352.325 68.6C352.058 69 351.925 69.6 351.925 70.4C351.925 71.2 352.058 72 352.325 72.8C352.725 73.4667 353.125 74.0667 353.525 74.6C353.925 75.1333 353.925 75.4 353.525 75.4C353.258 75.4 352.858 75.3333 352.325 75.2ZM328.925 135.8C324.392 135.8 321.192 134.4 319.325 131.6C317.592 128.667 316.725 125.2 316.725 121.2C316.725 118.133 317.125 115 317.925 111.8C318.858 108.6 319.992 105.733 321.325 103.2C320.125 102.667 319.725 102.2 320.125 101.8C321.058 100.467 322.192 98.8 323.525 96.8C324.992 94.8 326.458 92.8 327.925 90.8C329.658 88.5333 331.192 86.6667 332.525 85.2C333.992 83.7333 335.525 83 337.125 83C338.192 83 339.125 83.3333 339.925 84C340.858 84.6667 341.792 85.3333 342.725 86C339.658 89.2 336.592 93.1333 333.525 97.8C330.458 102.467 327.925 107.4 325.925 112.6C324.058 117.667 323.125 122.667 323.125 127.6C323.125 129.733 323.592 131.267 324.525 132.2C325.592 133 326.858 133.4 328.325 133.4C331.392 133.4 334.125 132.333 336.525 130.2C339.058 127.933 341.992 124.667 345.325 120.4C348.792 116 352.058 111.4 355.125 106.6C355.925 105.533 356.525 104.933 356.925 104.8C357.458 104.667 357.525 104.933 357.125 105.6C356.058 107.733 354.392 110.467 352.125 113.8C349.992 117 347.725 120.2 345.325 123.4C342.925 126.6 340.858 129.067 339.125 130.8C337.392 132.533 335.592 133.8 333.725 134.6C331.992 135.4 330.392 135.8 328.925 135.8ZM360.433 136C357.633 136 355.166 134.867 353.033 132.6C351.033 130.333 350.033 127.067 350.033 122.8C350.033 119.6 350.766 115.733 352.233 111.2C353.833 106.533 355.766 101.667 358.033 96.6C360.433 91.4 362.899 86.5333 365.433 82C368.099 77.3333 370.433 73.4 372.433 70.2C370.166 70.2 368.166 70.2 366.433 70.2C364.699 70.0667 363.299 70.0667 362.233 70.2C361.299 70.2 360.699 70.0667 360.433 69.8C360.299 69.4 360.299 69.1333 360.433 69C360.433 68.6 360.633 68.0667 361.033 67.4C361.566 66.7333 362.033 66.4 362.433 66.4H374.633C375.299 65.6 376.166 64.2 377.233 62.2C378.433 60.2 379.633 58.0667 380.833 55.8C382.033 53.5333 383.033 51.5333 383.833 49.8C384.766 47.9333 385.233 46.8 385.233 46.4C385.233 45.2 384.833 44.3333 384.033 43.8C383.499 43.5333 383.233 43.4 383.233 43.4C383.099 43.4 383.033 43.4 383.033 43.4C383.033 43.2667 382.966 43.2 382.833 43.2C382.699 43.0667 382.633 42.8667 382.633 42.6C382.633 42.2 382.833 41.9333 383.233 41.8C383.633 41.5333 383.966 41.4 384.233 41.4C385.033 41.4 385.766 41.6 386.433 42C387.233 42.2667 388.499 42.8667 390.233 43.8C391.033 44.2 391.833 44.6 392.633 45C393.566 45.2667 394.299 45.6 394.833 46L396.433 47C395.633 48.3333 394.366 50.2 392.633 52.6C391.033 55 389.433 57.4667 387.833 60C386.233 62.5333 384.899 64.6667 383.833 66.4H419.633C421.233 66.4 422.033 66.6 422.033 67C422.033 67.4 421.433 67.8667 420.233 68.4C419.166 68.8 418.366 69 417.833 69C416.099 69.1333 413.633 69.2 410.433 69.2C407.366 69.2 404.033 69.2667 400.433 69.4C396.966 69.4 393.699 69.5333 390.633 69.8C387.699 69.9333 385.633 70.2 384.433 70.6C382.433 71.2667 380.166 73.4667 377.633 77.2C375.099 80.8 372.633 85.0667 370.233 90C367.966 94.9333 365.899 99.7333 364.033 104.4C363.633 105.467 362.899 107.267 361.833 109.8C360.899 112.333 359.966 115.067 359.033 118C358.233 120.933 357.833 123.667 357.833 126.2C357.833 128.6 358.299 130.333 359.233 131.4C360.166 132.467 361.299 133 362.633 133C364.233 133 366.033 132.067 368.033 130.2C370.166 128.333 372.499 125.933 375.033 123C377.699 119.667 380.166 116.333 382.433 113C384.833 109.533 386.366 107.2 387.033 106C388.099 104.267 388.766 103.4 389.033 103.4C389.166 103.4 389.233 103.467 389.233 103.6C389.233 104 389.033 104.733 388.633 105.8C388.233 106.733 387.833 107.533 387.433 108.2C385.033 111.667 382.433 115.533 379.633 119.8C376.833 124.067 373.966 127.733 371.033 130.8C367.566 134.267 364.033 136 360.433 136ZM395.403 133C392.336 133 389.536 132.267 387.003 130.8C384.603 129.2 383.403 126.933 383.403 124C383.403 122.933 383.603 121.8 384.003 120.6C384.403 119.267 384.936 118.267 385.603 117.6C385.603 119.067 386.07 120.4 387.003 121.6C387.936 122.667 389.003 123.533 390.203 124.2C391.403 124.733 392.536 125.133 393.603 125.4C394.803 125.667 395.87 125.8 396.803 125.8C399.87 125.8 402.27 124.733 404.003 122.6C405.736 120.333 406.603 117.933 406.603 115.4C406.603 113.133 406.003 111.133 404.803 109.4C404.003 108.333 403.136 107.4 402.203 106.6C401.27 105.667 400.27 104.733 399.203 103.8C398.403 103.133 397.67 102.333 397.003 101.4C396.336 100.467 395.47 99.0667 394.403 97.2L386.003 110C384.003 112.933 382.136 115.667 380.403 118.2C378.67 120.733 376.403 123.667 373.603 127C372.803 127.933 372.203 128.4 371.803 128.4C371.27 128.267 371.336 127.733 372.003 126.8C375.07 122.933 377.603 119.6 379.603 116.8C381.603 114 383.936 110.6 386.603 106.6C387.936 104.733 389.27 102.6 390.603 100.2C392.07 97.8 393.136 95.3333 393.803 92.8C393.803 88.6667 395.203 85.0667 398.003 82C400.803 78.8 404.203 76.4 408.203 74.8C412.336 73.0667 416.203 72.4 419.803 72.8C420.603 72.8 421.47 73.4 422.403 74.6C423.336 75.8 424.136 77.1333 424.803 78.6C425.47 79.9333 425.803 81 425.803 81.8C425.803 82.2 425.67 82.4 425.403 82.4C425.003 82.4 424.47 82.1333 423.803 81.6C422.736 80.6667 421.136 80.2 419.003 80.2C416.203 80.2 413.136 81 409.803 82.6C406.47 84.0667 403.536 86 401.003 88.4C398.603 90.6667 397.403 93.0667 397.403 95.6C397.403 97.4667 398.136 99.2 399.603 100.8C401.203 102.4 402.936 103.933 404.803 105.4C406.803 106.733 408.403 108.2 409.603 109.8C410.936 111.267 411.87 112.733 412.403 114.2C412.936 115.667 413.203 117.133 413.203 118.6C413.203 121.133 412.403 123.467 410.803 125.6C409.203 127.6 407.27 129.267 405.003 130.6C402.203 132.2 399.003 133 395.403 133Z" fill="#0012A5" fill-opacity="0.06"/>
</svg>
