<svg width="340" height="196" viewBox="0 0 340 196" fill="none" xmlns="http://www.w3.org/2000/svg">
<path d="M53.6 137.8C50.2667 137.8 47.1333 137.533 44.2 137C41.2667 136.6 38.6667 135.867 36.4 134.8C33.0667 133.2 30.1333 130.933 27.6 128C25.0667 125.067 23.0667 121.867 21.6 118.4C20.4 115.333 19.8 112.533 19.8 110C19.8 105.467 21.0667 101.6 23.6 98.4C26.2667 95.0667 29.4667 92.2667 33.2 90C37.0667 87.6 40.7333 85.7333 44.2 84.4C45.6667 83.7333 46.3333 83.6667 46.2 84.2C46.2 84.7333 45.8667 85.1333 45.2 85.4C41.8667 86.8667 38.6 89.2667 35.4 92.6C32.2 95.9333 29.6 99.6667 27.6 103.8C25.6 107.933 24.6 112 24.6 116C24.6 120.667 26.4 124.667 30 128C33.7333 131.333 40.0667 133 49 133C53.4 133 58.0667 132.467 63 131.4C68.0667 130.2 73 128.8 77.8 127.2C82.7333 125.467 87.2 123.8 91.2 122.2C93.0667 121.4 95.7333 120.133 99.2 118.4C102.8 116.533 106.6 114.4 110.6 112C114.733 109.467 118.667 106.8 122.4 104C126.267 101.2 129.4 98.4 131.8 95.6C134.2 92.8 135.4 90.2 135.4 87.8C135.4 85.5333 134 83.8 131.2 82.6C128.533 81.2667 125.133 80.3333 121 79.8C117 79.2667 113 79 109 79C103.133 79 98.8667 79.3333 96.2 80C94.0667 80.5333 91.7333 81.7333 89.2 83.6C86.6667 85.3333 84.3333 86.2 82.2 86.2C80.8667 86.2 79.7333 85.7333 78.8 84.8C78 83.8667 77.6 82.8 77.6 81.6C77.6 80.5333 78 79.5333 78.8 78.6C79.7333 77.5333 81.2667 76.8 83.4 76.4C84.7333 76.1333 86.1333 76 87.6 76C89.2 75.8667 90.8 75.7333 92.4 75.6C94 75.4667 95.5333 75.3333 97 75.2C98.6 74.9333 100.067 74.5333 101.4 74C106.6 72.1333 111.867 69.9333 117.2 67.4C122.533 64.7333 127.533 61.6 132.2 58C136.867 54.2667 140.733 49.9333 143.8 45C145.4 42.2 146.2 39.4667 146.2 36.8C146.2 33.4667 144.8 30.8 142 28.8C139.2 26.6667 135.6 25.0667 131.2 24C126.8 22.8 122.133 22 117.2 21.6C114.533 23.7333 112.8 25.3333 112 26.4C108.8 29.8667 104.867 34.2667 100.2 39.6C95.5333 44.8 90.6667 50.6 85.6 57C80.5333 63.2667 75.8 69.7333 71.4 76.4C67 82.9333 63.4 89.4 60.6 95.8C57.8 102.2 56.4 108.067 56.4 113.4C56.4 115.8 56.8 118.067 57.6 120.2C58.4 122.333 60.2667 123.533 63.2 123.8C63.7333 123.8 63.8667 124 63.6 124.4C63.4667 124.667 63.0667 124.8 62.4 124.8C59.4667 124.8 56.8667 123.333 54.6 120.4C52.3333 117.467 51.2 113.733 51.2 109.2C51.2 104.8 52.3333 99.6667 54.6 93.8C57 87.9333 60.1333 81.7333 64 75.2C67.8667 68.6667 72.1333 62.1333 76.8 55.6C81.6 48.9333 86.4667 42.6 91.4 36.6C96.3333 30.6 100.933 25.3333 105.2 20.8C101.733 20.6667 97.6 20.7333 92.8 21C88 21.1333 83.1333 21.3333 78.2 21.6C73.4 21.8667 69.0667 22.2 65.2 22.6C61.4667 22.8667 58.8667 23.1333 57.4 23.4C41.6667 26.3333 29.4667 29.8667 20.8 34C12.2667 38 8 42.1333 8 46.4C8 47.2 8.06667 47.8 8.2 48.2C8.46667 48.8667 8.93333 49.6667 9.6 50.6C10.4 51.4 11.0667 52 11.6 52.4C11.7333 52.5333 11.8 52.7333 11.8 53C11.8 53.2667 11.6667 53.5333 11.4 53.8C11.1333 54.0667 10.8 54.1333 10.4 54C7.2 52.2667 4.66667 49.8667 2.8 46.8C1.06667 43.7333 0.2 41.4 0.2 39.8C0.2 36.4667 2.8 33.4 8 30.6C13.2 27.8 19.9333 25.3333 28.2 23.2C36.4667 21.0667 45.2 19.4667 54.4 18.4C59.3333 17.7333 64.9333 17.2 71.2 16.8C77.6 16.4 84.2 16.2 91 16.2C96.7333 16.2 102.267 16.4 107.6 16.8L109.2 15.2C108.267 14.2667 107.8 13.4 107.8 12.6C107.8 11.8 108.133 11.0667 108.8 10.4C109.467 9.6 110.267 8.73333 111.2 7.79999C112.667 6.46666 114.467 5.13333 116.6 3.79999C118.733 2.46666 120.333 1.2 121.4 -4.29153e-06C123.267 0.133327 125.267 0.666662 127.4 1.6C129.667 2.4 130.8 3.86666 130.8 5.99999C130.8 6.26666 130.733 6.59999 130.6 6.99999C130.6 7.26666 130.533 7.6 130.4 8C130.133 8.93333 129.133 10.2667 127.4 12C125.8 13.7333 123.667 15.8 121 18.2C124.733 19 128.6 20 132.6 21.2C136.733 22.4 140.333 24.2 143.4 26.6C146.467 28.8667 148.267 32.1333 148.8 36.4C150.933 39.3333 152 42.2 152 45C152 49 150.333 52.7333 147 56.2C143.667 59.6667 139.533 62.7333 134.6 65.4C129.8 67.9333 124.933 70 120 71.6C115.2 73.2 111.267 74.1333 108.2 74.4C107.667 74.5333 107.4 74.7333 107.4 75C107.533 75.2667 108 75.4 108.8 75.4C112.267 75.4 116.2 75.8 120.6 76.6C125 77.2667 128.867 78.3333 132.2 79.8C135.667 81.2667 137.467 83.1333 137.6 85.4V85.6C137.6 86.2667 137.867 86.9333 138.4 87.6C138.933 88.1333 139.4 88.6667 139.8 89.2C141.533 90.9333 142.4 92.6 142.4 94.2C142.4 95.4 142.067 96.5333 141.4 97.6C137.667 103.733 131.8 109.733 123.8 115.6C115.933 121.333 107.067 126 97.2 129.6C93.8667 130.8 89.7333 132 84.8 133.2C79.8667 134.533 74.6667 135.6 69.2 136.4C63.8667 137.333 58.6667 137.8 53.6 137.8ZM160.484 136.6C157.151 136.6 154.284 135.4 151.884 133C149.484 130.733 148.284 127 148.284 121.8C148.284 115.133 150.018 107 153.484 97.4C156.951 87.8 161.351 77.7333 166.684 67.2C170.818 59.3333 175.218 51.8 179.884 44.6C184.551 37.4 189.151 31 193.684 25.4C198.218 19.6667 202.351 15.2 206.084 12C209.951 8.66666 213.084 6.99999 215.484 6.99999C217.751 6.99999 219.418 7.59999 220.484 8.79999C221.684 9.99999 222.684 11.3333 223.484 12.8C224.418 14.2667 225.618 15.4667 227.084 16.4C226.951 19.4667 225.351 23.3333 222.284 28C219.218 32.6667 215.551 37.7333 211.284 43.2C208.484 46.5333 204.484 51.2667 199.284 57.4C194.218 63.4 189.151 69.6 184.084 76C179.951 81.0667 176.284 85.9333 173.084 90.6C169.884 95.2667 167.418 99.1333 165.684 102.2C165.151 103.133 164.751 103.467 164.484 103.2C164.218 102.933 164.218 102.533 164.484 102C165.818 99.3333 167.884 95.9333 170.684 91.8C173.618 87.5333 176.884 83 180.484 78.2C184.084 73.4 187.618 68.8 191.084 64.4C194.551 59.8667 197.551 55.9333 200.084 52.6C202.618 49.2667 204.351 47.0667 205.284 46C207.284 43.4667 209.218 41.0667 211.084 38.8C212.951 36.4 214.618 34.1333 216.084 32C217.684 29.6 218.818 27.4667 219.484 25.6C220.284 23.7333 220.684 22.2 220.684 21C220.684 18.8667 219.818 17.8 218.084 17.8C216.884 17.8 215.351 18.4 213.484 19.6C211.751 20.8 209.751 22.7333 207.484 25.4C204.151 29.4 200.218 34.3333 195.684 40.2C191.284 45.9333 186.751 52.2667 182.084 59.2C177.418 66.1333 173.084 73.4 169.084 81C165.218 88.4667 162.018 96 159.484 103.6C157.084 111.067 155.884 118.267 155.884 125.2C155.884 128.4 156.551 130.667 157.884 132C159.218 133.333 160.818 134 162.684 134C164.684 134 166.751 133.467 168.884 132.4C171.151 131.2 173.018 129.733 174.484 128C176.751 125.6 178.951 122.933 181.084 120C183.351 117.067 185.351 114.333 187.084 111.8C188.951 109.133 190.284 107.133 191.084 105.8C191.484 105.133 191.884 104.8 192.284 104.8C192.951 104.8 192.951 105.333 192.284 106.4C190.151 110 187.618 113.8 184.684 117.8C181.884 121.667 179.351 125 177.084 127.8C174.951 130.467 172.351 132.6 169.284 134.2C166.351 135.8 163.418 136.6 160.484 136.6ZM200.909 136C197.043 136 193.709 134.533 190.909 131.6C188.243 128.667 186.909 124.667 186.909 119.6C186.909 117.733 187.109 115.733 187.509 113.6C188.043 111.333 188.776 109 189.709 106.6C191.709 101.933 194.443 97.4667 197.909 93.2C201.509 88.9333 205.376 85.4 209.509 82.6C213.643 79.8 217.576 78.4 221.309 78.4C221.709 78.4 222.176 78.6 222.709 79C223.243 79.2667 223.643 79.5333 223.909 79.8L224.909 80.8C226.509 82.4 228.043 83.3333 229.509 83.6C231.109 83.8667 232.376 84.6667 233.309 86C234.909 88.5333 235.709 91.6 235.709 95.2C235.709 100.133 234.176 105.533 231.109 111.4C228.176 117.133 224.176 122.333 219.109 127C216.576 129.267 213.776 131.333 210.709 133.2C207.643 135.067 204.376 136 200.909 136ZM202.309 133.8C205.509 133.8 208.776 132.733 212.109 130.6C215.443 128.333 218.509 125.4 221.309 121.8C224.243 118.2 226.709 114.4 228.709 110.4C230.843 106.4 232.176 102.6 232.709 99C232.843 98.3333 232.909 97.6667 232.909 97C233.043 96.2 233.109 95.5333 233.109 95C233.109 91.4 232.243 88.8 230.509 87.2C228.776 85.4667 226.709 84.6 224.309 84.6C221.776 84.6 219.176 85.4 216.509 87C213.976 88.4667 210.776 91.5333 206.909 96.2C203.043 100.733 199.576 105.467 196.509 110.4C193.709 114.8 192.309 119.067 192.309 123.2C192.309 126.133 193.109 128.667 194.709 130.8C196.443 132.8 198.976 133.8 202.309 133.8ZM209.653 196C207.786 196 205.72 195.333 203.453 194C201.186 192.667 199.32 191 197.853 189C196.253 187.133 195.453 185.2 195.453 183.2C195.453 181.067 196.653 178.4 199.053 175.2C201.453 172 204.386 168.733 207.853 165.4C211.32 162.067 214.786 159 218.253 156.2C221.586 153.4 224.253 151.267 226.253 149.8C233.853 144.6 241.853 140 250.253 136C258.653 132.133 266.853 128.933 274.853 126.4C275.92 124.533 276.986 121.867 278.053 118.4C279.12 114.933 280.053 111.4 280.853 107.8C281.653 104.2 282.053 101.333 282.053 99.2C280.053 101.867 277.586 104.867 274.653 108.2C271.853 111.4 268.92 114.533 265.853 117.6C262.786 120.667 259.72 123.2 256.653 125.2C253.72 127.2 251.12 128.2 248.853 128.2C246.053 128.2 243.586 127.467 241.453 126C239.32 124.533 238.253 122.2 238.253 119C238.253 117.4 238.586 115.6 239.253 113.6C239.92 111.6 240.986 109.333 242.453 106.8C244.053 104.133 246.32 101.067 249.253 97.6C252.32 94.1333 255.653 90.8 259.253 87.6C262.986 84.2667 266.72 81.5333 270.453 79.4C274.186 77.1333 277.52 76 280.453 76C282.186 76 283.986 76.7333 285.853 78.2C287.853 79.5333 289.12 81.0667 289.653 82.8C290.186 84.1333 290.386 85.1333 290.253 85.8C290.253 86.3333 290.186 86.7333 290.053 87C289.786 87.2667 289.386 87.0667 288.853 86.4C288.453 85.7333 287.453 85.2 285.853 84.8C284.386 84.4 282.853 84.2 281.253 84.2C280.586 84.2 279.92 84.2667 279.253 84.4C278.586 84.5333 277.92 84.7333 277.253 85C274.453 86.3333 271.386 88.2667 268.053 90.8C264.72 93.2 261.52 95.9333 258.453 99C253.92 103.533 250.653 107.667 248.653 111.4C246.786 115 245.853 117.933 245.853 120.2C245.853 123.933 247.386 125.8 250.453 125.8C252.32 125.8 254.32 124.933 256.453 123.2C260.32 120.133 263.786 117.133 266.853 114.2C269.92 111.133 272.653 108.267 275.053 105.6C277.32 102.933 279.253 100.533 280.853 98.4C282.586 96.2667 283.986 94.4667 285.053 93C287.053 93 288.253 93.3333 288.653 94C289.186 94.6667 289.453 95.4 289.453 96.2C289.453 97.5333 289.12 100.133 288.453 104C287.92 107.867 287.12 111.933 286.053 116.2C284.986 120.467 283.653 124.067 282.053 127C285.653 127.533 288.32 129 290.053 131.4C291.92 133.667 292.853 136.333 292.853 139.4C292.853 139.933 292.853 140.467 292.853 141C292.853 141.533 292.786 142.067 292.653 142.6C292.52 143.533 292.12 143.933 291.453 143.8C290.92 143.8 290.72 143.4 290.853 142.6C291.12 139.133 290.653 136.067 289.453 133.4C288.253 130.867 285.453 129.6 281.053 129.6C278.653 134.267 275.453 139.533 271.453 145.4C267.453 151.267 262.92 157.133 257.853 163C252.92 169 247.653 174.467 242.053 179.4C236.586 184.467 231.12 188.467 225.653 191.4C220.053 194.467 214.72 196 209.653 196ZM207.253 192.2C210.453 192.2 214.786 190.667 220.253 187.6C224.12 185.467 228.253 182.467 232.653 178.6C237.053 174.733 241.386 170.4 245.653 165.6C250.053 160.933 254.12 156.267 257.853 151.6C261.72 146.933 264.986 142.6 267.653 138.6C270.32 134.733 272.186 131.733 273.253 129.6C269.653 130.4 265.186 131.933 259.853 134.2C254.52 136.467 248.853 139.333 242.853 142.8C236.986 146.4 231.253 150.4 225.653 154.8C220.053 159.2 215.12 163.867 210.853 168.8C208.586 171.733 206.586 174.867 204.853 178.2C203.12 181.533 202.253 184.4 202.253 186.8C202.253 190.4 203.92 192.2 207.253 192.2ZM308.684 133C305.618 133 302.818 132.267 300.284 130.8C297.884 129.2 296.684 126.933 296.684 124C296.684 122.933 296.884 121.8 297.284 120.6C297.684 119.267 298.218 118.267 298.884 117.6C298.884 119.067 299.351 120.4 300.284 121.6C301.218 122.667 302.284 123.533 303.484 124.2C304.684 124.733 305.818 125.133 306.884 125.4C308.084 125.667 309.151 125.8 310.084 125.8C313.151 125.8 315.551 124.733 317.284 122.6C319.018 120.333 319.884 117.933 319.884 115.4C319.884 113.133 319.284 111.133 318.084 109.4C317.284 108.333 316.418 107.4 315.484 106.6C314.551 105.667 313.551 104.733 312.484 103.8C311.684 103.133 310.951 102.333 310.284 101.4C309.618 100.467 308.751 99.0667 307.684 97.2L299.284 110C297.284 112.933 295.418 115.667 293.684 118.2C291.951 120.733 289.684 123.667 286.884 127C286.084 127.933 285.484 128.4 285.084 128.4C284.551 128.267 284.618 127.733 285.284 126.8C288.351 122.933 290.884 119.6 292.884 116.8C294.884 114 297.218 110.6 299.884 106.6C301.218 104.733 302.551 102.6 303.884 100.2C305.351 97.8 306.418 95.3333 307.084 92.8C307.084 88.6667 308.484 85.0667 311.284 82C314.084 78.8 317.484 76.4 321.484 74.8C325.618 73.0667 329.484 72.4 333.084 72.8C333.884 72.8 334.751 73.4 335.684 74.6C336.618 75.8 337.418 77.1333 338.084 78.6C338.751 79.9333 339.084 81 339.084 81.8C339.084 82.2 338.951 82.4 338.684 82.4C338.284 82.4 337.751 82.1333 337.084 81.6C336.018 80.6667 334.418 80.2 332.284 80.2C329.484 80.2 326.418 81 323.084 82.6C319.751 84.0667 316.818 86 314.284 88.4C311.884 90.6667 310.684 93.0667 310.684 95.6C310.684 97.4667 311.418 99.2 312.884 100.8C314.484 102.4 316.218 103.933 318.084 105.4C320.084 106.733 321.684 108.2 322.884 109.8C324.218 111.267 325.151 112.733 325.684 114.2C326.218 115.667 326.484 117.133 326.484 118.6C326.484 121.133 325.684 123.467 324.084 125.6C322.484 127.6 320.551 129.267 318.284 130.6C315.484 132.2 312.284 133 308.684 133Z" fill="#0012A5" fill-opacity="0.06"/>
</svg>
