<svg width="387" height="128" viewBox="0 0 387 128" fill="none" xmlns="http://www.w3.org/2000/svg">
<path d="M47.6 127.6C41.7333 127.6 36 126.733 30.4 125C24.9333 123.267 19.8667 120.333 15.2 116.2C10.9333 113.533 7.4 109.733 4.6 104.8C1.93333 99.7333 0.866668 94.5333 1.4 89.2C2.06667 82.9333 4.26667 76.4667 8 69.8C11.7333 63.1333 16.6 56.5333 22.6 50C28.6 43.3333 35.2667 37.1333 42.6 31.4C50.0667 25.5333 57.8 20.3333 65.8 15.8C73.8 11.1333 81.6 7.46666 89.2 4.79999C98 1.73333 106.4 0.199994 114.4 0.199994C119.467 0.199994 123.6 0.86666 126.8 2.19999C130.133 3.53332 131.867 5.59999 132 8.4C134.667 12 136 15.9333 136 20.2C136 25.2667 134.267 30.2667 130.8 35.2C127.467 40.1333 123.333 44.8 118.4 49.2C113.467 53.6 108.467 57.4667 103.4 60.8C98.3333 64 94.0667 66.5333 90.6 68.4C90.0667 68.9333 89.5333 69.2 89 69.2C88.0667 69.2 88.0667 68.6 89 67.4C91.2667 66.6 94.0667 64.9333 97.4 62.4C100.867 59.7333 104.533 56.5333 108.4 52.8C112.267 49.0667 115.867 45.2 119.2 41.2C122.667 37.0667 125.467 33.0667 127.6 29.2C129.733 25.2 130.8 21.6667 130.8 18.6C130.8 15.8 129.667 13.6 127.4 12C125.133 10.2667 121.4 9.39999 116.2 9.39999C109.267 9.39999 101.467 10.8667 92.8 13.8C84.1333 16.6 75.3333 20.6 66.4 25.8C57.4667 31 49.1333 37.2667 41.4 44.6C33.6667 51.8 27.2 59.8667 22 68.8C16.9333 77.7333 13.8667 87.2667 12.8 97.4C12.6667 97.9333 12.6 98.4667 12.6 99C12.6 99.4 12.6 99.8667 12.6 100.4C12.6 105.867 14 110.267 16.8 113.6C19.7333 116.933 23.5333 119.333 28.2 120.8C32.8667 122.267 37.9333 123 43.4 123C45.6667 123 47.9333 122.867 50.2 122.6C52.6 122.333 54.9333 122 57.2 121.6C68.5333 119.467 79 116.267 88.6 112C98.2 107.733 106.733 103.067 114.2 98C115.4 97.2 116.2 96.8 116.6 96.8C116.867 96.8 117 96.9333 117 97.2C117 97.6 116.6 98.2 115.8 99C112.867 101.8 109.333 104.733 105.2 107.8C101.067 110.867 96.8667 113.467 92.6 115.6C86.0667 118.8 78.8667 121.6 71 124C63.2667 126.4 55.4667 127.6 47.6 127.6ZM126.027 123.2C123.227 123.2 121.093 121.867 119.627 119.2C118.293 116.4 117.627 114 117.627 112C117.627 107.333 119.027 102.467 121.827 97.4C124.627 92.3333 128.16 87.5333 132.427 83C136.827 78.4667 141.427 74.8 146.227 72C151.027 69.2 155.493 67.8 159.627 67.8C160.827 67.8 162.16 68.3333 163.627 69.4C165.227 70.3333 166.693 71.8667 168.027 74C168.293 74.2667 168.627 74.8667 169.027 75.8C169.427 76.6 169.427 77.3333 169.027 78L168.827 77.6C168.56 76.9333 167.96 76.4 167.027 76C166.093 75.4667 164.693 75.2 162.827 75.2C159.76 75.2 156.293 76.2667 152.427 78.4C148.693 80.5333 144.893 83.4 141.027 87C137.293 90.6 133.893 94.5333 130.827 98.8C127.76 103.067 125.493 107.4 124.027 111.8C123.093 114.067 122.627 116 122.627 117.6C122.627 119.6 123.36 120.6 124.827 120.6C125.893 120.6 127.16 120.067 128.627 119C131.427 116.867 134.36 114.133 137.427 110.8C140.493 107.467 143.427 104 146.227 100.4C149.16 96.8 151.693 93.4667 153.827 90.4C156.093 87.3333 157.693 85.0667 158.627 83.6C159.027 83.0667 159.493 82.8 160.027 82.8C160.693 82.6667 161.493 82.6 162.427 82.6C165.093 82.6 166.76 83.0667 167.427 84C168.227 84.8 168.293 85.6667 167.627 86.6C165.893 89.1333 164.027 92.0667 162.027 95.4C160.16 98.7333 158.493 102 157.027 105.2C155.693 108.4 155.027 111.267 155.027 113.8C155.027 115.8 155.827 116.8 157.427 116.8C158.893 116.8 160.493 115.933 162.227 114.2C163.827 112.733 165.693 110.6 167.827 107.8C170.093 105 172.293 102.067 174.427 99C176.693 95.9333 178.56 93.2667 180.027 91C180.56 90.3333 180.96 90.0667 181.227 90.2C181.627 90.2 181.627 90.6 181.227 91.4C179.093 94.7333 176.893 98.2 174.627 101.8C172.36 105.267 169.96 108.533 167.427 111.6C162.627 117.733 159.027 120.8 156.627 120.8C154.493 120.8 152.493 120.133 150.627 118.8C148.76 117.467 147.827 115.533 147.827 113C147.827 110.333 148.36 107.267 149.427 103.8C150.627 100.2 151.693 97.4 152.627 95.4C149.827 99.6667 146.627 103.933 143.027 108.2C139.427 112.467 136.027 116.067 132.827 119C129.76 121.8 127.493 123.2 126.027 123.2ZM195.533 123.6C192.333 123.6 190.133 122.533 188.933 120.4C187.733 118.133 187.333 115.733 187.733 113.2C188.266 109.733 189.199 106.933 190.533 104.8C191.999 102.667 193.733 100.333 195.733 97.8C197.333 95.5333 198.866 93.2 200.333 90.8C201.799 88.4 201.999 87 200.933 86.6C200.266 87.1333 199.133 87.7333 197.533 88.4C195.933 89.0667 194.266 89.4 192.533 89.4C191.066 89.4 189.599 89.0667 188.133 88.4C186.799 87.7333 185.799 86.5333 185.133 84.8C183.399 88 181.266 91.5333 178.733 95.4C176.333 99.1333 173.866 102.733 171.333 106.2C168.933 109.667 166.799 112.533 164.933 114.8C164.399 115.333 163.933 115.533 163.533 115.4C162.999 115.267 162.933 114.933 163.333 114.4C166.399 110.533 169.933 105.667 173.933 99.8C177.933 93.9333 181.599 87.6 184.933 80.8C188.266 73.8667 190.333 67.1333 191.133 60.6C195.666 62.7333 197.933 65.4667 197.933 68.8C197.933 71.3333 196.866 73.9333 194.733 76.6C192.599 79.1333 189.799 81.4667 186.333 83.6C188.066 86.1333 190.266 87.4 192.933 87.4C194.933 87.4 196.933 86.8 198.933 85.6C201.066 84.2667 202.733 82.8 203.933 81.2C204.999 80 205.866 79.2 206.533 78.8C207.333 78.4 207.999 78.2 208.533 78.2C210.399 78.2 211.733 78.8 212.533 80C213.466 81.0667 213.599 82.2667 212.933 83.6C210.533 86.9333 207.799 91.0667 204.733 96C201.666 100.8 198.933 105.333 196.533 109.6C196.133 110.133 195.599 111.333 194.933 113.2C194.266 115.067 193.933 116.733 193.933 118.2C193.933 120.2 194.733 121.2 196.333 121.2C198.199 121.2 200.333 120.133 202.733 118C205.133 115.733 207.533 113.067 209.933 110C212.333 106.8 214.466 103.733 216.333 100.8C218.333 97.8667 219.799 95.7333 220.733 94.4C221.399 93.2 221.933 92.6 222.333 92.6C222.466 92.6 222.533 92.7333 222.533 93C222.533 93.5333 222.333 94.1333 221.933 94.8C219.933 98.1333 217.799 101.467 215.533 104.8C213.266 108.133 210.999 111.333 208.733 114.4C206.599 117.2 204.399 119.4 202.133 121C199.999 122.733 197.799 123.6 195.533 123.6ZM231.497 123.6C227.897 123.6 224.564 122.333 221.497 119.8C218.564 117.133 217.097 113.267 217.097 108.2C217.097 104.2 218.164 99.8667 220.297 95.2C222.43 90.5333 225.164 86.0667 228.497 81.8C231.964 77.5333 235.63 74 239.497 71.2C243.364 68.4 246.964 66.9333 250.297 66.8C250.83 67.3333 251.43 67.7333 252.097 68C252.897 68.2667 253.63 68.5333 254.297 68.8L259.497 70C262.43 70.8 263.897 72.6667 263.897 75.6C263.897 77.3333 263.297 79.2 262.097 81.2C261.03 83.2 259.364 84.9333 257.097 86.4C255.897 87.2 254.564 88 253.097 88.8C251.764 89.6 250.364 90.4 248.897 91.2L239.897 96C237.097 97.4667 234.63 99.0667 232.497 100.8C230.364 102.4 228.83 104.133 227.897 106C227.897 106 227.697 106.067 227.297 106.2C227.03 106.2 226.964 105.933 227.097 105.4C228.03 103.133 229.83 100.867 232.497 98.6C235.297 96.2 238.097 94.1333 240.897 92.4C242.23 91.3333 243.564 90.4 244.897 89.6C246.364 88.8 247.764 87.9333 249.097 87C250.43 86.0667 251.697 85.1333 252.897 84.2C254.23 83.1333 255.364 82.1333 256.297 81.2C257.364 80.1333 258.097 79.0667 258.497 78C259.03 76.9333 259.297 76 259.297 75.2C259.297 72.6667 257.83 71.4 254.897 71.4C253.03 71.4 250.897 72.2 248.497 73.8C245.564 75.8 242.764 78.2 240.097 81C237.43 83.6667 234.897 86.6 232.497 89.8C229.964 93.2667 227.697 97.2667 225.697 101.8C223.83 106.333 222.897 110.133 222.897 113.2C222.897 116.267 223.764 118.467 225.497 119.8C227.364 121 229.497 121.6 231.897 121.6C235.23 121.6 238.43 120.733 241.497 119C243.764 117.667 245.897 116 247.897 114C249.897 111.867 251.564 110 252.897 108.4C253.964 107.067 255.164 105.467 256.497 103.6C257.964 101.733 258.964 100.333 259.497 99.4C259.764 99.1333 259.964 99.1333 260.097 99.4C260.23 99.6667 260.297 99.8667 260.297 100C259.764 100.933 258.83 102.467 257.497 104.6C256.297 106.6 254.497 109.133 252.097 112.2C249.297 115.8 246.364 118.6 243.297 120.6C240.23 122.6 236.297 123.6 231.497 123.6ZM273.294 123.6C269.694 123.6 266.36 122.333 263.294 119.8C260.36 117.133 258.894 113.267 258.894 108.2C258.894 104.2 259.96 99.8667 262.094 95.2C264.227 90.5333 266.96 86.0667 270.294 81.8C273.76 77.5333 277.427 74 281.294 71.2C285.16 68.4 288.76 66.9333 292.094 66.8C292.627 67.3333 293.227 67.7333 293.894 68C294.694 68.2667 295.427 68.5333 296.094 68.8L301.294 70C304.227 70.8 305.694 72.6667 305.694 75.6C305.694 77.3333 305.094 79.2 303.894 81.2C302.827 83.2 301.16 84.9333 298.894 86.4C297.694 87.2 296.36 88 294.894 88.8C293.56 89.6 292.16 90.4 290.694 91.2L281.694 96C278.894 97.4667 276.427 99.0667 274.294 100.8C272.16 102.4 270.627 104.133 269.694 106C269.694 106 269.494 106.067 269.094 106.2C268.827 106.2 268.76 105.933 268.894 105.4C269.827 103.133 271.627 100.867 274.294 98.6C277.094 96.2 279.894 94.1333 282.694 92.4C284.027 91.3333 285.36 90.4 286.694 89.6C288.16 88.8 289.56 87.9333 290.894 87C292.227 86.0667 293.494 85.1333 294.694 84.2C296.027 83.1333 297.16 82.1333 298.094 81.2C299.16 80.1333 299.894 79.0667 300.294 78C300.827 76.9333 301.094 76 301.094 75.2C301.094 72.6667 299.627 71.4 296.694 71.4C294.827 71.4 292.694 72.2 290.294 73.8C287.36 75.8 284.56 78.2 281.894 81C279.227 83.6667 276.694 86.6 274.294 89.8C271.76 93.2667 269.494 97.2667 267.494 101.8C265.627 106.333 264.694 110.133 264.694 113.2C264.694 116.267 265.56 118.467 267.294 119.8C269.16 121 271.294 121.6 273.694 121.6C277.027 121.6 280.227 120.733 283.294 119C285.56 117.667 287.694 116 289.694 114C291.694 111.867 293.36 110 294.694 108.4C295.76 107.067 296.96 105.467 298.294 103.6C299.76 101.733 300.76 100.333 301.294 99.4C301.56 99.1333 301.76 99.1333 301.894 99.4C302.027 99.6667 302.094 99.8667 302.094 100C301.56 100.933 300.627 102.467 299.294 104.6C298.094 106.6 296.294 109.133 293.894 112.2C291.094 115.8 288.16 118.6 285.094 120.6C282.027 122.6 278.094 123.6 273.294 123.6ZM322.291 123.6C319.091 123.6 316.891 122.533 315.691 120.4C314.491 118.133 314.091 115.733 314.491 113.2C315.024 109.733 315.957 106.933 317.291 104.8C318.757 102.667 320.491 100.333 322.491 97.8C324.091 95.5333 325.624 93.2 327.091 90.8C328.557 88.4 328.757 87 327.691 86.6C327.024 87.1333 325.891 87.7333 324.291 88.4C322.691 89.0667 321.024 89.4 319.291 89.4C317.824 89.4 316.357 89.0667 314.891 88.4C313.557 87.7333 312.557 86.5333 311.891 84.8C310.157 88 308.024 91.5333 305.491 95.4C303.091 99.1333 300.624 102.733 298.091 106.2C295.691 109.667 293.557 112.533 291.691 114.8C291.157 115.333 290.691 115.533 290.291 115.4C289.757 115.267 289.691 114.933 290.091 114.4C293.157 110.533 296.691 105.667 300.691 99.8C304.691 93.9333 308.357 87.6 311.691 80.8C315.024 73.8667 317.091 67.1333 317.891 60.6C322.424 62.7333 324.691 65.4667 324.691 68.8C324.691 71.3333 323.624 73.9333 321.491 76.6C319.357 79.1333 316.557 81.4667 313.091 83.6C314.824 86.1333 317.024 87.4 319.691 87.4C321.691 87.4 323.691 86.8 325.691 85.6C327.824 84.2667 329.491 82.8 330.691 81.2C331.757 80 332.624 79.2 333.291 78.8C334.091 78.4 334.757 78.2 335.291 78.2C337.157 78.2 338.491 78.8 339.291 80C340.224 81.0667 340.357 82.2667 339.691 83.6C337.291 86.9333 334.557 91.0667 331.491 96C328.424 100.8 325.691 105.333 323.291 109.6C322.891 110.133 322.357 111.333 321.691 113.2C321.024 115.067 320.691 116.733 320.691 118.2C320.691 120.2 321.491 121.2 323.091 121.2C324.957 121.2 327.091 120.133 329.491 118C331.891 115.733 334.291 113.067 336.691 110C339.091 106.8 341.224 103.733 343.091 100.8C345.091 97.8667 346.557 95.7333 347.491 94.4C348.157 93.2 348.691 92.6 349.091 92.6C349.224 92.6 349.291 92.7333 349.291 93C349.291 93.5333 349.091 94.1333 348.691 94.8C346.691 98.1333 344.557 101.467 342.291 104.8C340.024 108.133 337.757 111.333 335.491 114.4C333.357 117.2 331.157 119.4 328.891 121C326.757 122.733 324.557 123.6 322.291 123.6ZM356.255 121C353.188 121 350.388 120.267 347.855 118.8C345.455 117.2 344.255 114.933 344.255 112C344.255 110.933 344.455 109.8 344.855 108.6C345.255 107.267 345.788 106.267 346.455 105.6C346.455 107.067 346.921 108.4 347.855 109.6C348.788 110.667 349.855 111.533 351.055 112.2C352.255 112.733 353.388 113.133 354.455 113.4C355.655 113.667 356.721 113.8 357.655 113.8C360.721 113.8 363.121 112.733 364.855 110.6C366.588 108.333 367.455 105.933 367.455 103.4C367.455 101.133 366.855 99.1333 365.655 97.4C364.855 96.3333 363.988 95.4 363.055 94.6C362.121 93.6667 361.121 92.7333 360.055 91.8C359.255 91.1333 358.521 90.3333 357.855 89.4C357.188 88.4667 356.321 87.0667 355.255 85.2L346.855 98C344.855 100.933 342.988 103.667 341.255 106.2C339.521 108.733 337.255 111.667 334.455 115C333.655 115.933 333.055 116.4 332.655 116.4C332.121 116.267 332.188 115.733 332.855 114.8C335.921 110.933 338.455 107.6 340.455 104.8C342.455 102 344.788 98.6 347.455 94.6C348.788 92.7333 350.121 90.6 351.455 88.2C352.921 85.8 353.988 83.3333 354.655 80.8C354.655 76.6667 356.055 73.0667 358.855 70C361.655 66.8 365.055 64.4 369.055 62.8C373.188 61.0667 377.055 60.4 380.655 60.8C381.455 60.8 382.321 61.4 383.255 62.6C384.188 63.8 384.988 65.1333 385.655 66.6C386.321 67.9333 386.655 69 386.655 69.8C386.655 70.2 386.521 70.4 386.255 70.4C385.855 70.4 385.321 70.1333 384.655 69.6C383.588 68.6667 381.988 68.2 379.855 68.2C377.055 68.2 373.988 69 370.655 70.6C367.321 72.0667 364.388 74 361.855 76.4C359.455 78.6667 358.255 81.0667 358.255 83.6C358.255 85.4667 358.988 87.2 360.455 88.8C362.055 90.4 363.788 91.9333 365.655 93.4C367.655 94.7333 369.255 96.2 370.455 97.8C371.788 99.2667 372.721 100.733 373.255 102.2C373.788 103.667 374.055 105.133 374.055 106.6C374.055 109.133 373.255 111.467 371.655 113.6C370.055 115.6 368.121 117.267 365.855 118.6C363.055 120.2 359.855 121 356.255 121Z" fill="#0012A5" fill-opacity="0.06"/>
</svg>
