<svg width="590" height="133" viewBox="0 0 590 133" fill="none" xmlns="http://www.w3.org/2000/svg">
<path d="M47.6 132.6C41.7333 132.6 36 131.733 30.4 130C24.9333 128.267 19.8667 125.333 15.2 121.2C10.9333 118.533 7.4 114.733 4.6 109.8C1.93333 104.733 0.866668 99.5333 1.4 94.2C2.06667 87.9333 4.26667 81.4667 8 74.8C11.7333 68.1333 16.6 61.5333 22.6 55C28.6 48.3333 35.2667 42.1333 42.6 36.4C50.0667 30.5333 57.8 25.3333 65.8 20.8C73.8 16.1333 81.6 12.4667 89.2 9.79999C98 6.73333 106.4 5.19999 114.4 5.19999C119.467 5.19999 123.6 5.86666 126.8 7.19999C130.133 8.53332 131.867 10.6 132 13.4C134.667 17 136 20.9333 136 25.2C136 30.2667 134.267 35.2667 130.8 40.2C127.467 45.1333 123.333 49.8 118.4 54.2C113.467 58.6 108.467 62.4667 103.4 65.8C98.3333 69 94.0667 71.5333 90.6 73.4C90.0667 73.9333 89.5333 74.2 89 74.2C88.0667 74.2 88.0667 73.6 89 72.4C91.2667 71.6 94.0667 69.9333 97.4 67.4C100.867 64.7333 104.533 61.5333 108.4 57.8C112.267 54.0667 115.867 50.2 119.2 46.2C122.667 42.0667 125.467 38.0667 127.6 34.2C129.733 30.2 130.8 26.6667 130.8 23.6C130.8 20.8 129.667 18.6 127.4 17C125.133 15.2667 121.4 14.4 116.2 14.4C109.267 14.4 101.467 15.8667 92.8 18.8C84.1333 21.6 75.3333 25.6 66.4 30.8C57.4667 36 49.1333 42.2667 41.4 49.6C33.6667 56.8 27.2 64.8667 22 73.8C16.9333 82.7333 13.8667 92.2667 12.8 102.4C12.6667 102.933 12.6 103.467 12.6 104C12.6 104.4 12.6 104.867 12.6 105.4C12.6 110.867 14 115.267 16.8 118.6C19.7333 121.933 23.5333 124.333 28.2 125.8C32.8667 127.267 37.9333 128 43.4 128C45.6667 128 47.9333 127.867 50.2 127.6C52.6 127.333 54.9333 127 57.2 126.6C68.5333 124.467 79 121.267 88.6 117C98.2 112.733 106.733 108.067 114.2 103C115.4 102.2 116.2 101.8 116.6 101.8C116.867 101.8 117 101.933 117 102.2C117 102.6 116.6 103.2 115.8 104C112.867 106.8 109.333 109.733 105.2 112.8C101.067 115.867 96.8667 118.467 92.6 120.6C86.0667 123.8 78.8667 126.6 71 129C63.2667 131.4 55.4667 132.6 47.6 132.6ZM134.027 129C130.16 129 126.827 127.533 124.027 124.6C121.36 121.667 120.027 117.667 120.027 112.6C120.027 110.733 120.227 108.733 120.627 106.6C121.16 104.333 121.893 102 122.827 99.6C124.827 94.9333 127.56 90.4667 131.027 86.2C134.627 81.9333 138.493 78.4 142.627 75.6C146.76 72.8 150.693 71.4 154.427 71.4C154.827 71.4 155.293 71.6 155.827 72C156.36 72.2667 156.76 72.5333 157.027 72.8L158.027 73.8C159.627 75.4 161.16 76.3333 162.627 76.6C164.227 76.8667 165.493 77.6667 166.427 79C168.027 81.5333 168.827 84.6 168.827 88.2C168.827 93.1333 167.293 98.5333 164.227 104.4C161.293 110.133 157.293 115.333 152.227 120C149.693 122.267 146.893 124.333 143.827 126.2C140.76 128.067 137.493 129 134.027 129ZM135.427 126.8C138.627 126.8 141.893 125.733 145.227 123.6C148.56 121.333 151.627 118.4 154.427 114.8C157.36 111.2 159.827 107.4 161.827 103.4C163.96 99.4 165.293 95.6 165.827 92C165.96 91.3333 166.027 90.6667 166.027 90C166.16 89.2 166.227 88.5333 166.227 88C166.227 84.4 165.36 81.8 163.627 80.2C161.893 78.4667 159.827 77.6 157.427 77.6C154.893 77.6 152.293 78.4 149.627 80C147.093 81.4667 143.893 84.5333 140.027 89.2C136.16 93.7333 132.693 98.4667 129.627 103.4C126.827 107.8 125.427 112.067 125.427 116.2C125.427 119.133 126.227 121.667 127.827 123.8C129.56 125.8 132.093 126.8 135.427 126.8ZM186.57 129.6C183.237 129.6 180.37 128.4 177.97 126C175.57 123.733 174.37 120 174.37 114.8C174.37 108.133 176.104 100 179.57 90.4C183.037 80.8 187.437 70.7333 192.77 60.2C196.904 52.3333 201.304 44.8 205.97 37.6C210.637 30.4 215.237 24 219.77 18.4C224.304 12.6667 228.437 8.19999 232.17 5C236.037 1.66666 239.17 -1.09673e-05 241.57 -1.09673e-05C243.837 -1.09673e-05 245.504 0.599989 246.57 1.79999C247.77 2.99999 248.77 4.33333 249.57 5.8C250.504 7.26666 251.704 8.46666 253.17 9.4C253.037 12.4667 251.437 16.3333 248.37 21C245.304 25.6667 241.637 30.7333 237.37 36.2C234.57 39.5333 230.57 44.2667 225.37 50.4C220.304 56.4 215.237 62.6 210.17 69C206.037 74.0667 202.37 78.9333 199.17 83.6C195.97 88.2667 193.504 92.1333 191.77 95.2C191.237 96.1333 190.837 96.4667 190.57 96.2C190.304 95.9333 190.304 95.5333 190.57 95C191.904 92.3333 193.97 88.9333 196.77 84.8C199.704 80.5333 202.97 76 206.57 71.2C210.17 66.4 213.704 61.8 217.17 57.4C220.637 52.8667 223.637 48.9333 226.17 45.6C228.704 42.2667 230.437 40.0667 231.37 39C233.37 36.4667 235.304 34.0667 237.17 31.8C239.037 29.4 240.704 27.1333 242.17 25C243.77 22.6 244.904 20.4667 245.57 18.6C246.37 16.7333 246.77 15.2 246.77 14C246.77 11.8667 245.904 10.8 244.17 10.8C242.97 10.8 241.437 11.4 239.57 12.6C237.837 13.8 235.837 15.7333 233.57 18.4C230.237 22.4 226.304 27.3333 221.77 33.2C217.37 38.9333 212.837 45.2667 208.17 52.2C203.504 59.1333 199.17 66.4 195.17 74C191.304 81.4667 188.104 89 185.57 96.6C183.17 104.067 181.97 111.267 181.97 118.2C181.97 121.4 182.637 123.667 183.97 125C185.304 126.333 186.904 127 188.77 127C190.77 127 192.837 126.467 194.97 125.4C197.237 124.2 199.104 122.733 200.57 121C202.837 118.6 205.037 115.933 207.17 113C209.437 110.067 211.437 107.333 213.17 104.8C215.037 102.133 216.37 100.133 217.17 98.8C217.57 98.1333 217.97 97.8 218.37 97.8C219.037 97.8 219.037 98.3333 218.37 99.4C216.237 103 213.704 106.8 210.77 110.8C207.97 114.667 205.437 118 203.17 120.8C201.037 123.467 198.437 125.6 195.37 127.2C192.437 128.8 189.504 129.6 186.57 129.6ZM227.195 129.6C223.862 129.6 220.995 128.4 218.595 126C216.195 123.733 214.995 120 214.995 114.8C214.995 108.133 216.729 100 220.195 90.4C223.662 80.8 228.062 70.7333 233.395 60.2C237.529 52.3333 241.929 44.8 246.595 37.6C251.262 30.4 255.862 24 260.395 18.4C264.929 12.6667 269.062 8.19999 272.795 5C276.662 1.66666 279.795 -1.09673e-05 282.195 -1.09673e-05C284.462 -1.09673e-05 286.129 0.599989 287.195 1.79999C288.395 2.99999 289.395 4.33333 290.195 5.8C291.129 7.26666 292.329 8.46666 293.795 9.4C293.662 12.4667 292.062 16.3333 288.995 21C285.929 25.6667 282.262 30.7333 277.995 36.2C275.195 39.5333 271.195 44.2667 265.995 50.4C260.929 56.4 255.862 62.6 250.795 69C246.662 74.0667 242.995 78.9333 239.795 83.6C236.595 88.2667 234.129 92.1333 232.395 95.2C231.862 96.1333 231.462 96.4667 231.195 96.2C230.929 95.9333 230.929 95.5333 231.195 95C232.529 92.3333 234.595 88.9333 237.395 84.8C240.329 80.5333 243.595 76 247.195 71.2C250.795 66.4 254.329 61.8 257.795 57.4C261.262 52.8667 264.262 48.9333 266.795 45.6C269.329 42.2667 271.062 40.0667 271.995 39C273.995 36.4667 275.929 34.0667 277.795 31.8C279.662 29.4 281.329 27.1333 282.795 25C284.395 22.6 285.529 20.4667 286.195 18.6C286.995 16.7333 287.395 15.2 287.395 14C287.395 11.8667 286.529 10.8 284.795 10.8C283.595 10.8 282.062 11.4 280.195 12.6C278.462 13.8 276.462 15.7333 274.195 18.4C270.862 22.4 266.929 27.3333 262.395 33.2C257.995 38.9333 253.462 45.2667 248.795 52.2C244.129 59.1333 239.795 66.4 235.795 74C231.929 81.4667 228.729 89 226.195 96.6C223.795 104.067 222.595 111.267 222.595 118.2C222.595 121.4 223.262 123.667 224.595 125C225.929 126.333 227.529 127 229.395 127C231.395 127 233.462 126.467 235.595 125.4C237.862 124.2 239.729 122.733 241.195 121C243.462 118.6 245.662 115.933 247.795 113C250.062 110.067 252.062 107.333 253.795 104.8C255.662 102.133 256.995 100.133 257.795 98.8C258.195 98.1333 258.595 97.8 258.995 97.8C259.662 97.8 259.662 98.3333 258.995 99.4C256.862 103 254.329 106.8 251.395 110.8C248.595 114.667 246.062 118 243.795 120.8C241.662 123.467 239.062 125.6 235.995 127.2C233.062 128.8 230.129 129.6 227.195 129.6ZM259.62 128.2C256.82 128.2 254.687 126.867 253.22 124.2C251.887 121.4 251.22 119 251.22 117C251.22 112.333 252.62 107.467 255.42 102.4C258.22 97.3333 261.754 92.5333 266.02 88C270.42 83.4667 275.02 79.8 279.82 77C284.62 74.2 289.087 72.8 293.22 72.8C294.42 72.8 295.754 73.3333 297.22 74.4C298.82 75.3333 300.287 76.8667 301.62 79C301.887 79.2667 302.22 79.8667 302.62 80.8C303.02 81.6 303.02 82.3333 302.62 83L302.42 82.6C302.154 81.9333 301.554 81.4 300.62 81C299.687 80.4667 298.287 80.2 296.42 80.2C293.354 80.2 289.887 81.2667 286.02 83.4C282.287 85.5333 278.487 88.4 274.62 92C270.887 95.6 267.487 99.5333 264.42 103.8C261.354 108.067 259.087 112.4 257.62 116.8C256.687 119.067 256.22 121 256.22 122.6C256.22 124.6 256.954 125.6 258.42 125.6C259.487 125.6 260.754 125.067 262.22 124C265.02 121.867 267.954 119.133 271.02 115.8C274.087 112.467 277.02 109 279.82 105.4C282.754 101.8 285.287 98.4667 287.42 95.4C289.687 92.3333 291.287 90.0667 292.22 88.6C292.62 88.0667 293.087 87.8 293.62 87.8C294.287 87.6667 295.087 87.6 296.02 87.6C298.687 87.6 300.354 88.0667 301.02 89C301.82 89.8 301.887 90.6667 301.22 91.6C299.487 94.1333 297.62 97.0667 295.62 100.4C293.754 103.733 292.087 107 290.62 110.2C289.287 113.4 288.62 116.267 288.62 118.8C288.62 120.8 289.42 121.8 291.02 121.8C292.487 121.8 294.087 120.933 295.82 119.2C297.42 117.733 299.287 115.6 301.42 112.8C303.687 110 305.887 107.067 308.02 104C310.287 100.933 312.154 98.2667 313.62 96C314.154 95.3333 314.554 95.0667 314.82 95.2C315.22 95.2 315.22 95.6 314.82 96.4C312.687 99.7333 310.487 103.2 308.22 106.8C305.954 110.267 303.554 113.533 301.02 116.6C296.22 122.733 292.62 125.8 290.22 125.8C288.087 125.8 286.087 125.133 284.22 123.8C282.354 122.467 281.42 120.533 281.42 118C281.42 115.333 281.954 112.267 283.02 108.8C284.22 105.2 285.287 102.4 286.22 100.4C283.42 104.667 280.22 108.933 276.62 113.2C273.02 117.467 269.62 121.067 266.42 124C263.354 126.8 261.087 128.2 259.62 128.2ZM321.327 129.6C318.127 129.6 315.327 128.4 312.927 126C310.66 123.733 309.527 120 309.527 114.8C309.527 108.133 311.26 100 314.727 90.4C318.193 80.8 322.593 70.7333 327.927 60.2C332.06 52.3333 336.46 44.8 341.127 37.6C345.793 30.4 350.393 24 354.927 18.4C359.46 12.6667 363.593 8.19999 367.327 5C371.193 1.66666 374.327 -1.09673e-05 376.727 -1.09673e-05C378.993 -1.09673e-05 380.66 0.599989 381.727 1.79999C382.927 2.99999 383.927 4.33333 384.727 5.8C385.66 7.26666 386.86 8.46666 388.327 9.4C388.193 12.4667 386.593 16.3333 383.527 21C380.46 25.6667 376.793 30.7333 372.527 36.2C369.727 39.5333 365.727 44.2667 360.527 50.4C355.46 56.4 350.393 62.6 345.327 69C341.193 74.0667 337.527 78.9333 334.327 83.6C331.127 88.2667 328.66 92.1333 326.927 95.2C326.393 96.1333 325.993 96.4667 325.727 96.2C325.46 95.9333 325.46 95.5333 325.727 95C327.06 92.3333 329.127 88.9333 331.927 84.8C334.86 80.5333 338.127 76 341.727 71.2C345.327 66.4 348.86 61.8 352.327 57.4C355.793 52.8667 358.793 48.9333 361.327 45.6C363.86 42.2667 365.593 40.0667 366.527 39C368.527 36.4667 370.46 34.0667 372.327 31.8C374.193 29.4 375.86 27.1333 377.327 25C378.927 22.6 380.06 20.4667 380.727 18.6C381.527 16.7333 381.927 15.2 381.927 14C381.927 11.8667 381.06 10.8 379.327 10.8C378.127 10.8 376.593 11.4 374.727 12.6C372.993 13.8 370.993 15.7333 368.727 18.4C365.393 22.4 361.46 27.3333 356.927 33.2C352.527 38.9333 347.993 45.2667 343.327 52.2C338.66 59.1333 334.327 66.4 330.327 74C326.46 81.4667 323.26 89 320.727 96.6C318.327 104.067 317.127 111.267 317.127 118.2C317.127 121.4 317.727 123.667 318.927 125C320.26 126.333 321.793 127 323.527 127C325.393 127 327.393 126.467 329.527 125.4C331.66 124.2 333.46 122.733 334.927 121C338.793 116.867 341.66 113.267 343.527 110.2C345.393 107.133 346.593 105.133 347.127 104.2C346.193 102.067 345.527 99.8667 345.127 97.6C344.727 95.3333 344.527 93.1333 344.527 91C344.527 86.3333 345.393 82.8667 347.127 80.6C348.86 78.2 350.66 77 352.527 77C354.127 77 355.26 77.5333 355.927 78.6C356.593 79.6667 356.927 81 356.927 82.6C356.927 85.2667 356.327 88.2667 355.127 91.6C354.06 94.8 353.127 97.3333 352.327 99.2C350.593 103.067 348.327 107 345.527 111C342.86 114.867 340.393 118.133 338.127 120.8C335.727 123.467 332.993 125.6 329.927 127.2C326.993 128.8 324.127 129.6 321.327 129.6ZM373.089 129C369.222 129 365.889 127.533 363.089 124.6C360.422 121.667 359.089 117.667 359.089 112.6C359.089 110.733 359.289 108.733 359.689 106.6C360.222 104.333 360.956 102 361.889 99.6C363.889 94.9333 366.622 90.4667 370.089 86.2C373.689 81.9333 377.556 78.4 381.689 75.6C385.822 72.8 389.756 71.4 393.489 71.4C393.889 71.4 394.356 71.6 394.889 72C395.422 72.2667 395.822 72.5333 396.089 72.8L397.089 73.8C398.689 75.4 400.222 76.3333 401.689 76.6C403.289 76.8667 404.556 77.6667 405.489 79C407.089 81.5333 407.889 84.6 407.889 88.2C407.889 93.1333 406.356 98.5333 403.289 104.4C400.356 110.133 396.356 115.333 391.289 120C388.756 122.267 385.956 124.333 382.889 126.2C379.822 128.067 376.556 129 373.089 129ZM374.489 126.8C377.689 126.8 380.956 125.733 384.289 123.6C387.622 121.333 390.689 118.4 393.489 114.8C396.422 111.2 398.889 107.4 400.889 103.4C403.022 99.4 404.356 95.6 404.889 92C405.022 91.3333 405.089 90.6667 405.089 90C405.222 89.2 405.289 88.5333 405.289 88C405.289 84.4 404.422 81.8 402.689 80.2C400.956 78.4667 398.889 77.6 396.489 77.6C393.956 77.6 391.356 78.4 388.689 80C386.156 81.4667 382.956 84.5333 379.089 89.2C375.222 93.7333 371.756 98.4667 368.689 103.4C365.889 107.8 364.489 112.067 364.489 116.2C364.489 119.133 365.289 121.667 366.889 123.8C368.622 125.8 371.156 126.8 374.489 126.8ZM433.033 128.6C429.833 128.6 427.633 127.533 426.433 125.4C425.233 123.133 424.833 120.733 425.233 118.2C425.766 114.733 426.699 111.933 428.033 109.8C429.499 107.667 431.233 105.333 433.233 102.8C434.833 100.533 436.366 98.2 437.833 95.8C439.299 93.4 439.499 92 438.433 91.6C437.766 92.1333 436.633 92.7333 435.033 93.4C433.433 94.0667 431.766 94.4 430.033 94.4C428.566 94.4 427.099 94.0667 425.633 93.4C424.299 92.7333 423.299 91.5333 422.633 89.8C420.899 93 418.766 96.5333 416.233 100.4C413.833 104.133 411.366 107.733 408.833 111.2C406.433 114.667 404.299 117.533 402.433 119.8C401.899 120.333 401.433 120.533 401.033 120.4C400.499 120.267 400.433 119.933 400.833 119.4C403.899 115.533 407.433 110.667 411.433 104.8C415.433 98.9333 419.099 92.6 422.433 85.8C425.766 78.8667 427.833 72.1333 428.633 65.6C433.166 67.7333 435.433 70.4667 435.433 73.8C435.433 76.3333 434.366 78.9333 432.233 81.6C430.099 84.1333 427.299 86.4667 423.833 88.6C425.566 91.1333 427.766 92.4 430.433 92.4C432.433 92.4 434.433 91.8 436.433 90.6C438.566 89.2667 440.233 87.8 441.433 86.2C442.499 85 443.366 84.2 444.033 83.8C444.833 83.4 445.499 83.2 446.033 83.2C447.899 83.2 449.233 83.8 450.033 85C450.966 86.0667 451.099 87.2667 450.433 88.6C448.033 91.9333 445.299 96.0667 442.233 101C439.166 105.8 436.433 110.333 434.033 114.6C433.633 115.133 433.099 116.333 432.433 118.2C431.766 120.067 431.433 121.733 431.433 123.2C431.433 125.2 432.233 126.2 433.833 126.2C435.699 126.2 437.833 125.133 440.233 123C442.633 120.733 445.033 118.067 447.433 115C449.833 111.8 451.966 108.733 453.833 105.8C455.833 102.867 457.299 100.733 458.233 99.4C458.899 98.2 459.433 97.6 459.833 97.6C459.966 97.6 460.033 97.7333 460.033 98C460.033 98.5333 459.833 99.1333 459.433 99.8C457.433 103.133 455.299 106.467 453.033 109.8C450.766 113.133 448.499 116.333 446.233 119.4C444.099 122.2 441.899 124.4 439.633 126C437.499 127.733 435.299 128.6 433.033 128.6ZM460.597 128.2C457.797 128.2 455.664 126.867 454.197 124.2C452.864 121.4 452.197 119 452.197 117C452.197 112.333 453.597 107.467 456.397 102.4C459.197 97.3333 462.73 92.5333 466.997 88C471.397 83.4667 475.997 79.8 480.797 77C485.597 74.2 490.064 72.8 494.197 72.8C495.397 72.8 496.73 73.3333 498.197 74.4C499.797 75.3333 501.264 76.8667 502.597 79C502.864 79.2667 503.197 79.8667 503.597 80.8C503.997 81.6 503.997 82.3333 503.597 83L503.397 82.6C503.13 81.9333 502.53 81.4 501.597 81C500.664 80.4667 499.264 80.2 497.397 80.2C494.33 80.2 490.864 81.2667 486.997 83.4C483.264 85.5333 479.464 88.4 475.597 92C471.864 95.6 468.464 99.5333 465.397 103.8C462.33 108.067 460.064 112.4 458.597 116.8C457.664 119.067 457.197 121 457.197 122.6C457.197 124.6 457.93 125.6 459.397 125.6C460.464 125.6 461.73 125.067 463.197 124C465.997 121.867 468.93 119.133 471.997 115.8C475.064 112.467 477.997 109 480.797 105.4C483.73 101.8 486.264 98.4667 488.397 95.4C490.664 92.3333 492.264 90.0667 493.197 88.6C493.597 88.0667 494.064 87.8 494.597 87.8C495.264 87.6667 496.064 87.6 496.997 87.6C499.664 87.6 501.33 88.0667 501.997 89C502.797 89.8 502.864 90.6667 502.197 91.6C500.464 94.1333 498.597 97.0667 496.597 100.4C494.73 103.733 493.064 107 491.597 110.2C490.264 113.4 489.597 116.267 489.597 118.8C489.597 120.8 490.397 121.8 491.997 121.8C493.464 121.8 495.064 120.933 496.797 119.2C498.397 117.733 500.264 115.6 502.397 112.8C504.664 110 506.864 107.067 508.997 104C511.264 100.933 513.13 98.2667 514.597 96C515.13 95.3333 515.53 95.0667 515.797 95.2C516.197 95.2 516.197 95.6 515.797 96.4C513.664 99.7333 511.464 103.2 509.197 106.8C506.93 110.267 504.53 113.533 501.997 116.6C497.197 122.733 493.597 125.8 491.197 125.8C489.064 125.8 487.064 125.133 485.197 123.8C483.33 122.467 482.397 120.533 482.397 118C482.397 115.333 482.93 112.267 483.997 108.8C485.197 105.2 486.264 102.4 487.197 100.4C484.397 104.667 481.197 108.933 477.597 113.2C473.997 117.467 470.597 121.067 467.397 124C464.33 126.8 462.064 128.2 460.597 128.2ZM520.503 129C517.703 129 515.236 127.867 513.103 125.6C511.103 123.333 510.103 120.067 510.103 115.8C510.103 112.6 510.836 108.733 512.303 104.2C513.903 99.5333 515.836 94.6667 518.103 89.6C520.503 84.4 522.97 79.5333 525.503 75C528.17 70.3333 530.503 66.4 532.503 63.2C530.236 63.2 528.236 63.2 526.503 63.2C524.77 63.0667 523.37 63.0667 522.303 63.2C521.37 63.2 520.77 63.0667 520.503 62.8C520.37 62.4 520.37 62.1333 520.503 62C520.503 61.6 520.703 61.0667 521.103 60.4C521.636 59.7333 522.103 59.4 522.503 59.4H534.703C535.37 58.6 536.236 57.2 537.303 55.2C538.503 53.2 539.703 51.0667 540.903 48.8C542.103 46.5333 543.103 44.5333 543.903 42.8C544.836 40.9333 545.303 39.8 545.303 39.4C545.303 38.2 544.903 37.3333 544.103 36.8C543.57 36.5333 543.303 36.4 543.303 36.4C543.17 36.4 543.103 36.4 543.103 36.4C543.103 36.2667 543.036 36.2 542.903 36.2C542.77 36.0667 542.703 35.8667 542.703 35.6C542.703 35.2 542.903 34.9333 543.303 34.8C543.703 34.5333 544.036 34.4 544.303 34.4C545.103 34.4 545.836 34.6 546.503 35C547.303 35.2667 548.57 35.8667 550.303 36.8C551.103 37.2 551.903 37.6 552.703 38C553.636 38.2667 554.37 38.6 554.903 39L556.503 40C555.703 41.3333 554.436 43.2 552.703 45.6C551.103 48 549.503 50.4667 547.903 53C546.303 55.5333 544.97 57.6667 543.903 59.4H579.703C581.303 59.4 582.103 59.6 582.103 60C582.103 60.4 581.503 60.8667 580.303 61.4C579.236 61.8 578.436 62 577.903 62C576.17 62.1333 573.703 62.2 570.503 62.2C567.436 62.2 564.103 62.2667 560.503 62.4C557.036 62.4 553.77 62.5333 550.703 62.8C547.77 62.9333 545.703 63.2 544.503 63.6C542.503 64.2667 540.236 66.4667 537.703 70.2C535.17 73.8 532.703 78.0667 530.303 83C528.036 87.9333 525.97 92.7333 524.103 97.4C523.703 98.4667 522.97 100.267 521.903 102.8C520.97 105.333 520.036 108.067 519.103 111C518.303 113.933 517.903 116.667 517.903 119.2C517.903 121.6 518.37 123.333 519.303 124.4C520.236 125.467 521.37 126 522.703 126C524.303 126 526.103 125.067 528.103 123.2C530.236 121.333 532.57 118.933 535.103 116C537.77 112.667 540.236 109.333 542.503 106C544.903 102.533 546.436 100.2 547.103 99C548.17 97.2667 548.836 96.4 549.103 96.4C549.236 96.4 549.303 96.4667 549.303 96.6C549.303 97 549.103 97.7333 548.703 98.8C548.303 99.7333 547.903 100.533 547.503 101.2C545.103 104.667 542.503 108.533 539.703 112.8C536.903 117.067 534.036 120.733 531.103 123.8C527.636 127.267 524.103 129 520.503 129ZM557.473 128.6C553.873 128.6 550.54 127.333 547.473 124.8C544.54 122.133 543.073 118.267 543.073 113.2C543.073 109.2 544.14 104.867 546.273 100.2C548.407 95.5333 551.14 91.0667 554.473 86.8C557.94 82.5333 561.607 79 565.473 76.2C569.34 73.4 572.94 71.9333 576.273 71.8C576.807 72.3333 577.407 72.7333 578.073 73C578.873 73.2667 579.607 73.5333 580.273 73.8L585.473 75C588.407 75.8 589.873 77.6667 589.873 80.6C589.873 82.3333 589.273 84.2 588.073 86.2C587.007 88.2 585.34 89.9333 583.073 91.4C581.873 92.2 580.54 93 579.073 93.8C577.74 94.6 576.34 95.4 574.873 96.2L565.873 101C563.073 102.467 560.607 104.067 558.473 105.8C556.34 107.4 554.807 109.133 553.873 111C553.873 111 553.673 111.067 553.273 111.2C553.007 111.2 552.94 110.933 553.073 110.4C554.007 108.133 555.807 105.867 558.473 103.6C561.273 101.2 564.073 99.1333 566.873 97.4C568.207 96.3333 569.54 95.4 570.873 94.6C572.34 93.8 573.74 92.9333 575.073 92C576.407 91.0667 577.673 90.1333 578.873 89.2C580.207 88.1333 581.34 87.1333 582.273 86.2C583.34 85.1333 584.073 84.0667 584.473 83C585.007 81.9333 585.273 81 585.273 80.2C585.273 77.6667 583.807 76.4 580.873 76.4C579.007 76.4 576.873 77.2 574.473 78.8C571.54 80.8 568.74 83.2 566.073 86C563.407 88.6667 560.873 91.6 558.473 94.8C555.94 98.2667 553.673 102.267 551.673 106.8C549.807 111.333 548.873 115.133 548.873 118.2C548.873 121.267 549.74 123.467 551.473 124.8C553.34 126 555.473 126.6 557.873 126.6C561.207 126.6 564.407 125.733 567.473 124C569.74 122.667 571.873 121 573.873 119C575.873 116.867 577.54 115 578.873 113.4C579.94 112.067 581.14 110.467 582.473 108.6C583.94 106.733 584.94 105.333 585.473 104.4C585.74 104.133 585.94 104.133 586.073 104.4C586.207 104.667 586.273 104.867 586.273 105C585.74 105.933 584.807 107.467 583.473 109.6C582.273 111.6 580.473 114.133 578.073 117.2C575.273 120.8 572.34 123.6 569.273 125.6C566.207 127.6 562.273 128.6 557.473 128.6Z" fill="#0012A5" fill-opacity="0.06"/>
</svg>
