<svg width="671" height="153" viewBox="0 0 671 153" fill="none" xmlns="http://www.w3.org/2000/svg">
<path d="M47.6 136.6C41.7333 136.6 36 135.733 30.4 134C24.9333 132.267 19.8667 129.333 15.2 125.2C10.9333 122.533 7.4 118.733 4.6 113.8C1.93333 108.733 0.866668 103.533 1.4 98.2C2.06667 91.9333 4.26667 85.4667 8 78.8C11.7333 72.1333 16.6 65.5333 22.6 59C28.6 52.3333 35.2667 46.1333 42.6 40.4C50.0667 34.5333 57.8 29.3333 65.8 24.8C73.8 20.1333 81.6 16.4667 89.2 13.8C98 10.7333 106.4 9.19999 114.4 9.19999C119.467 9.19999 123.6 9.86666 126.8 11.2C130.133 12.5333 131.867 14.6 132 17.4C134.667 21 136 24.9333 136 29.2C136 34.2667 134.267 39.2667 130.8 44.2C127.467 49.1333 123.333 53.8 118.4 58.2C113.467 62.6 108.467 66.4667 103.4 69.8C98.3333 73 94.0667 75.5333 90.6 77.4C90.0667 77.9333 89.5333 78.2 89 78.2C88.0667 78.2 88.0667 77.6 89 76.4C91.2667 75.6 94.0667 73.9333 97.4 71.4C100.867 68.7333 104.533 65.5333 108.4 61.8C112.267 58.0667 115.867 54.2 119.2 50.2C122.667 46.0667 125.467 42.0667 127.6 38.2C129.733 34.2 130.8 30.6667 130.8 27.6C130.8 24.8 129.667 22.6 127.4 21C125.133 19.2667 121.4 18.4 116.2 18.4C109.267 18.4 101.467 19.8667 92.8 22.8C84.1333 25.6 75.3333 29.6 66.4 34.8C57.4667 40 49.1333 46.2667 41.4 53.6C33.6667 60.8 27.2 68.8667 22 77.8C16.9333 86.7333 13.8667 96.2667 12.8 106.4C12.6667 106.933 12.6 107.467 12.6 108C12.6 108.4 12.6 108.867 12.6 109.4C12.6 114.867 14 119.267 16.8 122.6C19.7333 125.933 23.5333 128.333 28.2 129.8C32.8667 131.267 37.9333 132 43.4 132C45.6667 132 47.9333 131.867 50.2 131.6C52.6 131.333 54.9333 131 57.2 130.6C68.5333 128.467 79 125.267 88.6 121C98.2 116.733 106.733 112.067 114.2 107C115.4 106.2 116.2 105.8 116.6 105.8C116.867 105.8 117 105.933 117 106.2C117 106.6 116.6 107.2 115.8 108C112.867 110.8 109.333 113.733 105.2 116.8C101.067 119.867 96.8667 122.467 92.6 124.6C86.0667 127.8 78.8667 130.6 71 133C63.2667 135.4 55.4667 136.6 47.6 136.6ZM134.027 133C130.16 133 126.827 131.533 124.027 128.6C121.36 125.667 120.027 121.667 120.027 116.6C120.027 114.733 120.227 112.733 120.627 110.6C121.16 108.333 121.893 106 122.827 103.6C124.827 98.9333 127.56 94.4667 131.027 90.2C134.627 85.9333 138.493 82.4 142.627 79.6C146.76 76.8 150.693 75.4 154.427 75.4C154.827 75.4 155.293 75.6 155.827 76C156.36 76.2667 156.76 76.5333 157.027 76.8L158.027 77.8C159.627 79.4 161.16 80.3333 162.627 80.6C164.227 80.8667 165.493 81.6667 166.427 83C168.027 85.5333 168.827 88.6 168.827 92.2C168.827 97.1333 167.293 102.533 164.227 108.4C161.293 114.133 157.293 119.333 152.227 124C149.693 126.267 146.893 128.333 143.827 130.2C140.76 132.067 137.493 133 134.027 133ZM135.427 130.8C138.627 130.8 141.893 129.733 145.227 127.6C148.56 125.333 151.627 122.4 154.427 118.8C157.36 115.2 159.827 111.4 161.827 107.4C163.96 103.4 165.293 99.6 165.827 96C165.96 95.3333 166.027 94.6667 166.027 94C166.16 93.2 166.227 92.5333 166.227 92C166.227 88.4 165.36 85.8 163.627 84.2C161.893 82.4667 159.827 81.6 157.427 81.6C154.893 81.6 152.293 82.4 149.627 84C147.093 85.4667 143.893 88.5333 140.027 93.2C136.16 97.7333 132.693 102.467 129.627 107.4C126.827 111.8 125.427 116.067 125.427 120.2C125.427 123.133 126.227 125.667 127.827 127.8C129.56 129.8 132.093 130.8 135.427 130.8ZM206.17 132.6C202.704 132.6 200.237 131.6 198.77 129.6C197.437 127.467 196.77 125 196.77 122.2C196.77 119 197.237 115.8 198.17 112.6C199.237 109.267 200.37 106.267 201.57 103.6C202.904 100.8 203.97 98.6667 204.77 97.2C207.037 92.9333 208.17 90.1333 208.17 88.8C208.17 87.3333 207.504 86.8667 206.17 87.4C205.104 87.8 203.637 88.9333 201.77 90.8C199.904 92.6667 197.97 94.8 195.97 97.2C193.97 99.6 192.17 101.8 190.57 103.8C189.104 105.8 188.17 107.133 187.77 107.8C184.037 113.133 181.437 117.533 179.97 121C178.504 124.467 177.437 127 176.77 128.6C176.504 129.267 175.77 129.6 174.57 129.6C173.37 129.6 172.17 129.133 170.97 128.2C169.77 127.133 169.17 125.6 169.17 123.6C169.17 122.533 169.77 120.667 170.97 118C172.17 115.2 173.637 111.933 175.37 108.2C176.97 104.6 178.57 101 180.17 97.4C181.77 93.6667 183.037 90.7333 183.97 88.6C183.037 87.8 182.57 87.2 182.57 86.8C182.57 86.4 182.637 86.0667 182.77 85.8C183.037 85.1333 183.57 84.0667 184.37 82.6C185.17 81 185.97 79.4667 186.77 78C187.57 76.4 188.104 75.4 188.37 75C188.77 74.7333 189.77 74.2667 191.37 73.6C193.104 72.9333 194.77 72.6 196.37 72.6H197.17C198.77 72.6 199.57 73.0667 199.57 74C199.57 74.9333 199.104 76.1333 198.17 77.6C197.77 78.2667 196.837 80 195.37 82.8C193.904 85.4667 192.237 88.5333 190.37 92C188.504 95.4667 186.77 98.8 185.17 102C183.704 105.067 182.637 107.4 181.97 109C181.57 110.2 181.37 111.4 181.37 112.6C181.504 113.667 181.837 113.8 182.37 113C186.104 107.4 189.57 102.6 192.77 98.6C195.97 94.6 199.17 90.8667 202.37 87.4C205.57 83.9333 209.104 80.3333 212.97 76.6C214.304 77.1333 215.704 77.4 217.17 77.4C218.637 77.4 219.904 77.8 220.97 78.6C221.504 79 221.77 79.6667 221.77 80.6C221.77 82.4667 220.637 85.2667 218.37 89C216.237 92.6 213.837 96.6667 211.17 101.2C209.17 104.667 207.17 108.667 205.17 113.2C203.17 117.733 202.17 121.667 202.17 125C202.17 126.733 202.437 128.2 202.97 129.4C203.637 130.467 204.637 131 205.97 131C207.17 131 208.504 130.533 209.97 129.6C211.037 128.933 213.37 126.733 216.97 123C220.57 119.133 224.504 113.933 228.77 107.4C229.17 107 229.437 106.8 229.57 106.8C229.837 106.8 229.97 106.933 229.97 107.2C229.97 107.467 229.77 108 229.37 108.8C224.97 116.267 220.57 122.133 216.17 126.4C211.904 130.533 208.57 132.6 206.17 132.6ZM239.644 133C236.844 133 234.377 131.867 232.244 129.6C230.244 127.333 229.244 124.067 229.244 119.8C229.244 116.6 229.977 112.733 231.444 108.2C233.044 103.533 234.977 98.6667 237.244 93.6C239.644 88.4 242.11 83.5333 244.644 79C247.31 74.3333 249.644 70.4 251.644 67.2C249.377 67.2 247.377 67.2 245.644 67.2C243.91 67.0667 242.51 67.0667 241.444 67.2C240.51 67.2 239.91 67.0667 239.644 66.8C239.51 66.4 239.51 66.1333 239.644 66C239.644 65.6 239.844 65.0667 240.244 64.4C240.777 63.7333 241.244 63.4 241.644 63.4H253.844C254.51 62.6 255.377 61.2 256.444 59.2C257.644 57.2 258.844 55.0667 260.044 52.8C261.244 50.5333 262.244 48.5333 263.044 46.8C263.977 44.9333 264.444 43.8 264.444 43.4C264.444 42.2 264.044 41.3333 263.244 40.8C262.71 40.5333 262.444 40.4 262.444 40.4C262.31 40.4 262.244 40.4 262.244 40.4C262.244 40.2667 262.177 40.2 262.044 40.2C261.91 40.0667 261.844 39.8667 261.844 39.6C261.844 39.2 262.044 38.9333 262.444 38.8C262.844 38.5333 263.177 38.4 263.444 38.4C264.244 38.4 264.977 38.6 265.644 39C266.444 39.2667 267.71 39.8667 269.444 40.8C270.244 41.2 271.044 41.6 271.844 42C272.777 42.2667 273.51 42.6 274.044 43L275.644 44C274.844 45.3333 273.577 47.2 271.844 49.6C270.244 52 268.644 54.4667 267.044 57C265.444 59.5333 264.11 61.6667 263.044 63.4H298.844C300.444 63.4 301.244 63.6 301.244 64C301.244 64.4 300.644 64.8667 299.444 65.4C298.377 65.8 297.577 66 297.044 66C295.31 66.1333 292.844 66.2 289.644 66.2C286.577 66.2 283.244 66.2667 279.644 66.4C276.177 66.4 272.91 66.5333 269.844 66.8C266.91 66.9333 264.844 67.2 263.644 67.6C261.644 68.2667 259.377 70.4667 256.844 74.2C254.31 77.8 251.844 82.0667 249.444 87C247.177 91.9333 245.11 96.7333 243.244 101.4C242.844 102.467 242.11 104.267 241.044 106.8C240.11 109.333 239.177 112.067 238.244 115C237.444 117.933 237.044 120.667 237.044 123.2C237.044 125.6 237.51 127.333 238.444 128.4C239.377 129.467 240.51 130 241.844 130C243.444 130 245.244 129.067 247.244 127.2C249.377 125.333 251.71 122.933 254.244 120C256.91 116.667 259.377 113.333 261.644 110C264.044 106.533 265.577 104.2 266.244 103C267.31 101.267 267.977 100.4 268.244 100.4C268.377 100.4 268.444 100.467 268.444 100.6C268.444 101 268.244 101.733 267.844 102.8C267.444 103.733 267.044 104.533 266.644 105.2C264.244 108.667 261.644 112.533 258.844 116.8C256.044 121.067 253.177 124.733 250.244 127.8C246.777 131.267 243.244 133 239.644 133ZM268.214 132.2C265.414 132.2 263.281 130.867 261.814 128.2C260.481 125.4 259.814 123 259.814 121C259.814 116.333 261.214 111.467 264.014 106.4C266.814 101.333 270.347 96.5333 274.614 92C279.014 87.4667 283.614 83.8 288.414 81C293.214 78.2 297.681 76.8 301.814 76.8C303.014 76.8 304.347 77.3333 305.814 78.4C307.414 79.3333 308.881 80.8667 310.214 83C310.481 83.2667 310.814 83.8667 311.214 84.8C311.614 85.6 311.614 86.3333 311.214 87L311.014 86.6C310.747 85.9333 310.147 85.4 309.214 85C308.281 84.4667 306.881 84.2 305.014 84.2C301.947 84.2 298.481 85.2667 294.614 87.4C290.881 89.5333 287.081 92.4 283.214 96C279.481 99.6 276.081 103.533 273.014 107.8C269.947 112.067 267.681 116.4 266.214 120.8C265.281 123.067 264.814 125 264.814 126.6C264.814 128.6 265.547 129.6 267.014 129.6C268.081 129.6 269.347 129.067 270.814 128C273.614 125.867 276.547 123.133 279.614 119.8C282.681 116.467 285.614 113 288.414 109.4C291.347 105.8 293.881 102.467 296.014 99.4C298.281 96.3333 299.881 94.0667 300.814 92.6C301.214 92.0667 301.681 91.8 302.214 91.8C302.881 91.6667 303.681 91.6 304.614 91.6C307.281 91.6 308.947 92.0667 309.614 93C310.414 93.8 310.481 94.6667 309.814 95.6C308.081 98.1333 306.214 101.067 304.214 104.4C302.347 107.733 300.681 111 299.214 114.2C297.881 117.4 297.214 120.267 297.214 122.8C297.214 124.8 298.014 125.8 299.614 125.8C301.081 125.8 302.681 124.933 304.414 123.2C306.014 121.733 307.881 119.6 310.014 116.8C312.281 114 314.481 111.067 316.614 108C318.881 104.933 320.747 102.267 322.214 100C322.747 99.3333 323.147 99.0667 323.414 99.2C323.814 99.2 323.814 99.6 323.414 100.4C321.281 103.733 319.081 107.2 316.814 110.8C314.547 114.267 312.147 117.533 309.614 120.6C304.814 126.733 301.214 129.8 298.814 129.8C296.681 129.8 294.681 129.133 292.814 127.8C290.947 126.467 290.014 124.533 290.014 122C290.014 119.333 290.547 116.267 291.614 112.8C292.814 109.2 293.881 106.4 294.814 104.4C292.014 108.667 288.814 112.933 285.214 117.2C281.614 121.467 278.214 125.067 275.014 128C271.947 130.8 269.681 132.2 268.214 132.2ZM331.72 133C327.587 133 324.054 131.467 321.12 128.4C318.32 125.333 316.92 121.2 316.92 116C316.92 112.133 317.787 108 319.52 103.6C321.52 98.9333 324.12 94.5333 327.32 90.4C330.654 86.1333 334.254 82.6667 338.12 80C341.987 77.2 345.787 75.8 349.52 75.8C352.054 75.8 354.52 76.5333 356.92 78C359.32 79.3333 360.187 81.5333 359.52 84.6C359.387 85 359.12 85.2667 358.72 85.4C358.454 85.5333 358.32 85.5333 358.32 85.4C357.387 82.7333 355.387 81.4 352.32 81.4C350.587 81.4 348.787 82 346.92 83.2C343.187 86 339.654 89.3333 336.32 93.2C333.12 96.9333 330.387 100.733 328.12 104.6C325.854 108.467 324.32 112 323.52 115.2C323.254 116.533 322.987 117.733 322.72 118.8C322.587 119.733 322.52 120.733 322.52 121.8C322.52 125.133 323.387 127.533 325.12 129C326.854 130.333 328.92 131 331.32 131C335.187 131 338.787 129.8 342.12 127.4C345.054 125.133 347.787 122.533 350.32 119.6C352.854 116.667 355.32 113.4 357.72 109.8C358.12 109.133 358.52 108.8 358.92 108.8C359.054 108.8 359.12 108.933 359.12 109.2C359.12 109.6 358.854 110.267 358.32 111.2C356.32 114.133 354.054 117.333 351.52 120.8C348.987 124.133 346.187 126.867 343.12 129C341.254 130.333 339.32 131.333 337.32 132C335.454 132.667 333.587 133 331.72 133ZM369.527 133C366.727 133 364.26 131.867 362.127 129.6C360.127 127.333 359.127 124.067 359.127 119.8C359.127 116.6 359.86 112.733 361.327 108.2C362.927 103.533 364.86 98.6667 367.127 93.6C369.527 88.4 371.993 83.5333 374.527 79C377.193 74.3333 379.527 70.4 381.527 67.2C379.26 67.2 377.26 67.2 375.527 67.2C373.793 67.0667 372.393 67.0667 371.327 67.2C370.393 67.2 369.793 67.0667 369.527 66.8C369.393 66.4 369.393 66.1333 369.527 66C369.527 65.6 369.727 65.0667 370.127 64.4C370.66 63.7333 371.127 63.4 371.527 63.4H383.727C384.393 62.6 385.26 61.2 386.327 59.2C387.527 57.2 388.727 55.0667 389.927 52.8C391.127 50.5333 392.127 48.5333 392.927 46.8C393.86 44.9333 394.327 43.8 394.327 43.4C394.327 42.2 393.927 41.3333 393.127 40.8C392.593 40.5333 392.327 40.4 392.327 40.4C392.193 40.4 392.127 40.4 392.127 40.4C392.127 40.2667 392.06 40.2 391.927 40.2C391.793 40.0667 391.727 39.8667 391.727 39.6C391.727 39.2 391.927 38.9333 392.327 38.8C392.727 38.5333 393.06 38.4 393.327 38.4C394.127 38.4 394.86 38.6 395.527 39C396.327 39.2667 397.593 39.8667 399.327 40.8C400.127 41.2 400.927 41.6 401.727 42C402.66 42.2667 403.393 42.6 403.927 43L405.527 44C404.727 45.3333 403.46 47.2 401.727 49.6C400.127 52 398.527 54.4667 396.927 57C395.327 59.5333 393.993 61.6667 392.927 63.4H428.727C430.327 63.4 431.127 63.6 431.127 64C431.127 64.4 430.527 64.8667 429.327 65.4C428.26 65.8 427.46 66 426.927 66C425.193 66.1333 422.727 66.2 419.527 66.2C416.46 66.2 413.127 66.2667 409.527 66.4C406.06 66.4 402.793 66.5333 399.727 66.8C396.793 66.9333 394.727 67.2 393.527 67.6C391.527 68.2667 389.26 70.4667 386.727 74.2C384.193 77.8 381.727 82.0667 379.327 87C377.06 91.9333 374.993 96.7333 373.127 101.4C372.727 102.467 371.993 104.267 370.927 106.8C369.993 109.333 369.06 112.067 368.127 115C367.327 117.933 366.927 120.667 366.927 123.2C366.927 125.6 367.393 127.333 368.327 128.4C369.26 129.467 370.393 130 371.727 130C373.327 130 375.127 129.067 377.127 127.2C379.26 125.333 381.593 122.933 384.127 120C386.793 116.667 389.26 113.333 391.527 110C393.927 106.533 395.46 104.2 396.127 103C397.193 101.267 397.86 100.4 398.127 100.4C398.26 100.4 398.327 100.467 398.327 100.6C398.327 101 398.127 101.733 397.727 102.8C397.327 103.733 396.927 104.533 396.527 105.2C394.127 108.667 391.527 112.533 388.727 116.8C385.927 121.067 383.06 124.733 380.127 127.8C376.66 131.267 373.127 133 369.527 133ZM481.291 132.4C477.557 132.4 474.157 130.867 471.091 127.8C468.024 124.6 466.491 121.2 466.491 117.6C466.491 113.467 467.891 108.667 470.691 103.2C473.491 97.6 476.757 91.9333 480.491 86.2C487.157 76.0667 494.291 66.2667 501.891 56.8C509.624 47.2 516.757 37.3333 523.291 27.2C524.757 24.9333 525.957 22.9333 526.891 21.2C527.824 19.3333 528.557 17.7333 529.091 16.4C529.357 15.8667 529.491 15.4 529.491 15C529.491 14.6 529.491 14.2667 529.491 14C529.491 12.8 529.024 12 528.091 11.6C527.291 11.0667 526.291 10.8 525.091 10.8C523.891 10.8 522.624 10.9333 521.291 11.2C519.957 11.4667 518.757 11.7333 517.691 12C510.357 13.7333 502.691 16.8 494.691 21.2C486.824 25.4667 479.491 29.8667 472.691 34.4C466.824 38.2667 461.091 42.8667 455.491 48.2C450.024 53.5333 445.491 59.0667 441.891 64.8C438.291 70.5333 436.491 75.8667 436.491 80.8C436.491 83.3333 437.091 85.7333 438.291 88C438.691 88.8 438.891 89.3333 438.891 89.6C438.891 89.7333 438.824 89.8 438.691 89.8C438.424 89.8 438.091 89.6667 437.691 89.4C437.291 89 436.957 88.7333 436.691 88.6C435.357 86.8667 434.157 84.4667 433.091 81.4C432.024 78.2 431.557 75.6667 431.691 73.8C432.357 66.7333 435.891 59.6 442.291 52.4C448.824 45.0667 456.957 38.2 466.691 31.8C468.291 30.7333 470.824 29.2 474.291 27.2C477.757 25.2 481.691 23 486.091 20.6C490.624 18.2 495.224 16 499.891 14C504.691 11.8667 509.157 10.1333 513.291 8.8C517.557 7.33333 521.157 6.59999 524.091 6.59999C526.091 6.59999 528.357 6.93332 530.891 7.59999C533.424 8.26666 535.624 9.33333 537.491 10.8C539.357 12.2667 540.291 14.1333 540.291 16.4C540.291 19.3333 539.291 22.4667 537.291 25.8C535.291 29 532.691 32.4 529.491 36C524.024 42.4 518.291 48.8667 512.291 55.4C506.424 61.9333 500.824 68.6667 495.491 75.6C490.291 82.4 485.891 89.4 482.291 96.6C478.824 103.8 476.691 111.133 475.891 118.6C475.891 119 475.824 119.4 475.691 119.8C475.691 120.2 475.691 120.6 475.691 121C475.691 123.8 476.291 125.933 477.491 127.4C478.691 128.733 480.157 129.4 481.891 129.4C484.424 129.4 487.224 128.333 490.291 126.2C493.491 123.933 496.024 122 497.891 120.4C503.624 115.6 509.024 110.467 514.091 105C519.157 99.5333 524.291 94.1333 529.491 88.8C535.224 83.2 541.157 77.2 547.291 70.8C553.557 64.4 559.357 58.2 564.691 52.2C564.957 51.9333 565.291 51.8 565.691 51.8C566.224 51.6667 566.157 52.1333 565.491 53.2C562.424 57.0667 558.624 61.6667 554.091 67C549.557 72.3333 544.557 77.9333 539.091 83.8C533.757 89.6667 528.357 95.4 522.891 101C517.557 106.467 512.491 111.4 507.691 115.8C503.024 120.2 499.091 123.6 495.891 126C493.757 127.6 491.357 129.067 488.691 130.4C486.157 131.733 483.691 132.4 481.291 132.4ZM530.891 153C528.357 153 526.357 152.2 524.891 150.6C523.424 149.133 522.357 147.333 521.691 145.2C521.024 143.067 520.691 141.067 520.691 139.2C520.691 134.267 522.091 128.333 524.891 121.4C527.824 114.467 531.557 107.267 536.091 99.8C540.757 92.2 545.691 84.8 550.891 77.6C556.224 70.2667 561.291 63.7333 566.091 58C571.024 52.1333 575.157 47.5333 578.491 44.2C577.691 43.1333 577.291 42.2 577.291 41.4C577.291 39.6667 578.091 38.0667 579.691 36.6C581.291 35 583.091 33.5333 585.091 32.2C587.091 30.8667 588.624 29.8 589.691 29C591.557 29.1333 593.624 29.6667 595.891 30.6C598.157 31.5333 599.291 33.0667 599.291 35.2C599.291 37.0667 598.157 39.1333 595.891 41.4C593.757 43.5333 592.091 45.1333 590.891 46.2L584.891 51.4C583.957 52.2 583.091 52.9333 582.291 53.6C581.624 54.2667 581.024 54.9333 580.491 55.6C577.157 59.0667 573.091 63.4667 568.291 68.8C563.624 74 558.824 79.7333 553.891 86C548.957 92.2667 544.357 98.7333 540.091 105.4C535.824 112.067 532.357 118.6 529.691 125C527.024 131.267 525.691 137.067 525.691 142.4C525.691 144.533 526.091 146.467 526.891 148.2C527.824 150.067 529.491 151.333 531.891 152C532.291 152 532.491 152.133 532.491 152.4C532.491 152.8 531.957 153 530.891 153ZM592.744 133C586.877 133 581.544 131.6 576.744 128.8C572.077 126 569.744 121.733 569.744 116C569.744 114.133 570.077 112 570.744 109.6C571.544 106.8 572.744 104.8 574.344 103.6C575.277 102.667 575.677 102.467 575.544 103C575.544 103.4 575.41 103.733 575.144 104C573.81 105.467 573.144 107.533 573.144 110.2C573.144 115.667 575.277 119.533 579.544 121.8C583.81 124.067 588.61 125.2 593.944 125.2C601.144 125.2 607.077 123.867 611.744 121.2C619.744 116.667 623.744 111.733 623.744 106.4C623.744 105.2 623.41 103.933 622.744 102.6C622.077 101.267 621.144 100 619.944 98.8C618.744 97.4667 617.41 96.1333 615.944 94.8C612.077 91.3333 608.01 88.0667 603.744 85C599.477 81.9333 595.61 78.4667 592.144 74.6C590.01 72.2 588.277 69.6 586.944 66.8C585.744 63.8667 585.144 60.6667 585.144 57.2C585.144 51.6 586.41 46.0667 588.944 40.6C591.61 35.1333 595.144 30 599.544 25.2C604.077 20.4 609.077 16.2 614.544 12.6C620.01 8.86666 625.61 6 631.344 3.99999C637.077 1.86666 642.544 0.799994 647.744 0.799994C650.544 0.799994 653.677 1.19999 657.144 1.99999C660.61 2.66666 663.41 3.73333 665.544 5.2C668.61 7.46666 670.144 10.4 670.144 14C670.144 16.5333 669.344 19 667.744 21.4C666.144 23.8 664.077 25.6 661.544 26.8C661.544 26.8 661.344 26.7333 660.944 26.6C660.677 26.3333 660.81 26.0667 661.344 25.8C662.81 25 664.077 23.8 665.144 22.2C666.344 20.6 666.944 18.9333 666.944 17.2C666.944 15.8667 666.61 14.8 665.944 14C664.61 12.1333 662.277 10.6 658.944 9.39999C655.744 8.19999 652.81 7.59999 650.144 7.59999C643.744 7.59999 637.344 9.06666 630.944 12C624.544 14.9333 618.677 18.8667 613.344 23.8C608.01 28.7333 603.677 34.3333 600.344 40.6C597.144 46.8667 595.544 53.3333 595.544 60C595.544 64.2667 596.344 67.9333 597.944 71C599.544 73.9333 601.61 76.5333 604.144 78.8C606.677 81.0667 609.344 83.2667 612.144 85.4C615.077 87.5333 617.744 89.8667 620.144 92.4C621.877 94.1333 623.21 96.1333 624.144 98.4C625.21 100.533 625.744 103.067 625.744 106C625.744 110.8 624.21 115.2 621.144 119.2C618.21 123.067 614.61 126.2 610.344 128.6C604.877 131.533 599.01 133 592.744 133Z" fill="#0012A5" fill-opacity="0.06"/>
</svg>
