<svg width="527" height="625" viewBox="0 0 527 625" fill="none" xmlns="http://www.w3.org/2000/svg">
<path d="M1035.69 514.179C980.258 560.69 914.215 593.451 841.33 610.59C768.445 627.73 690.145 628.913 610.9 614.072C531.656 599.231 453.019 568.656 379.479 524.093C305.94 479.531 238.938 421.853 182.299 354.354C125.66 286.854 80.4932 210.854 49.3776 130.694C18.2621 50.5331 1.80711 -32.2185 0.952068 -112.836C0.0969902 -193.454 14.8587 -270.359 44.3943 -339.161C73.9299 -407.962 117.661 -467.313 173.091 -513.824L604.389 0.177591L1035.69 514.179Z" fill="url(#paint0_linear_24_22)"/>
<defs>
<linearGradient id="paint0_linear_24_22" x1="415.5" y1="100.5" x2="247.5" y2="296.5" gradientUnits="userSpaceOnUse">
<stop stop-color="#0027B5"/>
<stop offset="0.767009" stop-color="#00006A"/>
</linearGradient>
</defs>
</svg>
