<svg width="82" height="82" viewBox="0 0 82 82" fill="none" xmlns="http://www.w3.org/2000/svg">
<rect width="82" height="82" fill="#1E1E1E"/>
<g clip-path="url(#clip0_0_1)">
<rect width="1600" height="4600" transform="translate(-1303 -1225)" fill="white"/>
<circle cx="41" cy="41" r="41" fill="url(#paint0_linear_0_1)"/>
<path d="M62.313 43.7692H59.6351L60.1946 38.1309C61.0239 37.8617 61.6255 37.0767 61.6255 36.1538V32C61.6255 30.5087 60.6789 29.2468 59.3634 28.7607C59.9088 28.1481 60.2504 27.3471 60.2504 26.4615C60.2504 24.5527 58.7085 23 56.8129 23C54.9173 23 53.3754 24.5527 53.3754 26.4615C53.3754 27.347 53.717 28.1481 54.2624 28.7607C52.9469 29.2469 52.0003 30.5088 52.0003 32V36.1538C52.0003 37.0767 52.6013 37.8618 53.4309 38.1309L53.9907 43.7692H27.3744L27.8473 40.9113C28.6944 40.6532 29.3126 39.8599 29.3126 38.9231V36.1538C29.3126 34.7692 28.4953 33.5806 27.3256 33.0273C27.7025 32.5532 27.9376 31.9604 27.9376 31.3077C27.9376 29.7806 26.7041 28.5385 25.1875 28.5385C23.671 28.5385 22.4375 29.7806 22.4375 31.3077C22.4375 31.9604 22.6726 32.5532 23.0495 33.0273C21.8792 33.5805 21.0625 34.7692 21.0625 36.1538V38.9231C21.0625 39.8599 21.6806 40.6532 22.5275 40.9113L23.0007 43.7692H19.6875C19.3082 43.7692 19 44.0795 19 44.4615V47.2308C19 47.6128 19.3082 47.9231 19.6875 47.9231H37.1196C35.7144 49.066 34.8124 50.8128 34.8124 52.7692C34.8124 56.2045 37.5886 59 41 59C44.4115 59 47.1876 56.2045 47.1876 52.7692C47.1876 50.8128 46.2856 49.066 44.8804 47.9231H62.3125C62.6918 47.9231 63 47.6128 63 47.2308V44.4615C63 44.0795 62.6918 43.7692 62.3125 43.7692H62.313ZM56.8129 24.3846C57.9501 24.3846 58.8754 25.3164 58.8754 26.4615C58.8754 27.6067 57.9501 28.5385 56.8129 28.5385C55.6757 28.5385 54.7504 27.6067 54.7504 26.4615C54.7504 25.3164 55.6757 24.3846 56.8129 24.3846ZM54.747 37.4696C54.712 37.1157 54.4161 36.8465 54.0629 36.8465C53.6841 36.8465 53.3754 36.5356 53.3754 36.1542V32.0004C53.3754 30.8553 54.3007 29.9235 55.4379 29.9235H58.1879C59.3251 29.9235 60.2504 30.8553 60.2504 32.0004V36.1542C60.2504 36.5356 59.9417 36.8465 59.5629 36.8465C59.2097 36.8465 58.9138 37.1157 58.8788 37.4696L58.2533 43.7696H55.3725L54.747 37.4696ZM25.1873 29.9235C25.9457 29.9235 26.5623 30.5444 26.5623 31.3081C26.5623 32.0718 25.9457 32.6927 25.1873 32.6927C24.4289 32.6927 23.8123 32.0718 23.8123 31.3081C23.8123 30.5444 24.4289 29.9235 25.1873 29.9235ZM23.8028 40.1934C23.7475 39.8605 23.4609 39.6154 23.1248 39.6154C22.7461 39.6154 22.4373 39.3045 22.4373 38.9231V36.1539C22.4373 35.0088 23.3626 34.0769 24.4998 34.0769H25.8748C27.012 34.0769 27.9374 35.0088 27.9374 36.1539V38.9231C27.9374 39.3045 27.6286 39.6154 27.2498 39.6154C26.9138 39.6154 26.6271 39.8605 26.5719 40.1934L25.9801 43.7692H24.3945L23.8028 40.1934ZM45.8125 52.7696C45.8125 55.4418 43.6535 57.6158 40.9999 57.6158C38.3463 57.6158 36.1874 55.4418 36.1874 52.7696C36.1874 50.0975 38.3463 47.9235 40.9999 47.9235C43.6535 47.9235 45.8125 50.0975 45.8125 52.7696ZM61.6251 46.5389H20.3747V45.1542H61.6251V46.5389Z" fill="white"/>
<path d="M-469.5 14C-469.5 9.85786 -466.142 6.5 -462 6.5H-19.0555C-16.9334 6.5 -14.9106 7.39903 -13.4885 8.97423L79.567 112.051C80.8112 113.429 81.5 115.22 81.5 117.077V223C81.5 227.142 78.1422 230.5 74 230.5H-462C-466.142 230.5 -469.5 227.142 -469.5 223V14Z" fill="#F2F2FF" stroke="#D5D5FF"/>
</g>
<defs>
<linearGradient id="paint0_linear_0_1" x1="41" y1="0" x2="41" y2="82" gradientUnits="userSpaceOnUse">
<stop stop-color="#0027B5"/>
<stop offset="1" stop-color="#00006A"/>
</linearGradient>
<clipPath id="clip0_0_1">
<rect width="1600" height="4600" fill="white" transform="translate(-1303 -1225)"/>
</clipPath>
</defs>
</svg>
