<svg width="475" height="176" viewBox="0 0 475 176" fill="none" xmlns="http://www.w3.org/2000/svg">
<path d="M81.4 140.8C80.0667 140.8 78.6667 140.2 77.2 139C75.8667 137.8 75.2 135.733 75.2 132.8C75.2 131.6 76 129.4 77.6 126.2C79.2 123 81.3333 119.267 84 115C86.8 110.6 89.8 105.933 93 101C96.2 96.0667 99.4 91.3333 102.6 86.8C103.4 85.7333 104.333 84.4667 105.4 83C106.467 81.5333 108 79.5333 110 77C101.867 78.7333 94.3333 80.6667 87.4 82.8C80.6 84.9333 73.9333 87 67.4 89C60.8667 91 54.4667 92.8 48.2 94.4C41.9333 95.8667 35.7333 96.9333 29.6 97.6C25.6 98 22.7333 96.6667 21 93.6C19.2667 90.5333 18.4 87.2 18.4 83.6C18.4 81.8667 19.6 80 22 78C24.5333 76 27.6667 74.0667 31.4 72.2C35.2667 70.3333 39.2 68.7333 43.2 67.4C47.3333 65.9333 51 64.9333 54.2 64.4C54.6 64.2667 55 64.2 55.4 64.2C55.8 64.2 56.2 64.2 56.6 64.2C58.6 64.2 59.6 64.4667 59.6 65C59.6 65.6667 58.1333 66.2667 55.2 66.8C53.0667 67.0667 50.2667 67.8667 46.8 69.2C43.4667 70.5333 40.2 71.8667 37 73.2C31.4 75.4667 27.4 77.5333 25 79.4C22.7333 81.1333 21.6 82.7333 21.6 84.2C21.6 85.6667 22.8 86.8667 25.2 87.8C27.6 88.6 30.5333 89 34 89C36.4 89 38.8667 88.8 41.4 88.4C45 87.8667 48.7333 87.2 52.6 86.4C56.4667 85.6 60.0667 84.8 63.4 84C66.7333 83.2 69.2667 82.6 71 82.2C75.1333 81.1333 81.0667 79.5333 88.8 77.4C96.6667 75.2667 105 73.4667 113.8 72C117.667 66.9333 121.8 61.6 126.2 56C130.6 50.2667 134.8 44.6667 138.8 39.2C142.933 33.6 146.533 28.4 149.6 23.6C151.6 20.5333 153.267 17.8667 154.6 15.6C155.933 13.2 156.6 11.1333 156.6 9.39999C156.6 7.53333 155.6 6.13333 153.6 5.2C151.733 4.26666 148.4 3.79999 143.6 3.79999C139.2 3.79999 133.4 4.33333 126.2 5.4C119.133 6.33333 111.4 7.66666 103 9.39999C94.7333 11.1333 86.4667 13.2667 78.2 15.8C64.8667 19.6667 52.6 24.2667 41.4 29.6C30.3333 34.8 21.4667 40.2667 14.8 46C12.6667 47.7333 11.6 49.7333 11.6 52C11.6 53.3333 12 54.5333 12.8 55.6C13.7333 56.6667 15.2 57.5333 17.2 58.2V58.4C17.2 58.5333 17.0667 58.8 16.8 59.2C16.5333 59.4667 16 59.5333 15.2 59.4C14.1333 59.1333 12.3333 58.2667 9.8 56.8C7.4 55.3333 5.13333 53.6 3 51.6C1 49.6 2.38419e-07 47.8 2.38419e-07 46.2C2.38419e-07 44.2 2.33333 41.6667 7 38.6C11.6667 35.5333 18 32.2667 26 28.8C34.1333 25.2 43.2667 21.6667 53.4 18.2C63.5333 14.7333 74 11.6 84.8 8.79999C95.0667 6.13332 104.867 4.06666 114.2 2.6C123.667 1.13333 132.067 0.39999 139.4 0.39999C147.8 0.39999 154.533 1.59999 159.6 3.99999C164.667 6.26666 167.2 10.1333 167.2 15.6C167.2 18 166.133 21.0667 164 24.8C161.867 28.5333 159.067 32.6 155.6 37C152.267 41.2667 148.667 45.5333 144.8 49.8C140.933 53.9333 137.333 57.8 134 61.4C130.667 65 128 67.8667 126 70C127.733 70 130.467 70.2 134.2 70.6C138.067 70.8667 142 71.4667 146 72.4C150 73.3333 153.333 74.7333 156 76.6C158.8 78.3333 160 80.6 159.6 83.4C161.333 85 162.2 86.8667 162.2 89C162.2 90.4667 161.267 91.9333 159.4 93.4C157.533 94.7333 155.333 96.1333 152.8 97.6C150.267 99.0667 147.867 100.533 145.6 102C145.467 102.133 145.267 102.067 145 101.8C144.867 101.4 144.867 101.133 145 101C146.867 99.5333 149.067 97.6 151.6 95.2C154.267 92.8 155.6 89.4 155.6 85C155.6 82.0667 154.4 79.8667 152 78.4C149.733 76.9333 146.867 75.9333 143.4 75.4C139.933 74.8667 136.467 74.6 133 74.6C128.2 74.6 124.6 74.8 122.2 75.2C115.667 82.4 109.333 90.1333 103.2 98.4C97.2 106.533 91.9333 115 87.4 123.8C87.6667 123.8 87.8667 124.067 88 124.6C88.2667 125 88.5333 125.067 88.8 124.8C89.4667 124.133 90.0667 123.6 90.6 123.2C91.2667 122.667 91.7333 122.333 92 122.2C92.2667 122.067 92.4 122 92.4 122C92.5333 122 92.6 122 92.6 122C92.8667 122 93 122.133 93 122.4C93 122.933 92.6667 123.733 92 124.8C91.3333 125.867 90.8667 126.8 90.6 127.6C89.9333 129.2 89 131 87.8 133C86.7333 135.133 85.7333 137.267 84.8 139.4C84.1333 140.333 83 140.8 81.4 140.8ZM162.255 163.8C158.121 163.8 154.055 163.2 150.055 162C146.055 160.933 142.788 159 140.255 156.2C137.588 153.4 136.255 149.6 136.255 144.8C136.255 143.867 136.655 143.4 137.455 143.4C138.255 143.4 138.655 143.933 138.655 145C138.655 148.2 139.655 150.667 141.655 152.4C143.655 154.267 146.055 155.533 148.855 156.2C151.655 157 154.188 157.4 156.455 157.4C157.921 157.4 159.321 157.333 160.655 157.2C162.121 157.2 163.521 157.133 164.855 157C172.588 155.933 179.721 153.533 186.255 149.8C192.921 146.2 199.055 141.733 204.655 136.4C210.388 131.067 215.788 125.467 220.855 119.6C225.921 113.6 230.788 107.867 235.455 102.4C237.321 100.133 239.588 97.4 242.255 94.2C245.055 91 247.788 87.8 250.455 84.6C253.255 81.4 255.588 78.7333 257.455 76.6C247.188 79.1333 236.521 82.2667 225.455 86C214.388 89.7333 203.455 92.5333 192.655 94.4C190.788 94.6667 188.855 95.0667 186.855 95.6C184.988 96.1333 183.121 96.4 181.255 96.4C178.988 96.4 176.788 95.7333 174.655 94.4C173.055 93.3333 171.588 91.8 170.255 89.8C168.921 87.6667 168.255 85.5333 168.255 83.4C168.255 81.6667 169.455 79.9333 171.855 78.2C174.255 76.3333 177.255 74.5333 180.855 72.8C184.588 70.9333 188.455 69.3333 192.455 68C196.588 66.5333 200.388 65.4 203.855 64.6C207.321 63.6667 209.921 63.2 211.655 63.2C213.255 63.2 214.055 63.4667 214.055 64C214.055 64.6667 213.121 65.1333 211.255 65.4C209.255 65.8 206.655 66.4667 203.455 67.4C200.255 68.3333 196.921 69.4667 193.455 70.8C190.121 72 187.055 73.2667 184.255 74.6C180.788 76.2 178.188 77.8667 176.455 79.6C174.855 81.2 174.055 82.7333 174.055 84.2C174.055 86.8667 176.521 88.2 181.455 88.2C182.121 88.2 182.788 88.2 183.455 88.2C184.121 88.0667 184.855 87.9333 185.655 87.8C194.188 86.4667 202.721 84.7333 211.255 82.6C219.921 80.3333 228.455 78.0667 236.855 75.8C245.255 73.5333 253.521 71.8 261.655 70.6L270.455 61C277.121 53.6667 283.388 46.4667 289.255 39.4C295.255 32.2 301.655 25 308.455 17.8C310.588 15.6667 312.388 13.5333 313.855 11.4C315.321 9.26666 317.055 7.13333 319.055 4.99999C321.055 5.93333 323.055 6.53333 325.055 6.79999C327.055 6.93333 328.855 7.33333 330.455 8C332.055 8.66667 333.121 10.2667 333.655 12.8C333.921 14.2667 333.655 16.1333 332.855 18.4C332.055 20.5333 331.255 22.1333 330.455 23.2C327.921 27.0667 325.188 31.4 322.255 36.2C319.455 40.8667 316.655 45.5333 313.855 50.2C311.055 54.8667 308.521 59.0667 306.255 62.8C304.121 66.5333 302.521 69.3333 301.455 71.2C302.921 71.7333 304.521 72.5333 306.255 73.6C307.988 74.6667 309.455 75.9333 310.655 77.4C311.988 78.7333 312.521 80.2667 312.255 82C313.988 83.6 314.855 85.4667 314.855 87.6C314.855 89.0667 313.921 90.5333 312.055 92C310.188 93.3333 307.988 94.7333 305.455 96.2C302.921 97.6667 300.521 99.1333 298.255 100.6C298.121 100.733 297.921 100.667 297.655 100.4C297.521 100 297.521 99.7333 297.655 99.6C299.521 98.1333 301.721 96.2 304.255 93.8C306.921 91.4 308.255 88 308.255 83.6C308.255 81.6 307.321 79.8 305.455 78.2C303.721 76.4667 301.855 75.2 299.855 74.4C295.988 81.3333 292.521 88.8667 289.455 97C286.521 105.133 284.321 112.467 282.855 119C282.721 120.067 282.521 121.133 282.255 122.2C282.121 123.267 282.055 124.333 282.055 125.4C282.055 126.733 282.255 128.2 282.655 129.8C283.188 131.267 284.321 132 286.055 132C288.721 132 291.388 130.733 294.055 128.2C296.721 125.533 298.721 123.2 300.055 121.2C300.588 120.533 301.121 120.067 301.655 119.8C302.188 119.533 302.255 119.867 301.855 120.8C301.588 121.467 301.255 122.133 300.855 122.8C300.455 123.467 300.055 124.133 299.655 124.8C298.855 125.867 297.921 127.4 296.855 129.4C295.788 131.4 294.588 133.2 293.255 134.8C291.921 136.4 290.388 137.2 288.655 137.2C287.588 137.2 286.055 136.6 284.055 135.4C282.055 134.333 280.455 133.333 279.255 132.4C278.055 131.333 277.055 129.933 276.255 128.2C275.588 126.333 275.121 124.733 274.855 123.4C274.855 123 274.788 122.6 274.655 122.2C274.655 121.8 274.655 121.333 274.655 120.8C274.655 116.933 275.455 112.4 277.055 107.2C278.655 101.867 280.655 96.2667 283.055 90.4C285.455 84.4 287.855 78.5333 290.255 72.8C289.588 72.8 288.921 72.8 288.255 72.8C287.588 72.6667 286.921 72.6 286.255 72.6C282.388 72.6 278.521 72.9333 274.655 73.6C270.921 74.1333 267.121 74.8 263.255 75.6C258.588 81.3333 253.321 88.0667 247.455 95.8C241.588 103.4 235.255 111.2 228.455 119.2C221.788 127.067 214.721 134.333 207.255 141C199.921 147.8 192.455 153.267 184.855 157.4C177.255 161.667 169.721 163.8 162.255 163.8ZM267.655 69.8C270.721 69.4 273.655 69.1333 276.455 69C279.255 68.8667 282.121 68.8 285.055 68.8H291.655C292.588 66.8 294.255 63.6 296.655 59.2C299.188 54.8 301.988 50 305.055 44.8C308.121 39.6 311.055 34.7333 313.855 30.2C316.655 25.6667 318.855 22.2667 320.455 20C321.388 18.5333 321.855 17.4667 321.855 16.8C321.855 15.8667 321.055 15.8 319.455 16.6C317.988 17.2667 316.321 18.4 314.455 20C311.655 22.4 308.121 25.8667 303.855 30.4C299.588 34.8 295.055 39.6 290.255 44.8C285.588 49.8667 281.188 54.6667 277.055 59.2C273.055 63.7333 269.921 67.2667 267.655 69.8ZM459.877 175.8C459.477 175.8 459.143 175.6 458.877 175.2C458.743 174.8 459.01 174.333 459.677 173.8C462.343 171.933 464.743 169.533 466.877 166.6C469.143 163.667 470.277 160.267 470.277 156.4C470.277 153.333 469.277 150.867 467.277 149C465.277 147.133 462.743 145.733 459.677 144.8C456.743 143.867 453.81 143.2 450.877 142.8C447.943 142.533 445.477 142.4 443.477 142.4C433.743 142.4 424.277 143.533 415.077 145.8C406.01 148.067 397.077 150.733 388.277 153.8C379.477 156.867 370.61 159.733 361.677 162.4C352.743 165.2 343.477 167.067 333.877 168C329.343 168.4 325.677 166.867 322.877 163.4C320.21 159.933 318.877 155.933 318.877 151.4C318.877 148.733 320.677 145.733 324.277 142.4C328.01 139.067 332.21 135.933 336.877 133C332.743 129.667 329.677 125.333 327.677 120C325.677 114.667 324.677 108.933 324.677 102.8C324.677 94 326.41 85.4 329.877 77C332.277 71.4 335.41 66.4 339.277 62C343.277 57.4667 347.477 53.9333 351.877 51.4C356.41 48.7333 360.61 47.4 364.477 47.4C366.61 47.4 368.343 47.7333 369.677 48.4C371.143 48.9333 372.743 49.6667 374.477 50.6C375.01 50.7333 375.277 51.0667 375.277 51.6C375.277 52.5333 374.677 52.7333 373.477 52.2C373.21 52.0667 372.877 52 372.477 52C372.077 52 371.743 52 371.477 52C370.543 52 369.543 52.1333 368.477 52.4C367.41 52.5333 366.543 52.7333 365.877 53C361.343 54.4667 357.01 57.2667 352.877 61.4C348.877 65.5333 345.277 70.4 342.077 76C339.01 81.6 336.543 87.4667 334.677 93.6C332.943 99.7333 332.077 105.6 332.077 111.2C332.077 115.333 332.677 119.2 333.877 122.8C335.077 126.267 336.943 129.133 339.477 131.4C342.943 129.4 346.277 127.733 349.477 126.4C352.81 124.933 355.543 124.067 357.677 123.8C359.143 123.533 359.877 123.667 359.877 124.2C359.877 124.467 359.41 124.8 358.477 125.2C353.41 127.467 348.143 130.267 342.677 133.6C344.277 134.533 346.01 135.133 347.877 135.4C349.743 135.8 351.877 136 354.277 136C362.41 136 370.477 133.933 378.477 129.8C386.61 125.533 394.143 119.933 401.077 113C408.01 105.933 413.877 98.1333 418.677 89.6C423.477 81.0667 426.677 72.5333 428.277 64C429.477 58 430.077 52.6667 430.077 48C430.077 36.5333 426.943 28.3333 420.677 23.4C414.41 18.3333 405.877 15.8 395.077 15.8C387.21 15.8 378.943 17.6 370.277 21.2C361.61 24.6667 354.077 29.4 347.677 35.4C343.543 39.4 340.143 43.7333 337.477 48.4C334.81 52.9333 333.277 57.5333 332.877 62.2C332.477 62.8667 332.143 62.9333 331.877 62.4C332.01 61.4667 332.143 60.7333 332.277 60.2C332.41 59.6667 332.477 59.1333 332.477 58.6C332.477 57.8 332.143 56.9333 331.477 56C330.677 54.5333 330.277 53.2 330.277 52C330.277 50.4 330.81 49 331.877 47.8C331.477 44.3333 332.477 41 334.877 37.8C337.41 34.4667 340.877 31.3333 345.277 28.4C349.81 25.4667 354.677 22.8667 359.877 20.6C364.277 18.7333 369.877 17.0667 376.677 15.6C383.61 14 390.677 13.2 397.877 13.2C404.277 13.2 410.41 14.0667 416.277 15.8C422.143 17.4 427.143 20.2 431.277 24.2C435.543 28.0667 438.343 33.5333 439.677 40.6C440.21 43.2667 440.477 46.2667 440.477 49.6C440.477 57.6 438.743 65.8 435.277 74.2C431.943 82.6 427.343 90.6667 421.477 98.4C415.743 106.133 409.21 113.067 401.877 119.2C394.677 125.2 387.143 130 379.277 133.6C371.41 137.2 363.743 139 356.277 139C353.077 139 350.143 138.667 347.477 138C344.943 137.333 342.543 136.4 340.277 135.2C338.543 136.267 336.877 137.333 335.277 138.4C333.81 139.6 332.41 140.733 331.077 141.8C325.077 146.6 322.077 150.667 322.077 154C322.077 158.133 327.277 159.8 337.677 159C346.21 158.333 354.677 156.867 363.077 154.6C371.477 152.467 379.81 150.067 388.077 147.4C396.477 144.867 404.81 142.6 413.077 140.6C417.21 139.533 422.477 138.4 428.877 137.2C435.41 136.133 441.81 135.6 448.077 135.6C451.943 135.6 455.477 135.867 458.677 136.4C462.01 137.067 464.877 138.133 467.277 139.6C469.143 140.667 470.343 141.733 470.877 142.8C471.543 144 471.877 145.133 471.877 146.2C471.877 147 471.81 147.8 471.677 148.6C471.543 149.4 471.41 150.267 471.277 151.2C472.077 153.333 472.743 155.333 473.277 157.2C473.943 159.2 474.277 161 474.277 162.6C474.277 164.2 473.877 165.6 473.077 166.8C472.277 168 470.877 169.067 468.877 170C468.343 170.267 467.743 170.533 467.077 170.8C466.41 171.067 465.743 171.333 465.077 171.6C464.543 171.867 463.743 172.467 462.677 173.4C461.743 174.467 461.01 175.2 460.477 175.6C460.343 175.733 460.143 175.8 459.877 175.8Z" fill="#0012A5" fill-opacity="0.06"/>
</svg>
