<svg width="472" height="141" viewBox="0 0 472 141" fill="none" xmlns="http://www.w3.org/2000/svg">
<path d="M81.4 140.8C80.0667 140.8 78.6667 140.2 77.2 139C75.8667 137.8 75.2 135.733 75.2 132.8C75.2 131.6 76 129.4 77.6 126.2C79.2 123 81.3333 119.267 84 115C86.8 110.6 89.8 105.933 93 101C96.2 96.0667 99.4 91.3333 102.6 86.8C103.4 85.7333 104.333 84.4667 105.4 83C106.467 81.5333 108 79.5333 110 77C101.867 78.7333 94.3333 80.6667 87.4 82.8C80.6 84.9333 73.9333 87 67.4 89C60.8667 91 54.4667 92.8 48.2 94.4C41.9333 95.8667 35.7333 96.9333 29.6 97.6C25.6 98 22.7333 96.6667 21 93.6C19.2667 90.5333 18.4 87.2 18.4 83.6C18.4 81.8667 19.6 80 22 78C24.5333 76 27.6667 74.0667 31.4 72.2C35.2667 70.3333 39.2 68.7333 43.2 67.4C47.3333 65.9333 51 64.9333 54.2 64.4C54.6 64.2667 55 64.2 55.4 64.2C55.8 64.2 56.2 64.2 56.6 64.2C58.6 64.2 59.6 64.4667 59.6 65C59.6 65.6667 58.1333 66.2667 55.2 66.8C53.0667 67.0667 50.2667 67.8667 46.8 69.2C43.4667 70.5333 40.2 71.8667 37 73.2C31.4 75.4667 27.4 77.5333 25 79.4C22.7333 81.1333 21.6 82.7333 21.6 84.2C21.6 85.6667 22.8 86.8667 25.2 87.8C27.6 88.6 30.5333 89 34 89C36.4 89 38.8667 88.8 41.4 88.4C45 87.8667 48.7333 87.2 52.6 86.4C56.4667 85.6 60.0667 84.8 63.4 84C66.7333 83.2 69.2667 82.6 71 82.2C75.1333 81.1333 81.0667 79.5333 88.8 77.4C96.6667 75.2667 105 73.4667 113.8 72C117.667 66.9333 121.8 61.6 126.2 56C130.6 50.2667 134.8 44.6667 138.8 39.2C142.933 33.6 146.533 28.4 149.6 23.6C151.6 20.5333 153.267 17.8667 154.6 15.6C155.933 13.2 156.6 11.1333 156.6 9.39999C156.6 7.53333 155.6 6.13333 153.6 5.2C151.733 4.26666 148.4 3.79999 143.6 3.79999C139.2 3.79999 133.4 4.33333 126.2 5.4C119.133 6.33333 111.4 7.66666 103 9.39999C94.7333 11.1333 86.4667 13.2667 78.2 15.8C64.8667 19.6667 52.6 24.2667 41.4 29.6C30.3333 34.8 21.4667 40.2667 14.8 46C12.6667 47.7333 11.6 49.7333 11.6 52C11.6 53.3333 12 54.5333 12.8 55.6C13.7333 56.6667 15.2 57.5333 17.2 58.2V58.4C17.2 58.5333 17.0667 58.8 16.8 59.2C16.5333 59.4667 16 59.5333 15.2 59.4C14.1333 59.1333 12.3333 58.2667 9.8 56.8C7.4 55.3333 5.13333 53.6 3 51.6C1 49.6 2.38419e-07 47.8 2.38419e-07 46.2C2.38419e-07 44.2 2.33333 41.6667 7 38.6C11.6667 35.5333 18 32.2667 26 28.8C34.1333 25.2 43.2667 21.6667 53.4 18.2C63.5333 14.7333 74 11.6 84.8 8.79999C95.0667 6.13332 104.867 4.06666 114.2 2.6C123.667 1.13333 132.067 0.39999 139.4 0.39999C147.8 0.39999 154.533 1.59999 159.6 3.99999C164.667 6.26666 167.2 10.1333 167.2 15.6C167.2 18 166.133 21.0667 164 24.8C161.867 28.5333 159.067 32.6 155.6 37C152.267 41.2667 148.667 45.5333 144.8 49.8C140.933 53.9333 137.333 57.8 134 61.4C130.667 65 128 67.8667 126 70C127.733 70 130.467 70.2 134.2 70.6C138.067 70.8667 142 71.4667 146 72.4C150 73.3333 153.333 74.7333 156 76.6C158.8 78.3333 160 80.6 159.6 83.4C161.333 85 162.2 86.8667 162.2 89C162.2 90.4667 161.267 91.9333 159.4 93.4C157.533 94.7333 155.333 96.1333 152.8 97.6C150.267 99.0667 147.867 100.533 145.6 102C145.467 102.133 145.267 102.067 145 101.8C144.867 101.4 144.867 101.133 145 101C146.867 99.5333 149.067 97.6 151.6 95.2C154.267 92.8 155.6 89.4 155.6 85C155.6 82.0667 154.4 79.8667 152 78.4C149.733 76.9333 146.867 75.9333 143.4 75.4C139.933 74.8667 136.467 74.6 133 74.6C128.2 74.6 124.6 74.8 122.2 75.2C115.667 82.4 109.333 90.1333 103.2 98.4C97.2 106.533 91.9333 115 87.4 123.8C87.6667 123.8 87.8667 124.067 88 124.6C88.2667 125 88.5333 125.067 88.8 124.8C89.4667 124.133 90.0667 123.6 90.6 123.2C91.2667 122.667 91.7333 122.333 92 122.2C92.2667 122.067 92.4 122 92.4 122C92.5333 122 92.6 122 92.6 122C92.8667 122 93 122.133 93 122.4C93 122.933 92.6667 123.733 92 124.8C91.3333 125.867 90.8667 126.8 90.6 127.6C89.9333 129.2 89 131 87.8 133C86.7333 135.133 85.7333 137.267 84.8 139.4C84.1333 140.333 83 140.8 81.4 140.8ZM171.255 134.6C167.655 134.6 164.321 133.333 161.255 130.8C158.321 128.133 156.855 124.267 156.855 119.2C156.855 115.2 157.921 110.867 160.055 106.2C162.188 101.533 164.921 97.0667 168.255 92.8C171.721 88.5333 175.388 85 179.255 82.2C183.121 79.4 186.721 77.9333 190.055 77.8C190.588 78.3333 191.188 78.7333 191.855 79C192.655 79.2667 193.388 79.5333 194.055 79.8L199.255 81C202.188 81.8 203.655 83.6667 203.655 86.6C203.655 88.3333 203.055 90.2 201.855 92.2C200.788 94.2 199.121 95.9333 196.855 97.4C195.655 98.2 194.321 99 192.855 99.8C191.521 100.6 190.121 101.4 188.655 102.2L179.655 107C176.855 108.467 174.388 110.067 172.255 111.8C170.121 113.4 168.588 115.133 167.655 117C167.655 117 167.455 117.067 167.055 117.2C166.788 117.2 166.721 116.933 166.855 116.4C167.788 114.133 169.588 111.867 172.255 109.6C175.055 107.2 177.855 105.133 180.655 103.4C181.988 102.333 183.321 101.4 184.655 100.6C186.121 99.8 187.521 98.9333 188.855 98C190.188 97.0667 191.455 96.1333 192.655 95.2C193.988 94.1333 195.121 93.1333 196.055 92.2C197.121 91.1333 197.855 90.0667 198.255 89C198.788 87.9333 199.055 87 199.055 86.2C199.055 83.6667 197.588 82.4 194.655 82.4C192.788 82.4 190.655 83.2 188.255 84.8C185.321 86.8 182.521 89.2 179.855 92C177.188 94.6667 174.655 97.6 172.255 100.8C169.721 104.267 167.455 108.267 165.455 112.8C163.588 117.333 162.655 121.133 162.655 124.2C162.655 127.267 163.521 129.467 165.255 130.8C167.121 132 169.255 132.6 171.655 132.6C174.988 132.6 178.188 131.733 181.255 130C183.521 128.667 185.655 127 187.655 125C189.655 122.867 191.321 121 192.655 119.4C193.721 118.067 194.921 116.467 196.255 114.6C197.721 112.733 198.721 111.333 199.255 110.4C199.521 110.133 199.721 110.133 199.855 110.4C199.988 110.667 200.055 110.867 200.055 111C199.521 111.933 198.588 113.467 197.255 115.6C196.055 117.6 194.255 120.133 191.855 123.2C189.055 126.8 186.121 129.6 183.055 131.6C179.988 133.6 176.055 134.6 171.255 134.6ZM204.652 134.2C201.852 134.2 199.718 132.867 198.252 130.2C196.918 127.4 196.252 125 196.252 123C196.252 118.333 197.652 113.467 200.452 108.4C203.252 103.333 206.785 98.5333 211.052 94C215.452 89.4667 220.052 85.8 224.852 83C229.652 80.2 234.118 78.8 238.252 78.8C239.452 78.8 240.785 79.3333 242.252 80.4C243.852 81.3333 245.318 82.8667 246.652 85C246.918 85.2667 247.252 85.8667 247.652 86.8C248.052 87.6 248.052 88.3333 247.652 89L247.452 88.6C247.185 87.9333 246.585 87.4 245.652 87C244.718 86.4667 243.318 86.2 241.452 86.2C238.385 86.2 234.918 87.2667 231.052 89.4C227.318 91.5333 223.518 94.4 219.652 98C215.918 101.6 212.518 105.533 209.452 109.8C206.385 114.067 204.118 118.4 202.652 122.8C201.718 125.067 201.252 127 201.252 128.6C201.252 130.6 201.985 131.6 203.452 131.6C204.518 131.6 205.785 131.067 207.252 130C210.052 127.867 212.985 125.133 216.052 121.8C219.118 118.467 222.052 115 224.852 111.4C227.785 107.8 230.318 104.467 232.452 101.4C234.718 98.3333 236.318 96.0667 237.252 94.6C237.652 94.0667 238.118 93.8 238.652 93.8C239.318 93.6667 240.118 93.6 241.052 93.6C243.718 93.6 245.385 94.0667 246.052 95C246.852 95.8 246.918 96.6667 246.252 97.6C244.518 100.133 242.652 103.067 240.652 106.4C238.785 109.733 237.118 113 235.652 116.2C234.318 119.4 233.652 122.267 233.652 124.8C233.652 126.8 234.452 127.8 236.052 127.8C237.518 127.8 239.118 126.933 240.852 125.2C242.452 123.733 244.318 121.6 246.452 118.8C248.718 116 250.918 113.067 253.052 110C255.318 106.933 257.185 104.267 258.652 102C259.185 101.333 259.585 101.067 259.852 101.2C260.252 101.2 260.252 101.6 259.852 102.4C257.718 105.733 255.518 109.2 253.252 112.8C250.985 116.267 248.585 119.533 246.052 122.6C241.252 128.733 237.652 131.8 235.252 131.8C233.118 131.8 231.118 131.133 229.252 129.8C227.385 128.467 226.452 126.533 226.452 124C226.452 121.333 226.985 118.267 228.052 114.8C229.252 111.2 230.318 108.4 231.252 106.4C228.452 110.667 225.252 114.933 221.652 119.2C218.052 123.467 214.652 127.067 211.452 130C208.385 132.8 206.118 134.2 204.652 134.2ZM264.558 135C261.758 135 259.291 133.867 257.158 131.6C255.158 129.333 254.158 126.067 254.158 121.8C254.158 118.6 254.891 114.733 256.358 110.2C257.958 105.533 259.891 100.667 262.158 95.6C264.558 90.4 267.024 85.5333 269.558 81C272.224 76.3333 274.558 72.4 276.558 69.2C274.291 69.2 272.291 69.2 270.558 69.2C268.824 69.0667 267.424 69.0667 266.358 69.2C265.424 69.2 264.824 69.0667 264.558 68.8C264.424 68.4 264.424 68.1333 264.558 68C264.558 67.6 264.758 67.0667 265.158 66.4C265.691 65.7333 266.158 65.4 266.558 65.4H278.758C279.424 64.6 280.291 63.2 281.358 61.2C282.558 59.2 283.758 57.0667 284.958 54.8C286.158 52.5333 287.158 50.5333 287.958 48.8C288.891 46.9333 289.358 45.8 289.358 45.4C289.358 44.2 288.958 43.3333 288.158 42.8C287.624 42.5333 287.358 42.4 287.358 42.4C287.224 42.4 287.158 42.4 287.158 42.4C287.158 42.2667 287.091 42.2 286.958 42.2C286.824 42.0667 286.758 41.8667 286.758 41.6C286.758 41.2 286.958 40.9333 287.358 40.8C287.758 40.5333 288.091 40.4 288.358 40.4C289.158 40.4 289.891 40.6 290.558 41C291.358 41.2667 292.624 41.8667 294.358 42.8C295.158 43.2 295.958 43.6 296.758 44C297.691 44.2667 298.424 44.6 298.958 45L300.558 46C299.758 47.3333 298.491 49.2 296.758 51.6C295.158 54 293.558 56.4667 291.958 59C290.358 61.5333 289.024 63.6667 287.958 65.4H323.758C325.358 65.4 326.158 65.6 326.158 66C326.158 66.4 325.558 66.8667 324.358 67.4C323.291 67.8 322.491 68 321.958 68C320.224 68.1333 317.758 68.2 314.558 68.2C311.491 68.2 308.158 68.2667 304.558 68.4C301.091 68.4 297.824 68.5333 294.758 68.8C291.824 68.9333 289.758 69.2 288.558 69.6C286.558 70.2667 284.291 72.4667 281.758 76.2C279.224 79.8 276.758 84.0667 274.358 89C272.091 93.9333 270.024 98.7333 268.158 103.4C267.758 104.467 267.024 106.267 265.958 108.8C265.024 111.333 264.091 114.067 263.158 117C262.358 119.933 261.958 122.667 261.958 125.2C261.958 127.6 262.424 129.333 263.358 130.4C264.291 131.467 265.424 132 266.758 132C268.358 132 270.158 131.067 272.158 129.2C274.291 127.333 276.624 124.933 279.158 122C281.824 118.667 284.291 115.333 286.558 112C288.958 108.533 290.491 106.2 291.158 105C292.224 103.267 292.891 102.4 293.158 102.4C293.291 102.4 293.358 102.467 293.358 102.6C293.358 103 293.158 103.733 292.758 104.8C292.358 105.733 291.958 106.533 291.558 107.2C289.158 110.667 286.558 114.533 283.758 118.8C280.958 123.067 278.091 126.733 275.158 129.8C271.691 133.267 268.158 135 264.558 135ZM294.728 132.6C291.795 132.6 289.528 131.933 287.928 130.6C286.461 129.267 285.861 127.533 286.128 125.4C286.395 123.933 286.795 122.267 287.328 120.4C287.861 118.533 288.528 116.667 289.328 114.8L294.128 103.6C293.995 103.333 293.861 103.133 293.728 103C293.728 102.733 293.728 102.533 293.728 102.4C293.595 101.867 293.661 101.4 293.928 101C297.395 95.6667 300.595 91.2 303.528 87.6C306.461 84 308.395 82.2 309.328 82.2C311.195 82.2 313.395 83.4667 315.928 86C314.195 88.1333 312.395 90.5333 310.528 93.2C308.661 95.7333 306.861 98.3333 305.128 101C303.261 103.8 301.261 106.867 299.128 110.2C297.128 113.4 295.728 116.333 294.928 119C294.128 121.4 293.728 123.267 293.728 124.6C293.728 126.467 294.395 127.4 295.728 127.4C297.461 127.4 299.995 125.6 303.328 122C305.595 119.6 308.061 116.667 310.728 113.2C313.528 109.6 316.195 106 318.728 102.4C321.395 98.6667 323.861 95.2 326.128 92C328.528 88.6667 330.528 86 332.128 84C333.595 82.1333 334.928 81.2 336.128 81.2C337.861 81.2 339.861 82.6667 342.128 85.6C340.261 88.2667 337.995 91.7333 335.328 96C332.661 100.133 330.195 104.4 327.928 108.8C325.795 113.067 324.395 116.867 323.728 120.2C323.595 120.733 323.461 121.267 323.328 121.8C323.328 122.333 323.328 122.933 323.328 123.6C323.328 127.467 324.328 129.4 326.328 129.4C327.395 129.4 328.661 128.8 330.128 127.6C331.728 126.4 333.261 125 334.728 123.4C336.195 121.8 337.328 120.467 338.128 119.4C342.395 113.667 346.461 107.733 350.328 101.6C351.128 100.4 351.661 99.8 351.928 99.8C352.195 99.8 352.261 100.067 352.128 100.6C352.128 101 352.061 101.333 351.928 101.6C349.261 106 346.128 110.8 342.528 116C339.061 121.2 335.595 125.467 332.128 128.8C330.261 130.667 328.395 131.6 326.528 131.6C322.928 131.6 320.261 130.733 318.528 129C316.795 127.267 315.928 125.333 315.928 123.2C315.928 121.867 316.128 120.467 316.528 119C316.928 117.4 317.395 115.8 317.928 114.2L323.328 100C321.328 102.533 319.661 104.667 318.328 106.4C316.995 108 315.795 109.533 314.728 111C313.795 112.333 312.728 113.867 311.528 115.6C310.328 117.2 309.061 118.8 307.728 120.4C305.195 123.733 302.728 126.6 300.328 129C297.928 131.4 296.061 132.6 294.728 132.6ZM365.759 134.6C362.559 134.6 360.359 133.533 359.159 131.4C357.959 129.133 357.559 126.733 357.959 124.2C358.493 120.733 359.426 117.933 360.759 115.8C362.226 113.667 363.959 111.333 365.959 108.8C367.559 106.533 369.093 104.2 370.559 101.8C372.026 99.4 372.226 98 371.159 97.6C370.493 98.1333 369.359 98.7333 367.759 99.4C366.159 100.067 364.493 100.4 362.759 100.4C361.293 100.4 359.826 100.067 358.359 99.4C357.026 98.7333 356.026 97.5333 355.359 95.8C353.626 99 351.493 102.533 348.959 106.4C346.559 110.133 344.093 113.733 341.559 117.2C339.159 120.667 337.026 123.533 335.159 125.8C334.626 126.333 334.159 126.533 333.759 126.4C333.226 126.267 333.159 125.933 333.559 125.4C336.626 121.533 340.159 116.667 344.159 110.8C348.159 104.933 351.826 98.6 355.159 91.8C358.493 84.8667 360.559 78.1333 361.359 71.6C365.893 73.7333 368.159 76.4667 368.159 79.8C368.159 82.3333 367.093 84.9333 364.959 87.6C362.826 90.1333 360.026 92.4667 356.559 94.6C358.293 97.1333 360.493 98.4 363.159 98.4C365.159 98.4 367.159 97.8 369.159 96.6C371.293 95.2667 372.959 93.8 374.159 92.2C375.226 91 376.093 90.2 376.759 89.8C377.559 89.4 378.226 89.2 378.759 89.2C380.626 89.2 381.959 89.8 382.759 91C383.693 92.0667 383.826 93.2667 383.159 94.6C380.759 97.9333 378.026 102.067 374.959 107C371.893 111.8 369.159 116.333 366.759 120.6C366.359 121.133 365.826 122.333 365.159 124.2C364.493 126.067 364.159 127.733 364.159 129.2C364.159 131.2 364.959 132.2 366.559 132.2C368.426 132.2 370.559 131.133 372.959 129C375.359 126.733 377.759 124.067 380.159 121C382.559 117.8 384.693 114.733 386.559 111.8C388.559 108.867 390.026 106.733 390.959 105.4C391.626 104.2 392.159 103.6 392.559 103.6C392.693 103.6 392.759 103.733 392.759 104C392.759 104.533 392.559 105.133 392.159 105.8C390.159 109.133 388.026 112.467 385.759 115.8C383.493 119.133 381.226 122.333 378.959 125.4C376.826 128.2 374.626 130.4 372.359 132C370.226 133.733 368.026 134.6 365.759 134.6ZM401.723 134.6C398.123 134.6 394.79 133.333 391.723 130.8C388.79 128.133 387.323 124.267 387.323 119.2C387.323 115.2 388.39 110.867 390.523 106.2C392.657 101.533 395.39 97.0667 398.723 92.8C402.19 88.5333 405.857 85 409.723 82.2C413.59 79.4 417.19 77.9333 420.523 77.8C421.057 78.3333 421.657 78.7333 422.323 79C423.123 79.2667 423.857 79.5333 424.523 79.8L429.723 81C432.657 81.8 434.123 83.6667 434.123 86.6C434.123 88.3333 433.523 90.2 432.323 92.2C431.257 94.2 429.59 95.9333 427.323 97.4C426.123 98.2 424.79 99 423.323 99.8C421.99 100.6 420.59 101.4 419.123 102.2L410.123 107C407.323 108.467 404.857 110.067 402.723 111.8C400.59 113.4 399.057 115.133 398.123 117C398.123 117 397.923 117.067 397.523 117.2C397.257 117.2 397.19 116.933 397.323 116.4C398.257 114.133 400.057 111.867 402.723 109.6C405.523 107.2 408.323 105.133 411.123 103.4C412.457 102.333 413.79 101.4 415.123 100.6C416.59 99.8 417.99 98.9333 419.323 98C420.657 97.0667 421.923 96.1333 423.123 95.2C424.457 94.1333 425.59 93.1333 426.523 92.2C427.59 91.1333 428.323 90.0667 428.723 89C429.257 87.9333 429.523 87 429.523 86.2C429.523 83.6667 428.057 82.4 425.123 82.4C423.257 82.4 421.123 83.2 418.723 84.8C415.79 86.8 412.99 89.2 410.323 92C407.657 94.6667 405.123 97.6 402.723 100.8C400.19 104.267 397.923 108.267 395.923 112.8C394.057 117.333 393.123 121.133 393.123 124.2C393.123 127.267 393.99 129.467 395.723 130.8C397.59 132 399.723 132.6 402.123 132.6C405.457 132.6 408.657 131.733 411.723 130C413.99 128.667 416.123 127 418.123 125C420.123 122.867 421.79 121 423.123 119.4C424.19 118.067 425.39 116.467 426.723 114.6C428.19 112.733 429.19 111.333 429.723 110.4C429.99 110.133 430.19 110.133 430.323 110.4C430.457 110.667 430.523 110.867 430.523 111C429.99 111.933 429.057 113.467 427.723 115.6C426.523 117.6 424.723 120.133 422.323 123.2C419.523 126.8 416.59 129.6 413.523 131.6C410.457 133.6 406.523 134.6 401.723 134.6ZM441.52 132C438.454 132 435.654 131.267 433.12 129.8C430.72 128.2 429.52 125.933 429.52 123C429.52 121.933 429.72 120.8 430.12 119.6C430.52 118.267 431.054 117.267 431.72 116.6C431.72 118.067 432.187 119.4 433.12 120.6C434.054 121.667 435.12 122.533 436.32 123.2C437.52 123.733 438.654 124.133 439.72 124.4C440.92 124.667 441.987 124.8 442.92 124.8C445.987 124.8 448.387 123.733 450.12 121.6C451.854 119.333 452.72 116.933 452.72 114.4C452.72 112.133 452.12 110.133 450.92 108.4C450.12 107.333 449.254 106.4 448.32 105.6C447.387 104.667 446.387 103.733 445.32 102.8C444.52 102.133 443.787 101.333 443.12 100.4C442.454 99.4667 441.587 98.0667 440.52 96.2L432.12 109C430.12 111.933 428.254 114.667 426.52 117.2C424.787 119.733 422.52 122.667 419.72 126C418.92 126.933 418.32 127.4 417.92 127.4C417.387 127.267 417.454 126.733 418.12 125.8C421.187 121.933 423.72 118.6 425.72 115.8C427.72 113 430.054 109.6 432.72 105.6C434.054 103.733 435.387 101.6 436.72 99.2C438.187 96.8 439.254 94.3333 439.92 91.8C439.92 87.6667 441.32 84.0667 444.12 81C446.92 77.8 450.32 75.4 454.32 73.8C458.454 72.0667 462.32 71.4 465.92 71.8C466.72 71.8 467.587 72.4 468.52 73.6C469.454 74.8 470.254 76.1333 470.92 77.6C471.587 78.9333 471.92 80 471.92 80.8C471.92 81.2 471.787 81.4 471.52 81.4C471.12 81.4 470.587 81.1333 469.92 80.6C468.854 79.6667 467.254 79.2 465.12 79.2C462.32 79.2 459.254 80 455.92 81.6C452.587 83.0667 449.654 85 447.12 87.4C444.72 89.6667 443.52 92.0667 443.52 94.6C443.52 96.4667 444.254 98.2 445.72 99.8C447.32 101.4 449.054 102.933 450.92 104.4C452.92 105.733 454.52 107.2 455.72 108.8C457.054 110.267 457.987 111.733 458.52 113.2C459.054 114.667 459.32 116.133 459.32 117.6C459.32 120.133 458.52 122.467 456.92 124.6C455.32 126.6 453.387 128.267 451.12 129.6C448.32 131.2 445.12 132 441.52 132Z" fill="#0012A5" fill-opacity="0.06"/>
</svg>
