<svg width="1600" height="686" viewBox="0 0 1600 686" fill="none" xmlns="http://www.w3.org/2000/svg">
<g clip-path="url(#clip0_93_8604)">
<rect width="1600" height="686" fill="#F2F2FF"/>
<path d="M2108.69 514.179C2053.26 560.69 1987.22 593.451 1914.33 610.59C1841.44 627.73 1763.14 628.913 1683.9 614.072C1604.66 599.231 1526.02 568.656 1452.48 524.093C1378.94 479.531 1311.94 421.853 1255.3 354.354C1198.66 286.854 1153.49 210.854 1122.38 130.694C1091.26 50.5331 1074.81 -32.2185 1073.95 -112.836C1073.1 -193.454 1087.86 -270.359 1117.39 -339.161C1146.93 -407.962 1190.66 -467.313 1246.09 -513.824L1677.39 0.177591L2108.69 514.179Z" fill="url(#paint0_linear_93_8604)"/>
</g>
<defs>
<linearGradient id="paint0_linear_93_8604" x1="1488.5" y1="100.5" x2="1320.5" y2="296.5" gradientUnits="userSpaceOnUse">
<stop stop-color="#0027B5"/>
<stop offset="0.767009" stop-color="#00006A"/>
</linearGradient>
<clipPath id="clip0_93_8604">
<rect width="1600" height="686" fill="white"/>
</clipPath>
</defs>
</svg>
