<svg width="479" height="142" viewBox="0 0 479 142" fill="none" xmlns="http://www.w3.org/2000/svg">
<path d="M81.4 141.8C80.0667 141.8 78.6667 141.2 77.2 140C75.8667 138.8 75.2 136.733 75.2 133.8C75.2 132.6 76 130.4 77.6 127.2C79.2 124 81.3333 120.267 84 116C86.8 111.6 89.8 106.933 93 102C96.2 97.0667 99.4 92.3333 102.6 87.8C103.4 86.7333 104.333 85.4667 105.4 84C106.467 82.5333 108 80.5333 110 78C101.867 79.7333 94.3333 81.6667 87.4 83.8C80.6 85.9333 73.9333 88 67.4 90C60.8667 92 54.4667 93.8 48.2 95.4C41.9333 96.8667 35.7333 97.9333 29.6 98.6C25.6 99 22.7333 97.6667 21 94.6C19.2667 91.5333 18.4 88.2 18.4 84.6C18.4 82.8667 19.6 81 22 79C24.5333 77 27.6667 75.0667 31.4 73.2C35.2667 71.3333 39.2 69.7333 43.2 68.4C47.3333 66.9333 51 65.9333 54.2 65.4C54.6 65.2667 55 65.2 55.4 65.2C55.8 65.2 56.2 65.2 56.6 65.2C58.6 65.2 59.6 65.4667 59.6 66C59.6 66.6667 58.1333 67.2667 55.2 67.8C53.0667 68.0667 50.2667 68.8667 46.8 70.2C43.4667 71.5333 40.2 72.8667 37 74.2C31.4 76.4667 27.4 78.5333 25 80.4C22.7333 82.1333 21.6 83.7333 21.6 85.2C21.6 86.6667 22.8 87.8667 25.2 88.8C27.6 89.6 30.5333 90 34 90C36.4 90 38.8667 89.8 41.4 89.4C45 88.8667 48.7333 88.2 52.6 87.4C56.4667 86.6 60.0667 85.8 63.4 85C66.7333 84.2 69.2667 83.6 71 83.2C75.1333 82.1333 81.0667 80.5333 88.8 78.4C96.6667 76.2667 105 74.4667 113.8 73C117.667 67.9333 121.8 62.6 126.2 57C130.6 51.2667 134.8 45.6667 138.8 40.2C142.933 34.6 146.533 29.4 149.6 24.6C151.6 21.5333 153.267 18.8667 154.6 16.6C155.933 14.2 156.6 12.1333 156.6 10.4C156.6 8.53333 155.6 7.13333 153.6 6.2C151.733 5.26666 148.4 4.79999 143.6 4.79999C139.2 4.79999 133.4 5.33333 126.2 6.4C119.133 7.33333 111.4 8.66666 103 10.4C94.7333 12.1333 86.4667 14.2667 78.2 16.8C64.8667 20.6667 52.6 25.2667 41.4 30.6C30.3333 35.8 21.4667 41.2667 14.8 47C12.6667 48.7333 11.6 50.7333 11.6 53C11.6 54.3333 12 55.5333 12.8 56.6C13.7333 57.6667 15.2 58.5333 17.2 59.2V59.4C17.2 59.5333 17.0667 59.8 16.8 60.2C16.5333 60.4667 16 60.5333 15.2 60.4C14.1333 60.1333 12.3333 59.2667 9.8 57.8C7.4 56.3333 5.13333 54.6 3 52.6C1 50.6 2.38419e-07 48.8 2.38419e-07 47.2C2.38419e-07 45.2 2.33333 42.6667 7 39.6C11.6667 36.5333 18 33.2667 26 29.8C34.1333 26.2 43.2667 22.6667 53.4 19.2C63.5333 15.7333 74 12.6 84.8 9.79999C95.0667 7.13332 104.867 5.06666 114.2 3.6C123.667 2.13333 132.067 1.39999 139.4 1.39999C147.8 1.39999 154.533 2.59999 159.6 4.99999C164.667 7.26666 167.2 11.1333 167.2 16.6C167.2 19 166.133 22.0667 164 25.8C161.867 29.5333 159.067 33.6 155.6 38C152.267 42.2667 148.667 46.5333 144.8 50.8C140.933 54.9333 137.333 58.8 134 62.4C130.667 66 128 68.8667 126 71C127.733 71 130.467 71.2 134.2 71.6C138.067 71.8667 142 72.4667 146 73.4C150 74.3333 153.333 75.7333 156 77.6C158.8 79.3333 160 81.6 159.6 84.4C161.333 86 162.2 87.8667 162.2 90C162.2 91.4667 161.267 92.9333 159.4 94.4C157.533 95.7333 155.333 97.1333 152.8 98.6C150.267 100.067 147.867 101.533 145.6 103C145.467 103.133 145.267 103.067 145 102.8C144.867 102.4 144.867 102.133 145 102C146.867 100.533 149.067 98.6 151.6 96.2C154.267 93.8 155.6 90.4 155.6 86C155.6 83.0667 154.4 80.8667 152 79.4C149.733 77.9333 146.867 76.9333 143.4 76.4C139.933 75.8667 136.467 75.6 133 75.6C128.2 75.6 124.6 75.8 122.2 76.2C115.667 83.4 109.333 91.1333 103.2 99.4C97.2 107.533 91.9333 116 87.4 124.8C87.6667 124.8 87.8667 125.067 88 125.6C88.2667 126 88.5333 126.067 88.8 125.8C89.4667 125.133 90.0667 124.6 90.6 124.2C91.2667 123.667 91.7333 123.333 92 123.2C92.2667 123.067 92.4 123 92.4 123C92.5333 123 92.6 123 92.6 123C92.8667 123 93 123.133 93 123.4C93 123.933 92.6667 124.733 92 125.8C91.3333 126.867 90.8667 127.8 90.6 128.6C89.9333 130.2 89 132 87.8 134C86.7333 136.133 85.7333 138.267 84.8 140.4C84.1333 141.333 83 141.8 81.4 141.8ZM170.855 136C166.988 136 163.655 134.533 160.855 131.6C158.188 128.667 156.855 124.667 156.855 119.6C156.855 117.733 157.055 115.733 157.455 113.6C157.988 111.333 158.721 109 159.655 106.6C161.655 101.933 164.388 97.4667 167.855 93.2C171.455 88.9333 175.321 85.4 179.455 82.6C183.588 79.8 187.521 78.4 191.255 78.4C191.655 78.4 192.121 78.6 192.655 79C193.188 79.2667 193.588 79.5333 193.855 79.8L194.855 80.8C196.455 82.4 197.988 83.3333 199.455 83.6C201.055 83.8667 202.321 84.6667 203.255 86C204.855 88.5333 205.655 91.6 205.655 95.2C205.655 100.133 204.121 105.533 201.055 111.4C198.121 117.133 194.121 122.333 189.055 127C186.521 129.267 183.721 131.333 180.655 133.2C177.588 135.067 174.321 136 170.855 136ZM172.255 133.8C175.455 133.8 178.721 132.733 182.055 130.6C185.388 128.333 188.455 125.4 191.255 121.8C194.188 118.2 196.655 114.4 198.655 110.4C200.788 106.4 202.121 102.6 202.655 99C202.788 98.3333 202.855 97.6667 202.855 97C202.988 96.2 203.055 95.5333 203.055 95C203.055 91.4 202.188 88.8 200.455 87.2C198.721 85.4667 196.655 84.6 194.255 84.6C191.721 84.6 189.121 85.4 186.455 87C183.921 88.4667 180.721 91.5333 176.855 96.2C172.988 100.733 169.521 105.467 166.455 110.4C163.655 114.8 162.255 119.067 162.255 123.2C162.255 126.133 163.055 128.667 164.655 130.8C166.388 132.8 168.921 133.8 172.255 133.8ZM216.798 133.6C213.865 133.6 211.598 132.933 209.998 131.6C208.532 130.267 207.932 128.533 208.198 126.4C208.465 124.933 208.865 123.267 209.398 121.4C209.932 119.533 210.598 117.667 211.398 115.8L216.198 104.6C216.065 104.333 215.932 104.133 215.798 104C215.798 103.733 215.798 103.533 215.798 103.4C215.665 102.867 215.732 102.4 215.998 102C219.465 96.6667 222.665 92.2 225.598 88.6C228.532 85 230.465 83.2 231.398 83.2C233.265 83.2 235.465 84.4667 237.998 87C236.265 89.1333 234.465 91.5333 232.598 94.2C230.732 96.7333 228.932 99.3333 227.198 102C225.332 104.8 223.332 107.867 221.198 111.2C219.198 114.4 217.798 117.333 216.998 120C216.198 122.4 215.798 124.267 215.798 125.6C215.798 127.467 216.465 128.4 217.798 128.4C219.532 128.4 222.065 126.6 225.398 123C227.665 120.6 230.132 117.667 232.798 114.2C235.598 110.6 238.265 107 240.798 103.4C243.465 99.6667 245.932 96.2 248.198 93C250.598 89.6667 252.598 87 254.198 85C255.665 83.1333 256.998 82.2 258.198 82.2C259.932 82.2 261.932 83.6667 264.198 86.6C262.332 89.2667 260.065 92.7333 257.398 97C254.732 101.133 252.265 105.4 249.998 109.8C247.865 114.067 246.465 117.867 245.798 121.2C245.665 121.733 245.532 122.267 245.398 122.8C245.398 123.333 245.398 123.933 245.398 124.6C245.398 128.467 246.398 130.4 248.398 130.4C249.465 130.4 250.732 129.8 252.198 128.6C253.798 127.4 255.332 126 256.798 124.4C258.265 122.8 259.398 121.467 260.198 120.4C264.465 114.667 268.532 108.733 272.398 102.6C273.198 101.4 273.732 100.8 273.998 100.8C274.265 100.8 274.332 101.067 274.198 101.6C274.198 102 274.132 102.333 273.998 102.6C271.332 107 268.198 111.8 264.598 117C261.132 122.2 257.665 126.467 254.198 129.8C252.332 131.667 250.465 132.6 248.598 132.6C244.998 132.6 242.332 131.733 240.598 130C238.865 128.267 237.998 126.333 237.998 124.2C237.998 122.867 238.198 121.467 238.598 120C238.998 118.4 239.465 116.8 239.998 115.2L245.398 101C243.398 103.533 241.732 105.667 240.398 107.4C239.065 109 237.865 110.533 236.798 112C235.865 113.333 234.798 114.867 233.598 116.6C232.398 118.2 231.132 119.8 229.798 121.4C227.265 124.733 224.798 127.6 222.398 130C219.998 132.4 218.132 133.6 216.798 133.6ZM300.03 135.6C296.563 135.6 294.096 134.6 292.63 132.6C291.296 130.467 290.63 128 290.63 125.2C290.63 122 291.096 118.8 292.03 115.6C293.096 112.267 294.23 109.267 295.43 106.6C296.763 103.8 297.83 101.667 298.63 100.2C300.896 95.9333 302.03 93.1333 302.03 91.8C302.03 90.3333 301.363 89.8667 300.03 90.4C298.963 90.8 297.496 91.9333 295.63 93.8C293.763 95.6667 291.83 97.8 289.83 100.2C287.83 102.6 286.03 104.8 284.43 106.8C282.963 108.8 282.03 110.133 281.63 110.8C277.896 116.133 275.296 120.533 273.83 124C272.363 127.467 271.296 130 270.63 131.6C270.363 132.267 269.63 132.6 268.43 132.6C267.23 132.6 266.03 132.133 264.83 131.2C263.63 130.133 263.03 128.6 263.03 126.6C263.03 125.533 263.63 123.667 264.83 121C266.03 118.2 267.496 114.933 269.23 111.2C270.83 107.6 272.43 104 274.03 100.4C275.63 96.6667 276.896 93.7333 277.83 91.6C276.896 90.8 276.43 90.2 276.43 89.8C276.43 89.4 276.496 89.0667 276.63 88.8C276.896 88.1333 277.43 87.0667 278.23 85.6C279.03 84 279.83 82.4667 280.63 81C281.43 79.4 281.963 78.4 282.23 78C282.63 77.7333 283.63 77.2667 285.23 76.6C286.963 75.9333 288.63 75.6 290.23 75.6H291.03C292.63 75.6 293.43 76.0667 293.43 77C293.43 77.9333 292.963 79.1333 292.03 80.6C291.63 81.2667 290.696 83 289.23 85.8C287.763 88.4667 286.096 91.5333 284.23 95C282.363 98.4667 280.63 101.8 279.03 105C277.563 108.067 276.496 110.4 275.83 112C275.43 113.2 275.23 114.4 275.23 115.6C275.363 116.667 275.696 116.8 276.23 116C279.963 110.4 283.43 105.6 286.63 101.6C289.83 97.6 293.03 93.8667 296.23 90.4C299.43 86.9333 302.963 83.3333 306.83 79.6C308.163 80.1333 309.563 80.4 311.03 80.4C312.496 80.4 313.763 80.8 314.83 81.6C315.363 82 315.63 82.6667 315.63 83.6C315.63 85.4667 314.496 88.2667 312.23 92C310.096 95.6 307.696 99.6667 305.03 104.2C303.03 107.667 301.03 111.667 299.03 116.2C297.03 120.733 296.03 124.667 296.03 128C296.03 129.733 296.296 131.2 296.83 132.4C297.496 133.467 298.496 134 299.83 134C301.03 134 302.363 133.533 303.83 132.6C304.896 131.933 307.23 129.733 310.83 126C314.43 122.133 318.363 116.933 322.63 110.4C323.03 110 323.296 109.8 323.43 109.8C323.696 109.8 323.83 109.933 323.83 110.2C323.83 110.467 323.63 111 323.23 111.8C318.83 119.267 314.43 125.133 310.03 129.4C305.763 133.533 302.43 135.6 300.03 135.6ZM330.503 135.2C328.503 135.2 326.636 134.533 324.903 133.2C323.17 131.867 321.77 130.333 320.703 128.6C319.636 126.867 319.103 125.4 319.103 124.2C319.103 119.667 320.503 114.933 323.303 110C326.103 104.933 329.636 100.2 333.903 95.8C338.303 91.4 342.903 87.8667 347.703 85.2C352.503 82.4 356.97 81 361.103 81C361.77 81 362.436 81.1333 363.103 81.4C363.77 81.6667 364.636 82.2667 365.703 83.2C371.036 72.1333 376.903 61.2667 383.303 50.6C389.703 39.8 395.903 30.8667 401.903 23.8C407.103 17.5333 412.37 12.7333 417.703 9.39999C423.17 5.93332 428.77 3.53332 434.503 2.19999C438.503 1.13332 442.636 0.599988 446.903 0.599988C447.57 0.599988 448.303 0.599988 449.103 0.599988C449.903 0.599988 450.636 0.666658 451.303 0.799997C452.636 0.933329 454.17 1.33333 455.903 1.99999C457.636 2.66666 458.636 3.39999 458.903 4.19999C459.17 4.73332 459.17 5.06666 458.903 5.19999C458.636 5.33333 458.303 5.2 457.903 4.79999C456.97 4 455.77 3.46666 454.303 3.19999C452.97 2.8 451.503 2.6 449.903 2.6C447.37 2.6 444.836 2.93333 442.303 3.6C439.77 4.26666 437.77 4.93333 436.303 5.6C431.903 7.86666 427.37 11.0667 422.703 15.2C418.036 19.2 413.436 23.8 408.903 29C402.37 36.4667 396.17 44.6 390.303 53.4C384.57 62.2 379.436 71 374.903 79.8C370.503 88.6 367.036 96.8 364.503 104.4C362.103 112 360.903 118.4 360.903 123.6C360.903 124.4 360.903 125.2 360.903 126C361.036 126.667 361.17 127.333 361.303 128C361.703 129.733 362.37 130.933 363.303 131.6C364.236 132.267 365.303 132.6 366.503 132.6C367.836 132.6 369.103 132.333 370.303 131.8C371.636 131.133 372.77 130.4 373.703 129.6C376.236 127.333 379.103 124.067 382.303 119.8C385.636 115.533 388.77 111.267 391.703 107C392.236 106.333 392.57 106.133 392.703 106.4C392.836 106.667 392.77 106.933 392.503 107.2C391.97 108.133 390.77 110 388.903 112.8C387.036 115.6 384.903 118.6 382.503 121.8C380.236 125 378.036 127.667 375.903 129.8C372.436 133.267 368.903 135 365.303 135C362.636 135 360.37 133.867 358.503 131.6C356.636 129.333 355.703 126.133 355.703 122C355.703 120.667 355.836 118.467 356.103 115.4C356.37 112.333 356.77 109.733 357.303 107.6C354.236 112.667 351.036 117.333 347.703 121.6C344.503 125.733 341.37 129.067 338.303 131.6C335.37 134 332.77 135.2 330.503 135.2ZM329.103 132.6C330.303 132.6 331.636 132.067 333.103 131C335.503 129.133 338.17 126.6 341.103 123.4C344.17 120.2 347.17 116.8 350.103 113.2C353.17 109.467 355.836 105.933 358.103 102.6C358.77 100.467 359.703 97.9333 360.903 95C362.103 92.0667 363.17 89.4 364.103 87C362.37 86.7333 360.37 87 358.103 87.8C355.97 88.4667 354.436 89.0667 353.503 89.6C349.903 91.7333 346.103 94.7333 342.103 98.6C338.236 102.333 334.77 106.4 331.703 110.8C328.636 115.067 326.37 119.2 324.903 123.2C324.503 124.133 324.303 125.2 324.303 126.4C324.303 128 324.703 129.467 325.503 130.8C326.436 132 327.636 132.6 329.103 132.6ZM402.505 135.6C398.905 135.6 395.571 134.333 392.505 131.8C389.571 129.133 388.105 125.267 388.105 120.2C388.105 116.2 389.171 111.867 391.305 107.2C393.438 102.533 396.171 98.0667 399.505 93.8C402.971 89.5333 406.638 86 410.505 83.2C414.371 80.4 417.971 78.9333 421.305 78.8C421.838 79.3333 422.438 79.7333 423.105 80C423.905 80.2667 424.638 80.5333 425.305 80.8L430.505 82C433.438 82.8 434.905 84.6667 434.905 87.6C434.905 89.3333 434.305 91.2 433.105 93.2C432.038 95.2 430.371 96.9333 428.105 98.4C426.905 99.2 425.571 100 424.105 100.8C422.771 101.6 421.371 102.4 419.905 103.2L410.905 108C408.105 109.467 405.638 111.067 403.505 112.8C401.371 114.4 399.838 116.133 398.905 118C398.905 118 398.705 118.067 398.305 118.2C398.038 118.2 397.971 117.933 398.105 117.4C399.038 115.133 400.838 112.867 403.505 110.6C406.305 108.2 409.105 106.133 411.905 104.4C413.238 103.333 414.571 102.4 415.905 101.6C417.371 100.8 418.771 99.9333 420.105 99C421.438 98.0667 422.705 97.1333 423.905 96.2C425.238 95.1333 426.371 94.1333 427.305 93.2C428.371 92.1333 429.105 91.0667 429.505 90C430.038 88.9333 430.305 88 430.305 87.2C430.305 84.6667 428.838 83.4 425.905 83.4C424.038 83.4 421.905 84.2 419.505 85.8C416.571 87.8 413.771 90.2 411.105 93C408.438 95.6667 405.905 98.6 403.505 101.8C400.971 105.267 398.705 109.267 396.705 113.8C394.838 118.333 393.905 122.133 393.905 125.2C393.905 128.267 394.771 130.467 396.505 131.8C398.371 133 400.505 133.6 402.905 133.6C406.238 133.6 409.438 132.733 412.505 131C414.771 129.667 416.905 128 418.905 126C420.905 123.867 422.571 122 423.905 120.4C424.971 119.067 426.171 117.467 427.505 115.6C428.971 113.733 429.971 112.333 430.505 111.4C430.771 111.133 430.971 111.133 431.105 111.4C431.238 111.667 431.305 111.867 431.305 112C430.771 112.933 429.838 114.467 428.505 116.6C427.305 118.6 425.505 121.133 423.105 124.2C420.305 127.8 417.371 130.6 414.305 132.6C411.238 134.6 407.305 135.6 402.505 135.6ZM451.502 135.6C448.302 135.6 446.102 134.533 444.902 132.4C443.702 130.133 443.302 127.733 443.702 125.2C444.235 121.733 445.168 118.933 446.502 116.8C447.968 114.667 449.702 112.333 451.702 109.8C453.302 107.533 454.835 105.2 456.302 102.8C457.768 100.4 457.968 99 456.902 98.6C456.235 99.1333 455.102 99.7333 453.502 100.4C451.902 101.067 450.235 101.4 448.502 101.4C447.035 101.4 445.568 101.067 444.102 100.4C442.768 99.7333 441.768 98.5333 441.102 96.8C439.368 100 437.235 103.533 434.702 107.4C432.302 111.133 429.835 114.733 427.302 118.2C424.902 121.667 422.768 124.533 420.902 126.8C420.368 127.333 419.902 127.533 419.502 127.4C418.968 127.267 418.902 126.933 419.302 126.4C422.368 122.533 425.902 117.667 429.902 111.8C433.902 105.933 437.568 99.6 440.902 92.8C444.235 85.8667 446.302 79.1333 447.102 72.6C451.635 74.7333 453.902 77.4667 453.902 80.8C453.902 83.3333 452.835 85.9333 450.702 88.6C448.568 91.1333 445.768 93.4667 442.302 95.6C444.035 98.1333 446.235 99.4 448.902 99.4C450.902 99.4 452.902 98.8 454.902 97.6C457.035 96.2667 458.702 94.8 459.902 93.2C460.968 92 461.835 91.2 462.502 90.8C463.302 90.4 463.968 90.2 464.502 90.2C466.368 90.2 467.702 90.8 468.502 92C469.435 93.0667 469.568 94.2667 468.902 95.6C466.502 98.9333 463.768 103.067 460.702 108C457.635 112.8 454.902 117.333 452.502 121.6C452.102 122.133 451.568 123.333 450.902 125.2C450.235 127.067 449.902 128.733 449.902 130.2C449.902 132.2 450.702 133.2 452.302 133.2C454.168 133.2 456.302 132.133 458.702 130C461.102 127.733 463.502 125.067 465.902 122C468.302 118.8 470.435 115.733 472.302 112.8C474.302 109.867 475.768 107.733 476.702 106.4C477.368 105.2 477.902 104.6 478.302 104.6C478.435 104.6 478.502 104.733 478.502 105C478.502 105.533 478.302 106.133 477.902 106.8C475.902 110.133 473.768 113.467 471.502 116.8C469.235 120.133 466.968 123.333 464.702 126.4C462.568 129.2 460.368 131.4 458.102 133C455.968 134.733 453.768 135.6 451.502 135.6Z" fill="#0012A5" fill-opacity="0.06"/>
</svg>
