<svg width="584" height="413" viewBox="0 0 584 413" fill="none" xmlns="http://www.w3.org/2000/svg">
<path opacity="0.5" d="M514.456 359.819C564.914 311.646 576.969 213.294 530.233 144.911C491.278 87.9149 419.526 29.285 329.111 12.1945C238.695 -4.896 159.483 -4.87624 125.227 17.7016C97.1934 36.1783 110.224 61.9111 119.017 83.7779C130.753 112.969 132.482 136.146 84.2019 178.553C29.0865 226.961 14.1685 245.134 11.4072 291.943C9.15932 330.014 40.9416 381.224 82.6435 388.561C140.7 398.776 162.248 371.794 219.048 353.604C264.611 339.011 296.214 345.835 337.525 373.801C378.831 401.769 440.408 430.512 514.456 359.819Z" fill="#DAF8FF"/>
<path d="M348.435 146.442C348.715 143.933 348.864 141.384 348.864 138.801C348.864 137.438 348.819 136.085 348.74 134.742L336.115 130.657C335.338 125.333 333.81 120.255 331.643 115.528L340.016 105.226C338.078 101.818 335.859 98.5936 333.383 95.5859L320.755 99.7071C317.073 95.9471 312.868 92.7043 308.254 90.0972L308.972 76.8308C305.449 75.2263 301.764 73.9134 297.95 72.924L290.153 83.685C287.113 83.1734 283.993 82.9025 280.808 82.9025C278.638 82.9025 276.497 83.0304 274.39 83.2712L267.171 72.1133C263.304 72.8995 259.555 74.0149 255.955 75.4276L255.972 88.7147C251.217 91.0772 246.847 94.0943 242.98 97.6512L230.592 92.8717C227.959 95.7477 225.57 98.8494 223.458 102.149L231.275 112.881C228.854 117.495 227.06 122.489 226.004 127.751L213.182 131.163C212.902 133.672 212.753 136.221 212.753 138.803C212.753 140.167 212.798 141.519 212.877 142.862L225.504 146.948C226.281 152.271 227.808 157.351 229.975 162.076L221.603 172.378C223.538 175.787 225.76 179.011 228.235 182.018L240.862 177.897C244.543 181.657 248.749 184.9 253.363 187.505L252.645 200.772C256.168 202.376 259.852 203.689 263.667 204.678L271.466 193.917C274.505 194.429 277.626 194.7 280.81 194.7C282.981 194.7 285.121 194.572 287.228 194.331L294.447 205.489C298.315 204.703 302.063 203.588 305.664 202.175L305.647 188.888C310.402 186.525 314.771 183.508 318.638 179.951L331.026 184.731C333.66 181.855 336.049 178.753 338.161 175.454L330.344 164.721C332.765 160.107 334.559 155.113 335.614 149.852L348.435 146.442ZM280.806 165.492C266.063 165.492 254.114 153.541 254.114 138.799C254.114 124.056 266.065 112.106 280.806 112.106C295.548 112.106 307.499 124.058 307.499 138.799C307.499 153.542 295.55 165.492 280.806 165.492Z" fill="#5EB9F7"/>
<path d="M317.215 169.242C316.989 169.242 316.763 169.167 316.577 169.011C316.154 168.659 316.096 168.029 316.447 167.606C323.157 159.538 326.851 149.308 326.851 138.797C326.851 133.763 326.027 128.822 324.404 124.108C324.225 123.587 324.502 123.019 325.023 122.84C325.544 122.662 326.112 122.938 326.29 123.459C327.985 128.382 328.845 133.543 328.845 138.799C328.845 149.774 324.987 160.458 317.98 168.883C317.785 169.12 317.501 169.242 317.215 169.242Z" fill="white"/>
<path d="M313.349 106.24C313.105 106.24 312.858 106.149 312.664 105.969C308.156 101.723 302.934 98.507 297.145 96.406C296.627 96.2179 296.358 95.6461 296.546 95.1269C296.734 94.6096 297.306 94.3407 297.824 94.5288C303.871 96.7239 309.324 100.083 314.032 104.515C314.433 104.893 314.451 105.525 314.075 105.926C313.88 106.136 313.614 106.24 313.349 106.24Z" fill="white"/>
<path d="M270.454 95.1159C270.008 95.1159 269.602 94.8149 269.487 94.3616C269.351 93.8274 269.675 93.2857 270.209 93.1502C273.967 92.2022 277.855 91.7207 281.768 91.7207C282.319 91.7207 282.765 92.1684 282.765 92.7176C282.765 93.2669 282.319 93.7145 281.768 93.7145C278.021 93.7145 274.297 94.1754 270.698 95.0839C270.615 95.1065 270.535 95.1159 270.454 95.1159Z" fill="white"/>
<path d="M133.891 315.459C134.085 313.721 134.188 311.956 134.188 310.166C134.188 309.221 134.156 308.285 134.102 307.353L125.357 304.525C124.819 300.838 123.762 297.319 122.261 294.046L128.06 286.909C126.719 284.549 125.18 282.316 123.467 280.232L114.72 283.085C112.172 280.48 109.258 278.234 106.062 276.43L106.561 267.242C104.119 266.13 101.569 265.222 98.9258 264.535L93.5256 271.987C91.4208 271.634 89.2576 271.446 87.0531 271.446C85.5502 271.446 84.0662 271.534 82.6084 271.702L77.6088 263.973C74.9303 264.518 72.3326 265.289 69.8403 266.269L69.8516 275.473C66.5581 277.109 63.5316 279.199 60.8531 281.663L52.2721 278.353C50.4494 280.345 48.7942 282.495 47.3308 284.778L52.7461 292.212C51.0702 295.407 49.8269 298.867 49.0952 302.51L40.2132 304.872C40.0195 306.611 39.916 308.375 39.916 310.166C39.916 311.11 39.948 312.047 40.0025 312.978L48.7472 315.807C49.2851 319.493 50.3422 323.013 51.8432 326.285L46.0442 333.422C47.3854 335.782 48.924 338.015 50.6375 340.099L59.3841 337.246C61.9328 339.851 64.8464 342.097 68.0422 343.901L67.5456 353.091C69.9871 354.203 72.5377 355.111 75.1805 355.798L80.5807 348.345C82.6855 348.699 84.8486 348.887 87.0531 348.887C88.556 348.887 90.0401 348.799 91.4979 348.631L96.4975 356.36C99.176 355.815 101.774 355.044 104.266 354.064L104.255 344.86C107.548 343.224 110.575 341.134 113.253 338.67L121.834 341.98C123.657 339.988 125.312 337.84 126.775 335.555L121.36 328.121C123.036 324.926 124.279 321.466 125.011 317.823L133.891 315.459ZM87.0494 328.655C76.8376 328.655 68.5613 320.377 68.5613 310.167C68.5613 299.956 76.8395 291.677 87.0494 291.677C97.2612 291.677 105.537 299.956 105.537 310.167C105.539 320.377 97.2612 328.655 87.0494 328.655Z" fill="#5EB9F7"/>
<path d="M112.267 331.559C112.042 331.559 111.816 331.484 111.63 331.328C111.207 330.976 111.148 330.346 111.5 329.923C116.101 324.391 118.635 317.373 118.635 310.165C118.635 306.714 118.07 303.324 116.957 300.091C116.778 299.57 117.054 299.002 117.576 298.823C118.097 298.644 118.665 298.921 118.843 299.442C120.028 302.884 120.63 306.492 120.63 310.165C120.63 317.84 117.933 325.309 113.035 331.198C112.837 331.437 112.553 331.559 112.267 331.559Z" fill="white"/>
<path d="M109.591 287.921C109.347 287.921 109.1 287.831 108.907 287.65C105.814 284.739 102.233 282.532 98.2622 281.092C97.7449 280.903 97.4759 280.332 97.664 279.812C97.8521 279.295 98.4239 279.026 98.9412 279.214C103.17 280.749 106.982 283.097 110.274 286.196C110.675 286.575 110.694 287.207 110.317 287.607C110.12 287.816 109.856 287.921 109.591 287.921Z" fill="white"/>
<path d="M79.8775 280.214C79.4317 280.214 79.0254 279.913 78.9107 279.46C78.7753 278.926 79.0988 278.384 79.633 278.249C82.2607 277.585 84.9787 277.25 87.7136 277.25C88.2647 277.25 88.7105 277.698 88.7105 278.247C88.7105 278.798 88.2647 279.244 87.7136 279.244C85.1442 279.244 82.5899 279.56 80.122 280.182C80.0412 280.205 79.9584 280.214 79.8775 280.214Z" fill="white"/>
<path d="M389.19 197.276C389.19 196.761 389.175 196.248 389.146 195.74L395.698 190.479C395.184 187.853 394.379 185.332 393.317 182.951L384.856 182.311C382.934 179.276 380.441 176.637 377.533 174.541L377.505 166.111C375.148 164.875 372.637 163.897 370.004 163.216L364.222 169.438C363.225 169.331 362.211 169.274 361.186 169.274C358.637 169.274 356.169 169.617 353.824 170.254L347.193 165.003C344.692 166.09 342.338 167.457 340.179 169.069L341.434 177.428C338.962 179.889 336.948 182.808 335.527 186.049L327.279 187.96C326.582 190.507 326.164 193.168 326.061 195.911L333.325 200.111C333.695 203.79 334.779 207.259 336.432 210.377L332.794 217.995C334.354 220.128 336.148 222.081 338.14 223.811L345.931 220.76C348.993 222.754 352.469 224.165 356.203 224.836L359.875 232.396C360.313 232.413 360.751 232.422 361.193 232.422C363.394 232.422 365.546 232.217 367.636 231.832L370.111 223.824C373.717 222.613 376.995 220.685 379.777 218.214L387.965 220.053C389.645 218.082 391.11 215.922 392.327 213.611L387.581 206.64C388.624 203.713 389.19 200.561 389.19 197.276ZM360.881 209.614C354.367 209.614 349.087 204.334 349.087 197.82C349.087 191.306 354.367 186.026 360.881 186.026C367.395 186.026 372.675 191.306 372.675 197.82C372.675 204.334 367.395 209.614 360.881 209.614Z" fill="#5EB9F7"/>
<g opacity="0.8">
<path d="M498.214 129.329H488.078C484.163 129.329 480.979 126.145 480.979 122.23V112.094C480.979 108.18 484.163 104.995 488.078 104.995H498.214C502.129 104.995 505.313 108.18 505.313 112.094V122.23C505.315 126.145 502.129 129.329 498.214 129.329ZM488.078 107.79C485.704 107.79 483.772 109.722 483.772 112.096V122.232C483.772 124.606 485.704 126.538 488.078 126.538H498.214C500.588 126.538 502.52 124.606 502.52 122.232V112.096C502.52 109.722 500.588 107.79 498.214 107.79H488.078Z" fill="#75A1DE"/>
</g>
<g opacity="0.8">
<path d="M450.519 129.329H440.382C436.468 129.329 433.283 126.145 433.283 122.23V112.094C433.283 108.18 436.468 104.995 440.382 104.995H450.519C454.433 104.995 457.617 108.18 457.617 112.094V122.23C457.617 126.145 454.433 129.329 450.519 129.329ZM440.382 107.79C438.008 107.79 436.076 109.722 436.076 112.096V122.232C436.076 124.606 438.008 126.538 440.382 126.538H450.519C452.892 126.538 454.824 124.606 454.824 122.232V112.096C454.824 109.722 452.892 107.79 450.519 107.79H440.382Z" fill="#75A1DE"/>
</g>
<path d="M446.084 123.429C446.065 123.429 446.044 123.429 446.025 123.427C445.674 123.41 445.348 123.239 445.134 122.958L437.849 113.456C437.446 112.931 437.546 112.18 438.071 111.778C438.596 111.375 439.346 111.475 439.749 112L446.174 120.381L462.948 102.409C463.4 101.925 464.158 101.899 464.641 102.35C465.125 102.802 465.151 103.56 464.7 104.043L446.96 123.051C446.733 123.291 446.415 123.429 446.084 123.429Z" fill="#F37168"/>
<path d="M531.722 391.113C490.224 389.086 349.051 392.522 306.116 393.861C263.181 395.201 213.345 392.093 187.457 387.522C161.569 382.952 11.9288 387.912 18.7191 400.198C25.5094 412.485 85.392 405.695 153.297 410.634C221.204 415.573 373.927 410.017 408.375 410.634C442.825 411.251 474.414 409.4 518.809 406.93C563.206 404.462 555.778 392.289 531.722 391.113Z" fill="#DAF8FF"/>
<path d="M107.554 134.174H20.8057V276.36H107.554V134.174Z" fill="#1C145E"/>
<path d="M104.702 137.07H25.3477V270.939H104.702V137.07Z" fill="white"/>
<path d="M49.084 190.754C52.071 184.328 57.1251 182.271 65.4277 182.271C75.3122 182.271 80.4435 185.852 81.8994 191.064C64.1976 191.305 49.084 190.754 49.084 190.754Z" fill="#9BD6E8"/>
<path d="M61.9738 151.018C57.7905 152.192 57.973 154.543 56.5792 156.725C55.1854 158.907 52.1551 160.363 51.7902 161.817C51.4272 163.271 52.7232 166.303 51.1846 168C49.6459 169.696 49.123 170.545 49.7306 172.243C50.3362 173.94 51.6698 176.607 51.7921 176.972C51.9144 177.337 53.611 179.882 55.6707 180.245C57.7322 180.608 61.6108 181.215 63.55 182.064C65.4893 182.912 71.7266 180.976 75.1876 181.099C78.6486 181.219 81.0073 178.668 80.7647 176.972C80.522 175.275 83.3172 171.88 83.3097 168.97C83.3021 165.846 79.6719 163.515 78.7032 161.454C77.7326 159.392 78.8235 155.756 75.1876 153.601C72.8891 152.239 71.3091 152.361 69.4902 151.754C67.6713 151.15 64.641 150.27 61.9738 151.018Z" fill="#3A384D"/>
<path d="M67.0659 187.398C66.1197 188.796 65.4257 188.852 64.3987 187.398C63.5823 186.242 61.9741 183.614 61.9741 182.28V168.97C61.9741 167.637 63.0651 166.546 64.3987 166.546H67.0659C68.3995 166.546 69.4905 167.637 69.4905 168.97V182.28C69.4905 183.614 67.9142 186.146 67.0659 187.398Z" fill="#F09959"/>
<path d="M67.0659 166.548H64.3987C63.0651 166.548 61.9741 167.639 61.9741 168.972V180.847C64.9686 181.801 67.7017 179.905 69.4905 177.77V168.972C69.4905 167.639 68.3995 166.548 67.0659 166.548Z" fill="#E38540"/>
<path d="M65.7323 177.666C70.1847 177.666 73.7941 172.748 73.7941 166.681C73.7941 160.614 70.1847 155.696 65.7323 155.696C61.2798 155.696 57.6704 160.614 57.6704 166.681C57.6704 172.748 61.2798 177.666 65.7323 177.666Z" fill="#F09959"/>
<path d="M69.49 157.938C64.3982 166.546 56.8818 165.697 56.8818 165.697C56.8818 165.697 57.0643 154.302 63.0345 153.695C69.0047 153.089 72.5202 155.485 73.7335 159.439C74.9448 163.393 73.7335 166 73.7335 166C73.7335 166 71.7942 164.484 70.8236 162.059C69.853 159.637 69.49 157.938 69.49 157.938Z" fill="#3A384D"/>
<path d="M58.4961 166.512C59.2503 168.1 59.0039 169.795 57.9449 170.297C56.8859 170.799 55.4169 169.921 54.6626 168.333C53.9084 166.746 54.1548 165.051 55.2138 164.549C56.2728 164.046 57.7418 164.925 58.4961 166.512Z" fill="#F09959"/>
<path d="M72.605 166.512C71.8508 168.1 72.0971 169.795 73.1561 170.297C74.2151 170.799 75.6841 169.921 76.4384 168.333C77.1927 166.746 76.9463 165.051 75.8873 164.549C74.8283 164.046 73.3593 164.925 72.605 166.512Z" fill="#F09959"/>
<path d="M68.7626 172.641C68.7626 172.641 67.4065 174.399 65.7324 174.399C64.0583 174.399 62.7021 172.641 62.7021 172.641H68.7626Z" fill="white"/>
<path d="M75.3289 208.179H54.9692C53.6676 208.179 52.6011 207.114 52.6011 205.811C52.6011 204.509 53.6657 203.442 54.9692 203.442H75.3289C76.6305 203.442 77.697 204.507 77.697 205.811C77.697 207.114 76.6305 208.179 75.3289 208.179Z" fill="#1C145E"/>
<path d="M79.0566 215.453H51.2427C49.941 215.453 48.8745 214.388 48.8745 213.085C48.8745 211.783 49.9392 210.717 51.2427 210.717H79.0566C80.3582 210.717 81.4247 211.781 81.4247 213.085C81.4247 214.388 80.3582 215.453 79.0566 215.453Z" fill="#1C145E"/>
<path d="M98.9789 241.611H31.3204C30.5642 241.611 29.9473 240.993 29.9473 240.238C29.9473 239.484 30.5661 238.865 31.3204 238.865H98.9789C99.735 238.865 100.352 239.484 100.352 240.238C100.352 240.993 99.735 241.611 98.9789 241.611Z" fill="#1C145E"/>
<path d="M98.9789 247.995H31.3204C30.5642 247.995 29.9473 247.376 29.9473 246.622C29.9473 245.868 30.5661 245.249 31.3204 245.249H98.9789C99.735 245.249 100.352 245.868 100.352 246.622C100.352 247.376 99.735 247.995 98.9789 247.995Z" fill="#1C145E"/>
<path d="M98.9789 254.379H31.3204C30.5642 254.379 29.9473 253.76 29.9473 253.006C29.9473 252.25 30.5661 251.633 31.3204 251.633H98.9789C99.735 251.633 100.352 252.252 100.352 253.006C100.354 253.762 99.735 254.379 98.9789 254.379Z" fill="#1C145E"/>
<path d="M89.5155 192.332H40.7833C39.4309 192.332 38.3306 191.232 38.3306 189.879V144.965C38.3306 143.613 39.4309 142.513 40.7833 142.513H89.5155C90.8679 142.513 91.9683 143.613 91.9683 144.965V189.879C91.9683 191.232 90.8679 192.332 89.5155 192.332ZM40.7833 144.508C40.535 144.508 40.3263 144.717 40.3263 144.965V189.879C40.3263 190.128 40.535 190.336 40.7833 190.336H89.5155C89.7638 190.336 89.9726 190.128 89.9726 189.879V144.965C89.9726 144.717 89.7638 144.508 89.5155 144.508H40.7833Z" fill="#1C145E"/>
<path d="M47.816 221.628L49.2268 224.487L52.3811 224.946L50.0976 227.171L50.6375 230.314L47.816 228.83L44.9946 230.314L45.5325 227.171L43.249 224.946L46.4053 224.487L47.816 221.628Z" fill="#1C145E"/>
<path d="M59.3708 221.628L60.7834 224.487L63.9378 224.946L61.6543 227.171L62.1941 230.314L59.3708 228.83L56.5493 230.314L57.0892 227.171L54.8057 224.946L57.9601 224.487L59.3708 221.628Z" fill="#1C145E"/>
<path d="M70.9274 221.628L72.3382 224.487L75.4925 224.946L73.2109 227.171L73.7489 230.314L70.9274 228.83L68.106 230.314L68.6439 227.171L66.3623 224.946L69.5167 224.487L70.9274 221.628Z" fill="#1C145E"/>
<path d="M82.4836 221.628L83.8943 224.487L87.0487 224.946L84.7671 227.171L85.305 230.314L82.4836 228.83L79.6621 230.314L80.2001 227.171L77.9185 224.946L81.0728 224.487L82.4836 221.628Z" fill="#1C145E"/>
<path d="M300.95 134.174H214.201V276.36H300.95V134.174Z" fill="#1C145E"/>
<path d="M298.099 137.07H218.744V270.939H298.099V137.07Z" fill="white"/>
<path d="M246.249 165.957C246.249 172.326 250.084 182.602 259.129 182.271C268.175 181.942 270.176 172.145 270.526 169.382C270.874 166.619 246.249 165.957 246.249 165.957Z" fill="#7A4E34"/>
<path d="M242.479 190.754C245.466 184.328 250.52 182.271 258.821 182.271C268.705 182.271 273.837 185.852 275.293 191.064C257.593 191.305 242.479 190.754 242.479 190.754Z" fill="#D54A41"/>
<path d="M260.462 187.397C259.516 188.795 258.822 188.851 257.795 187.397C256.978 186.241 255.37 183.613 255.37 182.279V168.969C255.37 167.636 256.461 166.545 257.795 166.545H260.462C261.796 166.545 262.886 167.636 262.886 168.969V182.279C262.886 183.613 261.31 186.145 260.462 187.397Z" fill="#F09959"/>
<path d="M260.462 166.547H257.795C256.461 166.547 255.37 167.638 255.37 168.971V180.846C258.365 181.8 261.098 179.904 262.886 177.769V168.971C262.886 167.638 261.796 166.547 260.462 166.547Z" fill="#E38540"/>
<path d="M267.19 166.68C267.19 172.746 263.58 177.665 259.128 177.665C254.675 177.665 251.066 172.746 251.066 166.68C251.066 160.614 254.675 155.695 259.128 155.695C263.58 155.695 267.19 160.614 267.19 166.68Z" fill="#F09959"/>
<path d="M263.559 158.331C262.602 161.709 260.503 161.67 257.574 162.78C254.647 163.889 253.248 165.005 252.291 167.166C251.07 169.922 252.845 177.957 252.845 177.957C252.845 177.957 245.433 172.41 246.29 163.688C247.148 154.964 252.291 151.586 257.132 151.586C261.972 151.586 263.813 154.535 263.813 154.535C263.813 154.535 266.392 154.547 268.83 157.434C272.107 161.316 271.098 170.746 268.83 174.124C266.562 177.502 265.047 178.561 265.098 178.41C265.149 178.26 267.216 170.501 266.106 165.705C264.997 160.908 263.559 158.331 263.559 158.331Z" fill="#7A4E34"/>
<path d="M262.158 172.64C262.158 172.64 260.802 174.398 259.128 174.398C257.454 174.398 256.098 172.64 256.098 172.64H262.158Z" fill="white"/>
<path d="M268.725 208.179H248.365C247.064 208.179 245.997 207.114 245.997 205.811C245.997 204.509 247.062 203.442 248.365 203.442H268.725C270.026 203.442 271.093 204.507 271.093 205.811C271.093 207.114 270.026 208.179 268.725 208.179Z" fill="#1C145E"/>
<path d="M272.453 215.453H244.637C243.335 215.453 242.271 214.388 242.271 213.085C242.271 211.783 243.335 210.717 244.637 210.717H272.453C273.754 210.717 274.819 211.781 274.819 213.085C274.821 214.388 273.754 215.453 272.453 215.453Z" fill="#1C145E"/>
<path d="M292.374 241.611H224.716C223.96 241.611 223.343 240.993 223.343 240.238C223.343 239.484 223.962 238.865 224.716 238.865H292.374C293.131 238.865 293.748 239.484 293.748 240.238C293.748 240.993 293.131 241.611 292.374 241.611Z" fill="#1C145E"/>
<path d="M292.374 247.995H224.716C223.96 247.995 223.343 247.376 223.343 246.622C223.343 245.868 223.962 245.249 224.716 245.249H292.374C293.131 245.249 293.748 245.868 293.748 246.622C293.748 247.376 293.131 247.995 292.374 247.995Z" fill="#1C145E"/>
<path d="M292.374 254.379H224.716C223.96 254.379 223.343 253.76 223.343 253.006C223.343 252.25 223.962 251.633 224.716 251.633H292.374C293.131 251.633 293.748 252.252 293.748 253.006C293.749 253.762 293.131 254.379 292.374 254.379Z" fill="#1C145E"/>
<path d="M282.913 192.332H234.181C232.828 192.332 231.728 191.232 231.728 189.879V144.965C231.728 143.613 232.828 142.513 234.181 142.513H282.913C284.265 142.513 285.366 143.613 285.366 144.965V189.879C285.364 191.232 284.265 192.332 282.913 192.332ZM234.179 144.508C233.931 144.508 233.722 144.717 233.722 144.965V189.879C233.722 190.128 233.931 190.336 234.179 190.336H282.911C283.159 190.336 283.368 190.128 283.368 189.879V144.965C283.368 144.717 283.159 144.508 282.911 144.508H234.179Z" fill="#1C145E"/>
<path d="M241.212 221.628L242.622 224.487L245.777 224.946L243.493 227.171L244.033 230.314L241.212 228.83L238.39 230.314L238.928 227.171L236.645 224.946L239.801 224.487L241.212 221.628Z" fill="#1C145E"/>
<path d="M252.766 221.628L254.179 224.487L257.333 224.946L255.05 227.171L255.59 230.314L252.766 228.83L249.945 230.314L250.485 227.171L248.201 224.946L251.356 224.487L252.766 221.628Z" fill="#1C145E"/>
<path d="M264.323 221.628L265.734 224.487L268.89 224.946L266.606 227.171L267.144 230.314L264.323 228.83L261.501 230.314L262.041 227.171L259.758 224.946L262.912 224.487L264.323 221.628Z" fill="#1C145E"/>
<path d="M275.88 221.628L277.29 224.487L280.445 224.946L278.163 227.171L278.701 230.314L275.88 228.83L273.058 230.314L273.596 227.171L271.314 224.946L274.469 224.487L275.88 221.628Z" fill="#1C145E"/>
<path opacity="0.2" d="M223.952 274.937H87.0498L96.7349 134.701H228.888L223.952 274.937Z" fill="#99BBEB"/>
<path d="M219.914 108.164H101.43V302.369H219.914V108.164Z" fill="#1C145E"/>
<path d="M216.02 112.122H107.635V294.967H216.02V112.122Z" fill="white"/>
<path d="M151.727 150.528C151.651 150.3 149.754 139.409 149.526 135.173C149.298 130.937 156.333 130.332 156.333 130.332C156.333 130.332 162.081 127.23 166.242 128.819C170.403 130.407 173.234 133.08 175.124 136.407C177.014 139.735 173.461 150.106 173.461 150.106L151.727 150.528Z" fill="#2E2D3D"/>
<path d="M138.686 185.521C138.66 185.342 139.171 181.056 139.19 180.883C140.148 171.856 151.274 169.318 162.375 169.318C175.42 169.318 184.268 171.705 185.68 181.084C185.722 181.358 186.474 185.656 186.436 185.944C162.262 186.277 138.686 185.521 138.686 185.521Z" fill="#D5E1E8"/>
<path d="M164.617 176.324C163.325 178.231 162.377 178.31 160.974 176.324C159.858 174.743 156.134 171.14 156.134 169.319L157.663 151.156C157.663 149.335 159.153 147.844 160.975 147.844H164.619C166.44 147.844 167.931 149.333 167.931 151.156L168.642 169.319C168.638 171.14 165.776 174.614 164.617 176.324Z" fill="#F09959"/>
<path d="M164.617 147.844H160.973C159.153 147.844 157.661 149.333 157.661 151.156L156.335 167.269C160.426 168.57 165.949 165.924 168.392 163.008L167.929 151.156C167.927 149.333 166.438 147.844 164.617 147.844Z" fill="#E38540"/>
<path d="M150.293 170.643L156.134 181.438C156.134 181.438 159.26 178.866 159.563 179.371C159.866 179.875 159.008 186.238 159.008 186.238C159.008 186.238 165.966 186.332 166.269 186.029C166.571 185.726 164.856 179.117 165.563 179.117C166.27 179.117 168.392 181.033 168.392 181.033L174.913 170.643L173.48 170.293L162.796 176.041L151.369 170.419L150.293 170.643Z" fill="#BDCCD4"/>
<path d="M156.973 175.617L161.308 178.528L159.965 186.252L165.815 185.926L164.354 178.899L167.948 175.617L166.259 174.025H158.66L156.973 175.617Z" fill="#D54A41"/>
<path d="M156.435 165.352L151.07 170.457C151.07 170.457 156.536 180.176 156.839 180.176C157.142 180.176 161.478 174.817 161.478 174.817L164.254 174.768L168.639 179.369L173.734 170.355L168.537 164.848C168.537 164.848 164.1 173.419 163.293 173.621C162.486 173.822 162.48 173.923 161.828 173.419C161.175 172.917 156.435 165.352 156.435 165.352Z" fill="#D5E1E8"/>
<path d="M173.806 148.028C173.806 156.314 168.876 163.032 162.794 163.032C156.713 163.032 151.783 156.316 151.783 148.028C151.783 139.74 156.713 133.023 162.794 133.023C168.876 133.023 173.806 139.74 173.806 148.028Z" fill="#F09959"/>
<path d="M152.91 147.796C153.941 149.965 153.602 152.279 152.157 152.965C150.711 153.652 148.706 152.45 147.675 150.283C146.646 148.114 146.983 145.801 148.427 145.114C149.872 144.428 151.881 145.628 152.91 147.796Z" fill="#F09959"/>
<path d="M172.182 147.796C171.151 149.965 171.49 152.279 172.935 152.965C174.381 153.652 176.386 152.45 177.417 150.283C178.448 148.114 178.109 145.801 176.665 145.114C175.22 144.428 173.213 145.628 172.182 147.796Z" fill="#F09959"/>
<path d="M167.679 154.185C167.679 154.185 165.491 157.726 162.794 157.726C160.097 157.726 157.909 154.185 157.909 154.185H167.679Z" fill="white"/>
<path d="M156.335 137.822C160.874 134.645 162.915 135.175 166.32 140.393C169.722 145.613 173.808 145.703 173.808 145.703L174.338 140.291C174.338 140.291 169.269 130.484 162.462 131.771C155.656 133.057 151.785 139.184 151.785 139.184C151.785 139.184 151.454 150.667 152.404 151.058C153.354 151.449 153.463 147.353 154.144 146.519C154.825 145.688 153.463 141.755 154.372 139.94C155.276 138.125 156.335 137.822 156.335 137.822Z" fill="#2E2D3D"/>
<path d="M170.931 143.721C172.515 145.455 171.915 152.343 172.746 152.268C173.578 152.193 173.881 145.688 173.655 145.007C173.427 144.326 170.931 143.721 170.931 143.721Z" fill="#2E2D3D"/>
<path d="M187.289 209.246H136.709C134.93 209.246 133.476 207.79 133.476 206.013C133.476 204.233 134.932 202.779 136.709 202.779H187.289C189.066 202.779 190.522 204.235 190.522 206.013C190.522 207.79 189.066 209.246 187.289 209.246Z" fill="#1C145E"/>
<path d="M180.995 219.18H143.005C141.226 219.18 139.771 217.724 139.771 215.946C139.771 214.169 141.227 212.713 143.005 212.713H180.995C182.772 212.713 184.228 214.169 184.228 215.946C184.228 217.726 182.772 219.18 180.995 219.18Z" fill="#1C145E"/>
<path d="M208.205 254.908H115.793C114.76 254.908 113.917 254.063 113.917 253.033C113.917 252 114.762 251.157 115.793 251.157H208.205C209.238 251.157 210.082 252.002 210.082 253.033C210.082 254.063 209.238 254.908 208.205 254.908Z" fill="#1C145E"/>
<path d="M208.205 263.629H115.793C114.76 263.629 113.917 262.784 113.917 261.751C113.917 260.719 114.762 259.876 115.793 259.876H208.205C209.238 259.876 210.082 260.721 210.082 261.751C210.082 262.784 209.238 263.629 208.205 263.629Z" fill="#1C145E"/>
<path d="M208.205 272.348H115.793C114.76 272.348 113.917 271.504 113.917 270.471C113.917 269.438 114.762 268.596 115.793 268.596H208.205C209.238 268.596 210.082 269.44 210.082 270.471C210.082 271.504 209.238 272.348 208.205 272.348Z" fill="#1C145E"/>
<path d="M195.279 187.235H128.719C127.073 187.235 125.734 185.896 125.734 184.25V122.904C125.734 121.258 127.073 119.919 128.719 119.919H195.281C196.927 119.919 198.266 121.258 198.266 122.904V184.25C198.264 185.896 196.925 187.235 195.279 187.235ZM128.719 121.915C128.173 121.915 127.73 122.359 127.73 122.904V184.25C127.73 184.796 128.173 185.239 128.719 185.239H195.281C195.826 185.239 196.27 184.796 196.27 184.25V122.904C196.27 122.359 195.826 121.915 195.281 121.915H128.719Z" fill="#1C145E"/>
<path d="M130.307 227.615L132.233 231.52L136.542 232.146L133.423 235.184L134.161 239.477L130.307 237.451L126.453 239.477L127.188 235.184L124.069 232.146L128.379 231.52L130.307 227.615Z" fill="#1C145E"/>
<path d="M146.089 227.615L148.017 231.52L152.325 232.146L149.208 235.184L149.944 239.477L146.089 237.451L142.235 239.477L142.971 235.184L139.854 232.146L144.161 231.52L146.089 227.615Z" fill="#1C145E"/>
<path d="M161.873 227.615L163.801 231.52L168.11 232.146L164.991 235.184L165.727 239.477L161.873 237.451L158.018 239.477L158.756 235.184L155.637 232.146L159.946 231.52L161.873 227.615Z" fill="#1C145E"/>
<path d="M177.658 227.615L179.584 231.52L183.893 232.146L180.774 235.184L181.512 239.477L177.658 237.451L173.804 239.477L174.539 235.184L171.42 232.146L175.73 231.52L177.658 227.615Z" fill="#1C145E"/>
<path d="M193.691 227.615L195.619 231.52L199.928 232.146L196.81 235.184L197.545 239.477L193.691 237.451L189.837 239.477L190.574 235.184L187.456 232.146L191.765 231.52L193.691 227.615Z" fill="#1C145E"/>
<path d="M410.301 296.128H258.071C257.209 296.128 256.511 295.43 256.511 294.568V291.899C256.511 291.038 257.209 290.34 258.071 290.34H410.301C411.163 290.34 411.861 291.038 411.861 291.899V294.568C411.861 295.428 411.163 296.128 410.301 296.128Z" fill="#2E5B9A"/>
<path d="M449.357 212.753C451.416 220.016 446.385 227.5 440.843 229.073C435.3 230.645 431.346 225.71 429.285 218.447C427.225 211.185 430.047 204.022 435.59 202.449C441.133 200.879 447.295 205.491 449.357 212.753Z" fill="#F09959"/>
<path d="M418.281 353.49C418.281 353.49 432.486 375.552 434.405 376.511C436.323 377.471 441.12 377.712 439.322 381.308C437.523 384.904 436.803 399.055 435.125 399.773C433.447 400.492 419.058 402.172 421.216 399.773C423.373 397.375 424.701 398.573 425.79 394.258C426.879 389.942 428.408 381.788 426.371 380.11C424.332 378.432 411.863 363.322 411.863 363.322L418.281 353.49Z" fill="#F09959"/>
<path d="M346.785 362.964C346.785 362.964 329.518 391.423 326.32 393.981C323.123 396.539 312.571 400.376 321.204 401.016C329.838 401.655 333.995 398.138 339.431 396.539C344.867 394.94 351.582 393.981 349.024 389.824C346.466 385.667 347.528 376.591 353.043 370.836C358.558 365.082 346.785 362.964 346.785 362.964Z" fill="#F09959"/>
<path d="M434.903 296.97C434.903 296.97 392.158 295.852 375.21 309.76C365.298 324.789 341.317 369.133 339.453 374.02C340.732 375.299 347.927 377.607 351.125 377.287C360.558 366.039 373.027 356.316 377.985 347.493C384.096 336.621 385.979 331.185 395.892 330.225C405.804 329.266 428.188 326.068 434.903 326.068C441.618 326.068 434.903 296.97 434.903 296.97Z" fill="#615370"/>
<path d="M472.18 401.094H469.938L453.871 334.058H458.801L472.18 401.094Z" fill="#2E5B9A"/>
<path d="M405.06 401.093H407.3L425.737 331.688H420.807L405.06 401.093Z" fill="#2E5B9A"/>
<path d="M459.256 294.044L434.404 298.333C434.404 298.333 401.378 298.635 386.284 301.447C372.549 304.006 370.525 319.61 386.284 341.098C395.235 353.304 402.804 363.042 418.281 374.021C422.218 371.13 423.724 370.037 424.811 363.081C423.69 361.544 420.792 351.933 419.891 350.052C411.331 332.156 399.904 325.65 399.746 323.887C401.664 320.771 450.566 340.137 460.288 328.744C469.571 317.868 459.256 294.044 459.256 294.044Z" fill="#615370"/>
<path d="M460.289 237.781C453.743 236.863 447.077 238.106 440.843 242.62C435.396 248.173 429.23 257.331 429.608 272.437C430.088 291.623 426.64 292.855 430.236 298.13C445.239 304.326 470.899 330.945 464.857 302.407C460.482 281.743 474.454 266.341 463.181 243.42C462.264 241.556 461.118 239.746 460.289 237.781Z" fill="#D81919"/>
<path d="M429.604 279.656C429.313 289.658 427.9 292.605 428.98 295.741C435.097 296.365 446.285 298.812 449.08 302.727C452.278 307.203 455.475 307.843 453.984 304.538C452.492 301.233 448.548 296.544 454.623 280.448C460.699 264.353 463.577 253.481 457.608 242.289L429.604 279.656Z" fill="#D54A41"/>
<path d="M460.289 237.78C456.258 228.24 455.269 217.519 455.269 217.519L444.716 220.635C444.716 220.635 450.711 234.065 444.955 238.862C443.733 239.881 442.312 241.119 440.842 242.618C447.077 238.108 453.743 236.862 460.289 237.78Z" fill="#F09959"/>
<path d="M455.586 220.061C454.962 219.504 454.179 218.81 453.357 218.084L444.75 220.627C444.744 220.642 444.739 220.659 444.731 220.674C444.94 221.15 447.131 226.264 447.419 231.185C449.985 229.629 452.793 227.092 456.004 222.66C455.831 221.677 455.693 220.8 455.586 220.061Z" fill="#E38540"/>
<path d="M452.87 240.782C442.002 244.583 443.208 256.031 433.207 272.916C428.03 281.655 423.222 281.526 423.222 281.526C423.222 281.526 411.083 281.623 396.4 279.827C387.206 278.702 386.621 281.441 393.016 283.726C405.914 288.337 419.297 293.3 430.09 292.102C440.881 290.902 459.339 263.369 460.291 256.202C461.604 246.287 458.342 238.867 452.87 240.782Z" fill="#F09959"/>
<path d="M447.273 336.85C446.598 336.85 445.905 336.841 445.196 336.824C436.339 336.606 430.31 335.379 425.465 334.396C419.809 333.246 416.692 332.612 413.066 334.345C411.674 335.011 410.005 334.42 409.341 333.028C408.675 331.636 409.266 329.968 410.658 329.304C415.972 326.765 420.422 327.669 426.578 328.92C431.207 329.861 436.969 331.032 445.334 331.239C454.695 331.473 460.404 330.084 463.297 326.876C465.874 324.016 466.628 319.214 465.671 311.76C465.343 309.209 465.014 307.088 464.725 305.214C463.908 299.933 463.368 296.443 464.036 291.051C464.657 286.042 466.316 279.37 470.157 266.434C470.595 264.956 472.151 264.113 473.629 264.551C475.107 264.99 475.95 266.545 475.512 268.024C468.355 292.13 468.718 294.48 470.245 304.36C470.54 306.266 470.873 308.425 471.21 311.047C472.391 320.239 471.195 326.458 467.444 330.617C463.585 334.9 457.315 336.85 447.273 336.85Z" fill="#2E5B9A"/>
<path d="M347.959 386.95C336.502 392.554 330.334 395.764 326.663 395.458C325.795 395.386 325.077 395.296 324.473 395.204C320.388 397.619 313.864 400.472 321.204 401.016C329.838 401.656 333.995 398.138 339.431 396.539C344.867 394.941 351.582 393.981 349.023 389.824C348.534 389.029 348.177 388.051 347.959 386.95Z" fill="#D54A41"/>
<path d="M435.653 376.979C435.373 386.05 434.126 395.04 428.579 396.736C427.108 397.186 425.767 397.252 424.582 397.094C423.709 398.173 422.645 398.185 421.215 399.772C419.058 402.17 433.445 400.493 435.125 399.772C436.804 399.052 437.523 384.903 439.321 381.307C440.798 378.352 437.824 377.663 435.653 376.979Z" fill="#D54A41"/>
<path d="M391.52 291.13H355.122C354.035 291.13 353.047 290.5 352.588 289.514L337.879 257.857C337.228 256.458 337.836 254.797 339.235 254.146C340.634 253.497 342.295 254.103 342.946 255.502L356.905 285.543H391.52C393.063 285.543 394.314 286.794 394.314 288.336C394.314 289.881 393.063 291.13 391.52 291.13Z" fill="#75A1DE"/>
<path d="M399.137 280.143C391.782 280.035 384.488 275.653 380.863 276.292C377.238 276.932 365.407 285.138 366.901 285.458C368.392 285.778 377.773 280.916 378.092 280.842C378.412 280.769 380.438 284.209 385.447 285.473C390.456 286.737 385.483 281.719 401.012 286.408C411.107 289.459 399.137 280.143 399.137 280.143Z" fill="#F09959"/>
<path d="M459.205 229.073L460.287 237.78C460.287 237.78 450.769 238.346 446.033 241.012C441.296 243.677 434.309 251.376 434.309 251.376L440.019 241.546L440.841 235.258L459.205 229.073Z" fill="#F2E5DE"/>
<path d="M455.155 239.733C448.086 238.409 444.815 244.742 440.233 255.082C435.649 265.421 427.826 277.979 426.271 279.596C424.715 281.216 400.05 279.596 400.05 279.596C400.05 279.596 399.303 286.738 400.05 287.59C400.797 288.442 405.059 288.337 405.059 288.337C405.059 288.337 406.765 289.699 408.364 290.777C409.963 291.854 423.5 293.88 429.788 293.561C436.076 293.241 441.832 292.708 442.686 291.749C443.538 290.79 460.7 264.357 461.765 254.869C462.829 245.383 458.763 240.41 455.155 239.733Z" fill="#F2E5DE"/>
<path d="M434.31 196.244C420.94 196.884 423.038 216.997 423.038 216.997C423.038 216.997 426.51 218.069 433.786 216.869C433.227 214.712 433.466 209.195 433.466 209.195C433.466 209.195 434.31 213.671 435.384 216.389C436.923 217.095 438.663 216.468 441.62 215.754C443.14 222.145 447.43 224.844 450.37 225.768C453.617 226.789 457.055 228.006 460.892 226.088C464.73 224.169 462.619 204.556 460.582 200.614C457.524 194.694 452.439 189.396 443.646 192.193C439.233 193.598 434.31 196.244 434.31 196.244Z" fill="#303C60"/>
<path d="M457.559 220.131L463.025 228.114C463.025 228.114 456.967 243.25 474.586 250.106C488.385 255.477 486.76 264.94 480.524 274.456C474.289 283.971 484.254 292.282 484.254 292.282C484.254 292.282 485.774 281.741 499.18 279.75C517.459 277.038 522.635 252.495 508.981 240.224C497.682 230.068 494.246 238.478 486.598 229.365C478.95 220.252 464.511 226.408 464.511 226.408L459.22 218.69L457.559 220.131Z" fill="#303C60"/>
<path d="M515.271 264.947C515.192 264.947 515.113 264.928 515.038 264.887C514.803 264.757 514.716 264.462 514.844 264.227C519.441 255.826 515.691 245.65 513.804 242.893C513.605 242.601 513.415 242.304 513.213 241.992C511.361 239.099 509.053 235.499 496.746 233.283C493.781 232.749 491.381 230.988 488.84 229.122C483.592 225.27 477.643 220.902 464.716 226.85C464.472 226.963 464.184 226.856 464.071 226.611C463.958 226.367 464.066 226.079 464.31 225.966C477.755 219.778 483.949 224.324 489.415 228.336C491.863 230.132 494.174 231.831 496.919 232.324C509.645 234.615 512.077 238.414 514.034 241.465C514.231 241.772 514.415 242.061 514.607 242.342C516.584 245.231 520.514 255.892 515.698 264.691C515.61 264.857 515.443 264.947 515.271 264.947Z" fill="#303C60"/>
<path d="M454.64 228.311C453.766 228.311 452.82 228.236 451.802 228.083C447.124 227.382 440.849 224.724 440.358 209.798C440.349 209.529 440.559 209.305 440.828 209.296C441.101 209.29 441.321 209.497 441.331 209.766C441.534 215.919 442.755 220.471 444.959 223.296C446.633 225.442 448.854 226.657 451.949 227.122C456.277 227.771 459.147 226.971 460.475 224.746C460.612 224.517 460.912 224.442 461.141 224.579C461.37 224.716 461.446 225.015 461.308 225.245C460.088 227.284 457.851 228.311 454.64 228.311Z" fill="#303C60"/>
<path d="M272.809 401.093H276.401L290.375 294.28H282.471L272.809 401.093Z" fill="#2E5B9A"/>
<path d="M394.697 401.093H391.105L377.131 294.28H385.035L394.697 401.093Z" fill="#2E5B9A"/>
<path d="M535.563 310.934C541.778 316.608 539.075 322.282 534.481 332.821C529.888 343.358 529.077 382.268 529.077 382.268L532.86 381.728C532.86 381.728 532.32 341.738 537.453 330.93C542.586 320.122 544.75 314.718 549.343 318.23C553.936 321.742 535.563 310.934 535.563 310.934Z" fill="#10B35E"/>
<path d="M532.149 303.586C532.904 300.223 537.386 296.585 543.381 293.499C542.489 298.459 539.632 306.568 542.589 308.23C546.576 310.474 542.978 299.151 544.517 292.929C550.144 290.181 556.914 287.935 563.149 286.817C563.14 286.84 563.134 286.862 563.125 286.885C559.613 295.801 555.018 299.315 556.91 300.665C558.334 301.681 562.969 291.382 569.088 286.103C573.681 285.858 577.567 286.481 579.868 288.301C583.421 291.115 585.806 293.61 582.232 302.177C580.189 303.637 577.545 304.683 574.473 304.989C566.368 305.8 562.583 306.071 568.258 308.772C571.036 310.094 575.694 308.697 579.471 307.847C578.246 310.104 576.739 312.658 574.909 315.568C573.749 317.413 572.47 319.016 571.112 320.4C568.499 320.901 566.221 320.906 565.015 320.389C561.233 318.768 551.504 313.634 549.074 315.796C546.695 317.912 567.09 319.251 565.676 324.629C555.789 330.324 544.477 327.614 542.478 322.385C539.792 315.361 529.875 313.708 532.149 303.586Z" fill="#03C560"/>
<path d="M552.584 342.007C541.776 333.9 530.697 341.467 525.024 350.112C519.351 358.757 523.403 378.214 523.403 378.214C523.403 378.214 525.564 378.214 525.564 377.403C525.564 376.593 519.62 354.437 533.671 344.439C542.461 338.185 548.802 341.197 549.612 344.168C550.423 347.14 546.1 352.544 546.1 352.544L552.584 342.007Z" fill="#10B35E"/>
<path d="M527.728 325.344C538.536 325.344 542.049 342.096 539.075 351.824C536.104 361.551 532.05 379.655 532.05 379.655L529.347 376.954C529.347 376.954 539.615 351.555 537.183 340.205C534.751 328.856 528.807 326.965 527.726 326.965C526.646 326.965 527.728 325.344 527.728 325.344Z" fill="#03C560"/>
<path d="M536.792 351.899C537.552 350.893 538.492 350.06 539.638 349.509C539.487 350.314 539.301 351.089 539.075 351.824C537.721 356.256 536.143 362.427 534.826 367.831C534.706 367.139 534.521 366.073 534.237 364.427C534.17 364.037 534.117 363.616 534.081 363.17C535.137 359.57 536.137 355.648 536.792 351.899Z" fill="#10B35E"/>
<path d="M539.747 351.979C560.281 343.332 549.464 331.467 567.566 339.303C568.842 339.854 570.395 341.246 571.951 343.167C570.339 343.624 568.386 343.953 566.214 343.628C560.81 342.817 562.702 347.139 571.618 348.221C573.299 348.424 574.663 348.706 575.796 349.103C580.043 357.263 581.958 367.998 572.968 371.729C571.197 372.465 569.007 372.884 566.571 373.042C563.797 370.838 567.248 358.079 562.971 359.84C558.865 361.531 564.258 370.778 563.518 373.106C559.465 373.033 554.979 372.371 550.69 371.308C548.994 370.356 547.698 369.081 547.299 367.405C545.948 361.73 554.864 358.218 555.135 353.354C555.383 348.883 551.866 363.192 542.549 365.296C534.128 361.361 530.148 356.021 539.747 351.979Z" fill="#03C560"/>
<path d="M525.114 336.691C527.276 332.098 521.603 331.016 521.872 334.53C522.111 337.643 522.137 345.208 518.945 347.268C513.439 346.671 505.949 344.454 500.288 341.072C500.216 340.615 500.286 340.144 500.526 339.663C502.958 334.799 518.631 330.747 513.767 329.126C509.894 327.835 503.105 335.455 497.637 339.294C494.353 336.802 492.15 333.83 492.15 330.514C492.15 326.024 497.605 320.943 504.659 318.515C507.834 318.835 510.781 320.571 515.388 323.18C522.191 327.036 520.619 320.802 514.186 317.103C519.741 317.39 525.276 319.762 529.362 325.431C529.362 325.431 528.976 327.854 531.54 331.603C538.535 341.828 530.462 347.798 520.811 347.411C521.354 344.715 523.621 339.866 525.114 336.691Z" fill="#03C560"/>
<path d="M551.935 341.548C557.219 345.632 563.089 350.406 570.295 353.649C577.501 356.891 576.06 367.459 576.06 367.459C576.06 367.459 577.142 358.332 571.136 355.21C565.13 352.087 561.169 348.365 556.603 347.645C552.04 346.924 549.518 346.204 549.518 346.204C549.518 346.204 550.959 343.322 550.118 342.24C549.277 341.157 551.935 341.548 551.935 341.548Z" fill="#10B35E"/>
<path d="M577.981 293.6C558.645 298.763 544.474 311.134 541.833 314.136C539.19 317.138 539.19 317.979 539.19 317.979L541.231 321.822L542.192 321.342C542.192 321.342 540.631 318.099 544.714 313.895C551.757 306.646 560.326 300.924 566.212 298.404C572.098 295.883 577.981 293.6 577.981 293.6Z" fill="#10B35E"/>
<path d="M524.063 400.626H532.54C537.491 400.626 541.507 396.612 541.507 391.659V374.142H515.098V391.659C515.096 396.612 519.11 400.626 524.063 400.626Z" fill="#75A1DE"/>
<path d="M541.505 377.176H515.096V379.034H541.505V377.176Z" fill="white"/>
<path d="M541.505 380.565H515.096V381.658H541.505V380.565Z" fill="white"/>
<path d="M42.7111 377.519H49.2889C50.5435 377.519 51.5611 376.502 51.5611 375.247V369.781C51.5611 368.526 50.5435 367.509 49.2889 367.509H42.7111C41.4565 367.509 40.439 368.526 40.439 369.781V375.247C40.439 376.502 41.4565 377.519 42.7111 377.519Z" fill="#5EB9F7"/>
<path d="M22.4924 377.519H29.0701C30.3248 377.519 31.3424 376.502 31.3424 375.247V369.781C31.3424 368.526 30.3248 367.509 29.0701 367.509H22.4924C21.2378 367.509 20.2202 368.526 20.2202 369.781V375.247C20.2202 376.502 21.2378 377.519 22.4924 377.519Z" fill="#5EB9F7"/>
<path d="M2.27223 377.519H8.84995C10.1046 377.519 11.1222 376.502 11.1222 375.247V369.781C11.1222 368.526 10.1046 367.509 8.84995 367.509H2.27223C1.01762 367.509 0 368.526 0 369.781V375.247C0.00188097 376.502 1.01762 377.519 2.27223 377.519Z" fill="#5EB9F7"/>
<path d="M577.823 191.145V184.567C577.823 183.313 576.806 182.295 575.553 182.295H570.087C568.832 182.295 567.814 183.313 567.814 184.567V191.145C567.814 192.4 568.832 193.417 570.087 193.417H575.553C576.806 193.417 577.823 192.4 577.823 191.145Z" fill="#5EB9F7"/>
<path d="M577.823 211.364V204.786C577.823 203.531 576.806 202.514 575.553 202.514H570.087C568.832 202.514 567.814 203.531 567.814 204.786V211.364C567.814 212.618 568.832 213.636 570.087 213.636H575.553C576.806 213.636 577.823 212.618 577.823 211.364Z" fill="#5EB9F7"/>
<path d="M577.823 231.584V225.007C577.823 223.752 576.806 222.734 575.553 222.734H570.087C568.832 222.734 567.814 223.752 567.814 225.007V231.584C567.814 232.839 568.832 233.857 570.087 233.857H575.553C576.806 233.855 577.823 232.839 577.823 231.584Z" fill="#5EB9F7"/>
</svg>
