<svg width="520" height="155" viewBox="0 0 520 155" fill="none" xmlns="http://www.w3.org/2000/svg">
<path d="M57.6 123.8C54.6667 123.4 52.4 122.4 50.8 120.8C49.3333 119.2 48.3333 117.333 47.8 115.2C47.4 112.933 47.2 110.867 47.2 109C47.2 104.467 48.3333 99.2667 50.6 93.4C53 87.4 56.1333 81.1333 60 74.6C63.8667 67.9333 68.1333 61.2667 72.8 54.6C77.4667 47.9333 82.2 41.6667 87 35.8C91.8 29.8 96.2 24.6 100.2 20.2C90.4667 20.7333 81.6667 21.7333 73.8 23.2C65.9333 24.6667 59.8 26.6 55.4 29C53.8 29.9333 52.4667 31 51.4 32.2C50.3333 33.4 49.8 34.7333 49.8 36.2C49.8 39.5333 50.6 42.5333 52.2 45.2C53.9333 47.7333 56.1333 50.3333 58.8 53C59.2 53.4 59.4 53.8 59.4 54.2C59.4 54.4667 59.2 54.6 58.8 54.6C58.4 54.6 57.8 54.4 57 54C51.9333 51.0667 48.4667 47.4 46.6 43C44.7333 38.4667 43.8 34.1333 43.8 30C43.8 26.8 45.9333 24 50.2 21.6C54.4667 19.2 60.2 17.4 67.4 16.2C74.6 14.8667 82.5333 14.2 91.2 14.2C93.3333 14.2 95.4667 14.2 97.6 14.2C99.8667 14.2 102.067 14.3333 104.2 14.6C104.067 14.3333 104 14 104 13.6C104 13.2 104 12.8667 104 12.6C104 10.3333 105.333 8.2 108 6.2C109.467 5 111 3.86666 112.6 2.8C114.2 1.73333 115.467 0.799993 116.4 -4.29153e-06C118.133 0.799993 120.133 1.46666 122.4 1.99999C124.8 2.53333 126 3.66666 126 5.4C126 6.86666 125.067 8.59999 123.2 10.6C122.667 11.2667 121.6 12.4 120 14C118.533 15.4667 117.8 16.2 117.8 16.2C121.667 17 125.067 17.8667 128 18.8C131.067 19.7333 133.867 20.7333 136.4 21.8C136.667 21.5333 136.8 21.7333 136.8 22.4C136.8 22.5333 136.667 22.7333 136.4 23C136.133 23.2667 135.667 23.3333 135 23.2C133.133 22.5333 130.933 22 128.4 21.6C125.867 21.2 123.667 21 121.8 21C118.333 21 115.133 21.8667 112.2 23.6C109.4 25.2 107.067 27 105.2 29C101.867 32.4667 97.8667 36.7333 93.2 41.8C88.6667 46.8667 84 52.4667 79.2 58.6C74.5333 64.6 70.1333 70.8 66 77.2C62 83.4667 58.7333 89.7333 56.2 96C53.6667 102.133 52.4 107.867 52.4 113.2C52.4 115.6 52.8 117.667 53.6 119.4C54.5333 121 56.4667 121.933 59.4 122.2C59.6667 122.2 59.8 122.333 59.8 122.6C59.8 122.733 59.4667 123 58.8 123.4C58.2667 123.667 57.8667 123.8 57.6 123.8ZM95.8 154.2C94.2 154.2 93.9333 153.533 95 152.2C96.3333 150.867 97.5333 149.733 98.6 148.8C99.6667 147.867 100.2 146.267 100.2 144C100.2 140.667 99.0667 138.133 96.8 136.4C94.5333 134.667 91.6 133.467 88 132.8C84.5333 132 80.8 131.6 76.8 131.6C71.6 131.6 66.6667 132 62 132.8C57.4667 133.467 54.3333 134 52.6 134.4C50.0667 134.933 46.6 135.6 42.2 136.4C37.9333 137.333 33.5333 138.133 29 138.8C24.6 139.467 20.8 139.8 17.6 139.8C12.9333 139.8 8.93333 138.6 5.6 136.2C2.4 133.933 0.933334 129.4 1.2 122.6C1.33333 121.667 1.46667 120.733 1.6 119.8C1.86667 118.733 2.46667 117.8 3.4 117C3.53333 116.867 3.66667 116.8 3.8 116.8C4.2 116.8 4.6 116.933 5 117.2C5.4 117.467 5.26667 117.933 4.6 118.6C3.13333 119.933 2.4 121.4 2.4 123C2.4 124.2 2.8 125.333 3.6 126.4C5.46667 128.933 7.86667 130.667 10.8 131.6C13.8667 132.4 17.0667 132.8 20.4 132.8C24.6667 132.8 28.8667 132.4 33 131.6C37.1333 130.8 40.4667 130.133 43 129.6C44.6 129.333 46.7333 128.867 49.4 128.2C52.0667 127.4 55 126.667 58.2 126C61.6667 125.2 65.3333 124.533 69.2 124C73.0667 123.333 76.8 123 80.4 123C86.1333 123 91.0667 124.067 95.2 126.2C99.4667 128.333 101.6 132.467 101.6 138.6C101.6 139.133 101.6 139.667 101.6 140.2C101.6 140.867 101.533 141.533 101.4 142.2C101.667 143 101.867 143.8 102 144.6C102.133 145.533 102.2 146.4 102.2 147.2C102.2 148.533 101.933 149.733 101.4 150.8C100.867 152 99.8667 152.933 98.4 153.6C97.4667 154 96.6 154.2 95.8 154.2ZM139.116 135.6C135.649 135.6 133.182 134.6 131.716 132.6C130.382 130.467 129.716 128 129.716 125.2C129.716 122 130.182 118.8 131.116 115.6C132.182 112.267 133.316 109.267 134.516 106.6C135.849 103.8 136.916 101.667 137.716 100.2C139.982 95.9333 141.116 93.1333 141.116 91.8C141.116 90.3333 140.449 89.8667 139.116 90.4C138.049 90.8 136.582 91.9333 134.716 93.8C132.849 95.6667 130.916 97.8 128.916 100.2C126.916 102.6 125.116 104.8 123.516 106.8C122.049 108.8 121.116 110.133 120.716 110.8C116.982 116.133 114.382 120.533 112.916 124C111.449 127.467 110.382 130 109.716 131.6C109.449 132.267 108.716 132.6 107.516 132.6C106.316 132.6 105.116 132.133 103.916 131.2C102.716 130.133 102.116 128.6 102.116 126.6C102.116 125.533 102.716 123.667 103.916 121C105.116 118.2 106.582 114.933 108.316 111.2C109.916 107.6 111.516 104 113.116 100.4C114.716 96.6667 115.982 93.7333 116.916 91.6C115.982 90.8 115.516 90.2 115.516 89.8C115.516 89.4 115.582 89.0667 115.716 88.8C115.982 88.1333 116.516 87.0667 117.316 85.6C118.116 84 118.916 82.4667 119.716 81C120.516 79.4 121.049 78.4 121.316 78C121.716 77.7333 122.716 77.2667 124.316 76.6C126.049 75.9333 127.716 75.6 129.316 75.6H130.116C131.716 75.6 132.516 76.0667 132.516 77C132.516 77.9333 132.049 79.1333 131.116 80.6C130.716 81.2667 129.782 83 128.316 85.8C126.849 88.4667 125.182 91.5333 123.316 95C121.449 98.4667 119.716 101.8 118.116 105C116.649 108.067 115.582 110.4 114.916 112C114.516 113.2 114.316 114.4 114.316 115.6C114.449 116.667 114.782 116.8 115.316 116C119.049 110.4 122.516 105.6 125.716 101.6C128.916 97.6 132.116 93.8667 135.316 90.4C138.516 86.9333 142.049 83.3333 145.916 79.6C147.249 80.1333 148.649 80.4 150.116 80.4C151.582 80.4 152.849 80.8 153.916 81.6C154.449 82 154.716 82.6667 154.716 83.6C154.716 85.4667 153.582 88.2667 151.316 92C149.182 95.6 146.782 99.6667 144.116 104.2C142.116 107.667 140.116 111.667 138.116 116.2C136.116 120.733 135.116 124.667 135.116 128C135.116 129.733 135.382 131.2 135.916 132.4C136.582 133.467 137.582 134 138.916 134C140.116 134 141.449 133.533 142.916 132.6C143.982 131.933 146.316 129.733 149.916 126C153.516 122.133 157.449 116.933 161.716 110.4C162.116 110 162.382 109.8 162.516 109.8C162.782 109.8 162.916 109.933 162.916 110.2C162.916 110.467 162.716 111 162.316 111.8C157.916 119.267 153.516 125.133 149.116 129.4C144.849 133.533 141.516 135.6 139.116 135.6ZM169.589 135.2C167.589 135.2 165.722 134.533 163.989 133.2C162.256 131.867 160.856 130.333 159.789 128.6C158.722 126.867 158.189 125.4 158.189 124.2C158.189 119.667 159.589 114.933 162.389 110C165.189 104.933 168.722 100.2 172.989 95.8C177.389 91.4 181.989 87.8667 186.789 85.2C191.589 82.4 196.056 81 200.189 81C200.856 81 201.522 81.1333 202.189 81.4C202.856 81.6667 203.722 82.2667 204.789 83.2C210.122 72.1333 215.989 61.2667 222.389 50.6C228.789 39.8 234.989 30.8667 240.989 23.8C246.189 17.5333 251.456 12.7333 256.789 9.39999C262.256 5.93332 267.856 3.53332 273.589 2.19999C277.589 1.13332 281.722 0.599988 285.989 0.599988C286.656 0.599988 287.389 0.599988 288.189 0.599988C288.989 0.599988 289.722 0.666658 290.389 0.799997C291.722 0.933329 293.256 1.33333 294.989 1.99999C296.722 2.66666 297.722 3.39999 297.989 4.19999C298.256 4.73332 298.256 5.06666 297.989 5.19999C297.722 5.33333 297.389 5.2 296.989 4.79999C296.056 4 294.856 3.46666 293.389 3.19999C292.056 2.8 290.589 2.6 288.989 2.6C286.456 2.6 283.922 2.93333 281.389 3.6C278.856 4.26666 276.856 4.93333 275.389 5.6C270.989 7.86666 266.456 11.0667 261.789 15.2C257.122 19.2 252.522 23.8 247.989 29C241.456 36.4667 235.256 44.6 229.389 53.4C223.656 62.2 218.522 71 213.989 79.8C209.589 88.6 206.122 96.8 203.589 104.4C201.189 112 199.989 118.4 199.989 123.6C199.989 124.4 199.989 125.2 199.989 126C200.122 126.667 200.256 127.333 200.389 128C200.789 129.733 201.456 130.933 202.389 131.6C203.322 132.267 204.389 132.6 205.589 132.6C206.922 132.6 208.189 132.333 209.389 131.8C210.722 131.133 211.856 130.4 212.789 129.6C215.322 127.333 218.189 124.067 221.389 119.8C224.722 115.533 227.856 111.267 230.789 107C231.322 106.333 231.656 106.133 231.789 106.4C231.922 106.667 231.856 106.933 231.589 107.2C231.056 108.133 229.856 110 227.989 112.8C226.122 115.6 223.989 118.6 221.589 121.8C219.322 125 217.122 127.667 214.989 129.8C211.522 133.267 207.989 135 204.389 135C201.722 135 199.456 133.867 197.589 131.6C195.722 129.333 194.789 126.133 194.789 122C194.789 120.667 194.922 118.467 195.189 115.4C195.456 112.333 195.856 109.733 196.389 107.6C193.322 112.667 190.122 117.333 186.789 121.6C183.589 125.733 180.456 129.067 177.389 131.6C174.456 134 171.856 135.2 169.589 135.2ZM168.189 132.6C169.389 132.6 170.722 132.067 172.189 131C174.589 129.133 177.256 126.6 180.189 123.4C183.256 120.2 186.256 116.8 189.189 113.2C192.256 109.467 194.922 105.933 197.189 102.6C197.856 100.467 198.789 97.9333 199.989 95C201.189 92.0667 202.256 89.4 203.189 87C201.456 86.7333 199.456 87 197.189 87.8C195.056 88.4667 193.522 89.0667 192.589 89.6C188.989 91.7333 185.189 94.7333 181.189 98.6C177.322 102.333 173.856 106.4 170.789 110.8C167.722 115.067 165.456 119.2 163.989 123.2C163.589 124.133 163.389 125.2 163.389 126.4C163.389 128 163.789 129.467 164.589 130.8C165.522 132 166.722 132.6 168.189 132.6ZM234.791 133.6C231.857 133.6 229.591 132.933 227.991 131.6C226.524 130.267 225.924 128.533 226.191 126.4C226.457 124.933 226.857 123.267 227.391 121.4C227.924 119.533 228.591 117.667 229.391 115.8L234.191 104.6C234.057 104.333 233.924 104.133 233.791 104C233.791 103.733 233.791 103.533 233.791 103.4C233.657 102.867 233.724 102.4 233.991 102C237.457 96.6667 240.657 92.2 243.591 88.6C246.524 85 248.457 83.2 249.391 83.2C251.257 83.2 253.457 84.4667 255.991 87C254.257 89.1333 252.457 91.5333 250.591 94.2C248.724 96.7333 246.924 99.3333 245.191 102C243.324 104.8 241.324 107.867 239.191 111.2C237.191 114.4 235.791 117.333 234.991 120C234.191 122.4 233.791 124.267 233.791 125.6C233.791 127.467 234.457 128.4 235.791 128.4C237.524 128.4 240.057 126.6 243.391 123C245.657 120.6 248.124 117.667 250.791 114.2C253.591 110.6 256.257 107 258.791 103.4C261.457 99.6667 263.924 96.2 266.191 93C268.591 89.6667 270.591 87 272.191 85C273.657 83.1333 274.991 82.2 276.191 82.2C277.924 82.2 279.924 83.6667 282.191 86.6C280.324 89.2667 278.057 92.7333 275.391 97C272.724 101.133 270.257 105.4 267.991 109.8C265.857 114.067 264.457 117.867 263.791 121.2C263.657 121.733 263.524 122.267 263.391 122.8C263.391 123.333 263.391 123.933 263.391 124.6C263.391 128.467 264.391 130.4 266.391 130.4C267.457 130.4 268.724 129.8 270.191 128.6C271.791 127.4 273.324 126 274.791 124.4C276.257 122.8 277.391 121.467 278.191 120.4C282.457 114.667 286.524 108.733 290.391 102.6C291.191 101.4 291.724 100.8 291.991 100.8C292.257 100.8 292.324 101.067 292.191 101.6C292.191 102 292.124 102.333 291.991 102.6C289.324 107 286.191 111.8 282.591 117C279.124 122.2 275.657 126.467 272.191 129.8C270.324 131.667 268.457 132.6 266.591 132.6C262.991 132.6 260.324 131.733 258.591 130C256.857 128.267 255.991 126.333 255.991 124.2C255.991 122.867 256.191 121.467 256.591 120C256.991 118.4 257.457 116.8 257.991 115.2L263.391 101C261.391 103.533 259.724 105.667 258.391 107.4C257.057 109 255.857 110.533 254.791 112C253.857 113.333 252.791 114.867 251.591 116.6C250.391 118.2 249.124 119.8 247.791 121.4C245.257 124.733 242.791 127.6 240.391 130C237.991 132.4 236.124 133.6 234.791 133.6ZM296.622 133C293.555 133 290.755 132.267 288.222 130.8C285.822 129.2 284.622 126.933 284.622 124C284.622 122.933 284.822 121.8 285.222 120.6C285.622 119.267 286.155 118.267 286.822 117.6C286.822 119.067 287.289 120.4 288.222 121.6C289.155 122.667 290.222 123.533 291.422 124.2C292.622 124.733 293.755 125.133 294.822 125.4C296.022 125.667 297.089 125.8 298.022 125.8C301.089 125.8 303.489 124.733 305.222 122.6C306.955 120.333 307.822 117.933 307.822 115.4C307.822 113.133 307.222 111.133 306.022 109.4C305.222 108.333 304.355 107.4 303.422 106.6C302.489 105.667 301.489 104.733 300.422 103.8C299.622 103.133 298.889 102.333 298.222 101.4C297.555 100.467 296.689 99.0667 295.622 97.2L287.222 110C285.222 112.933 283.355 115.667 281.622 118.2C279.889 120.733 277.622 123.667 274.822 127C274.022 127.933 273.422 128.4 273.022 128.4C272.489 128.267 272.555 127.733 273.222 126.8C276.289 122.933 278.822 119.6 280.822 116.8C282.822 114 285.155 110.6 287.822 106.6C289.155 104.733 290.489 102.6 291.822 100.2C293.289 97.8 294.355 95.3333 295.022 92.8C295.022 88.6667 296.422 85.0667 299.222 82C302.022 78.8 305.422 76.4 309.422 74.8C313.555 73.0667 317.422 72.4 321.022 72.8C321.822 72.8 322.689 73.4 323.622 74.6C324.555 75.8 325.355 77.1333 326.022 78.6C326.689 79.9333 327.022 81 327.022 81.8C327.022 82.2 326.889 82.4 326.622 82.4C326.222 82.4 325.689 82.1333 325.022 81.6C323.955 80.6667 322.355 80.2 320.222 80.2C317.422 80.2 314.355 81 311.022 82.6C307.689 84.0667 304.755 86 302.222 88.4C299.822 90.6667 298.622 93.0667 298.622 95.6C298.622 97.4667 299.355 99.2 300.822 100.8C302.422 102.4 304.155 103.933 306.022 105.4C308.022 106.733 309.622 108.2 310.822 109.8C312.155 111.267 313.089 112.733 313.622 114.2C314.155 115.667 314.422 117.133 314.422 118.6C314.422 121.133 313.622 123.467 312.022 125.6C310.422 127.6 308.489 129.267 306.222 130.6C303.422 132.2 300.222 133 296.622 133ZM335.089 136C332.289 136 329.822 134.867 327.689 132.6C325.689 130.333 324.689 127.067 324.689 122.8C324.689 119.6 325.422 115.733 326.889 111.2C328.489 106.533 330.422 101.667 332.689 96.6C335.089 91.4 337.556 86.5333 340.089 82C342.756 77.3333 345.089 73.4 347.089 70.2C344.822 70.2 342.822 70.2 341.089 70.2C339.356 70.0667 337.956 70.0667 336.889 70.2C335.956 70.2 335.356 70.0667 335.089 69.8C334.956 69.4 334.956 69.1333 335.089 69C335.089 68.6 335.289 68.0667 335.689 67.4C336.222 66.7333 336.689 66.4 337.089 66.4H349.289C349.956 65.6 350.822 64.2 351.889 62.2C353.089 60.2 354.289 58.0667 355.489 55.8C356.689 53.5333 357.689 51.5333 358.489 49.8C359.422 47.9333 359.889 46.8 359.889 46.4C359.889 45.2 359.489 44.3333 358.689 43.8C358.156 43.5333 357.889 43.4 357.889 43.4C357.756 43.4 357.689 43.4 357.689 43.4C357.689 43.2667 357.622 43.2 357.489 43.2C357.356 43.0667 357.289 42.8667 357.289 42.6C357.289 42.2 357.489 41.9333 357.889 41.8C358.289 41.5333 358.622 41.4 358.889 41.4C359.689 41.4 360.422 41.6 361.089 42C361.889 42.2667 363.156 42.8667 364.889 43.8C365.689 44.2 366.489 44.6 367.289 45C368.222 45.2667 368.956 45.6 369.489 46L371.089 47C370.289 48.3333 369.022 50.2 367.289 52.6C365.689 55 364.089 57.4667 362.489 60C360.889 62.5333 359.556 64.6667 358.489 66.4H394.289C395.889 66.4 396.689 66.6 396.689 67C396.689 67.4 396.089 67.8667 394.889 68.4C393.822 68.8 393.022 69 392.489 69C390.756 69.1333 388.289 69.2 385.089 69.2C382.022 69.2 378.689 69.2667 375.089 69.4C371.622 69.4 368.356 69.5333 365.289 69.8C362.356 69.9333 360.289 70.2 359.089 70.6C357.089 71.2667 354.822 73.4667 352.289 77.2C349.756 80.8 347.289 85.0667 344.889 90C342.622 94.9333 340.556 99.7333 338.689 104.4C338.289 105.467 337.556 107.267 336.489 109.8C335.556 112.333 334.622 115.067 333.689 118C332.889 120.933 332.489 123.667 332.489 126.2C332.489 128.6 332.956 130.333 333.889 131.4C334.822 132.467 335.956 133 337.289 133C338.889 133 340.689 132.067 342.689 130.2C344.822 128.333 347.156 125.933 349.689 123C352.356 119.667 354.822 116.333 357.089 113C359.489 109.533 361.022 107.2 361.689 106C362.756 104.267 363.422 103.4 363.689 103.4C363.822 103.4 363.889 103.467 363.889 103.6C363.889 104 363.689 104.733 363.289 105.8C362.889 106.733 362.489 107.533 362.089 108.2C359.689 111.667 357.089 115.533 354.289 119.8C351.489 124.067 348.622 127.733 345.689 130.8C342.222 134.267 338.689 136 335.089 136ZM379.259 135.6C376.059 135.6 373.859 134.533 372.659 132.4C371.459 130.133 371.059 127.733 371.459 125.2C371.993 121.733 372.926 118.933 374.259 116.8C375.726 114.667 377.459 112.333 379.459 109.8C381.059 107.533 382.593 105.2 384.059 102.8C385.526 100.4 385.726 99 384.659 98.6C383.993 99.1333 382.859 99.7333 381.259 100.4C379.659 101.067 377.993 101.4 376.259 101.4C374.793 101.4 373.326 101.067 371.859 100.4C370.526 99.7333 369.526 98.5333 368.859 96.8C367.126 100 364.993 103.533 362.459 107.4C360.059 111.133 357.593 114.733 355.059 118.2C352.659 121.667 350.526 124.533 348.659 126.8C348.126 127.333 347.659 127.533 347.259 127.4C346.726 127.267 346.659 126.933 347.059 126.4C350.126 122.533 353.659 117.667 357.659 111.8C361.659 105.933 365.326 99.6 368.659 92.8C371.993 85.8667 374.059 79.1333 374.859 72.6C379.393 74.7333 381.659 77.4667 381.659 80.8C381.659 83.3333 380.593 85.9333 378.459 88.6C376.326 91.1333 373.526 93.4667 370.059 95.6C371.793 98.1333 373.993 99.4 376.659 99.4C378.659 99.4 380.659 98.8 382.659 97.6C384.793 96.2667 386.459 94.8 387.659 93.2C388.726 92 389.593 91.2 390.259 90.8C391.059 90.4 391.726 90.2 392.259 90.2C394.126 90.2 395.459 90.8 396.259 92C397.193 93.0667 397.326 94.2667 396.659 95.6C394.259 98.9333 391.526 103.067 388.459 108C385.393 112.8 382.659 117.333 380.259 121.6C379.859 122.133 379.326 123.333 378.659 125.2C377.993 127.067 377.659 128.733 377.659 130.2C377.659 132.2 378.459 133.2 380.059 133.2C381.926 133.2 384.059 132.133 386.459 130C388.859 127.733 391.259 125.067 393.659 122C396.059 118.8 398.193 115.733 400.059 112.8C402.059 109.867 403.526 107.733 404.459 106.4C405.126 105.2 405.659 104.6 406.059 104.6C406.193 104.6 406.259 104.733 406.259 105C406.259 105.533 406.059 106.133 405.659 106.8C403.659 110.133 401.526 113.467 399.259 116.8C396.993 120.133 394.726 123.333 392.459 126.4C390.326 129.2 388.126 131.4 385.859 133C383.726 134.733 381.526 135.6 379.259 135.6ZM439.223 75.2C437.223 74.4 435.49 73.1333 434.023 71.4C432.69 69.5333 432.223 67.5333 432.623 65.4C432.89 64.2 433.223 63.4667 433.623 63.2C434.157 62.8 435.557 62.5333 437.823 62.4L448.423 60.6C449.623 60.3333 450.223 60.3333 450.223 60.6C450.223 61.1333 449.757 61.5333 448.823 61.8C446.69 62.3333 444.823 63.1333 443.223 64.2C441.623 65.2667 440.29 66.7333 439.223 68.6C438.957 69 438.823 69.6 438.823 70.4C438.823 71.2 438.957 72 439.223 72.8C439.623 73.4667 440.023 74.0667 440.423 74.6C440.823 75.1333 440.823 75.4 440.423 75.4C440.157 75.4 439.757 75.3333 439.223 75.2ZM415.823 135.8C411.29 135.8 408.09 134.4 406.223 131.6C404.49 128.667 403.623 125.2 403.623 121.2C403.623 118.133 404.023 115 404.823 111.8C405.757 108.6 406.89 105.733 408.223 103.2C407.023 102.667 406.623 102.2 407.023 101.8C407.957 100.467 409.09 98.8 410.423 96.8C411.89 94.8 413.357 92.8 414.823 90.8C416.557 88.5333 418.09 86.6667 419.423 85.2C420.89 83.7333 422.423 83 424.023 83C425.09 83 426.023 83.3333 426.823 84C427.757 84.6667 428.69 85.3333 429.623 86C426.557 89.2 423.49 93.1333 420.423 97.8C417.357 102.467 414.823 107.4 412.823 112.6C410.957 117.667 410.023 122.667 410.023 127.6C410.023 129.733 410.49 131.267 411.423 132.2C412.49 133 413.757 133.4 415.223 133.4C418.29 133.4 421.023 132.333 423.423 130.2C425.957 127.933 428.89 124.667 432.223 120.4C435.69 116 438.957 111.4 442.023 106.6C442.823 105.533 443.423 104.933 443.823 104.8C444.357 104.667 444.423 104.933 444.023 105.6C442.957 107.733 441.29 110.467 439.023 113.8C436.89 117 434.623 120.2 432.223 123.4C429.823 126.6 427.757 129.067 426.023 130.8C424.29 132.533 422.49 133.8 420.623 134.6C418.89 135.4 417.29 135.8 415.823 135.8ZM449.794 135.6C446.194 135.6 442.86 134.333 439.794 131.8C436.86 129.133 435.394 125.267 435.394 120.2C435.394 116.2 436.46 111.867 438.594 107.2C440.727 102.533 443.46 98.0667 446.794 93.8C450.26 89.5333 453.927 86 457.794 83.2C461.66 80.4 465.26 78.9333 468.594 78.8C469.127 79.3333 469.727 79.7333 470.394 80C471.194 80.2667 471.927 80.5333 472.594 80.8L477.794 82C480.727 82.8 482.194 84.6667 482.194 87.6C482.194 89.3333 481.594 91.2 480.394 93.2C479.327 95.2 477.66 96.9333 475.394 98.4C474.194 99.2 472.86 100 471.394 100.8C470.06 101.6 468.66 102.4 467.194 103.2L458.194 108C455.394 109.467 452.927 111.067 450.794 112.8C448.66 114.4 447.127 116.133 446.194 118C446.194 118 445.994 118.067 445.594 118.2C445.327 118.2 445.26 117.933 445.394 117.4C446.327 115.133 448.127 112.867 450.794 110.6C453.594 108.2 456.394 106.133 459.194 104.4C460.527 103.333 461.86 102.4 463.194 101.6C464.66 100.8 466.06 99.9333 467.394 99C468.727 98.0667 469.994 97.1333 471.194 96.2C472.527 95.1333 473.66 94.1333 474.594 93.2C475.66 92.1333 476.394 91.0667 476.794 90C477.327 88.9333 477.594 88 477.594 87.2C477.594 84.6667 476.127 83.4 473.194 83.4C471.327 83.4 469.194 84.2 466.794 85.8C463.86 87.8 461.06 90.2 458.394 93C455.727 95.6667 453.194 98.6 450.794 101.8C448.26 105.267 445.994 109.267 443.994 113.8C442.127 118.333 441.194 122.133 441.194 125.2C441.194 128.267 442.06 130.467 443.794 131.8C445.66 133 447.794 133.6 450.194 133.6C453.527 133.6 456.727 132.733 459.794 131C462.06 129.667 464.194 128 466.194 126C468.194 123.867 469.86 122 471.194 120.4C472.26 119.067 473.46 117.467 474.794 115.6C476.26 113.733 477.26 112.333 477.794 111.4C478.06 111.133 478.26 111.133 478.394 111.4C478.527 111.667 478.594 111.867 478.594 112C478.06 112.933 477.127 114.467 475.794 116.6C474.594 118.6 472.794 121.133 470.394 124.2C467.594 127.8 464.66 130.6 461.594 132.6C458.527 134.6 454.594 135.6 449.794 135.6ZM489.591 133C486.524 133 483.724 132.267 481.191 130.8C478.791 129.2 477.591 126.933 477.591 124C477.591 122.933 477.791 121.8 478.191 120.6C478.591 119.267 479.124 118.267 479.791 117.6C479.791 119.067 480.257 120.4 481.191 121.6C482.124 122.667 483.191 123.533 484.391 124.2C485.591 124.733 486.724 125.133 487.791 125.4C488.991 125.667 490.057 125.8 490.991 125.8C494.057 125.8 496.457 124.733 498.191 122.6C499.924 120.333 500.791 117.933 500.791 115.4C500.791 113.133 500.191 111.133 498.991 109.4C498.191 108.333 497.324 107.4 496.391 106.6C495.457 105.667 494.457 104.733 493.391 103.8C492.591 103.133 491.857 102.333 491.191 101.4C490.524 100.467 489.657 99.0667 488.591 97.2L480.191 110C478.191 112.933 476.324 115.667 474.591 118.2C472.857 120.733 470.591 123.667 467.791 127C466.991 127.933 466.391 128.4 465.991 128.4C465.457 128.267 465.524 127.733 466.191 126.8C469.257 122.933 471.791 119.6 473.791 116.8C475.791 114 478.124 110.6 480.791 106.6C482.124 104.733 483.457 102.6 484.791 100.2C486.257 97.8 487.324 95.3333 487.991 92.8C487.991 88.6667 489.391 85.0667 492.191 82C494.991 78.8 498.391 76.4 502.391 74.8C506.524 73.0667 510.391 72.4 513.991 72.8C514.791 72.8 515.657 73.4 516.591 74.6C517.524 75.8 518.324 77.1333 518.991 78.6C519.657 79.9333 519.991 81 519.991 81.8C519.991 82.2 519.857 82.4 519.591 82.4C519.191 82.4 518.657 82.1333 517.991 81.6C516.924 80.6667 515.324 80.2 513.191 80.2C510.391 80.2 507.324 81 503.991 82.6C500.657 84.0667 497.724 86 495.191 88.4C492.791 90.6667 491.591 93.0667 491.591 95.6C491.591 97.4667 492.324 99.2 493.791 100.8C495.391 102.4 497.124 103.933 498.991 105.4C500.991 106.733 502.591 108.2 503.791 109.8C505.124 111.267 506.057 112.733 506.591 114.2C507.124 115.667 507.391 117.133 507.391 118.6C507.391 121.133 506.591 123.467 504.991 125.6C503.391 127.6 501.457 129.267 499.191 130.6C496.391 132.2 493.191 133 489.591 133Z" fill="#0012A5" fill-opacity="0.06"/>
</svg>
