<svg width="82" height="82" viewBox="0 0 82 82" fill="none" xmlns="http://www.w3.org/2000/svg">
<rect width="82" height="82" fill="#1E1E1E"/>
<g clip-path="url(#clip0_0_1)">
<rect width="1600" height="4600" transform="translate(-685 -1225)" fill="white"/>
<circle cx="41" cy="41" r="41" fill="url(#paint0_linear_0_1)"/>
<path d="M41.1304 63.9962C40.1173 64.0395 39.1238 63.71 38.3423 63.0722C37.5605 62.4344 37.0459 61.5336 36.898 60.5429C36.2477 60.3133 35.6847 59.8918 35.2854 59.3356C34.8865 58.7795 34.67 58.1154 34.6661 57.4336V54.1244C34.6713 53.8028 34.5102 53.5009 34.2388 53.3237C30.6531 51.1004 28.4185 47.2652 28.2752 43.087C25.898 41.7343 25.6594 38.2052 27.6338 36.3982C27.1789 35.5943 26.9805 34.6732 27.0649 33.7561C27.1492 32.839 27.5123 31.9683 28.1066 31.2586C29.2517 29.8202 31.2514 29.6387 32.414 29.6585C32.5076 28.4997 33.0703 27.4271 33.9749 26.6833C35.1076 25.9769 36.4717 25.7265 37.7859 25.9837C39.1001 26.241 40.2643 26.9864 41.0381 28.0659C41.8123 26.9864 42.9765 26.2413 44.2907 25.9841C45.6048 25.7268 46.969 25.9769 48.1019 26.6833C49.0066 27.4274 49.5692 28.4997 49.6628 29.6585C50.8261 29.6331 52.8251 29.8195 53.9703 31.2587V31.2583C54.5646 31.9683 54.9277 32.8389 55.012 33.7561C55.0963 34.6733 54.898 35.5943 54.443 36.3983C56.4177 38.204 56.1782 41.7376 53.8016 43.0873C53.6619 47.2649 51.428 51.1007 47.841 53.3215C47.5679 53.4988 47.4058 53.8016 47.4108 54.1242V57.4334C47.4085 58.1174 47.1917 58.7842 46.7901 59.3416C46.3885 59.8993 45.8219 60.3202 45.1683 60.5472C45.026 61.5043 44.5401 62.3795 43.7988 63.0124C43.0576 63.6456 42.1104 63.9946 41.1303 63.9959L41.1304 63.9962ZM38.4487 60.7273C39.157 63.1382 42.9103 63.1369 43.618 60.7273H38.4487ZM37.9898 59.2703C37.9868 59.2722 44.0831 59.269 44.0851 59.2703C44.1803 59.2703 44.2755 59.2625 44.3697 59.2472C44.8059 59.1772 45.2029 58.9564 45.4898 58.6243C45.7764 58.292 45.9342 57.8701 45.9349 57.4337V55.3658H36.1417V57.4337C36.1437 57.9179 36.3387 58.3821 36.6843 58.7258C37.0302 59.0693 37.499 59.2651 37.9896 59.2703L37.9898 59.2703ZM36.1327 53.9088H45.9445C46.0084 53.1643 46.4192 52.4917 47.056 52.0885C50.1244 50.1875 52.0796 46.9453 52.3103 43.3762H29.7671C30.0013 46.946 31.9575 50.1878 35.0259 52.091C35.6607 52.4943 36.0695 53.1659 36.1328 53.9087L36.1327 53.9088ZM41.776 41.9194H52.8992C53.6055 41.5191 54.1013 40.8364 54.2585 40.0474C54.4156 39.2587 54.2186 38.4414 53.7185 37.8069C53.0422 36.8788 52.7292 37.135 52.6548 36.3948C52.6643 36.1547 52.7928 35.9346 52.9987 35.8064C53.2988 35.5498 53.4863 35.1882 53.5212 34.7979C53.6668 33.859 53.4092 32.9024 52.8099 32.1593C51.7096 30.7751 49.0158 31.1674 48.9875 31.1706C48.7483 31.2067 48.5062 31.1257 48.3388 30.953C48.1714 30.7807 48.0993 30.5387 48.1457 30.3042C48.263 29.4095 47.9395 28.5138 47.2754 27.8943C46.4531 27.3635 45.4476 27.1859 44.49 27.4022C43.3649 27.7824 42.407 28.5333 41.776 29.5282V41.9194ZM29.1778 41.9194H40.3001V29.528C39.6696 28.5331 38.7116 27.7824 37.5869 27.4019C36.6289 27.1853 35.6231 27.3632 34.8008 27.8943C34.137 28.5139 33.8138 29.4096 33.9311 30.3039C33.9802 30.5388 33.909 30.7824 33.7407 30.9554C33.5727 31.1287 33.3292 31.2091 33.0894 31.1704C33.064 31.1668 30.3784 30.7635 29.2672 32.1591C28.4562 33.0827 28.1613 35.0438 29.0785 35.8062H29.0781C29.2837 35.936 29.4115 36.1575 29.4204 36.3982C29.429 36.6388 29.3173 36.8684 29.1213 37.0125C27.5054 38.1671 27.1292 40.7953 29.1783 41.9193L29.1778 41.9194ZM60.2719 41.1138H57.7952C57.3917 41.108 57.0675 40.7837 57.0675 40.3853C57.0675 39.9869 57.3917 39.6623 57.7952 39.6568H60.2719C60.6758 39.662 61 39.9866 61 40.3853C61 40.7837 60.6758 41.1083 60.2719 41.1138ZM24.2045 41.1138H21.7277C21.3242 41.108 21 40.7837 21 40.3853C21 39.9869 21.3242 39.6623 21.7277 39.6568H24.2045C24.608 39.662 24.9325 39.9866 24.9325 40.3853C24.9325 40.7837 24.6083 41.1083 24.2045 41.1138ZM36.3911 40.1076V40.1072C36.0419 40.1072 35.7408 39.8653 35.6696 39.528C35.6654 39.5091 35.1939 37.426 33.6611 36.9304H33.6614C33.327 36.8241 33.1004 36.5167 33.1007 36.17C33.1159 35.2538 34.1774 35.5326 34.5602 34.7273V34.727C34.7272 34.2583 34.6949 33.7428 34.4705 33.2979C34.3417 32.9545 34.4649 32.5684 34.7703 32.3606C35.0757 32.1527 35.4852 32.1762 35.7642 32.4175C36.0729 32.771 36.5141 32.9857 36.9865 33.012C37.2467 32.9635 37.45 32.6503 37.5752 32.396C37.6608 32.2223 37.813 32.0893 37.9978 32.0259C38.183 31.9628 38.3856 31.9748 38.5618 32.0594C38.9282 32.2357 39.081 32.6715 38.9025 33.0335C38.7154 33.5707 38.3184 34.0118 37.7999 34.2579C37.2813 34.5041 36.6847 34.5354 36.1425 34.3448C36.1155 35.0421 35.8012 35.6984 35.2721 36.1615C36.1955 36.9694 36.8396 38.0423 37.114 39.2298C37.1588 39.4444 37.1035 39.6675 36.9635 39.8376C36.8235 40.0077 36.6133 40.1069 36.3912 40.1073L36.3911 40.1076ZM45.6856 40.1066V40.1062C45.4639 40.1059 45.2537 40.007 45.1137 39.8373C44.9736 39.6672 44.9183 39.4444 44.9628 39.2297C45.2372 38.0423 45.8813 36.9691 46.8047 36.1612C46.2753 35.6987 45.961 35.0421 45.935 34.3448C45.3927 34.5357 44.7958 34.5045 44.2773 34.2583C43.7584 34.0118 43.3615 33.5708 43.1743 33.0335C43.088 32.8598 43.0755 32.6591 43.1394 32.476C43.2033 32.2933 43.3381 32.1427 43.5143 32.0581C43.6906 31.9736 43.8938 31.9615 44.079 32.0249C44.2641 32.0884 44.4163 32.2217 44.5016 32.396C44.6272 32.6504 44.8301 32.9639 45.0904 33.012C45.5621 32.986 46.0025 32.772 46.3113 32.4188C46.5897 32.1772 46.9985 32.1524 47.3042 32.3593C47.6102 32.5658 47.7351 32.9509 47.6076 33.2946C47.3823 33.7402 47.3497 34.257 47.517 34.7269C47.8985 35.5312 48.9616 35.2528 48.9765 36.1696L48.9761 36.17C48.9765 36.5173 48.7492 36.8247 48.4141 36.9307C46.8829 37.426 46.4114 39.5088 46.4071 39.53C46.3337 39.8656 46.0336 40.1053 45.6857 40.1063L45.6856 40.1066ZM56.7234 33.4432C56.3929 33.4367 56.1067 33.2155 56.021 32.9007C55.9354 32.5855 56.0711 32.2525 56.3537 32.0837L58.4991 30.8615C58.8516 30.667 59.2967 30.788 59.4987 31.133C59.7003 31.4784 59.584 31.9194 59.2371 32.1234C58.9907 32.2229 56.9701 33.5244 56.7234 33.4432ZM25.2755 33.4435C25.039 33.5293 22.9984 32.2177 22.7619 32.1237L22.7622 32.1233C22.4104 31.9217 22.2904 31.4771 22.4937 31.1291C22.697 30.7815 23.1473 30.6615 23.5002 30.8615L25.6455 32.0837C25.9282 32.2525 26.0639 32.5856 25.9783 32.9007C25.8926 33.2155 25.6063 33.437 25.2759 33.4432L25.2755 33.4435ZM50.0039 25.4383C49.7078 25.4337 49.4426 25.2558 49.3292 24.9859C49.2159 24.7156 49.2759 24.4047 49.4821 24.1949L51.2334 22.466H51.2331C51.5214 22.1817 51.9885 22.1817 52.2768 22.466C52.565 22.7505 52.565 23.2117 52.2768 23.4963L50.5254 25.2252V25.2249C50.3874 25.3618 50.1996 25.4386 50.0039 25.4383ZM32.1681 25.4383C31.9724 25.4386 31.7846 25.3618 31.6465 25.2249L29.8952 23.496V23.4963C29.6168 23.2101 29.6211 22.7567 29.9054 22.476C30.1897 22.1957 30.649 22.1911 30.9389 22.4659L32.6902 24.1949H32.6899C32.8961 24.405 32.9561 24.7156 32.8428 24.9859C32.7294 25.2558 32.4642 25.4337 32.1681 25.4383ZM41.0386 22.9021C40.8429 22.9021 40.6551 22.8254 40.5168 22.6888C40.3784 22.5522 40.3007 22.3668 40.3007 22.1736V19.7285C40.3007 19.3259 40.6311 19 41.0386 19C41.4461 19 41.7765 19.3259 41.7765 19.7285V22.1736C41.7765 22.3668 41.6988 22.5522 41.5604 22.6888C41.4221 22.8254 41.2343 22.9021 41.0386 22.9021Z" fill="white"/>
<path d="M-469.5 14C-469.5 9.85786 -466.142 6.5 -462 6.5H-19.0555C-16.9334 6.5 -14.9106 7.39903 -13.4885 8.97423L79.567 112.051C80.8112 113.429 81.5 115.22 81.5 117.077V223C81.5 227.142 78.1422 230.5 74 230.5H-462C-466.142 230.5 -469.5 227.142 -469.5 223V14Z" fill="#F2F2FF" stroke="#D5D5FF"/>
</g>
<defs>
<linearGradient id="paint0_linear_0_1" x1="41" y1="0" x2="41" y2="82" gradientUnits="userSpaceOnUse">
<stop stop-color="#0027B5"/>
<stop offset="1" stop-color="#00006A"/>
</linearGradient>
<clipPath id="clip0_0_1">
<rect width="1600" height="4600" fill="white" transform="translate(-685 -1225)"/>
</clipPath>
</defs>
</svg>
