<svg width="470" height="151" viewBox="0 0 470 151" fill="none" xmlns="http://www.w3.org/2000/svg">
<path d="M17.6 151C13.4667 151 9.6 150.067 6 148.2C2.26667 146.467 0.4 143.333 0.4 138.8C0.4 135.333 1.53333 131.933 3.8 128.6C5.93333 125.4 8.53333 122.4 11.6 119.6C14.6667 116.667 17.5333 114.267 20.2 112.4C26.7333 107.733 34.4667 104 43.4 101.2C52.3333 98.4 60.8 97 68.8 97C70 97 70.6 97.2 70.6 97.6C70.6 98.1333 70.0667 98.4 69 98.4C61.2667 98.4 53.4 100.067 45.4 103.4C37.5333 106.733 30.5333 110.667 24.4 115.2C22.2667 116.667 19.8667 118.733 17.2 121.4C14.5333 123.933 12.2 126.733 10.2 129.8C8.2 133 7.2 136.2 7.2 139.4C7.2 142.867 8.2 145.267 10.2 146.6C12.3333 147.933 14.8667 148.6 17.8 148.6C21.4 148.6 25.2 147.933 29.2 146.6C33.3333 145.267 36.4667 144 38.6 142.8C44.4667 139.733 50.2 135.667 55.8 130.6C61.4 125.667 66.7333 120.2 71.8 114.2C76.8667 108.2 81.5333 102.067 85.8 95.8C90.2 89.5333 94 83.6 97.2 78C99.8667 73.4667 102.533 68 105.2 61.6C108 55.0667 110.333 48.4 112.2 41.6C114.2 34.8 115.2 28.7333 115.2 23.4C115.2 23 115.2 22.6 115.2 22.2C115.2 21.8 115.133 21.2667 115 20.6C112.6 20.3333 109.8 20.1333 106.6 20C103.4 19.7333 100.733 19.6 98.6 19.6C92.7333 19.6 86.9333 19.9333 81.2 20.6C75.4667 21.1333 70.2667 22.2 65.6 23.8C60.9333 25.2667 57.2 27.4667 54.4 30.4C51.6 33.2 50.2 36.8667 50.2 41.4C50.2 45.4 51.4 49.3333 53.8 53.2C56.3333 57.0667 59.3333 60.5333 62.8 63.6C66.4 66.6667 69.8 69.0667 73 70.8C73.5333 70.9333 73.8 71.2 73.8 71.6C73.8 71.8667 73.4 72 72.6 72C71.8 72 71.2 71.8667 70.8 71.6C66.8 69.0667 63.2667 66.6 60.2 64.2C57.1333 61.8 54.4667 59.2 52.2 56.4C49.9333 53.4667 48 50.0667 46.4 46.2C44.8 42.2 44 38.2667 44 34.4C44 30.9333 44.8 27.8 46.4 25C48 22.2 50.7333 20.0667 54.6 18.6C57.9333 17.4 62.1333 16.5333 67.2 16C72.2667 15.4667 77.5333 15.2 83 15.2C88.8667 15.2 94.6 15.4 100.2 15.8C105.933 16.2 110.667 16.7333 114.4 17.4C113.867 16.2 113.333 15.2667 112.8 14.6C112.267 13.9333 111.733 13.3333 111.2 12.8C111.6 12.6667 112.133 12.6 112.8 12.6C114.667 12.6 116.4 13.2667 118 14.6C119.733 15.8 121 17.0667 121.8 18.4C126.333 18.9333 130.2 19.5333 133.4 20.2C136.6 20.7333 138.667 21.2 139.6 21.6C140.267 21.8667 140.6 22.2 140.6 22.6C140.6 23.4 139.667 23.6667 137.8 23.4L123.4 21.6C123.933 24.4 124.2 26.8 124.2 28.8C124.2 34.1333 123.333 40 121.6 46.4C120 52.6667 117.867 58.8667 115.2 65C112.667 71 110 76.3333 107.2 81C103.733 86.7333 99.5333 92.8 94.6 99.2C89.6667 105.6 84.2 111.867 78.2 118C72.3333 124.133 66.0667 129.667 59.4 134.6C52.8667 139.667 46.0667 143.667 39 146.6C31.9333 149.533 24.8 151 17.6 151ZM125.433 127C121.566 127 118.233 125.533 115.433 122.6C112.766 119.667 111.433 115.667 111.433 110.6C111.433 108.733 111.633 106.733 112.033 104.6C112.566 102.333 113.299 100 114.233 97.6C116.233 92.9333 118.966 88.4667 122.433 84.2C126.033 79.9333 129.899 76.4 134.033 73.6C138.166 70.8 142.099 69.4 145.833 69.4C146.233 69.4 146.699 69.6 147.233 70C147.766 70.2667 148.166 70.5333 148.433 70.8L149.433 71.8C151.033 73.4 152.566 74.3333 154.033 74.6C155.633 74.8667 156.899 75.6667 157.833 77C159.433 79.5333 160.233 82.6 160.233 86.2C160.233 91.1333 158.699 96.5333 155.633 102.4C152.699 108.133 148.699 113.333 143.633 118C141.099 120.267 138.299 122.333 135.233 124.2C132.166 126.067 128.899 127 125.433 127ZM126.833 124.8C130.033 124.8 133.299 123.733 136.633 121.6C139.966 119.333 143.033 116.4 145.833 112.8C148.766 109.2 151.233 105.4 153.233 101.4C155.366 97.4 156.699 93.6 157.233 90C157.366 89.3333 157.433 88.6667 157.433 88C157.566 87.2 157.633 86.5333 157.633 86C157.633 82.4 156.766 79.8 155.033 78.2C153.299 76.4667 151.233 75.6 148.833 75.6C146.299 75.6 143.699 76.4 141.033 78C138.499 79.4667 135.299 82.5333 131.433 87.2C127.566 91.7333 124.099 96.4667 121.033 101.4C118.233 105.8 116.833 110.067 116.833 114.2C116.833 117.133 117.633 119.667 119.233 121.8C120.966 123.8 123.499 124.8 126.833 124.8ZM202.177 66.2C200.177 65.4 198.443 64.1333 196.977 62.4C195.643 60.5333 195.177 58.5333 195.577 56.4C195.843 55.2 196.177 54.4667 196.577 54.2C197.11 53.8 198.51 53.5333 200.777 53.4L211.377 51.6C212.577 51.3333 213.177 51.3333 213.177 51.6C213.177 52.1333 212.71 52.5333 211.777 52.8C209.643 53.3333 207.777 54.1333 206.177 55.2C204.577 56.2667 203.243 57.7333 202.177 59.6C201.91 60 201.777 60.6 201.777 61.4C201.777 62.2 201.91 63 202.177 63.8C202.577 64.4667 202.977 65.0667 203.377 65.6C203.777 66.1333 203.777 66.4 203.377 66.4C203.11 66.4 202.71 66.3333 202.177 66.2ZM178.777 126.8C174.243 126.8 171.043 125.4 169.177 122.6C167.443 119.667 166.577 116.2 166.577 112.2C166.577 109.133 166.977 106 167.777 102.8C168.71 99.6 169.843 96.7333 171.177 94.2C169.977 93.6667 169.577 93.2 169.977 92.8C170.91 91.4667 172.043 89.8 173.377 87.8C174.843 85.8 176.31 83.8 177.777 81.8C179.51 79.5333 181.043 77.6667 182.377 76.2C183.843 74.7333 185.377 74 186.977 74C188.043 74 188.977 74.3333 189.777 75C190.71 75.6667 191.643 76.3333 192.577 77C189.51 80.2 186.443 84.1333 183.377 88.8C180.31 93.4667 177.777 98.4 175.777 103.6C173.91 108.667 172.977 113.667 172.977 118.6C172.977 120.733 173.443 122.267 174.377 123.2C175.443 124 176.71 124.4 178.177 124.4C181.243 124.4 183.977 123.333 186.377 121.2C188.91 118.933 191.843 115.667 195.177 111.4C198.643 107 201.91 102.4 204.977 97.6C205.777 96.5333 206.377 95.9333 206.777 95.8C207.31 95.6667 207.377 95.9333 206.977 96.6C205.91 98.7333 204.243 101.467 201.977 104.8C199.843 108 197.577 111.2 195.177 114.4C192.777 117.6 190.71 120.067 188.977 121.8C187.243 123.533 185.443 124.8 183.577 125.6C181.843 126.4 180.243 126.8 178.777 126.8ZM232.147 126.6C228.68 126.6 226.214 125.6 224.747 123.6C223.414 121.467 222.747 119 222.747 116.2C222.747 113 223.214 109.8 224.147 106.6C225.214 103.267 226.347 100.267 227.547 97.6C228.88 94.8 229.947 92.6667 230.747 91.2C233.014 86.9333 234.147 84.1333 234.147 82.8C234.147 81.3333 233.48 80.8667 232.147 81.4C231.08 81.8 229.614 82.9333 227.747 84.8C225.88 86.6667 223.947 88.8 221.947 91.2C219.947 93.6 218.147 95.8 216.547 97.8C215.08 99.8 214.147 101.133 213.747 101.8C210.014 107.133 207.414 111.533 205.947 115C204.48 118.467 203.414 121 202.747 122.6C202.48 123.267 201.747 123.6 200.547 123.6C199.347 123.6 198.147 123.133 196.947 122.2C195.747 121.133 195.147 119.6 195.147 117.6C195.147 116.533 195.747 114.667 196.947 112C198.147 109.2 199.614 105.933 201.347 102.2C202.947 98.6 204.547 95 206.147 91.4C207.747 87.6667 209.014 84.7333 209.947 82.6C209.014 81.8 208.547 81.2 208.547 80.8C208.547 80.4 208.614 80.0667 208.747 79.8C209.014 79.1333 209.547 78.0667 210.347 76.6C211.147 75 211.947 73.4667 212.747 72C213.547 70.4 214.08 69.4 214.347 69C214.747 68.7333 215.747 68.2667 217.347 67.6C219.08 66.9333 220.747 66.6 222.347 66.6H223.147C224.747 66.6 225.547 67.0667 225.547 68C225.547 68.9333 225.08 70.1333 224.147 71.6C223.747 72.2667 222.814 74 221.347 76.8C219.88 79.4667 218.214 82.5333 216.347 86C214.48 89.4667 212.747 92.8 211.147 96C209.68 99.0667 208.614 101.4 207.947 103C207.547 104.2 207.347 105.4 207.347 106.6C207.48 107.667 207.814 107.8 208.347 107C212.08 101.4 215.547 96.6 218.747 92.6C221.947 88.6 225.147 84.8667 228.347 81.4C231.547 77.9333 235.08 74.3333 238.947 70.6C240.28 71.1333 241.68 71.4 243.147 71.4C244.614 71.4 245.88 71.8 246.947 72.6C247.48 73 247.747 73.6667 247.747 74.6C247.747 76.4667 246.614 79.2667 244.347 83C242.214 86.6 239.814 90.6667 237.147 95.2C235.147 98.6667 233.147 102.667 231.147 107.2C229.147 111.733 228.147 115.667 228.147 119C228.147 120.733 228.414 122.2 228.947 123.4C229.614 124.467 230.614 125 231.947 125C233.147 125 234.48 124.533 235.947 123.6C237.014 122.933 239.347 120.733 242.947 117C246.547 113.133 250.48 107.933 254.747 101.4C255.147 101 255.414 100.8 255.547 100.8C255.814 100.8 255.947 100.933 255.947 101.2C255.947 101.467 255.747 102 255.347 102.8C250.947 110.267 246.547 116.133 242.147 120.4C237.88 124.533 234.547 126.6 232.147 126.6ZM342.814 126.4C339.081 126.4 335.681 124.867 332.614 121.8C329.547 118.6 328.014 115.2 328.014 111.6C328.014 107.467 329.414 102.667 332.214 97.2C335.014 91.6 338.281 85.9333 342.014 80.2C348.681 70.0667 355.814 60.2667 363.414 50.8C371.147 41.2 378.281 31.3333 384.814 21.2C386.281 18.9333 387.481 16.9333 388.414 15.2C389.347 13.3333 390.081 11.7333 390.614 10.4C390.881 9.86666 391.014 9.39999 391.014 8.99999C391.014 8.6 391.014 8.26666 391.014 7.99999C391.014 6.79999 390.547 5.99999 389.614 5.6C388.814 5.06666 387.814 4.8 386.614 4.8C385.414 4.8 384.147 4.93333 382.814 5.19999C381.481 5.46666 380.281 5.73333 379.214 5.99999C371.881 7.73333 364.214 10.8 356.214 15.2C348.347 19.4667 341.014 23.8667 334.214 28.4C328.347 32.2667 322.614 36.8667 317.014 42.2C311.547 47.5333 307.014 53.0667 303.414 58.8C299.814 64.5333 298.014 69.8667 298.014 74.8C298.014 77.3333 298.614 79.7333 299.814 82C300.214 82.8 300.414 83.3333 300.414 83.6C300.414 83.7333 300.347 83.8 300.214 83.8C299.947 83.8 299.614 83.6667 299.214 83.4C298.814 83 298.481 82.7333 298.214 82.6C296.881 80.8667 295.681 78.4667 294.614 75.4C293.547 72.2 293.081 69.6667 293.214 67.8C293.881 60.7333 297.414 53.6 303.814 46.4C310.347 39.0667 318.481 32.2 328.214 25.8C329.814 24.7333 332.347 23.2 335.814 21.2C339.281 19.2 343.214 17 347.614 14.6C352.147 12.2 356.747 10 361.414 7.99999C366.214 5.86666 370.681 4.13333 374.814 2.8C379.081 1.33333 382.681 0.599991 385.614 0.599991C387.614 0.599991 389.881 0.933324 392.414 1.59999C394.947 2.26666 397.147 3.33333 399.014 4.8C400.881 6.26666 401.814 8.13333 401.814 10.4C401.814 13.3333 400.814 16.4667 398.814 19.8C396.814 23 394.214 26.4 391.014 30C385.547 36.4 379.814 42.8667 373.814 49.4C367.947 55.9333 362.347 62.6667 357.014 69.6C351.814 76.4 347.414 83.4 343.814 90.6C340.347 97.8 338.214 105.133 337.414 112.6C337.414 113 337.347 113.4 337.214 113.8C337.214 114.2 337.214 114.6 337.214 115C337.214 117.8 337.814 119.933 339.014 121.4C340.214 122.733 341.681 123.4 343.414 123.4C345.947 123.4 348.747 122.333 351.814 120.2C355.014 117.933 357.547 116 359.414 114.4C365.147 109.6 370.547 104.467 375.614 99C380.681 93.5333 385.814 88.1333 391.014 82.8C396.747 77.2 402.681 71.2 408.814 64.8C415.081 58.4 420.881 52.2 426.214 46.2C426.481 45.9333 426.814 45.8 427.214 45.8C427.747 45.6667 427.681 46.1333 427.014 47.2C423.947 51.0667 420.147 55.6667 415.614 61C411.081 66.3333 406.081 71.9333 400.614 77.8C395.281 83.6667 389.881 89.4 384.414 95C379.081 100.467 374.014 105.4 369.214 109.8C364.547 114.2 360.614 117.6 357.414 120C355.281 121.6 352.881 123.067 350.214 124.4C347.681 125.733 345.214 126.4 342.814 126.4ZM392.414 147C389.881 147 387.881 146.2 386.414 144.6C384.947 143.133 383.881 141.333 383.214 139.2C382.547 137.067 382.214 135.067 382.214 133.2C382.214 128.267 383.614 122.333 386.414 115.4C389.347 108.467 393.081 101.267 397.614 93.8C402.281 86.2 407.214 78.8 412.414 71.6C417.747 64.2667 422.814 57.7333 427.614 52C432.547 46.1333 436.681 41.5333 440.014 38.2C439.214 37.1333 438.814 36.2 438.814 35.4C438.814 33.6667 439.614 32.0667 441.214 30.6C442.814 29 444.614 27.5333 446.614 26.2C448.614 24.8667 450.147 23.8 451.214 23C453.081 23.1333 455.147 23.6667 457.414 24.6C459.681 25.5333 460.814 27.0667 460.814 29.2C460.814 31.0667 459.681 33.1333 457.414 35.4C455.281 37.5333 453.614 39.1333 452.414 40.2L446.414 45.4C445.481 46.2 444.614 46.9333 443.814 47.6C443.147 48.2667 442.547 48.9333 442.014 49.6C438.681 53.0667 434.614 57.4667 429.814 62.8C425.147 68 420.347 73.7333 415.414 80C410.481 86.2667 405.881 92.7333 401.614 99.4C397.347 106.067 393.881 112.6 391.214 119C388.547 125.267 387.214 131.067 387.214 136.4C387.214 138.533 387.614 140.467 388.414 142.2C389.347 144.067 391.014 145.333 393.414 146C393.814 146 394.014 146.133 394.014 146.4C394.014 146.8 393.481 147 392.414 147ZM439.067 124C436.001 124 433.201 123.267 430.667 121.8C428.267 120.2 427.067 117.933 427.067 115C427.067 113.933 427.267 112.8 427.667 111.6C428.067 110.267 428.601 109.267 429.267 108.6C429.267 110.067 429.734 111.4 430.667 112.6C431.601 113.667 432.667 114.533 433.867 115.2C435.067 115.733 436.201 116.133 437.267 116.4C438.467 116.667 439.534 116.8 440.467 116.8C443.534 116.8 445.934 115.733 447.667 113.6C449.401 111.333 450.267 108.933 450.267 106.4C450.267 104.133 449.667 102.133 448.467 100.4C447.667 99.3333 446.801 98.4 445.867 97.6C444.934 96.6667 443.934 95.7333 442.867 94.8C442.067 94.1333 441.334 93.3333 440.667 92.4C440.001 91.4667 439.134 90.0667 438.067 88.2L429.667 101C427.667 103.933 425.801 106.667 424.067 109.2C422.334 111.733 420.067 114.667 417.267 118C416.467 118.933 415.867 119.4 415.467 119.4C414.934 119.267 415.001 118.733 415.667 117.8C418.734 113.933 421.267 110.6 423.267 107.8C425.267 105 427.601 101.6 430.267 97.6C431.601 95.7333 432.934 93.6 434.267 91.2C435.734 88.8 436.801 86.3333 437.467 83.8C437.467 79.6667 438.867 76.0667 441.667 73C444.467 69.8 447.867 67.4 451.867 65.8C456.001 64.0667 459.867 63.4 463.467 63.8C464.267 63.8 465.134 64.4 466.067 65.6C467.001 66.8 467.801 68.1333 468.467 69.6C469.134 70.9333 469.467 72 469.467 72.8C469.467 73.2 469.334 73.4 469.067 73.4C468.667 73.4 468.134 73.1333 467.467 72.6C466.401 71.6667 464.801 71.2 462.667 71.2C459.867 71.2 456.801 72 453.467 73.6C450.134 75.0667 447.201 77 444.667 79.4C442.267 81.6667 441.067 84.0667 441.067 86.6C441.067 88.4667 441.801 90.2 443.267 91.8C444.867 93.4 446.601 94.9333 448.467 96.4C450.467 97.7333 452.067 99.2 453.267 100.8C454.601 102.267 455.534 103.733 456.067 105.2C456.601 106.667 456.867 108.133 456.867 109.6C456.867 112.133 456.067 114.467 454.467 116.6C452.867 118.6 450.934 120.267 448.667 121.6C445.867 123.2 442.667 124 439.067 124Z" fill="#0012A5" fill-opacity="0.06"/>
</svg>
