<svg width="239" height="176" viewBox="0 0 239 176" fill="none" xmlns="http://www.w3.org/2000/svg">
<path d="M23 120.2C20.4667 119.4 18.5333 117.8 17.2 115.4C16 113 15.4 110.067 15.4 106.6C15.4 100.333 17.0667 92.6667 20.4 83.6C23.8667 74.5333 28.2667 65.2 33.6 55.6C37.6 48.4 41.8667 41.5333 46.4 35C51.0667 28.3333 55.6 22.4 60 17.2C64.5333 12 68.6 7.93333 72.2 5C75.9333 1.93333 79 0.399998 81.4 0.399998C83.6667 0.399998 85.4667 1.26667 86.8 3C88.1333 4.73333 89.4 6.66666 90.6 8.8C91.8 10.9333 93.2667 12.5333 95 13.6C95.1333 13.8667 95.2 14.2 95.2 14.6C95.2 15 95.2 15.3333 95.2 15.6C95.2 19.0667 94 22.8667 91.6 27C89.3333 31.1333 86.3333 35.3333 82.6 39.6C79 43.8667 75.1333 48 71 52C66.8667 55.8667 62.9333 59.4667 59.2 62.8C55.4667 66 52.4667 68.6 50.2 70.6C44.6 75.5333 39.4667 80.4667 34.8 85.4C30.1333 90.3333 26.7333 94.2667 24.6 97.2C23.9333 97.8667 23.5333 98.2 23.4 98.2C23.1333 98.2 23 97.9333 23 97.4C23 96.6 23.2 95.9333 23.6 95.4C25.6 92.6 28.6667 89 32.8 84.6C37.0667 80.2 41.3333 75.7333 45.6 71.2C47.0667 69.7333 49.4667 67.3333 52.8 64C56.2667 60.6667 60.1333 56.8 64.4 52.4C68.6667 47.8667 72.8 43.2667 76.8 38.6C80.8 33.9333 84.0667 29.6 86.6 25.6C89.2667 21.4667 90.6 18.2 90.6 15.8C90.6 14.3333 90.2 13.3333 89.4 12.8C88.7333 12.2667 87.8667 12 86.8 12C84.6667 12 82.0667 13.0667 79 15.2C76.0667 17.3333 72.9333 20.0667 69.6 23.4C66.4 26.6 63.2667 30 60.2 33.6C57.1333 37.0667 54.4667 40.2 52.2 43C50.0667 45.8 48.5333 47.7333 47.6 48.8C42.6667 54.5333 38 61.2 33.6 68.8C29.3333 76.2667 25.6667 83.4667 22.6 90.4C21.8 92.2667 20.8667 94.9333 19.8 98.4C18.8667 101.867 18.4 105.267 18.4 108.6C18.4 110.867 18.7333 113 19.4 115C20.2 116.867 21.6667 118.2 23.8 119C24.7333 119.4 25.2 119.667 25.2 119.8C25.2 119.933 24.9333 120.067 24.4 120.2C23.8667 120.333 23.4 120.333 23 120.2ZM108.2 150.6C108.067 150.733 107.733 150.733 107.2 150.6C106.8 150.6 106.867 150.333 107.4 149.8C108.867 148.6 110.2 147.067 111.4 145.2C112.6 143.333 113.2 141.267 113.2 139C113.2 136.067 111.933 133.733 109.4 132C106.867 130.4 103.467 129.267 99.2 128.6C95.0667 127.933 90.6 127.6 85.8 127.6C80.8667 127.6 75.9333 127.8 71 128.2C66.2 128.733 61.9333 129.267 58.2 129.8C54.4667 130.333 51.8 130.8 50.2 131.2C45.6667 132 41.0667 132.8 36.4 133.6C31.7333 134.4 27.0667 134.8 22.4 134.8C18.2667 134.8 14.4667 134.333 11 133.4C7.66667 132.467 5.06667 130.733 3.2 128.2C1.6 125.933 0.8 123.4 0.8 120.6C0.8 119 1.13333 117.467 1.8 116C2.46667 114.533 3.53333 113.333 5 112.4H5.4C5.66667 112.4 5.86667 112.6 6 113C6.26667 113.267 6.13333 113.6 5.6 114C4 115.2 3.2 116.733 3.2 118.6C3.2 120.067 3.73333 121.467 4.8 122.8C6.93333 125.067 9.73333 126.667 13.2 127.6C16.8 128.533 20.8 129 25.2 129C30.8 129 36.8 128.533 43.2 127.6C49.7333 126.533 56.2 125.4 62.6 124.2C69 122.867 74.9333 121.733 80.4 120.8C86 119.733 90.6667 119.2 94.4 119.2C100.267 119.2 105.133 120.133 109 122C113 123.867 115 127.6 115 133.2C115 133.733 114.933 134.333 114.8 135C114.8 135.8 114.733 136.6 114.6 137.4C115.8 138.733 116.4 140.2 116.4 141.8C116.4 142.733 116.133 143.733 115.6 144.8C115.067 145.867 114.2 146.733 113 147.4C112.6 147.533 111.8 148 110.6 148.8C109.4 149.733 108.6 150.333 108.2 150.6ZM158.27 70.2C156.27 69.4 154.537 68.1333 153.07 66.4C151.737 64.5333 151.27 62.5333 151.67 60.4C151.937 59.2 152.27 58.4667 152.67 58.2C153.204 57.8 154.604 57.5333 156.87 57.4L167.47 55.6C168.67 55.3333 169.27 55.3333 169.27 55.6C169.27 56.1333 168.804 56.5333 167.87 56.8C165.737 57.3333 163.87 58.1333 162.27 59.2C160.67 60.2667 159.337 61.7333 158.27 63.6C158.004 64 157.87 64.6 157.87 65.4C157.87 66.2 158.004 67 158.27 67.8C158.67 68.4667 159.07 69.0667 159.47 69.6C159.87 70.1333 159.87 70.4 159.47 70.4C159.204 70.4 158.804 70.3333 158.27 70.2ZM134.87 130.8C130.337 130.8 127.137 129.4 125.27 126.6C123.537 123.667 122.67 120.2 122.67 116.2C122.67 113.133 123.07 110 123.87 106.8C124.804 103.6 125.937 100.733 127.27 98.2C126.07 97.6667 125.67 97.2 126.07 96.8C127.004 95.4667 128.137 93.8 129.47 91.8C130.937 89.8 132.404 87.8 133.87 85.8C135.604 83.5333 137.137 81.6667 138.47 80.2C139.937 78.7333 141.47 78 143.07 78C144.137 78 145.07 78.3333 145.87 79C146.804 79.6667 147.737 80.3333 148.67 81C145.604 84.2 142.537 88.1333 139.47 92.8C136.404 97.4667 133.87 102.4 131.87 107.6C130.004 112.667 129.07 117.667 129.07 122.6C129.07 124.733 129.537 126.267 130.47 127.2C131.537 128 132.804 128.4 134.27 128.4C137.337 128.4 140.07 127.333 142.47 125.2C145.004 122.933 147.937 119.667 151.27 115.4C154.737 111 158.004 106.4 161.07 101.6C161.87 100.533 162.47 99.9333 162.87 99.8C163.404 99.6667 163.47 99.9333 163.07 100.6C162.004 102.733 160.337 105.467 158.07 108.8C155.937 112 153.67 115.2 151.27 118.4C148.87 121.6 146.804 124.067 145.07 125.8C143.337 127.533 141.537 128.8 139.67 129.6C137.937 130.4 136.337 130.8 134.87 130.8ZM101.041 175.2C99.574 175.2 98.174 175 96.8406 174.6C95.374 174.333 94.0406 174 92.8406 173.6C92.174 173.333 91.974 173 92.2406 172.6C92.5073 172.2 92.974 172.133 93.6406 172.4C94.7073 172.8 95.974 173.133 97.4406 173.4C98.774 173.667 100.107 173.8 101.441 173.8C110.107 173.8 118.107 170.6 125.441 164.2C132.774 157.8 139.507 149.533 145.641 139.4C149.907 132.333 153.974 124.533 157.841 116C161.707 107.467 165.441 98.8 169.041 90C172.774 81.2 176.307 73 179.641 65.4C176.574 65.4 173.774 65.4 171.241 65.4C168.707 65.4 166.241 65.4667 163.841 65.6C162.907 65.6 162.307 65.4 162.041 65C161.907 64.6 161.841 64.3333 161.841 64.2C161.841 63.2667 162.374 62.8 163.441 62.8H180.841C185.107 53.3333 189.374 44.4 193.641 36C197.907 27.4667 202.307 20 206.841 13.6C209.107 10.4 211.374 7.8 213.641 5.8C216.041 3.79999 219.041 2.13332 222.641 0.799993C223.841 2.13332 225.374 3.33333 227.241 4.39999C229.107 5.33333 230.974 6.26666 232.841 7.19999C234.707 8.13333 236.174 9.4 237.241 11C237.774 11.6667 238.041 12.4667 238.041 13.4C238.041 14.6 237.507 15.9333 236.441 17.4C235.374 18.8667 233.907 20.5333 232.041 22.4C230.574 24 227.974 26.9333 224.241 31.2C220.641 35.3333 216.574 40.2 212.041 45.8C207.641 51.2667 203.374 56.8667 199.241 62.6H223.841C225.574 62.6 226.441 62.7333 226.441 63C226.441 63.4 225.974 63.8667 225.041 64.4C224.107 64.9333 223.174 65.2667 222.241 65.4C219.307 65.5333 216.441 65.6 213.641 65.6C210.841 65.6 207.907 65.6 204.841 65.6H197.441C195.174 69.0667 193.374 72.3333 192.041 75.4C190.707 78.3333 190.241 80.8 190.641 82.8C190.774 83.0667 190.707 83.3333 190.441 83.6C190.174 83.7333 189.974 83.5333 189.841 83C189.707 82.6 189.641 81.9333 189.641 81C189.641 77.4 191.307 72.2667 194.641 65.6H188.241C183.707 75.3333 179.507 85.4 175.641 95.8C171.907 106.2 167.707 116.333 163.041 126.2C158.507 136.067 152.841 145.333 146.041 154C140.841 160.4 134.374 165.533 126.641 169.4C118.774 173.267 110.241 175.2 101.041 175.2ZM189.641 62.8L196.041 62.6C198.974 57.4 202.307 52.2 206.041 47C209.774 41.8 213.374 37.0667 216.841 32.8C220.307 28.5333 223.041 25.2667 225.041 23C228.241 19.1333 230.241 16.1333 231.041 14C231.307 13.2 231.441 12.5333 231.441 12C231.441 10.4 230.574 9.6 228.841 9.6C225.107 9.6 220.441 12.7333 214.841 19C211.507 22.7333 207.574 28.6667 203.041 36.8C198.507 44.8 194.041 53.4667 189.641 62.8ZM204.778 130.6C201.178 130.6 197.845 129.333 194.778 126.8C191.845 124.133 190.378 120.267 190.378 115.2C190.378 111.2 191.445 106.867 193.578 102.2C195.711 97.5333 198.445 93.0667 201.778 88.8C205.245 84.5333 208.911 81 212.778 78.2C216.645 75.4 220.245 73.9333 223.578 73.8C224.111 74.3333 224.711 74.7333 225.378 75C226.178 75.2667 226.911 75.5333 227.578 75.8L232.778 77C235.711 77.8 237.178 79.6667 237.178 82.6C237.178 84.3333 236.578 86.2 235.378 88.2C234.311 90.2 232.645 91.9333 230.378 93.4C229.178 94.2 227.845 95 226.378 95.8C225.045 96.6 223.645 97.4 222.178 98.2L213.178 103C210.378 104.467 207.911 106.067 205.778 107.8C203.645 109.4 202.111 111.133 201.178 113C201.178 113 200.978 113.067 200.578 113.2C200.311 113.2 200.245 112.933 200.378 112.4C201.311 110.133 203.111 107.867 205.778 105.6C208.578 103.2 211.378 101.133 214.178 99.4C215.511 98.3333 216.845 97.4 218.178 96.6C219.645 95.8 221.045 94.9333 222.378 94C223.711 93.0667 224.978 92.1333 226.178 91.2C227.511 90.1333 228.645 89.1333 229.578 88.2C230.645 87.1333 231.378 86.0667 231.778 85C232.311 83.9333 232.578 83 232.578 82.2C232.578 79.6667 231.111 78.4 228.178 78.4C226.311 78.4 224.178 79.2 221.778 80.8C218.845 82.8 216.045 85.2 213.378 88C210.711 90.6667 208.178 93.6 205.778 96.8C203.245 100.267 200.978 104.267 198.978 108.8C197.111 113.333 196.178 117.133 196.178 120.2C196.178 123.267 197.045 125.467 198.778 126.8C200.645 128 202.778 128.6 205.178 128.6C208.511 128.6 211.711 127.733 214.778 126C217.045 124.667 219.178 123 221.178 121C223.178 118.867 224.845 117 226.178 115.4C227.245 114.067 228.445 112.467 229.778 110.6C231.245 108.733 232.245 107.333 232.778 106.4C233.045 106.133 233.245 106.133 233.378 106.4C233.511 106.667 233.578 106.867 233.578 107C233.045 107.933 232.111 109.467 230.778 111.6C229.578 113.6 227.778 116.133 225.378 119.2C222.578 122.8 219.645 125.6 216.578 127.6C213.511 129.6 209.578 130.6 204.778 130.6Z" fill="#0012A5" fill-opacity="0.06"/>
</svg>
