<svg width="20" height="16" viewBox="0 0 20 16" fill="none" xmlns="http://www.w3.org/2000/svg">
<rect width="20" height="16" fill="#1E1E1E"/>
<g clip-path="url(#clip0_0_1)">
<rect width="1600" height="1932" transform="translate(-62 -838)" fill="white"/>
<g filter="url(#filter0_d_0_1)">
<rect x="-62" y="-314" width="1600" height="667" rx="8" fill="#F2F2FF"/>
<rect x="-61.5" y="-313.5" width="1599" height="666" rx="7.5" stroke="#00006A" stroke-opacity="0.09"/>
</g>
<g clip-path="url(#clip1_0_1)">
<path d="M-42 -294C-42 -299.523 -37.5228 -304 -32 -304H639C644.523 -304 649 -299.523 649 -294V333C649 338.523 644.523 343 639 343H-32C-37.5229 343 -42 338.523 -42 333V-294Z" fill="url(#paint0_linear_0_1)"/>
<path d="M20 0H0V16H20V0ZM18 4L10 9L2 4V2L10 7L18 2V4Z" fill="#F2F2FF"/>
</g>
</g>
<defs>
<filter id="filter0_d_0_1" x="-152" y="-404" width="1780" height="847" filterUnits="userSpaceOnUse" color-interpolation-filters="sRGB">
<feFlood flood-opacity="0" result="BackgroundImageFix"/>
<feColorMatrix in="SourceAlpha" type="matrix" values="0 0 0 0 0 0 0 0 0 0 0 0 0 0 0 0 0 0 127 0" result="hardAlpha"/>
<feMorphology radius="30" operator="dilate" in="SourceAlpha" result="effect1_dropShadow_0_1"/>
<feOffset/>
<feGaussianBlur stdDeviation="30"/>
<feComposite in2="hardAlpha" operator="out"/>
<feColorMatrix type="matrix" values="0 0 0 0 0 0 0 0 0 0 0 0 0 0 0 0 0 0 0.03 0"/>
<feBlend mode="normal" in2="BackgroundImageFix" result="effect1_dropShadow_0_1"/>
<feBlend mode="normal" in="SourceGraphic" in2="effect1_dropShadow_0_1" result="shape"/>
</filter>
<linearGradient id="paint0_linear_0_1" x1="28.3666" y1="-254" x2="174.279" y2="373.068" gradientUnits="userSpaceOnUse">
<stop stop-color="#0027B5"/>
<stop offset="0.786445" stop-color="#00006A"/>
</linearGradient>
<clipPath id="clip0_0_1">
<rect width="1600" height="1932" fill="white" transform="translate(-62 -838)"/>
</clipPath>
<clipPath id="clip1_0_1">
<rect width="691" height="647" fill="white" transform="translate(-42 -304)"/>
</clipPath>
</defs>
</svg>
