<svg width="490" height="142" viewBox="0 0 490 142" fill="none" xmlns="http://www.w3.org/2000/svg">
<path d="M85.2 141.8C83.2 141.8 81 141.133 78.6 139.8C76.3333 138.467 75.2 136.2 75.2 133C75.2 131.267 76.6 128.333 79.4 124.2C82.2 119.933 85.6667 114.933 89.8 109.2C94.0667 103.467 98.3333 97.5333 102.6 91.4C105.133 87.8 108.533 83.2667 112.8 77.8C117.067 72.2 121.667 66.2667 126.6 60C131.667 53.6 136.467 47.3333 141 41.2C145.667 35.0667 149.6 29.5333 152.8 24.6C154.533 21.9333 155.933 19.4 157 17C158.067 14.6 158.6 12.5333 158.6 10.8C158.6 8.26667 157.467 6.33333 155.2 4.99999C152.933 3.53333 149.133 2.79999 143.8 2.79999C139.533 2.79999 133.6 3.46666 126 4.79999C118.533 5.99999 110.2 7.79999 101 10.2C91.9333 12.6 82.6667 15.4 73.2 18.6C65.3333 21.2667 57.6 24.2 50 27.4C42.5333 30.6 35.7333 33.9333 29.6 37.4C23.4667 40.7333 18.4667 44.0667 14.6 47.4C13.6667 48.3333 12.8 49.4667 12 50.8C11.3333 52 11 53.1333 11 54.2C11 55.1333 11.4 56.0667 12.2 57C13 57.8 14.4667 58.2 16.6 58.2C18.3333 58.2 19.2 58.5333 19.2 59.2C19.2 59.4667 18.8667 59.7333 18.2 60C17.5333 60.2667 16.8 60.3333 16 60.2C10.2667 58.2 6.13333 56 3.6 53.6C1.2 51.2 1.41561e-07 48.7333 1.41561e-07 46.2C1.41561e-07 44.2 2 41.8 6 39C10 36.2 15.4 33.2667 22.2 30.2C29 27 36.6667 23.8667 45.2 20.8C53.8667 17.6 62.8 14.6667 72 12C83.8667 8.53333 95.6667 5.73333 107.4 3.6C119.133 1.33333 129.667 0.199992 139 0.199992C147.933 0.199992 155.133 1.46666 160.6 3.99999C166.2 6.39999 169 10.4667 169 16.2C169 18.7333 167.667 22.2667 165 26.8C162.467 31.2 159 36.2667 154.6 42C150.333 47.6 145.667 53.4667 140.6 59.6C135.533 65.7333 130.533 71.8 125.6 77.8C120.667 83.6667 116.2 89.0667 112.2 94C108.2 98.9333 105.133 103.067 103 106.4C102.467 107.467 102.2 108.4 102.2 109.2V109.4C102.2 110.2 102.467 110.667 103 110.8C103.533 110.933 104.067 110.667 104.6 110C107.267 106.933 111.067 102.867 116 97.8C120.933 92.7333 126.533 87.2 132.8 81.2C139.067 75.2 145.533 69.4 152.2 63.8C159 58.0667 165.6 53.1333 172 49C176.667 45.9333 181.4 43.5333 186.2 41.8C191 40.0667 194.933 39.2 198 39.2C199.6 39.2 201.067 39.8 202.4 41C203.867 42.2 205 43.6 205.8 45.2C206.733 46.6667 207.2 47.8667 207.2 48.8C207.2 51.3333 206.133 54.6667 204 58.8C201.867 62.8 199.133 67.3333 195.8 72.4C192.6 77.4667 189.267 82.8667 185.8 88.6C182.467 94.3333 179.467 100.133 176.8 106C174.133 111.733 172.4 117.267 171.6 122.6C171.6 122.867 171.6 123.2 171.6 123.6C171.6 124 171.733 124.267 172 124.4C172.667 124.533 173 124.8 173 125.2C173 126 172 126.4 170 126.4C166.8 126.4 165.2 124.6 165.2 121C165.2 119.667 165.333 118.267 165.6 116.8C166 115.2 166.467 113.533 167 111.8C168.467 106.733 170.133 101.733 172 96.8C174 91.7333 176.067 87.1333 178.2 83C180.467 78.8667 182.667 74.7333 184.8 70.6C187.067 66.3333 189.133 61.8667 191 57.2C191.933 54.9333 192.4 52.8667 192.4 51C192.4 49 191.933 47.4667 191 46.4C190.067 45.3333 188.933 44.8 187.6 44.8C183.867 44.9333 179.133 46.9333 173.4 50.8C167.667 54.6667 161.4 59.7333 154.6 66C147.8 72.1333 140.933 78.8667 134 86.2C127.067 93.5333 120.533 100.8 114.4 108C108.267 115.2 102.933 121.733 98.4 127.6C93.8667 133.333 90.6 137.733 88.6 140.8C87.9333 141.467 86.8 141.8 85.2 141.8ZM211.8 139.4C211 139.4 209.733 139 208 138.2C206.267 137.533 204.267 136.333 202 134.6C200.133 133.267 199.2 130.733 199.2 127C199.2 125.8 199.267 124.533 199.4 123.2C199.667 121.867 199.933 120.467 200.2 119C201 115.533 202.267 111.733 204 107.6C205.733 103.467 207.533 99.4667 209.4 95.6C211.4 91.6 213.2 88.0667 214.8 85C216.533 81.9333 217.8 79.7333 218.6 78.4C219.4 76.9333 220 75.6667 220.4 74.6C220.933 73.5333 221.267 72.6667 221.4 72V71.6C221.4 70.9333 221.133 70.4 220.6 70C220.2 69.6 219.6 69.5333 218.8 69.8C217.867 70.0667 216.067 71.4667 213.4 74C210.733 76.4 208.267 78.7333 206 81C203.067 84.0667 199.667 88 195.8 92.8C191.933 97.4667 188.2 102.2 184.6 107C181.133 111.8 178.333 116 176.2 119.6C175.667 120.533 175.2 121 174.8 121C174.667 121 174.6 120.867 174.6 120.6C174.6 120.333 174.733 119.8 175 119C175.4 118.067 176.467 116.333 178.2 113.8C179.933 111.133 181.8 108.267 183.8 105.2C185.8 102.133 187.667 99.4 189.4 97C191.133 94.4667 192.2 92.9333 192.6 92.4C197.933 84.9333 203.467 78.0667 209.2 71.8C215.067 65.5333 221.133 59.3333 227.4 53.2C228.2 53.7333 229.267 54.0667 230.6 54.2C231.933 54.3333 233.133 54.5333 234.2 54.8C235 54.9333 235.733 55.3333 236.4 56C237.067 56.5333 237.4 57.4667 237.4 58.8C237.4 60.5333 236.867 62.5333 235.8 64.8C234.467 68 232.533 71.9333 230 76.6C227.6 81.1333 225 85.8667 222.2 90.8C219.533 95.6 217 100.133 214.6 104.4C212.2 108.533 210.267 111.867 208.8 114.4C205.6 120 204 124.933 204 129.2C204 132.933 205.4 134.8 208.2 134.8C209.933 134.8 212.267 133.933 215.2 132.2C216 131.667 217.133 130.533 218.6 128.8C220.2 127.067 221.467 125.4 222.4 123.8C222.8 123.133 223.133 122.867 223.4 123C223.8 123.133 223.867 123.533 223.6 124.2C222.933 125.533 222.2 126.933 221.4 128.4C220.733 129.733 220 131.067 219.2 132.4C218 134.533 216.8 136.2 215.6 137.4C214.4 138.733 213.133 139.4 211.8 139.4ZM270.739 74.2C268.739 73.4 267.006 72.1333 265.539 70.4C264.206 68.5333 263.739 66.5333 264.139 64.4C264.406 63.2 264.739 62.4667 265.139 62.2C265.672 61.8 267.072 61.5333 269.339 61.4L279.939 59.6C281.139 59.3333 281.739 59.3333 281.739 59.6C281.739 60.1333 281.272 60.5333 280.339 60.8C278.206 61.3333 276.339 62.1333 274.739 63.2C273.139 64.2667 271.806 65.7333 270.739 67.6C270.472 68 270.339 68.6 270.339 69.4C270.339 70.2 270.472 71 270.739 71.8C271.139 72.4667 271.539 73.0667 271.939 73.6C272.339 74.1333 272.339 74.4 271.939 74.4C271.672 74.4 271.272 74.3333 270.739 74.2ZM247.339 134.8C242.806 134.8 239.606 133.4 237.739 130.6C236.006 127.667 235.139 124.2 235.139 120.2C235.139 117.133 235.539 114 236.339 110.8C237.272 107.6 238.406 104.733 239.739 102.2C238.539 101.667 238.139 101.2 238.539 100.8C239.472 99.4667 240.606 97.8 241.939 95.8C243.406 93.8 244.872 91.8 246.339 89.8C248.072 87.5333 249.606 85.6667 250.939 84.2C252.406 82.7333 253.939 82 255.539 82C256.606 82 257.539 82.3333 258.339 83C259.272 83.6667 260.206 84.3333 261.139 85C258.072 88.2 255.006 92.1333 251.939 96.8C248.872 101.467 246.339 106.4 244.339 111.6C242.472 116.667 241.539 121.667 241.539 126.6C241.539 128.733 242.006 130.267 242.939 131.2C244.006 132 245.272 132.4 246.739 132.4C249.806 132.4 252.539 131.333 254.939 129.2C257.472 126.933 260.406 123.667 263.739 119.4C267.206 115 270.472 110.4 273.539 105.6C274.339 104.533 274.939 103.933 275.339 103.8C275.872 103.667 275.939 103.933 275.539 104.6C274.472 106.733 272.806 109.467 270.539 112.8C268.406 116 266.139 119.2 263.739 122.4C261.339 125.6 259.272 128.067 257.539 129.8C255.806 131.533 254.006 132.8 252.139 133.6C250.406 134.4 248.806 134.8 247.339 134.8ZM279.309 132C276.243 132 273.443 131.267 270.909 129.8C268.509 128.2 267.309 125.933 267.309 123C267.309 121.933 267.509 120.8 267.909 119.6C268.309 118.267 268.843 117.267 269.509 116.6C269.509 118.067 269.976 119.4 270.909 120.6C271.843 121.667 272.909 122.533 274.109 123.2C275.309 123.733 276.443 124.133 277.509 124.4C278.709 124.667 279.776 124.8 280.709 124.8C283.776 124.8 286.176 123.733 287.909 121.6C289.643 119.333 290.509 116.933 290.509 114.4C290.509 112.133 289.909 110.133 288.709 108.4C287.909 107.333 287.043 106.4 286.109 105.6C285.176 104.667 284.176 103.733 283.109 102.8C282.309 102.133 281.576 101.333 280.909 100.4C280.243 99.4667 279.376 98.0667 278.309 96.2L269.909 109C267.909 111.933 266.043 114.667 264.309 117.2C262.576 119.733 260.309 122.667 257.509 126C256.709 126.933 256.109 127.4 255.709 127.4C255.176 127.267 255.243 126.733 255.909 125.8C258.976 121.933 261.509 118.6 263.509 115.8C265.509 113 267.843 109.6 270.509 105.6C271.843 103.733 273.176 101.6 274.509 99.2C275.976 96.8 277.043 94.3333 277.709 91.8C277.709 87.6667 279.109 84.0667 281.909 81C284.709 77.8 288.109 75.4 292.109 73.8C296.243 72.0667 300.109 71.4 303.709 71.8C304.509 71.8 305.376 72.4 306.309 73.6C307.243 74.8 308.043 76.1333 308.709 77.6C309.376 78.9333 309.709 80 309.709 80.8C309.709 81.2 309.576 81.4 309.309 81.4C308.909 81.4 308.376 81.1333 307.709 80.6C306.643 79.6667 305.043 79.2 302.909 79.2C300.109 79.2 297.043 80 293.709 81.6C290.376 83.0667 287.443 85 284.909 87.4C282.509 89.6667 281.309 92.0667 281.309 94.6C281.309 96.4667 282.043 98.2 283.509 99.8C285.109 101.4 286.843 102.933 288.709 104.4C290.709 105.733 292.309 107.2 293.509 108.8C294.843 110.267 295.776 111.733 296.309 113.2C296.843 114.667 297.109 116.133 297.109 117.6C297.109 120.133 296.309 122.467 294.709 124.6C293.109 126.6 291.176 128.267 288.909 129.6C286.109 131.2 282.909 132 279.309 132ZM318.177 132C315.11 132 312.31 131.267 309.777 129.8C307.377 128.2 306.177 125.933 306.177 123C306.177 121.933 306.377 120.8 306.777 119.6C307.177 118.267 307.71 117.267 308.377 116.6C308.377 118.067 308.843 119.4 309.777 120.6C310.71 121.667 311.777 122.533 312.977 123.2C314.177 123.733 315.31 124.133 316.377 124.4C317.577 124.667 318.643 124.8 319.577 124.8C322.643 124.8 325.043 123.733 326.777 121.6C328.51 119.333 329.377 116.933 329.377 114.4C329.377 112.133 328.777 110.133 327.577 108.4C326.777 107.333 325.91 106.4 324.977 105.6C324.043 104.667 323.043 103.733 321.977 102.8C321.177 102.133 320.443 101.333 319.777 100.4C319.11 99.4667 318.243 98.0667 317.177 96.2L308.777 109C306.777 111.933 304.91 114.667 303.177 117.2C301.443 119.733 299.177 122.667 296.377 126C295.577 126.933 294.977 127.4 294.577 127.4C294.043 127.267 294.11 126.733 294.777 125.8C297.843 121.933 300.377 118.6 302.377 115.8C304.377 113 306.71 109.6 309.377 105.6C310.71 103.733 312.043 101.6 313.377 99.2C314.843 96.8 315.91 94.3333 316.577 91.8C316.577 87.6667 317.977 84.0667 320.777 81C323.577 77.8 326.977 75.4 330.977 73.8C335.11 72.0667 338.977 71.4 342.577 71.8C343.377 71.8 344.243 72.4 345.177 73.6C346.11 74.8 346.91 76.1333 347.577 77.6C348.243 78.9333 348.577 80 348.577 80.8C348.577 81.2 348.443 81.4 348.177 81.4C347.777 81.4 347.243 81.1333 346.577 80.6C345.51 79.6667 343.91 79.2 341.777 79.2C338.977 79.2 335.91 80 332.577 81.6C329.243 83.0667 326.31 85 323.777 87.4C321.377 89.6667 320.177 92.0667 320.177 94.6C320.177 96.4667 320.91 98.2 322.377 99.8C323.977 101.4 325.71 102.933 327.577 104.4C329.577 105.733 331.177 107.2 332.377 108.8C333.71 110.267 334.643 111.733 335.177 113.2C335.71 114.667 335.977 116.133 335.977 117.6C335.977 120.133 335.177 122.467 333.577 124.6C331.977 126.6 330.043 128.267 327.777 129.6C324.977 131.2 321.777 132 318.177 132ZM383.044 74.2C381.044 73.4 379.31 72.1333 377.844 70.4C376.51 68.5333 376.044 66.5333 376.444 64.4C376.71 63.2 377.044 62.4667 377.444 62.2C377.977 61.8 379.377 61.5333 381.644 61.4L392.244 59.6C393.444 59.3333 394.044 59.3333 394.044 59.6C394.044 60.1333 393.577 60.5333 392.644 60.8C390.51 61.3333 388.644 62.1333 387.044 63.2C385.444 64.2667 384.11 65.7333 383.044 67.6C382.777 68 382.644 68.6 382.644 69.4C382.644 70.2 382.777 71 383.044 71.8C383.444 72.4667 383.844 73.0667 384.244 73.6C384.644 74.1333 384.644 74.4 384.244 74.4C383.977 74.4 383.577 74.3333 383.044 74.2ZM359.644 134.8C355.11 134.8 351.91 133.4 350.044 130.6C348.31 127.667 347.444 124.2 347.444 120.2C347.444 117.133 347.844 114 348.644 110.8C349.577 107.6 350.71 104.733 352.044 102.2C350.844 101.667 350.444 101.2 350.844 100.8C351.777 99.4667 352.91 97.8 354.244 95.8C355.71 93.8 357.177 91.8 358.644 89.8C360.377 87.5333 361.91 85.6667 363.244 84.2C364.71 82.7333 366.244 82 367.844 82C368.91 82 369.844 82.3333 370.644 83C371.577 83.6667 372.51 84.3333 373.444 85C370.377 88.2 367.31 92.1333 364.244 96.8C361.177 101.467 358.644 106.4 356.644 111.6C354.777 116.667 353.844 121.667 353.844 126.6C353.844 128.733 354.31 130.267 355.244 131.2C356.31 132 357.577 132.4 359.044 132.4C362.11 132.4 364.844 131.333 367.244 129.2C369.777 126.933 372.71 123.667 376.044 119.4C379.51 115 382.777 110.4 385.844 105.6C386.644 104.533 387.244 103.933 387.644 103.8C388.177 103.667 388.244 103.933 387.844 104.6C386.777 106.733 385.11 109.467 382.844 112.8C380.71 116 378.444 119.2 376.044 122.4C373.644 125.6 371.577 128.067 369.844 129.8C368.11 131.533 366.31 132.8 364.444 133.6C362.71 134.4 361.11 134.8 359.644 134.8ZM393.214 135C389.347 135 386.014 133.533 383.214 130.6C380.547 127.667 379.214 123.667 379.214 118.6C379.214 116.733 379.414 114.733 379.814 112.6C380.347 110.333 381.081 108 382.014 105.6C384.014 100.933 386.747 96.4667 390.214 92.2C393.814 87.9333 397.681 84.4 401.814 81.6C405.947 78.8 409.881 77.4 413.614 77.4C414.014 77.4 414.481 77.6 415.014 78C415.547 78.2667 415.947 78.5333 416.214 78.8L417.214 79.8C418.814 81.4 420.347 82.3333 421.814 82.6C423.414 82.8667 424.681 83.6667 425.614 85C427.214 87.5333 428.014 90.6 428.014 94.2C428.014 99.1333 426.481 104.533 423.414 110.4C420.481 116.133 416.481 121.333 411.414 126C408.881 128.267 406.081 130.333 403.014 132.2C399.947 134.067 396.681 135 393.214 135ZM394.614 132.8C397.814 132.8 401.081 131.733 404.414 129.6C407.747 127.333 410.814 124.4 413.614 120.8C416.547 117.2 419.014 113.4 421.014 109.4C423.147 105.4 424.481 101.6 425.014 98C425.147 97.3333 425.214 96.6667 425.214 96C425.347 95.2 425.414 94.5333 425.414 94C425.414 90.4 424.547 87.8 422.814 86.2C421.081 84.4667 419.014 83.6 416.614 83.6C414.081 83.6 411.481 84.4 408.814 86C406.281 87.4667 403.081 90.5333 399.214 95.2C395.347 99.7333 391.881 104.467 388.814 109.4C386.014 113.8 384.614 118.067 384.614 122.2C384.614 125.133 385.414 127.667 387.014 129.8C388.747 131.8 391.281 132.8 394.614 132.8ZM465.358 134.6C461.891 134.6 459.424 133.6 457.958 131.6C456.624 129.467 455.958 127 455.958 124.2C455.958 121 456.424 117.8 457.358 114.6C458.424 111.267 459.558 108.267 460.758 105.6C462.091 102.8 463.158 100.667 463.958 99.2C466.224 94.9333 467.358 92.1333 467.358 90.8C467.358 89.3333 466.691 88.8667 465.358 89.4C464.291 89.8 462.824 90.9333 460.958 92.8C459.091 94.6667 457.158 96.8 455.158 99.2C453.158 101.6 451.358 103.8 449.758 105.8C448.291 107.8 447.358 109.133 446.958 109.8C443.224 115.133 440.624 119.533 439.158 123C437.691 126.467 436.624 129 435.958 130.6C435.691 131.267 434.958 131.6 433.758 131.6C432.558 131.6 431.358 131.133 430.158 130.2C428.958 129.133 428.358 127.6 428.358 125.6C428.358 124.533 428.958 122.667 430.158 120C431.358 117.2 432.824 113.933 434.558 110.2C436.158 106.6 437.758 103 439.358 99.4C440.958 95.6667 442.224 92.7333 443.158 90.6C442.224 89.8 441.758 89.2 441.758 88.8C441.758 88.4 441.824 88.0667 441.958 87.8C442.224 87.1333 442.758 86.0667 443.558 84.6C444.358 83 445.158 81.4667 445.958 80C446.758 78.4 447.291 77.4 447.558 77C447.958 76.7333 448.958 76.2667 450.558 75.6C452.291 74.9333 453.958 74.6 455.558 74.6H456.358C457.958 74.6 458.758 75.0667 458.758 76C458.758 76.9333 458.291 78.1333 457.358 79.6C456.958 80.2667 456.024 82 454.558 84.8C453.091 87.4667 451.424 90.5333 449.558 94C447.691 97.4667 445.958 100.8 444.358 104C442.891 107.067 441.824 109.4 441.158 111C440.758 112.2 440.558 113.4 440.558 114.6C440.691 115.667 441.024 115.8 441.558 115C445.291 109.4 448.758 104.6 451.958 100.6C455.158 96.6 458.358 92.8667 461.558 89.4C464.758 85.9333 468.291 82.3333 472.158 78.6C473.491 79.1333 474.891 79.4 476.358 79.4C477.824 79.4 479.091 79.8 480.158 80.6C480.691 81 480.958 81.6667 480.958 82.6C480.958 84.4667 479.824 87.2667 477.558 91C475.424 94.6 473.024 98.6667 470.358 103.2C468.358 106.667 466.358 110.667 464.358 115.2C462.358 119.733 461.358 123.667 461.358 127C461.358 128.733 461.624 130.2 462.158 131.4C462.824 132.467 463.824 133 465.158 133C466.358 133 467.691 132.533 469.158 131.6C470.224 130.933 472.558 128.733 476.158 125C479.758 121.133 483.691 115.933 487.958 109.4C488.358 109 488.624 108.8 488.758 108.8C489.024 108.8 489.158 108.933 489.158 109.2C489.158 109.467 488.958 110 488.558 110.8C484.158 118.267 479.758 124.133 475.358 128.4C471.091 132.533 467.758 134.6 465.358 134.6Z" fill="#0012A5" fill-opacity="0.06"/>
</svg>
