<svg width="682" height="508" viewBox="0 0 682 508" fill="none" xmlns="http://www.w3.org/2000/svg">
<path d="M203.823 195.683H194.643V446.758H203.823V195.683Z" fill="#D7D7FF"/>
<path d="M240.119 227.572H230.939V446.772H240.119V227.572Z" fill="#D7D7FF"/>
<path d="M276.074 259.447H266.894V446.772H276.074V259.447Z" fill="#D7D7FF"/>
<path d="M312.042 238.192H302.863V446.772H312.042V238.192Z" fill="#D7D7FF"/>
<path d="M348.011 227.572H338.831V446.772H348.011V227.572Z" fill="#D7D7FF"/>
<path d="M383.966 206.317H374.786V446.772H383.966V206.317Z" fill="#D7D7FF"/>
<path d="M419.935 216.938H410.755V446.758H419.935V216.938Z" fill="#D7D7FF"/>
<path d="M455.903 206.317H446.724V446.772H455.903V206.317Z" fill="#D7D7FF"/>
<path d="M491.858 185.062H482.679V446.772H491.858V185.062Z" fill="#D7D7FF"/>
<path d="M527.827 163.808H518.647V446.758H527.827V163.808Z" fill="#D7D7FF"/>
<path d="M563.782 142.566H554.602V446.772H563.782V142.566Z" fill="#D7D7FF"/>
<path d="M271.491 244.505C270.972 244.505 270.454 244.314 270.058 243.918L193.211 169.029C192.406 168.238 192.392 166.943 193.17 166.139C193.961 165.334 195.257 165.307 196.061 166.098L271.668 239.787L378.155 162.158C379.001 161.531 380.188 161.667 380.897 162.458L415.761 201.859L560.072 119.226C561.054 118.667 562.295 119.008 562.868 119.989C563.428 120.971 563.087 122.225 562.104 122.784L416.347 206.249C415.502 206.726 414.438 206.549 413.797 205.826L379.069 166.562L272.677 244.123C272.336 244.382 271.913 244.505 271.491 244.505Z" fill="#D7D7FF"/>
<path d="M262.775 445.204L195.707 180.836L199.062 167.625H195.57V92.1084H186.568V167.625H183.076L186.431 180.836L119.35 445.204H128.639L186.568 216.869V446.595H195.57V216.869L253.499 445.204H262.775Z" fill="#D7D7FF"/>
<path d="M241.601 178.234C248.191 150.337 230.908 122.382 202.998 115.795C175.088 109.208 147.119 126.483 140.529 154.38C133.939 182.277 151.222 210.232 179.132 216.819C207.042 223.406 235.01 206.131 241.601 178.234Z" fill="#D7D7FF"/>
<path d="M191.069 210.598C215.552 210.598 235.399 190.76 235.399 166.289C235.399 141.817 215.552 121.979 191.069 121.979C166.586 121.979 146.739 141.817 146.739 166.289C146.739 190.76 166.586 210.598 191.069 210.598Z" fill="#5EB9F7"/>
<path d="M191.069 200.972C210.233 200.972 225.769 185.444 225.769 166.288C225.769 147.133 210.233 131.604 191.069 131.604C171.905 131.604 156.369 147.133 156.369 166.288C156.369 185.444 171.905 200.972 191.069 200.972Z" fill="#D7D7FF"/>
<path d="M201.958 192.551C216.469 186.543 223.36 169.914 217.349 155.41C211.338 140.905 194.702 134.018 180.19 140.026C165.679 146.034 158.788 162.663 164.799 177.167C170.81 191.672 187.447 198.559 201.958 192.551Z" fill="#FFD600"/>
<path d="M210.273 170.84C212.778 160.237 206.209 149.612 195.601 147.108C184.992 144.604 174.362 151.17 171.857 161.774C169.352 172.377 175.921 183.002 186.529 185.506C197.138 188.01 207.768 181.444 210.273 170.84Z" fill="#D7D7FF"/>
<path d="M196.498 179.376C203.729 176.382 207.163 168.095 204.168 160.867C201.172 153.639 192.882 150.207 185.651 153.201C178.419 156.195 174.985 164.481 177.981 171.709C180.976 178.937 189.266 182.37 196.498 179.376Z" fill="#D7D7FF"/>
<path d="M197.494 166.289C197.494 169.833 194.616 172.71 191.069 172.71C187.523 172.71 184.645 169.833 184.645 166.289C184.645 162.744 187.523 159.867 191.069 159.867C194.616 159.867 197.494 162.744 197.494 166.289Z" fill="#FF9C9C"/>
<path d="M124.424 123.479L125.829 132.873L116.063 136.158L125.829 141.284L135.568 137.862L133.863 128.605L124.424 123.479Z" fill="#D7D7FF"/>
<path d="M191.069 166.289L121.191 130.5" stroke="#1C145E" stroke-width="2" stroke-miterlimit="10" stroke-linecap="round" stroke-linejoin="round"/>
<path d="M287.231 107.992C287.231 101.352 292.619 95.9669 299.262 95.9669C300.462 95.9669 301.621 96.1441 302.712 96.4713C302.535 95.2715 302.44 94.0309 302.44 92.7766C302.44 78.7204 313.843 67.3227 327.906 67.3227C329.515 67.3227 331.07 67.4727 332.598 67.759C336.512 61.3513 343.551 57.0703 351.598 57.0703C363.792 57.0703 373.681 66.8592 373.859 79.0067C373.981 79.0067 374.104 78.9931 374.227 78.9931C385.562 78.9931 394.742 88.1685 394.742 99.498C394.742 110.827 385.562 120.003 374.227 120.003H298.88L298.893 119.989C292.442 119.812 287.231 114.508 287.231 107.992Z" fill="#D7D7FF"/>
<path d="M501.229 101.393C501.229 98.1891 503.821 95.5987 507.026 95.5987C507.599 95.5987 508.158 95.6805 508.69 95.8441C508.608 95.2578 508.554 94.6716 508.554 94.0717C508.554 87.2958 514.051 81.8015 520.83 81.8015C521.607 81.8015 522.357 81.8697 523.094 82.006C524.976 78.9248 528.373 76.8525 532.246 76.8525C538.125 76.8525 542.886 81.5698 542.981 87.4186C543.036 87.4186 543.104 87.4049 543.158 87.4049C548.614 87.4049 553.047 91.8222 553.047 97.2892C553.047 102.743 548.628 107.174 543.158 107.174H506.849L506.862 107.16C503.739 107.092 501.229 104.529 501.229 101.393Z" fill="#D7D7FF"/>
<path d="M129.198 108.605C129.198 106.451 130.944 104.706 133.099 104.706C133.495 104.706 133.863 104.76 134.218 104.869C134.163 104.474 134.136 104.079 134.136 103.67C134.136 99.116 137.832 95.4213 142.388 95.4213C142.906 95.4213 143.411 95.4758 143.902 95.5576C145.17 93.4853 147.448 92.0947 150.054 92.0947C154.009 92.0947 157.201 95.2713 157.269 99.1978C157.31 99.1978 157.351 99.1978 157.392 99.1978C161.061 99.1978 164.035 102.17 164.035 105.837C164.035 109.505 161.061 112.477 157.392 112.477H132.976C130.889 112.436 129.198 110.718 129.198 108.605Z" fill="#D7D7FF"/>
<path d="M341 508C487.061 508 605.466 501.09 605.466 492.567C605.466 484.043 487.061 477.134 341 477.134C194.939 477.134 76.5341 484.043 76.5341 492.567C76.5341 501.09 194.939 508 341 508Z" fill="#DAF0FF"/>
<path d="M188.75 232.602L198.107 227.258C198.107 227.258 201.708 221.709 202.786 221.45C203.863 221.191 215.73 221.45 215.73 221.45C215.73 221.45 213.93 229.125 213.752 230.652C213.575 232.166 202.24 230.652 202.24 230.652L193.061 236.119L188.75 232.602Z" fill="#C0AB93"/>
<path d="M101.604 481.278L91.8109 479.328C91.4562 479.328 91.1425 479.587 91.0607 479.928L88.4282 489.717C88.2781 490.412 88.7282 491.108 89.4239 491.257C89.5194 491.271 89.6148 491.285 89.7103 491.285C93.1749 491.23 95.6846 491.012 100.036 491.012C102.709 491.012 110.784 491.298 114.481 491.298C118.177 491.298 118.654 487.645 117.14 487.317C110.348 485.845 105.246 483.786 103.078 481.85C102.682 481.469 102.15 481.264 101.604 481.278Z" fill="#263238"/>
<path d="M221.459 480.992H210.765C210.411 480.992 210.097 481.251 210.015 481.592L208.283 489.431C208.133 490.126 208.583 490.822 209.278 490.971C209.374 490.985 209.469 490.999 209.565 490.999C213.029 490.944 215.539 490.726 219.89 490.726C222.564 490.726 230.639 491.012 234.335 491.012C238.032 491.012 238.509 487.359 236.995 487.031C230.202 485.559 225.101 483.5 222.932 481.564C222.537 481.183 222.005 480.992 221.459 480.992Z" fill="#263238"/>
<path d="M120.482 300.92L165.781 289.44C176.051 311.854 213.739 403.881 222.878 480.447L207.546 484.332C207.546 484.332 180.416 371.419 157.651 338.48C157.651 338.48 156.424 388.611 153.968 395.891C151.936 401.89 105.328 482.164 105.328 482.164L90.1877 480.447C90.1877 480.447 128.175 398.509 130.48 388.311C132.062 381.358 125.133 330.287 125.133 330.287C123.906 325.719 122.092 306.878 122.092 306.878C122.092 306.878 120.7 301.861 120.482 300.92Z" fill="#1C145E"/>
<path opacity="0.2" d="M157.638 338.48C160.993 343.334 164.348 349.605 167.663 356.776C164.539 339.135 154.814 322.052 154.814 322.052L157.638 338.48Z" fill="black"/>
<path opacity="0.3" d="M120.482 300.92L165.781 289.44C176.051 311.854 213.739 403.881 222.878 480.447L207.546 484.332C207.546 484.332 180.416 371.419 157.651 338.48C157.651 338.48 156.424 388.611 153.968 395.891C151.936 401.89 105.328 482.164 105.328 482.164L90.1877 480.447C90.1877 480.447 128.175 398.509 130.48 388.311C132.062 381.358 125.133 330.287 125.133 330.287C123.906 325.719 122.092 306.878 122.092 306.878C122.092 306.878 120.7 301.861 120.482 300.92Z" fill="#1C145E"/>
<path d="M199.212 233.379C199.212 233.379 178.561 247.312 173.119 248.049C170.95 248.348 166.476 247.612 161.852 246.631C154.841 245.131 147.53 243.031 147.53 243.031L146.616 236.119L145.648 228.73C147.285 228.184 168.645 236.964 171.837 238.219C175.029 239.473 195.666 227.257 195.666 227.257L199.212 233.379Z" fill="#D81919"/>
<path d="M135.35 297.729L136.686 302.965L122.064 306.864L120.7 301.438L135.35 297.729Z" fill="black"/>
<path d="M158.415 291.88L159.684 296.843L138.31 302.542L136.973 297.32L158.415 291.88Z" fill="black"/>
<path d="M168.099 294.607L161.293 296.421L160.038 291.472L166.285 289.89L168.099 294.607Z" fill="black"/>
<path d="M146.798 300.276L155.233 298.138L153.691 292.059L145.256 294.197L146.798 300.276Z" fill="white"/>
<path d="M166.272 289.876L120.687 301.438C118.463 295.425 116.199 289.372 113.989 283.469C112.366 279.147 110.77 274.907 109.215 270.803C108.82 269.753 108.424 268.717 108.029 267.695C107.565 266.468 107.101 265.254 106.651 264.068C105.642 261.41 104.673 258.847 103.732 256.392C102.859 254.102 102.014 251.907 101.222 249.835C100.813 248.771 100.418 247.735 100.036 246.726C99.231 244.627 98.4808 242.663 97.7852 240.864L145.648 228.73C161.443 256.256 166.272 289.876 166.272 289.876Z" fill="#D81919"/>
<path d="M115.176 239.691C120.1 242.036 129.198 237.878 129.198 237.878C129.198 237.878 132.213 234.552 130.412 233.079C126.757 233.556 126.988 232.357 125.665 230.489C124.902 229.398 124.424 228.048 124.11 226.617C123.933 225.867 123.824 225.09 123.728 224.313L109.393 219.173C112.653 224.435 117.713 234.402 115.176 239.691Z" fill="#C0AB93"/>
<path opacity="0.2" d="M113.758 223.876C116.336 230.761 122.705 230.966 125.652 230.502C124.888 229.412 124.41 228.062 124.097 226.63L113.758 223.876Z" fill="black"/>
<path d="M132.472 197.795C132.472 197.795 136.209 209.111 130.808 214.633C125.393 220.154 121.723 198.518 121.723 198.518L132.472 197.795Z" fill="#263238"/>
<path d="M114.467 226.903C118.191 230.693 123.265 230.993 127.275 228.935C129.853 227.612 131.994 225.308 133.058 222.336C133.208 221.954 133.317 221.545 133.426 221.122C135.254 213.501 134.108 200.918 125.802 197.55C119.896 195.096 113.103 197.905 110.661 203.808C109.952 205.485 109.666 207.312 109.802 209.125C110.293 217.591 110.184 222.581 114.467 226.903Z" fill="#C0AB93"/>
<path d="M122.665 211.51C122.61 212.192 123.019 212.751 123.483 212.751C123.947 212.751 124.301 212.192 124.301 211.497C124.301 210.815 123.933 210.242 123.483 210.256C123.033 210.256 122.665 210.815 122.665 211.51Z" fill="#263238"/>
<path d="M130.467 211.511C130.412 212.192 130.835 212.765 131.285 212.751C131.735 212.751 132.103 212.192 132.103 211.497C132.103 210.802 131.735 210.256 131.285 210.256C130.835 210.256 130.467 210.856 130.467 211.511Z" fill="#263238"/>
<path d="M127.984 211.852C128.803 213.965 129.907 215.942 131.271 217.755C130.317 218.437 129.103 218.668 127.957 218.368L127.984 211.852Z" fill="#D58745"/>
<path d="M133.317 208.307C133.181 208.375 133.017 208.361 132.895 208.266C132.076 207.639 131.012 207.434 130.016 207.721C129.812 207.802 129.58 207.693 129.498 207.489C129.416 207.284 129.525 207.053 129.73 206.971C130.971 206.589 132.335 206.821 133.358 207.612C133.536 207.734 133.59 207.993 133.467 208.171C133.467 208.171 133.467 208.171 133.467 208.184C133.426 208.239 133.372 208.28 133.317 208.307Z" fill="#263238"/>
<path d="M121.123 208.402C121.041 208.402 120.96 208.375 120.891 208.32C120.741 208.157 120.755 207.898 120.919 207.748C121.887 206.862 123.224 206.507 124.492 206.793C124.711 206.848 124.833 207.08 124.765 207.284C124.697 207.489 124.479 207.612 124.26 207.557C123.251 207.366 122.201 207.652 121.437 208.361C121.369 208.43 121.246 208.443 121.123 208.402Z" fill="#263238"/>
<path d="M116.022 198.572L116.84 200.14C114.085 201.19 114.794 204.407 115.422 205.839C116.772 208.92 115.217 213.869 112.898 215.928C112.898 215.928 112.762 214.578 111.63 214.946C110.498 215.328 111.152 222.39 113.539 225.662C113.539 225.662 110.007 222.772 107.756 215.423C105.669 208.634 105.178 202.921 106.46 200.195L116.022 198.572Z" fill="#263238"/>
<path d="M106.092 216.078C107.033 218 108.697 219.459 110.716 220.154C113.389 221.054 114.876 218.695 114.262 216.078C113.689 213.76 111.63 210.433 108.874 210.692C106.119 210.952 104.973 213.706 106.092 216.078Z" fill="#C0AB93"/>
<path d="M115.94 230.311C119.95 233.12 127.766 234.033 131.599 228.934C135.432 223.835 134.204 215.696 134.204 215.696C133.577 218.559 131.749 220.686 131.749 220.686C129.594 218.082 125.897 219.541 125.897 219.541C125.897 219.541 124.547 217.755 122.76 217.577C120.973 217.4 115.981 217.7 115.981 217.7C114.358 216.691 114.303 212.124 114.303 212.124L113.321 212.942C113.321 212.928 111.916 227.503 115.94 230.311Z" fill="#263238"/>
<path d="M126.661 201.449C126.661 201.449 136.154 196.814 135.077 192.192C133.999 187.556 131.176 192.833 131.176 192.833C131.176 192.833 132.458 189.315 129.948 188.824C127.439 188.334 128.271 190.433 126.92 191.783C125.57 193.133 112.325 191.169 108.056 193.814C103.787 196.459 107.047 205.607 107.047 205.607C107.047 205.607 115.053 196.936 126.661 201.449Z" fill="#263238"/>
<path opacity="0.2" d="M115.94 230.311C119.95 233.12 127.766 234.033 131.599 228.934C135.432 223.835 134.204 215.696 134.204 215.696C133.577 218.559 131.749 220.686 131.749 220.686C129.594 218.082 125.897 219.541 125.897 219.541C125.897 219.541 124.547 217.755 122.76 217.577C120.973 217.4 115.981 217.7 115.981 217.7C114.358 216.691 114.303 212.124 114.303 212.124L113.321 212.942C113.321 212.928 111.916 227.503 115.94 230.311Z" fill="white"/>
<path d="M126.306 222.158C125.447 223.194 124.329 225.253 124.329 225.253C124.124 225.185 123.919 225.117 123.715 225.035C120.96 224.04 120.005 222.676 119.787 221.449C119.664 220.781 119.787 220.154 119.937 219.663C120.114 219.091 120.359 218.736 120.359 218.736C121.505 220.141 124.001 221.259 125.365 221.804C125.938 222.036 126.306 222.158 126.306 222.158Z" fill="#263238"/>
<path d="M125.379 221.804L124.779 222.704C122.187 221.763 120.482 220.754 119.95 219.677C120.128 219.104 120.373 218.75 120.373 218.75C121.505 220.141 124.015 221.259 125.379 221.804Z" fill="white"/>
<path d="M123.715 225.035C120.96 224.04 120.005 222.676 119.786 221.449C120.714 221.817 121.792 222.376 122.637 223.153C123.278 223.753 123.578 224.421 123.715 225.035Z" fill="#DE5753"/>
<path d="M130.985 237.905L130.18 244.967L144.911 276.338L143.452 280.497L138.637 278.261L128.134 246.276L120.414 241.041L126.034 237.973L130.985 237.905Z" fill="white"/>
<path d="M115.504 233.079L125.256 237.101L125.652 230.502L132.84 232.275L133.454 242.323L126.525 239.501L123.647 245.936L111.357 237.715L115.504 233.079Z" fill="#263238"/>
<path opacity="0.2" d="M115.504 233.079L125.256 237.101L125.652 230.502L132.84 232.275L133.454 242.323L126.525 239.501L123.647 245.936L111.357 237.715L115.504 233.079Z" fill="white"/>
<path opacity="0.2" d="M106.651 264.068C105.642 261.41 104.673 258.846 103.732 256.392C102.859 254.102 102.014 251.907 101.222 249.835C100.813 248.771 100.418 247.735 100.036 246.726C101.468 246.058 104.878 246.454 105.846 248.131C109.393 254.279 106.651 264.068 106.651 264.068Z" fill="black"/>
<path opacity="0.2" d="M123.742 270.994C123.742 270.994 122.692 278.793 113.99 283.469C112.366 279.147 110.77 274.907 109.216 270.803C108.82 269.754 108.424 268.717 108.029 267.695C107.565 266.468 107.101 265.254 106.651 264.068L122.446 266.072L123.742 270.994Z" fill="black"/>
<path opacity="0.2" d="M161.852 246.631C154.841 245.131 147.53 243.031 147.53 243.031L146.616 236.119C146.616 236.119 159.506 237.496 161.852 246.631Z" fill="black"/>
<path d="M97.7852 407.698C97.1987 407.698 96.6121 407.439 96.2029 406.948C95.48 406.075 95.6164 404.78 96.4894 404.071C119.255 385.393 118.818 356.108 118.395 327.791C118.082 306.441 117.781 286.277 127.82 272.548C141.924 253.284 198.653 222.704 208.065 221.831C214.775 221.163 419.894 164.189 527.404 134.154C528.496 133.854 529.614 134.481 529.928 135.572C530.228 136.663 529.6 137.794 528.509 138.094C515.783 141.652 216.876 225.131 208.447 225.908C200.358 226.658 144.202 257.115 131.135 274.975C121.901 287.586 122.187 307.096 122.501 327.737C122.91 355.658 123.387 387.302 99.1083 407.234C98.6991 407.548 98.249 407.698 97.7852 407.698Z" fill="#263238"/>
<g opacity="0.4">
<path d="M528.509 138.094C526.368 138.694 516.097 141.557 500.465 145.92C423.331 167.433 215.444 225.267 208.433 225.908C200.344 226.658 144.188 257.115 131.121 274.975C121.887 287.586 122.174 307.096 122.487 327.737C122.896 355.658 123.374 387.316 99.081 407.234C98.6991 407.548 98.249 407.698 97.7852 407.698C97.1987 407.698 96.6121 407.452 96.2029 406.961C95.48 406.089 95.6164 404.794 96.4894 404.071C119.255 385.393 118.818 356.122 118.395 327.805C118.068 306.455 117.768 286.277 127.82 272.562C141.924 253.284 198.653 222.704 208.051 221.831C214.38 221.204 396.092 170.787 507.149 139.812C514.214 137.835 520.98 135.954 527.404 134.154C528.496 133.854 529.614 134.481 529.928 135.572C530.228 136.663 529.587 137.794 528.509 138.094Z" fill="white"/>
</g>
<path opacity="0.2" d="M528.509 138.094C526.368 138.694 516.097 141.557 500.465 145.92C502.279 143.711 504.626 141.652 507.149 139.812C514.214 137.835 520.98 135.954 527.404 134.154C528.496 133.854 529.614 134.481 529.928 135.572C530.228 136.663 529.587 137.794 528.509 138.094Z" fill="black"/>
<path d="M111.725 266.999L122.46 266.072C122.46 266.072 128.052 262.528 129.144 262.759C130.235 262.978 140.901 268.172 140.901 268.172C140.901 268.172 136.045 274.389 135.254 275.698C134.45 277.006 124.806 270.885 124.806 270.885L114.18 272.017L111.725 266.999Z" fill="#C0AB93"/>
<path d="M97.7852 240.85C92.9157 244.34 80.2168 272.671 81.5672 277.061C82.9176 281.437 122.392 272.807 122.392 272.807L120.646 265.418H99.422L104.469 257.469C104.469 257.469 107.579 254.443 105.669 247.408C104.291 242.336 97.7852 240.85 97.7852 240.85Z" fill="#D81919"/>
<path d="M509.058 243.7L500.97 239.882C500.97 239.882 496.933 232.043 495.678 230.802C494.436 229.562 488.68 234.415 488.68 235.247C488.68 236.079 492.881 244.013 493.973 244.477C495.064 244.94 498.869 244.477 498.869 244.477L506.562 248.199L509.058 243.7Z" fill="#C89791"/>
<path d="M527.936 195.219L529.559 189.425C529.559 189.425 532.124 181.872 531.851 180.127C531.578 178.368 529.9 174.06 529.9 174.06C529.9 174.06 522.808 182.69 522.808 183.767C522.808 184.844 525.631 188.757 525.631 188.757L524.294 195.232H527.936V195.219Z" fill="#C89791"/>
<path d="M534.17 238.369C534.17 238.369 528.059 230.775 526.259 223.713C524.458 216.651 529.9 193.678 529.9 193.678L524.158 192.151C524.158 192.151 517.392 215.615 517.106 224.177C516.82 232.738 529.614 257.865 529.614 257.865L534.17 238.369Z" fill="#D81919"/>
<path opacity="0.2" d="M530.473 254.143L529.6 257.852C529.6 257.852 525.208 249.208 521.621 240.319C524.581 242.418 527.745 245.786 529.682 251.103C530.037 252.112 530.296 253.121 530.473 254.143Z" fill="black"/>
<path d="M566.524 254.975C566.469 256.365 566.265 257.947 565.937 259.692C565.31 263.087 564.246 267.109 563.032 271.54C562.391 273.871 561.723 276.366 561.041 278.997C557.999 290.817 556.348 295.521 554.098 310.613L510.927 300.375C510.927 300.375 513.942 281.847 521.539 262.541C522.808 259.297 524.226 256.025 525.754 252.807C528.195 247.722 530.992 242.786 534.142 238.355C534.142 238.355 541.126 244.736 563.059 248.553C565.746 249.031 566.66 251.335 566.524 254.975Z" fill="#D81919"/>
<path opacity="0.2" d="M561.095 250.094C561.041 251.484 566.265 257.947 565.951 259.692C565.364 260.087 564.669 260.523 563.878 261.001C549.283 269.508 530.105 265.186 521.566 262.555C522.835 259.31 525.604 253.311 527.145 250.094L537.389 252.371C537.375 252.357 554.152 248.553 561.095 250.094Z" fill="black"/>
<path d="M543.54 240.987C545.109 240.387 557.985 243.591 557.03 243.863C556.075 244.136 551.274 258.86 544.563 257.756C537.852 256.652 537.948 243.114 543.54 240.987Z" fill="white"/>
<path d="M485.243 482.232L477.141 483.991L472.408 465.354L480.524 463.609L485.243 482.232Z" fill="#C89791"/>
<path d="M475.122 480.61H485.202C485.543 480.61 485.829 480.842 485.911 481.183L487.548 488.572C487.685 489.226 487.262 489.881 486.607 490.017C486.525 490.031 486.43 490.044 486.334 490.044C483.074 489.99 480.701 489.785 476.609 489.785C474.085 489.785 466.474 490.044 462.996 490.044C459.518 490.044 459.054 486.609 460.486 486.295C466.884 484.905 471.698 482.969 473.744 481.142C474.113 480.787 474.604 480.596 475.122 480.61Z" fill="#263238"/>
<path d="M472.38 482.069C471.821 482.11 471.248 481.96 470.785 481.646C470.471 481.387 470.321 480.992 470.375 480.596C470.375 480.365 470.498 480.147 470.716 480.051C471.63 479.574 474.317 481.224 474.604 481.414C474.672 481.455 474.713 481.524 474.699 481.605C474.686 481.687 474.631 481.755 474.549 481.769C473.84 481.933 473.103 482.042 472.38 482.069ZM471.139 480.337C471.057 480.324 470.962 480.351 470.88 480.392C470.826 480.392 470.757 480.46 470.757 480.624C470.73 480.883 470.826 481.155 471.016 481.333C471.944 481.755 473.008 481.81 473.976 481.483C473.117 480.924 472.149 480.542 471.139 480.337Z" fill="#1C145E"/>
<path d="M474.495 481.769H474.399C473.54 481.305 471.889 479.479 472.053 478.606C472.108 478.306 472.38 478.088 472.681 478.088C472.981 478.047 473.281 478.142 473.513 478.347C474.467 479.124 474.672 481.51 474.686 481.633C474.686 481.701 474.645 481.769 474.59 481.81C474.563 481.796 474.522 481.783 474.495 481.769ZM472.831 478.401H472.735C472.476 478.401 472.462 478.551 472.449 478.606C472.34 479.138 473.403 480.528 474.249 481.169C474.195 480.228 473.854 479.315 473.267 478.579C473.144 478.47 472.994 478.401 472.831 478.401Z" fill="#1C145E"/>
<path d="M554.466 311.8C554.466 311.8 547.482 345.147 531.101 354.104C529.218 355.141 527.186 355.85 525.044 356.15C525.044 356.15 508.445 362.925 494.095 369.415C485.366 373.355 477.468 377.213 474.645 379.354C467.17 385.053 485.488 473.793 485.488 473.793L473.035 473.943C473.035 473.943 446.86 395.346 451.279 374.732C455.699 354.104 502.607 322.529 502.607 322.529L509.85 302.665L554.466 311.8Z" fill="#263238"/>
<path opacity="0.2" d="M531.101 354.105C529.218 355.141 527.186 355.85 525.045 356.15C525.045 356.15 508.445 362.925 494.095 369.415C503.33 352.455 519.793 341.425 519.793 341.425L531.101 354.105Z" fill="black"/>
<path d="M589.534 482.232L581.432 483.991L576.699 465.354L584.815 463.609L589.534 482.232Z" fill="#C89791"/>
<path d="M579.414 480.61H589.494C589.835 480.61 590.121 480.842 590.203 481.183L591.84 488.572C591.976 489.226 591.553 489.881 590.898 490.017C590.817 490.031 590.721 490.044 590.626 490.044C587.366 489.99 584.992 489.785 580.9 489.785C578.377 489.785 570.766 490.044 567.288 490.044C563.809 490.044 563.346 486.609 564.778 486.295C571.175 484.905 575.99 482.969 578.036 481.142C578.404 480.787 578.895 480.596 579.414 480.61Z" fill="#263238"/>
<path d="M576.672 482.069C576.113 482.11 575.54 481.96 575.076 481.646C574.762 481.387 574.612 480.992 574.667 480.596C574.667 480.365 574.79 480.147 575.008 480.051C575.922 479.574 578.609 481.224 578.895 481.414C578.963 481.455 579.004 481.524 578.991 481.605C578.977 481.687 578.922 481.755 578.841 481.769C578.131 481.933 577.395 482.042 576.672 482.069ZM575.431 480.337C575.349 480.324 575.253 480.351 575.171 480.392C575.117 480.392 575.049 480.46 575.049 480.624C575.021 480.883 575.117 481.155 575.308 481.333C576.235 481.755 577.299 481.81 578.268 481.483C577.408 480.924 576.44 480.542 575.431 480.337Z" fill="#1C145E"/>
<path d="M578.786 481.769H578.691C577.831 481.305 576.181 479.479 576.345 478.606C576.399 478.306 576.672 478.088 576.972 478.088C577.272 478.047 577.572 478.142 577.804 478.347C578.759 479.124 578.963 481.51 578.977 481.633C578.977 481.701 578.936 481.769 578.882 481.81C578.854 481.796 578.813 481.783 578.786 481.769ZM577.122 478.401H577.027C576.767 478.401 576.754 478.551 576.74 478.606C576.631 479.138 577.695 480.528 578.541 481.169C578.486 480.228 578.145 479.315 577.559 478.579C577.436 478.47 577.286 478.401 577.122 478.401Z" fill="#1C145E"/>
<path d="M557.262 248.049C555.23 249.358 545.873 248.894 545.873 248.894L541.453 253.639L541.044 245.772C541.044 245.772 538.112 244.545 538.903 243.7C541.563 243.7 543.349 242.977 544.55 241.805C546.446 239.951 546.828 236.979 546.8 234.007C546.8 233.979 546.8 233.938 546.8 233.897L546.814 233.884L554.821 229.78L560.345 226.944C557.781 232.602 554.057 243.127 557.262 248.049Z" fill="#C89791"/>
<path opacity="0.2" d="M557.494 231.702C554.848 238.383 547.919 241.368 544.55 241.805C546.446 239.95 546.828 236.978 546.8 234.006C546.814 233.965 546.814 233.924 546.814 233.883L554.821 229.78C554.807 230.898 557.903 230.68 557.494 231.702Z" fill="black"/>
<path d="M562.582 231.43C562.582 231.43 567.792 234.211 569.525 230.898C571.257 227.585 568.788 227.449 571.325 226.276C573.862 225.104 577.504 224.286 576.672 221.804C575.84 219.337 573.276 219.037 576.126 216.405C578.991 213.774 579.618 209.82 575.335 209.084C571.052 208.348 572.689 205.049 572.471 203.59C572.253 202.131 569.852 201.272 567.247 201.818C564.641 202.363 563.55 198.505 561.954 197.305C560.345 196.105 558.122 197.591 557.535 199.214C556.948 200.836 555.407 198.668 553.102 198.409C550.797 198.15 551.356 200.55 550.633 202.799C549.91 205.049 548.519 203.59 546.882 205.444C545.245 207.271 545.095 219.937 562.582 231.43Z" fill="#263238"/>
<path d="M564.846 223.659C560.945 229.794 558.722 233.843 554.33 235.833C553.77 236.092 553.157 236.324 552.502 236.515C543.963 239.024 536.925 230.803 539.176 222.677C539.558 221.314 540.103 219.868 540.812 218.396C543.854 212.002 549.747 205.444 556.771 206.317C562.936 207.026 567.356 212.588 566.647 218.764C566.428 220.496 565.814 222.173 564.846 223.659Z" fill="#C89791"/>
<path d="M552.829 219.595C552.543 220.195 551.943 220.482 551.547 220.264C551.165 220.045 551.124 219.405 551.438 218.818C551.752 218.232 552.338 217.932 552.72 218.15C553.102 218.368 553.157 219.009 552.829 219.595Z" fill="#263238"/>
<path d="M546.214 215.915C545.927 216.515 545.314 216.801 544.932 216.583C544.55 216.365 544.509 215.724 544.822 215.138C545.136 214.551 545.723 214.252 546.105 214.47C546.5 214.688 546.528 215.369 546.214 215.915Z" fill="#263238"/>
<path d="M548.164 217.374C546.473 218.778 544.591 219.937 542.586 220.823C543.077 221.859 543.99 222.622 545.109 222.909L548.164 217.374Z" fill="#D8C1C1"/>
<path d="M556.785 218.041C556.635 218.055 556.498 218 556.403 217.878C555.83 217.06 554.916 216.555 553.92 216.514C553.702 216.528 553.525 216.364 553.511 216.146C553.498 215.928 553.661 215.751 553.879 215.737C555.148 215.751 556.321 216.378 557.044 217.414C557.18 217.578 557.139 217.823 556.976 217.96C556.976 217.96 556.976 217.96 556.962 217.96C556.908 218 556.839 218.028 556.785 218.041Z" fill="#263238"/>
<path d="M546.691 226.563C548.56 227.176 550.606 226.835 552.175 225.649C552.256 225.567 552.27 225.445 552.202 225.363C552.134 225.281 552.011 225.267 551.915 225.336C551.915 225.336 551.902 225.336 551.902 225.349C550.429 226.413 548.533 226.713 546.8 226.167C546.691 226.126 546.582 226.181 546.541 226.29C546.541 226.304 546.541 226.304 546.541 226.317C546.5 226.426 546.555 226.535 546.664 226.576C546.678 226.549 546.678 226.549 546.691 226.563Z" fill="#263238"/>
<path d="M545.627 210.27C545.6 210.202 545.586 210.12 545.614 210.038C545.709 209.847 545.941 209.752 546.132 209.847C546.132 209.847 546.132 209.847 546.146 209.847C547.305 210.366 548.137 211.415 548.369 212.656C548.396 212.874 548.246 213.065 548.028 213.092C547.81 213.12 547.619 212.97 547.591 212.751C547.373 211.77 546.705 210.965 545.791 210.556C545.695 210.488 545.641 210.379 545.627 210.27Z" fill="#263238"/>
<path d="M551.22 206.876C553.211 207.121 554.193 209.548 554.193 209.548C554.193 209.548 559.063 211.361 561.15 212.806C563.237 214.251 562.841 216.828 562.759 217.483C562.677 218.137 561.081 218.737 561.081 218.737C561.081 218.737 558.122 225.69 557.33 227.612L557.74 234.02C557.74 234.02 565.596 229.63 570.248 219.95C574.899 210.27 555.489 201.75 555.489 201.75L551.22 206.876Z" fill="#263238"/>
<path d="M563.673 233.366C561.859 234.361 559.717 234.593 557.726 234.006C555.094 233.216 555.244 230.516 557.194 228.798C558.94 227.285 562.445 225.799 564.478 227.558C566.524 229.303 565.896 232.125 563.673 233.366Z" fill="#C89791"/>
<path d="M557.03 243.863L546.186 246.986L541.508 253.312L542.79 245.568C542.79 245.568 541.617 243.782 543.54 240.987L536.939 242.35L532.956 249.017L540.703 247.19L541.249 254.92L545.75 249.603L549.446 255.438L560.427 248.472L557.03 243.863Z" fill="#1C145E"/>
<path opacity="0.2" d="M557.03 243.863L546.186 246.986L541.508 253.312L542.79 245.568C542.79 245.568 541.617 243.782 543.54 240.987L536.939 242.35L532.956 249.017L540.703 247.19L541.249 254.92L545.75 249.603L549.446 255.438L560.427 248.472L557.03 243.863Z" fill="white"/>
<path d="M511.514 295.917L509.822 302.651L554.452 311.8L555.121 304.315L511.514 295.917Z" fill="black"/>
<path d="M531.442 299.434C531.087 298.929 521.157 296.802 520.216 297.511C520.216 297.511 518.279 304.151 518.62 304.846C518.947 305.542 528.618 306.891 529.505 307.082C530.405 307.259 531.796 299.938 531.442 299.434ZM528.714 306.196C527.977 306.046 520.039 304.928 519.766 304.355C519.493 303.783 521.089 298.329 521.089 298.329C521.853 297.743 530.023 299.502 530.31 299.911C530.596 300.334 529.45 306.346 528.714 306.196Z" fill="white"/>
<path d="M529.082 301.711L527.118 301.302C526.75 301.22 526.368 301.452 526.272 301.806L526.259 301.833C526.136 302.256 526.395 302.679 526.831 302.76L528.809 303.129C529.218 303.21 529.614 302.924 529.669 302.501C529.723 302.133 529.464 301.779 529.082 301.711Z" fill="white"/>
<path d="M554.452 311.799C554.452 311.799 555.312 362.271 553.893 376.968C552.474 391.665 589.207 472.28 589.207 472.28H577.299C577.299 472.28 541.222 413.274 532.956 395.114C524.676 376.954 518.579 333.64 518.579 333.64L554.452 311.799Z" fill="#263238"/>
<path d="M566.674 251.471C564.832 247.299 536.557 253.475 534.006 252.752C531.455 252.03 504.912 240.918 504.912 240.918L502.62 246.876C502.62 246.876 526.422 260.523 531.619 262.65C536.816 264.791 557.658 263.768 562.936 261.464C568.215 259.16 567.765 253.911 566.674 251.471Z" fill="#D81919"/>
<path d="M561.668 143.111L553.102 88.5361L507.981 120.439L523.026 126.792C508.54 159.976 461.55 257.197 380.692 328.882C277.41 420.459 132.908 465.504 131.462 465.954L139.455 492.021C145.593 490.14 290.968 444.89 398.793 349.278C484.725 273.094 533.038 172.601 548.205 137.426L561.668 143.111Z" fill="#10B35E"/>
<path opacity="0.4" d="M553.484 133.568L553.102 88.5361L507.981 120.439L523.026 126.792C508.54 159.976 461.55 257.197 380.692 328.882C277.41 420.459 132.908 465.504 131.462 465.954L133.999 482.478C140.137 480.596 285.512 439.437 393.337 343.825C479.269 267.64 524.854 165.784 540.021 130.609L553.484 133.568Z" fill="white"/>
<path d="M545.6 145.429C545.395 145.429 545.177 145.402 544.973 145.334L518.756 136.867C517.679 136.526 517.092 135.367 517.433 134.29C517.774 133.213 518.934 132.627 520.011 132.968L546.227 141.434C547.305 141.775 547.891 142.934 547.55 144.011C547.264 144.884 546.473 145.429 545.6 145.429Z" fill="#263238"/>
<g opacity="0.4">
<path d="M545.6 145.429C545.395 145.429 545.177 145.402 544.973 145.334L518.756 136.867C517.679 136.526 517.092 135.367 517.433 134.29C517.774 133.213 518.934 132.627 520.011 132.968L546.227 141.434C547.305 141.775 547.891 142.934 547.55 144.011C547.264 144.884 546.473 145.429 545.6 145.429Z" fill="white"/>
</g>
<path d="M231.785 400.649C230.652 400.649 229.739 399.736 229.739 398.604C229.739 333.518 248.657 324.956 252.204 323.933L312.411 281.874C312.451 281.847 312.492 281.819 312.533 281.792L543.568 144.829C544.536 144.257 545.791 144.57 546.378 145.538C546.95 146.506 546.637 147.761 545.668 148.347L314.688 285.269L254.236 327.492C253.977 327.669 253.69 327.792 253.39 327.833C253.24 327.86 233.831 332.618 233.831 398.604C233.831 399.736 232.917 400.649 231.785 400.649Z" fill="#263238"/>
<g opacity="0.4">
<path d="M231.785 400.649C230.652 400.649 229.739 399.736 229.739 398.604C229.739 333.518 248.657 324.956 252.204 323.933L312.411 281.874C312.451 281.847 312.492 281.819 312.533 281.792L543.568 144.829C544.536 144.257 545.791 144.57 546.378 145.538C546.95 146.506 546.637 147.761 545.668 148.347L314.688 285.269L254.236 327.492C253.977 327.669 253.69 327.792 253.39 327.833C253.24 327.86 233.831 332.618 233.831 398.604C233.831 399.736 232.917 400.649 231.785 400.649Z" fill="white"/>
</g>
<path d="M247.498 333.109C247.498 333.109 236.981 339.885 228.988 341.984C226.601 342.625 224.446 342.83 222.864 342.325C216.917 340.444 220.45 328.937 223.996 321.67C224.569 320.484 225.142 319.421 225.674 318.521L236.068 324.942C236.068 324.942 229.766 333.927 230.489 334.459C231.212 335.004 240.923 329.605 241.455 329.428C242.001 329.251 247.498 333.109 247.498 333.109Z" fill="#1C145E"/>
<path opacity="0.2" d="M247.498 333.109C247.498 333.109 236.981 339.885 228.988 341.984C226.547 335.058 224.937 327.287 223.996 321.67C224.569 320.484 225.142 319.421 225.674 318.521L236.068 324.942C236.068 324.942 229.766 333.927 230.489 334.459C231.212 335.004 240.923 329.605 241.455 329.428C242.001 329.251 247.498 333.109 247.498 333.109Z" fill="black"/>
<path d="M298.743 293.531L304.909 288.036C304.909 288.036 306.232 284.192 306.886 283.633C307.541 283.087 318.767 282.201 318.767 282.201C318.767 282.201 318.985 288.145 318.112 289.686C317.225 291.227 308.059 291.881 308.059 291.881L303.149 296.612L298.743 293.531Z" fill="#EEC1BB"/>
<path d="M331.561 422.777C329.802 448.081 325.096 483.991 325.096 483.991L319.04 485.327C319.04 485.327 313.447 455.265 314.334 427.371C314.538 421.086 315.07 414.91 316.052 409.225C316.052 409.225 295.074 401.167 280.507 393.955C273.55 390.52 268.053 387.261 267.003 385.162C263.757 378.686 278.515 363.471 278.515 363.471C278.979 363.839 287.886 369.51 298.252 376.232C312.015 385.148 328.342 395.919 331.016 398.604C332.57 400.172 332.434 410.152 331.561 422.777Z" fill="#EEC1BB"/>
<path opacity="0.2" d="M331.561 422.777C325.178 425.108 319.19 426.513 314.334 427.371C314.538 421.086 315.07 414.91 316.052 409.225C316.052 409.225 295.074 401.168 280.507 393.956L298.252 376.232C312.015 385.148 328.342 395.919 331.016 398.605C332.57 400.172 332.434 410.152 331.561 422.777Z" fill="black"/>
<path d="M284.339 359.271C284.339 359.271 342.541 392.715 350.453 400.268C358.364 407.821 404.03 478.415 404.03 478.415L400.184 482.083C400.184 482.083 362.251 449.539 347.138 418.618L284.339 388.325V359.271Z" fill="#EEC1BB"/>
<path d="M240.119 297.525C240.214 297.58 240.31 297.648 240.419 297.689C241.796 298.412 243.365 299.066 245.056 299.202C249.803 299.625 252.858 298.548 254.604 296.189C254.618 296.189 254.618 296.189 254.618 296.189C257.046 292.672 256.991 287.041 255.655 280.442C255.054 277.416 254.236 274.812 253.104 272.862C253.09 272.849 253.077 272.767 253.063 272.753C253.008 272.671 252.967 272.562 252.913 272.48C251.249 269.767 248.903 268.186 245.452 267.859C244.265 267.75 242.928 267.777 241.455 267.968C228.456 269.658 229.125 291.499 240.119 297.525Z" fill="#EEC1BB"/>
<path opacity="0.2" d="M240.419 297.689C241.796 298.412 243.338 298.875 245.043 299.025C249.789 299.448 252.817 298.221 254.577 295.835C252.395 296.653 249.38 297.266 246.243 296.312C244.251 295.712 242.233 296.435 240.419 297.689Z" fill="black"/>
<path d="M239.546 308.35C238.414 312.004 243.092 313.94 243.092 313.94C251.276 311.268 253.104 307.205 253.104 307.205C246.829 303.197 249.598 293.667 249.598 293.667L248.207 294.212L238.645 295.221C238.645 295.221 240.814 300.457 241.046 301.615C241.046 301.629 241.06 301.643 241.06 301.643C242.301 307.764 239.546 308.35 239.546 308.35Z" fill="#C0AB93"/>
<path d="M253.118 272.78C253.118 272.78 255.109 281.792 247.02 286.905C247.02 286.905 244.633 296.885 239.191 297.784C231.771 299.011 223.737 289.332 224.801 278.193C226.192 263.741 247.225 259.651 253.118 272.78Z" fill="#263238"/>
<path d="M251.031 283.687C250.826 282.269 249.353 280.034 247.184 280.674C244.947 281.329 244.47 287.137 250.267 287.614C251.099 287.682 251.453 286.646 251.031 283.687Z" fill="#C0AB93"/>
<path d="M401.493 474.052L395.219 478.892C394.946 479.097 394.864 479.465 395.014 479.765L398.206 486.582C398.493 487.182 399.229 487.441 399.829 487.154C399.911 487.113 399.993 487.073 400.061 487.018C402.598 485 402.68 484.687 405.913 482.192C407.904 480.665 414.056 476.247 416.797 474.134C419.539 472.021 417.807 469.035 416.497 469.649C410.619 472.43 405.654 473.834 402.926 473.63C402.407 473.589 401.903 473.739 401.493 474.052Z" fill="#263238"/>
<path d="M402.857 473.943C402.789 473.971 402.694 473.957 402.639 473.902C402.585 473.848 402.571 473.766 402.598 473.698C402.721 473.371 403.826 470.44 404.835 470.262C405.067 470.208 405.299 470.303 405.435 470.494C405.722 470.78 405.845 471.189 405.749 471.571C405.572 472.103 405.217 472.566 404.753 472.866C404.167 473.289 403.539 473.657 402.857 473.943ZM403.144 473.384C404.099 473.057 404.903 472.376 405.381 471.476C405.435 471.217 405.34 470.944 405.163 470.753C405.053 470.63 404.958 470.617 404.917 470.644C404.835 470.658 404.753 470.699 404.685 470.753C404.017 471.53 403.485 472.416 403.144 473.384Z" fill="#1C145E"/>
<path d="M402.844 474.012C402.776 474.012 402.707 473.984 402.666 473.93C402.598 473.834 401.316 471.83 401.603 470.631C401.657 470.331 401.848 470.072 402.107 469.922C402.353 469.731 402.694 469.744 402.926 469.949C403.594 470.535 403.389 472.976 403.007 473.862L402.939 473.916C402.898 473.957 402.871 473.984 402.844 474.012ZM401.93 470.658C401.916 471.599 402.203 472.526 402.735 473.303C403.021 472.28 403.007 470.549 402.598 470.194C402.557 470.153 402.448 470.058 402.257 470.208L402.189 470.262C402.053 470.358 401.971 470.494 401.93 470.658Z" fill="#1C145E"/>
<path d="M326.16 479.901L318.235 480.065C317.894 480.078 317.607 480.31 317.539 480.651L316.052 488.027C315.93 488.681 316.366 489.322 317.021 489.445C317.103 489.458 317.198 489.472 317.294 489.472C320.54 489.349 320.799 489.145 324.864 489.063C327.374 489.008 334.944 489.117 338.408 489.049C341.873 488.981 342.255 485.545 340.836 485.259C334.453 484.005 329.624 482.178 327.551 480.392C327.169 480.065 326.678 479.887 326.16 479.901Z" fill="#263238"/>
<path d="M326.869 480.842C326.787 480.828 326.733 480.76 326.719 480.678C326.705 480.596 326.746 480.528 326.814 480.487C327.101 480.296 329.733 478.606 330.661 479.056C330.879 479.151 331.016 479.356 331.002 479.601C331.07 479.997 330.92 480.392 330.62 480.665C330.156 480.992 329.611 481.155 329.038 481.115C328.301 481.101 327.578 481.005 326.869 480.842ZM327.428 480.556C328.397 480.855 329.447 480.787 330.361 480.351C330.552 480.174 330.647 479.901 330.606 479.642C330.593 479.478 330.524 479.41 330.47 479.41C330.388 479.369 330.306 479.356 330.211 479.369C329.229 479.588 328.274 479.983 327.428 480.556Z" fill="#1C145E"/>
<path d="M326.814 480.883C326.76 480.842 326.719 480.774 326.719 480.705C326.733 480.596 326.883 478.211 327.824 477.42C328.042 477.215 328.342 477.12 328.642 477.147C328.942 477.134 329.215 477.352 329.283 477.652C329.474 478.524 327.851 480.365 327.019 480.842H326.924C326.883 480.869 326.842 480.883 326.814 480.883ZM328.069 477.652C327.51 478.401 327.183 479.315 327.142 480.256C327.974 479.601 328.997 478.197 328.888 477.665C328.874 477.611 328.847 477.461 328.601 477.474H328.506C328.342 477.474 328.192 477.543 328.069 477.652Z" fill="#1C145E"/>
<path d="M282.716 350.314L253.84 362.434C241.905 332.781 225.674 318.521 225.674 318.521C237.24 304.655 258.601 298.275 258.601 298.275C261.574 300.565 264.248 303.715 266.662 307.328C269.022 310.9 271.109 314.921 272.936 319.039C279.593 334.049 282.716 350.314 282.716 350.314Z" fill="#1C145E"/>
<path d="M252.845 278.752C252.845 278.752 261.915 269.508 253.227 263.427C244.524 257.347 235.917 265.473 235.917 265.473C235.917 265.473 215.28 270.667 219.809 284.355C224.337 298.057 227.229 299.202 220.75 306.305C214.271 313.422 207.669 323.92 214.434 330.532C221.186 337.144 244.524 330.055 251.535 319.911C258.533 309.782 245.779 288.281 252.845 278.752Z" fill="#263238"/>
<path d="M280.616 341.425L249.271 352.182C249.271 352.182 256.2 386.334 261.233 392.033C266.266 397.746 299.916 424.195 304.677 422.109C309.437 420.023 340.986 392.033 340.986 392.033L287.558 355.413L280.616 341.425Z" fill="#263238"/>
<path d="M276.046 347.847L282.716 345.638L281.066 342.325L274.75 344.547L276.046 347.847Z" fill="black"/>
<path d="M256.105 351.119L249.271 353.518L250.185 356.422L256.868 354.213L256.105 351.119Z" fill="black"/>
<path d="M258.301 353.737L274.71 348.297L273.482 344.998L257.4 350.655L258.301 353.737Z" fill="black"/>
<path opacity="0.2" d="M272.936 319.039C266.035 318.234 262.147 307.859 262.147 307.859C263.743 307.573 265.243 307.409 266.662 307.328C269.022 310.9 271.109 314.922 272.936 319.039Z" fill="black"/>
<path d="M258.601 298.275C266.103 297.157 282.88 303.238 284.339 303.169C285.799 303.101 302.126 290.313 302.126 290.313L306.354 294.035C306.354 294.035 289.304 311.622 285.799 311.799C282.293 311.99 263.948 310.627 263.948 310.627C263.948 310.627 259.474 309.032 258.601 304.983C257.741 300.934 258.601 298.275 258.601 298.275Z" fill="#1C145E"/>
</svg>
