<svg width="454" height="146" viewBox="0 0 454 146" fill="none" xmlns="http://www.w3.org/2000/svg">
<path d="M33 146C32.6 146 32.4 145.4 32.4 144.2C32.4 143.133 32.4 142.533 32.4 142.4C32.4 140.667 32.7333 139.133 33.4 137.8C34.2 136.6 35 135.6 35.8 134.8C38.2 132.533 41.4667 130.667 45.6 129.2C49.7333 127.6 55.2667 126.133 62.2 124.8C57.8 124.267 54.6667 122.6 52.8 119.8C50.9333 117 50 113.8 50 110.2C50 105.8 51.1333 100.6 53.4 94.6C55.8 88.4667 58.9333 82 62.8 75.2C66.6667 68.4 71 61.6667 75.8 55C80.7333 48.2 85.6667 41.8667 90.6 36C95.6667 30 100.467 24.9333 105 20.8C100.867 20.9333 94.6 21.0667 86.2 21.2C77.8 21.2 66.5333 22.4667 52.4 25C36.6667 27.6667 25.4667 30.9333 18.8 34.8C12.1333 38.5333 8.8 43.4 8.8 49.4C8.8 50.0667 9 50.6 9.4 51C9.93333 51.2667 10.3333 51.7333 10.6 52.4C11 52.8 11.2 53.1333 11.2 53.4C11.2 53.8 11 54 10.6 54C10.2 54 9.66667 53.8 9 53.4C6.86667 51.9333 4.86667 50.0667 3 47.8C1.26667 45.4 0.4 43.3333 0.4 41.6C0.4 38.2667 2.86667 35.0667 7.8 32C12.8667 28.8 19.4 26 27.4 23.6C35.5333 21.2 44.2 19.4667 53.4 18.4C58.2 17.7333 64.2667 17.2 71.6 16.8C79.0667 16.2667 87.1333 16 95.8 16C98.0667 16 100.267 16 102.4 16C104.667 16 106.933 16.0667 109.2 16.2C108.533 15.5333 108.2 14.6667 108.2 13.6C108.2 11.6 109.4 9.59999 111.8 7.59999C113.267 6.13333 114.867 4.93333 116.6 3.99999C118.333 2.93332 120 1.73332 121.6 0.399991C122.667 0.933325 123.733 1.26666 124.8 1.39999C125.867 1.39999 126.933 1.53333 128 1.8C129.867 2.59999 130.8 3.66666 130.8 4.99999C130.8 5.93333 130.267 7.13333 129.2 8.59999C128.267 9.93332 127 11.3333 125.4 12.8C123.933 14.1333 122.4 15.5333 120.8 17C128.133 17.8 134.867 18.8 141 20C147.267 21.2 152 22.7333 155.2 24.6C157.467 25.9333 158.933 27.2 159.6 28.4C160.4 29.6 160.867 30.6 161 31.4C161.267 32.0667 161.333 32.9333 161.2 34C161.2 34.9333 161.533 35.5333 162.2 35.8C163.8 38.6 164.6 41.3333 164.6 44C164.6 48 163.067 51.7333 160 55.2C156.933 58.6667 153 61.8667 148.2 64.8C143.4 67.6 138.2 70.1333 132.6 72.4C127 74.5333 121.667 76.4 116.6 78C111.533 79.4667 107.267 80.5333 103.8 81.2C101.533 81.7333 98.2667 82.2667 94 82.8C89.7333 83.3333 85.8 84.0667 82.2 85C81.6667 85.1333 81 85.3333 80.2 85.6C79.4 85.7333 78.6 85.9333 77.8 86.2C77.1333 86.3333 76.5333 86.5333 76 86.8C75.4667 86.9333 75.0667 87 74.8 87C73.4667 87 72.3333 87 71.4 87C70.6 86.8667 70.1333 86.6 70 86.2C69.8667 85.9333 70.2667 85.7333 71.2 85.6C72.1333 85.4667 73.6667 85.2 75.8 84.8C81.5333 83.7333 88.2667 82.1333 96 80C103.867 77.8667 111.8 75.1333 119.8 71.8C127.933 68.3333 135.333 64.3333 142 59.8C148.8 55.2667 153.867 50.1333 157.2 44.4C157.867 43.2 158.467 41.8667 159 40.4C159.533 38.9333 159.8 37.5333 159.8 36.2C159.8 32.3333 157.667 29.4 153.4 27.4C149.267 25.2667 143.933 23.8 137.4 23C130.867 22.0667 124.067 21.5333 117 21.4C113 24.8667 108.333 29.4 103 35C97.6667 40.6 92.2 46.8 86.6 53.6C81.1333 60.4 76 67.4 71.2 74.6C66.5333 81.8 62.7333 88.7333 59.8 95.4C56.8667 102.067 55.4 108 55.4 113.2C55.4 116.267 55.7333 118.533 56.4 120C57.0667 121.333 58.2 122.267 59.8 122.8C61.4 123.333 63.4667 123.867 66 124.4C70.9333 123.6 74.8667 123.2 77.8 123.2C80.7333 123.067 83.7333 123 86.8 123C87.0667 123 87.1333 123.267 87 123.8C87 124.2 86.8667 124.4 86.6 124.4C82.0667 124.4 76.6 125.2 70.2 126.8C63.8 128.267 57.3333 130.533 50.8 133.6C44.2667 136.8 38.4667 140.867 33.4 145.8C33.2667 145.933 33.1333 146 33 146ZM145.269 135.2C142.469 135.2 140.335 133.867 138.869 131.2C137.535 128.4 136.869 126 136.869 124C136.869 119.333 138.269 114.467 141.069 109.4C143.869 104.333 147.402 99.5333 151.669 95C156.069 90.4667 160.669 86.8 165.469 84C170.269 81.2 174.735 79.8 178.869 79.8C180.069 79.8 181.402 80.3333 182.869 81.4C184.469 82.3333 185.935 83.8667 187.269 86C187.535 86.2667 187.869 86.8667 188.269 87.8C188.669 88.6 188.669 89.3333 188.269 90L188.069 89.6C187.802 88.9333 187.202 88.4 186.269 88C185.335 87.4667 183.935 87.2 182.069 87.2C179.002 87.2 175.535 88.2667 171.669 90.4C167.935 92.5333 164.135 95.4 160.269 99C156.535 102.6 153.135 106.533 150.069 110.8C147.002 115.067 144.735 119.4 143.269 123.8C142.335 126.067 141.869 128 141.869 129.6C141.869 131.6 142.602 132.6 144.069 132.6C145.135 132.6 146.402 132.067 147.869 131C150.669 128.867 153.602 126.133 156.669 122.8C159.735 119.467 162.669 116 165.469 112.4C168.402 108.8 170.935 105.467 173.069 102.4C175.335 99.3333 176.935 97.0667 177.869 95.6C178.269 95.0667 178.735 94.8 179.269 94.8C179.935 94.6667 180.735 94.6 181.669 94.6C184.335 94.6 186.002 95.0667 186.669 96C187.469 96.8 187.535 97.6667 186.869 98.6C185.135 101.133 183.269 104.067 181.269 107.4C179.402 110.733 177.735 114 176.269 117.2C174.935 120.4 174.269 123.267 174.269 125.8C174.269 127.8 175.069 128.8 176.669 128.8C178.135 128.8 179.735 127.933 181.469 126.2C183.069 124.733 184.935 122.6 187.069 119.8C189.335 117 191.535 114.067 193.669 111C195.935 107.933 197.802 105.267 199.269 103C199.802 102.333 200.202 102.067 200.469 102.2C200.869 102.2 200.869 102.6 200.469 103.4C198.335 106.733 196.135 110.2 193.869 113.8C191.602 117.267 189.202 120.533 186.669 123.6C181.869 129.733 178.269 132.8 175.869 132.8C173.735 132.8 171.735 132.133 169.869 130.8C168.002 129.467 167.069 127.533 167.069 125C167.069 122.333 167.602 119.267 168.669 115.8C169.869 112.2 170.935 109.4 171.869 107.4C169.069 111.667 165.869 115.933 162.269 120.2C158.669 124.467 155.269 128.067 152.069 131C149.002 133.8 146.735 135.2 145.269 135.2ZM214.775 135.6C211.575 135.6 209.375 134.533 208.175 132.4C206.975 130.133 206.575 127.733 206.975 125.2C207.508 121.733 208.442 118.933 209.775 116.8C211.242 114.667 212.975 112.333 214.975 109.8C216.575 107.533 218.108 105.2 219.575 102.8C221.042 100.4 221.242 99 220.175 98.6C219.508 99.1333 218.375 99.7333 216.775 100.4C215.175 101.067 213.508 101.4 211.775 101.4C210.308 101.4 208.842 101.067 207.375 100.4C206.042 99.7333 205.042 98.5333 204.375 96.8C202.642 100 200.508 103.533 197.975 107.4C195.575 111.133 193.108 114.733 190.575 118.2C188.175 121.667 186.042 124.533 184.175 126.8C183.642 127.333 183.175 127.533 182.775 127.4C182.242 127.267 182.175 126.933 182.575 126.4C185.642 122.533 189.175 117.667 193.175 111.8C197.175 105.933 200.842 99.6 204.175 92.8C207.508 85.8667 209.575 79.1333 210.375 72.6C214.908 74.7333 217.175 77.4667 217.175 80.8C217.175 83.3333 216.108 85.9333 213.975 88.6C211.842 91.1333 209.042 93.4667 205.575 95.6C207.308 98.1333 209.508 99.4 212.175 99.4C214.175 99.4 216.175 98.8 218.175 97.6C220.308 96.2667 221.975 94.8 223.175 93.2C224.242 92 225.108 91.2 225.775 90.8C226.575 90.4 227.242 90.2 227.775 90.2C229.642 90.2 230.975 90.8 231.775 92C232.708 93.0667 232.842 94.2667 232.175 95.6C229.775 98.9333 227.042 103.067 223.975 108C220.908 112.8 218.175 117.333 215.775 121.6C215.375 122.133 214.842 123.333 214.175 125.2C213.508 127.067 213.175 128.733 213.175 130.2C213.175 132.2 213.975 133.2 215.575 133.2C217.442 133.2 219.575 132.133 221.975 130C224.375 127.733 226.775 125.067 229.175 122C231.575 118.8 233.708 115.733 235.575 112.8C237.575 109.867 239.042 107.733 239.975 106.4C240.642 105.2 241.175 104.6 241.575 104.6C241.708 104.6 241.775 104.733 241.775 105C241.775 105.533 241.575 106.133 241.175 106.8C239.175 110.133 237.042 113.467 234.775 116.8C232.508 120.133 230.242 123.333 227.975 126.4C225.842 129.2 223.642 131.4 221.375 133C219.242 134.733 217.042 135.6 214.775 135.6ZM248.339 136C245.539 136 243.072 134.867 240.939 132.6C238.939 130.333 237.939 127.067 237.939 122.8C237.939 119.6 238.672 115.733 240.139 111.2C241.739 106.533 243.672 101.667 245.939 96.6C248.339 91.4 250.806 86.5333 253.339 82C256.006 77.3333 258.339 73.4 260.339 70.2C258.072 70.2 256.072 70.2 254.339 70.2C252.606 70.0667 251.206 70.0667 250.139 70.2C249.206 70.2 248.606 70.0667 248.339 69.8C248.206 69.4 248.206 69.1333 248.339 69C248.339 68.6 248.539 68.0667 248.939 67.4C249.472 66.7333 249.939 66.4 250.339 66.4H262.539C263.206 65.6 264.072 64.2 265.139 62.2C266.339 60.2 267.539 58.0667 268.739 55.8C269.939 53.5333 270.939 51.5333 271.739 49.8C272.672 47.9333 273.139 46.8 273.139 46.4C273.139 45.2 272.739 44.3333 271.939 43.8C271.406 43.5333 271.139 43.4 271.139 43.4C271.006 43.4 270.939 43.4 270.939 43.4C270.939 43.2667 270.872 43.2 270.739 43.2C270.606 43.0667 270.539 42.8667 270.539 42.6C270.539 42.2 270.739 41.9333 271.139 41.8C271.539 41.5333 271.872 41.4 272.139 41.4C272.939 41.4 273.672 41.6 274.339 42C275.139 42.2667 276.406 42.8667 278.139 43.8C278.939 44.2 279.739 44.6 280.539 45C281.472 45.2667 282.206 45.6 282.739 46L284.339 47C283.539 48.3333 282.272 50.2 280.539 52.6C278.939 55 277.339 57.4667 275.739 60C274.139 62.5333 272.806 64.6667 271.739 66.4H307.539C309.139 66.4 309.939 66.6 309.939 67C309.939 67.4 309.339 67.8667 308.139 68.4C307.072 68.8 306.272 69 305.739 69C304.006 69.1333 301.539 69.2 298.339 69.2C295.272 69.2 291.939 69.2667 288.339 69.4C284.872 69.4 281.606 69.5333 278.539 69.8C275.606 69.9333 273.539 70.2 272.339 70.6C270.339 71.2667 268.072 73.4667 265.539 77.2C263.006 80.8 260.539 85.0667 258.139 90C255.872 94.9333 253.806 99.7333 251.939 104.4C251.539 105.467 250.806 107.267 249.739 109.8C248.806 112.333 247.872 115.067 246.939 118C246.139 120.933 245.739 123.667 245.739 126.2C245.739 128.6 246.206 130.333 247.139 131.4C248.072 132.467 249.206 133 250.539 133C252.139 133 253.939 132.067 255.939 130.2C258.072 128.333 260.406 125.933 262.939 123C265.606 119.667 268.072 116.333 270.339 113C272.739 109.533 274.272 107.2 274.939 106C276.006 104.267 276.672 103.4 276.939 103.4C277.072 103.4 277.139 103.467 277.139 103.6C277.139 104 276.939 104.733 276.539 105.8C276.139 106.733 275.739 107.533 275.339 108.2C272.939 111.667 270.339 115.533 267.539 119.8C264.739 124.067 261.872 127.733 258.939 130.8C255.472 134.267 251.939 136 248.339 136ZM304.709 135.6C301.243 135.6 298.776 134.6 297.309 132.6C295.976 130.467 295.309 128 295.309 125.2C295.309 122 295.776 118.8 296.709 115.6C297.776 112.267 298.909 109.267 300.109 106.6C301.443 103.8 302.509 101.667 303.309 100.2C305.576 95.9333 306.709 93.1333 306.709 91.8C306.709 90.3333 306.043 89.8667 304.709 90.4C303.643 90.8 302.176 91.9333 300.309 93.8C298.443 95.6667 296.509 97.8 294.509 100.2C292.509 102.6 290.709 104.8 289.109 106.8C287.643 108.8 286.709 110.133 286.309 110.8C282.576 116.133 279.976 120.533 278.509 124C277.043 127.467 275.976 130 275.309 131.6C275.043 132.267 274.309 132.6 273.109 132.6C271.909 132.6 270.709 132.133 269.509 131.2C268.309 130.133 267.709 128.6 267.709 126.6C267.709 125.533 268.309 123.667 269.509 121C270.709 118.2 272.176 114.933 273.909 111.2C275.509 107.6 277.109 104 278.709 100.4C280.309 96.6667 281.576 93.7333 282.509 91.6C281.576 90.8 281.109 90.2 281.109 89.8C281.109 89.4 281.176 89.0667 281.309 88.8C281.576 88.1333 282.109 87.0667 282.909 85.6C283.709 84 284.509 82.4667 285.309 81C286.109 79.4 286.643 78.4 286.909 78C287.309 77.7333 288.309 77.2667 289.909 76.6C291.643 75.9333 293.309 75.6 294.909 75.6H295.709C297.309 75.6 298.109 76.0667 298.109 77C298.109 77.9333 297.643 79.1333 296.709 80.6C296.309 81.2667 295.376 83 293.909 85.8C292.443 88.4667 290.776 91.5333 288.909 95C287.043 98.4667 285.309 101.8 283.709 105C282.243 108.067 281.176 110.4 280.509 112C280.109 113.2 279.909 114.4 279.909 115.6C280.043 116.667 280.376 116.8 280.909 116C284.643 110.4 288.109 105.6 291.309 101.6C294.509 97.6 297.709 93.8667 300.909 90.4C304.109 86.9333 307.643 83.3333 311.509 79.6C312.843 80.1333 314.243 80.4 315.709 80.4C317.176 80.4 318.443 80.8 319.509 81.6C320.043 82 320.309 82.6667 320.309 83.6C320.309 85.4667 319.176 88.2667 316.909 92C314.776 95.6 312.376 99.6667 309.709 104.2C307.709 107.667 305.709 111.667 303.709 116.2C301.709 120.733 300.709 124.667 300.709 128C300.709 129.733 300.976 131.2 301.509 132.4C302.176 133.467 303.176 134 304.509 134C305.709 134 307.043 133.533 308.509 132.6C309.576 131.933 311.909 129.733 315.509 126C319.109 122.133 323.043 116.933 327.309 110.4C327.709 110 327.976 109.8 328.109 109.8C328.376 109.8 328.509 109.933 328.509 110.2C328.509 110.467 328.309 111 327.909 111.8C323.509 119.267 319.109 125.133 314.709 129.4C310.443 133.533 307.109 135.6 304.709 135.6ZM340.583 135.6C336.983 135.6 333.649 134.333 330.583 131.8C327.649 129.133 326.183 125.267 326.183 120.2C326.183 116.2 327.249 111.867 329.383 107.2C331.516 102.533 334.249 98.0667 337.583 93.8C341.049 89.5333 344.716 86 348.583 83.2C352.449 80.4 356.049 78.9333 359.383 78.8C359.916 79.3333 360.516 79.7333 361.183 80C361.983 80.2667 362.716 80.5333 363.383 80.8L368.583 82C371.516 82.8 372.983 84.6667 372.983 87.6C372.983 89.3333 372.383 91.2 371.183 93.2C370.116 95.2 368.449 96.9333 366.183 98.4C364.983 99.2 363.649 100 362.183 100.8C360.849 101.6 359.449 102.4 357.983 103.2L348.983 108C346.183 109.467 343.716 111.067 341.583 112.8C339.449 114.4 337.916 116.133 336.983 118C336.983 118 336.783 118.067 336.383 118.2C336.116 118.2 336.049 117.933 336.183 117.4C337.116 115.133 338.916 112.867 341.583 110.6C344.383 108.2 347.183 106.133 349.983 104.4C351.316 103.333 352.649 102.4 353.983 101.6C355.449 100.8 356.849 99.9333 358.183 99C359.516 98.0667 360.783 97.1333 361.983 96.2C363.316 95.1333 364.449 94.1333 365.383 93.2C366.449 92.1333 367.183 91.0667 367.583 90C368.116 88.9333 368.383 88 368.383 87.2C368.383 84.6667 366.916 83.4 363.983 83.4C362.116 83.4 359.983 84.2 357.583 85.8C354.649 87.8 351.849 90.2 349.183 93C346.516 95.6667 343.983 98.6 341.583 101.8C339.049 105.267 336.783 109.267 334.783 113.8C332.916 118.333 331.983 122.133 331.983 125.2C331.983 128.267 332.849 130.467 334.583 131.8C336.449 133 338.583 133.6 340.983 133.6C344.316 133.6 347.516 132.733 350.583 131C352.849 129.667 354.983 128 356.983 126C358.983 123.867 360.649 122 361.983 120.4C363.049 119.067 364.249 117.467 365.583 115.6C367.049 113.733 368.049 112.333 368.583 111.4C368.849 111.133 369.049 111.133 369.183 111.4C369.316 111.667 369.383 111.867 369.383 112C368.849 112.933 367.916 114.467 366.583 116.6C365.383 118.6 363.583 121.133 361.183 124.2C358.383 127.8 355.449 130.6 352.383 132.6C349.316 134.6 345.383 135.6 340.583 135.6ZM389.58 135.6C386.38 135.6 384.18 134.533 382.98 132.4C381.78 130.133 381.38 127.733 381.78 125.2C382.313 121.733 383.246 118.933 384.58 116.8C386.046 114.667 387.78 112.333 389.78 109.8C391.38 107.533 392.913 105.2 394.38 102.8C395.846 100.4 396.046 99 394.98 98.6C394.313 99.1333 393.18 99.7333 391.58 100.4C389.98 101.067 388.313 101.4 386.58 101.4C385.113 101.4 383.646 101.067 382.18 100.4C380.846 99.7333 379.846 98.5333 379.18 96.8C377.446 100 375.313 103.533 372.78 107.4C370.38 111.133 367.913 114.733 365.38 118.2C362.98 121.667 360.846 124.533 358.98 126.8C358.446 127.333 357.98 127.533 357.58 127.4C357.046 127.267 356.98 126.933 357.38 126.4C360.446 122.533 363.98 117.667 367.98 111.8C371.98 105.933 375.646 99.6 378.98 92.8C382.313 85.8667 384.38 79.1333 385.18 72.6C389.713 74.7333 391.98 77.4667 391.98 80.8C391.98 83.3333 390.913 85.9333 388.78 88.6C386.646 91.1333 383.846 93.4667 380.38 95.6C382.113 98.1333 384.313 99.4 386.98 99.4C388.98 99.4 390.98 98.8 392.98 97.6C395.113 96.2667 396.78 94.8 397.98 93.2C399.046 92 399.913 91.2 400.58 90.8C401.38 90.4 402.046 90.2 402.58 90.2C404.446 90.2 405.78 90.8 406.58 92C407.513 93.0667 407.646 94.2667 406.98 95.6C404.58 98.9333 401.846 103.067 398.78 108C395.713 112.8 392.98 117.333 390.58 121.6C390.18 122.133 389.646 123.333 388.98 125.2C388.313 127.067 387.98 128.733 387.98 130.2C387.98 132.2 388.78 133.2 390.38 133.2C392.246 133.2 394.38 132.133 396.78 130C399.18 127.733 401.58 125.067 403.98 122C406.38 118.8 408.513 115.733 410.38 112.8C412.38 109.867 413.846 107.733 414.78 106.4C415.446 105.2 415.98 104.6 416.38 104.6C416.513 104.6 416.58 104.733 416.58 105C416.58 105.533 416.38 106.133 415.98 106.8C413.98 110.133 411.846 113.467 409.58 116.8C407.313 120.133 405.046 123.333 402.78 126.4C400.646 129.2 398.446 131.4 396.18 133C394.046 134.733 391.846 135.6 389.58 135.6ZM423.544 133C420.477 133 417.677 132.267 415.144 130.8C412.744 129.2 411.544 126.933 411.544 124C411.544 122.933 411.744 121.8 412.144 120.6C412.544 119.267 413.077 118.267 413.744 117.6C413.744 119.067 414.21 120.4 415.144 121.6C416.077 122.667 417.144 123.533 418.344 124.2C419.544 124.733 420.677 125.133 421.744 125.4C422.944 125.667 424.01 125.8 424.944 125.8C428.01 125.8 430.41 124.733 432.144 122.6C433.877 120.333 434.744 117.933 434.744 115.4C434.744 113.133 434.144 111.133 432.944 109.4C432.144 108.333 431.277 107.4 430.344 106.6C429.41 105.667 428.41 104.733 427.344 103.8C426.544 103.133 425.81 102.333 425.144 101.4C424.477 100.467 423.61 99.0667 422.544 97.2L414.144 110C412.144 112.933 410.277 115.667 408.544 118.2C406.81 120.733 404.544 123.667 401.744 127C400.944 127.933 400.344 128.4 399.944 128.4C399.41 128.267 399.477 127.733 400.144 126.8C403.21 122.933 405.744 119.6 407.744 116.8C409.744 114 412.077 110.6 414.744 106.6C416.077 104.733 417.41 102.6 418.744 100.2C420.21 97.8 421.277 95.3333 421.944 92.8C421.944 88.6667 423.344 85.0667 426.144 82C428.944 78.8 432.344 76.4 436.344 74.8C440.477 73.0667 444.344 72.4 447.944 72.8C448.744 72.8 449.61 73.4 450.544 74.6C451.477 75.8 452.277 77.1333 452.944 78.6C453.61 79.9333 453.944 81 453.944 81.8C453.944 82.2 453.81 82.4 453.544 82.4C453.144 82.4 452.61 82.1333 451.944 81.6C450.877 80.6667 449.277 80.2 447.144 80.2C444.344 80.2 441.277 81 437.944 82.6C434.61 84.0667 431.677 86 429.144 88.4C426.744 90.6667 425.544 93.0667 425.544 95.6C425.544 97.4667 426.277 99.2 427.744 100.8C429.344 102.4 431.077 103.933 432.944 105.4C434.944 106.733 436.544 108.2 437.744 109.8C439.077 111.267 440.01 112.733 440.544 114.2C441.077 115.667 441.344 117.133 441.344 118.6C441.344 121.133 440.544 123.467 438.944 125.6C437.344 127.6 435.41 129.267 433.144 130.6C430.344 132.2 427.144 133 423.544 133Z" fill="#0012A5" fill-opacity="0.06"/>
</svg>
