<svg width="18" height="18" viewBox="0 0 18 18" fill="none" xmlns="http://www.w3.org/2000/svg">
<rect width="18" height="18" fill="#1E1E1E"/>
<g clip-path="url(#clip0_0_1)">
<rect width="1600" height="1932" transform="translate(-63 -763)" fill="white"/>
<g filter="url(#filter0_d_0_1)">
<rect x="-63" y="-239" width="1600" height="667" rx="8" fill="#F2F2FF"/>
<rect x="-62.5" y="-238.5" width="1599" height="666" rx="7.5" stroke="#00006A" stroke-opacity="0.09"/>
</g>
<g clip-path="url(#clip1_0_1)">
<path d="M-43 -219C-43 -224.523 -38.5228 -229 -33 -229H638C643.523 -229 648 -224.523 648 -219V408C648 413.523 643.523 418 638 418H-33C-38.5229 418 -43 413.523 -43 408V-219Z" fill="url(#paint0_linear_0_1)"/>
<path d="M17 7.999H19C19 2.869 15.127 -1 9.98999 -1V1C14.052 1 17 3.943 17 7.999Z" fill="#F2F2FF"/>
<path d="M10 5.00024C12.103 5.00024 13 5.89724 13 8.00024H15C15 4.77524 13.225 3.00024 10 3.00024V5.00024ZM13.422 10.4432C13.2299 10.2686 12.9774 10.1754 12.7178 10.1835C12.4583 10.1915 12.212 10.3001 12.031 10.4862L9.63804 12.9472C9.06204 12.8372 7.90404 12.4762 6.71204 11.2872C5.52004 10.0942 5.15904 8.93324 5.05204 8.36124L7.51104 5.96724C7.69745 5.78637 7.80617 5.54006 7.8142 5.28045C7.82223 5.02083 7.72892 4.76828 7.55404 4.57624L3.85904 0.513239C3.68408 0.320596 3.44092 0.203743 3.18119 0.187499C2.92146 0.171254 2.66564 0.256897 2.46804 0.426239L0.298038 2.28724C0.125149 2.46075 0.0219574 2.69169 0.00803782 2.93624C-0.00696218 3.18624 -0.292962 9.10824 4.29904 13.7022C8.30504 17.7072 13.323 18.0002 14.705 18.0002C14.907 18.0002 15.031 17.9942 15.064 17.9922C15.3086 17.9786 15.5394 17.8749 15.712 17.7012L17.572 15.5302C17.7415 15.3328 17.8273 15.077 17.8113 14.8173C17.7952 14.5576 17.6785 14.3143 17.486 14.1392L13.422 10.4432Z" fill="#F2F2FF"/>
</g>
</g>
<defs>
<filter id="filter0_d_0_1" x="-153" y="-329" width="1780" height="847" filterUnits="userSpaceOnUse" color-interpolation-filters="sRGB">
<feFlood flood-opacity="0" result="BackgroundImageFix"/>
<feColorMatrix in="SourceAlpha" type="matrix" values="0 0 0 0 0 0 0 0 0 0 0 0 0 0 0 0 0 0 127 0" result="hardAlpha"/>
<feMorphology radius="30" operator="dilate" in="SourceAlpha" result="effect1_dropShadow_0_1"/>
<feOffset/>
<feGaussianBlur stdDeviation="30"/>
<feComposite in2="hardAlpha" operator="out"/>
<feColorMatrix type="matrix" values="0 0 0 0 0 0 0 0 0 0 0 0 0 0 0 0 0 0 0.03 0"/>
<feBlend mode="normal" in2="BackgroundImageFix" result="effect1_dropShadow_0_1"/>
<feBlend mode="normal" in="SourceGraphic" in2="effect1_dropShadow_0_1" result="shape"/>
</filter>
<linearGradient id="paint0_linear_0_1" x1="27.3666" y1="-179" x2="173.279" y2="448.068" gradientUnits="userSpaceOnUse">
<stop stop-color="#0027B5"/>
<stop offset="0.786445" stop-color="#00006A"/>
</linearGradient>
<clipPath id="clip0_0_1">
<rect width="1600" height="1932" fill="white" transform="translate(-63 -763)"/>
</clipPath>
<clipPath id="clip1_0_1">
<rect width="691" height="647" fill="white" transform="translate(-43 -229)"/>
</clipPath>
</defs>
</svg>
