<svg width="52" height="52" viewBox="0 0 52 52" fill="none" xmlns="http://www.w3.org/2000/svg">
<rect width="52" height="52" fill="#1E1E1E"/>
<g clip-path="url(#clip0_0_1)">
<rect width="1600" height="4773" transform="translate(-215 -1932)" fill="white"/>
<circle cx="26" cy="26" r="26" fill="#F2F2FF"/>
<circle cx="26" cy="26" r="26" fill="#F2F2FF"/>
<path d="M21.3332 14.3335H18.9998C17.7112 14.3335 16.6665 15.3782 16.6665 16.6668V30.6668C16.6665 31.9555 17.7112 33.0002 18.9998 33.0002H21.3332C22.6218 33.0002 23.6665 31.9555 23.6665 30.6668V16.6668C23.6665 15.3782 22.6218 14.3335 21.3332 14.3335Z" stroke="#10B35E" stroke-width="2" stroke-linecap="round" stroke-linejoin="round"/>
<path d="M33.0002 22.5H30.6668C29.3782 22.5 28.3335 23.5447 28.3335 24.8333V30.6667C28.3335 31.9553 29.3782 33 30.6668 33H33.0002C34.2888 33 35.3335 31.9553 35.3335 30.6667V24.8333C35.3335 23.5447 34.2888 22.5 33.0002 22.5Z" stroke="#10B35E" stroke-width="2" stroke-linecap="round" stroke-linejoin="round"/>
<path d="M37.6668 37.6665H14.3335" stroke="#10B35E" stroke-width="2" stroke-linecap="round" stroke-linejoin="round"/>
<path d="M21.3332 14.3335H18.9998C17.7112 14.3335 16.6665 15.3782 16.6665 16.6668V30.6668C16.6665 31.9555 17.7112 33.0002 18.9998 33.0002H21.3332C22.6218 33.0002 23.6665 31.9555 23.6665 30.6668V16.6668C23.6665 15.3782 22.6218 14.3335 21.3332 14.3335Z" stroke="#10B35E" stroke-width="2" stroke-linecap="round" stroke-linejoin="round"/>
<path d="M33.0002 22.5H30.6668C29.3782 22.5 28.3335 23.5447 28.3335 24.8333V30.6667C28.3335 31.9553 29.3782 33 30.6668 33H33.0002C34.2888 33 35.3335 31.9553 35.3335 30.6667V24.8333C35.3335 23.5447 34.2888 22.5 33.0002 22.5Z" stroke="#10B35E" stroke-width="2" stroke-linecap="round" stroke-linejoin="round"/>
<path d="M37.6668 37.6665H14.3335" stroke="#10B35E" stroke-width="2" stroke-linecap="round" stroke-linejoin="round"/>
</g>
<defs>
<clipPath id="clip0_0_1">
<rect width="1600" height="4773" fill="white" transform="translate(-215 -1932)"/>
</clipPath>
</defs>
</svg>
