<svg width="56" height="56" viewBox="0 0 56 56" fill="none" xmlns="http://www.w3.org/2000/svg">
<g clip-path="url(#clip0_547_803)">
<path d="M10.5988 42.4098L16.0027 51.7701C17.1688 53.7921 19.7919 54.5408 21.8663 53.3415C23.919 52.1553 24.6244 49.5326 23.4369 47.4783L20.2178 41.9017L23.0056 40.2922C23.5187 39.9954 23.6947 39.3394 23.3984 38.8263L22.003 36.4095C22.1694 36.3772 23.2634 36.1626 42.5562 32.3779C44.9412 32.2484 46.3702 29.64 45.1655 27.5546L41.5993 21.3779L43.8783 17.926C44.1021 17.5865 44.1155 17.1502 43.9122 16.7981L41.7661 13.0809C41.5628 12.7288 41.1767 12.5226 40.7723 12.5465L36.6439 12.7942L32.6849 5.93673C32.1115 4.94332 31.0841 4.34182 29.9373 4.32757C29.9235 4.32715 29.9101 4.32715 29.8962 4.32715C28.788 4.32715 27.782 4.87877 27.1859 5.8114L13.1683 23.6686L4.05526 28.9299C0.471 30.9985 -0.770561 35.5967 1.30597 39.1906C3.2031 42.4768 7.20276 43.7695 10.5988 42.4098ZM21.5788 48.5518C22.1715 49.577 21.8206 50.889 20.7924 51.483C19.7609 52.0794 18.4472 51.7131 17.8612 50.6975L12.4959 41.4034L16.2131 39.2572C22.4226 50.0138 21.479 48.3795 21.5788 48.5518ZM19.1447 40.0428L18.0716 38.1842L19.9302 37.1111L21.0033 38.9697L19.1447 40.0428ZM40.2391 14.7283L41.7221 17.2969L40.3996 19.2996L37.8436 14.872L40.2391 14.7283ZM28.9808 6.98799C29.2687 6.51686 29.7256 6.46823 29.9109 6.47326C30.0941 6.47536 30.5505 6.53236 30.8259 7.00937L43.3069 28.6277C43.7135 29.3315 43.2193 30.2163 42.4041 30.2364C42.2578 30.2398 42.1903 30.2662 41.8156 30.3362L28.6132 7.46877C28.8902 7.11249 28.9259 7.07811 28.9808 6.98799ZM27.1851 9.28794L39.5894 30.773L20.8687 34.4448L15.1765 24.5857L27.1851 9.28794ZM3.16454 38.1175C2.6934 37.3023 2.44442 36.3768 2.44442 35.4403C2.44442 33.5264 3.47304 31.7442 5.12832 30.7885L13.4919 25.9597L18.8572 35.2526L10.4936 40.0817C7.93126 41.5605 4.64377 40.6795 3.16454 38.1175Z" fill="#10B35E"/>
<path d="M14.9962 35.0032C15.5092 34.7073 15.6849 34.0504 15.3889 33.5374C15.0926 33.0247 14.4362 32.8487 13.9231 33.1446C13.4101 33.441 13.234 34.0978 13.5304 34.6104C13.8263 35.1235 14.4831 35.2995 14.9962 35.0032Z" fill="#00006A"/>
<path d="M11.6719 35.6832C11.3755 35.1701 10.7191 34.9941 10.2061 35.2904L8.3475 36.3635C7.83528 36.6594 7.17761 36.4829 6.88168 35.9707C6.58534 35.4576 5.92893 35.2816 5.41587 35.5779C4.90282 35.8743 4.72677 36.5307 5.02312 37.0438C5.90629 38.5737 7.87636 39.1132 9.42055 38.222L11.2791 37.149C11.7922 36.8526 11.9682 36.1966 11.6719 35.6832Z" fill="#00006A"/>
<path d="M53.6446 6.62208L47.6653 9.9494C47.1476 10.2378 46.9611 10.8913 47.2495 11.4089C47.537 11.9262 48.1901 12.1135 48.709 11.8247L54.6879 8.49742C55.206 8.20903 55.3921 7.55556 55.1038 7.03789C54.8158 6.51981 54.1623 6.3337 53.6446 6.62208Z" fill="#00006A"/>
<path d="M53.0174 17.7355L48.8714 16.6247C48.2989 16.4713 47.7104 16.8109 47.5569 17.3834C47.4035 17.956 47.7435 18.5441 48.316 18.6975L52.4624 19.8083C53.0383 19.963 53.6239 19.618 53.7765 19.0496C53.9299 18.477 53.59 17.8885 53.0174 17.7355Z" fill="#00006A"/>
<path d="M42.599 2.72327L41.487 6.86963C41.3336 7.44221 41.6731 8.03029 42.2457 8.18413C42.8178 8.33712 43.4064 7.99844 43.5602 7.42544L44.6718 3.27908C44.8252 2.70651 44.4857 2.118 43.9131 1.96459C43.341 1.81118 42.7525 2.1507 42.599 2.72327Z" fill="#00006A"/>
</g>
<defs>
<clipPath id="clip0_547_803">
<rect width="54.9405" height="54.9405" fill="white" transform="translate(0.299076 0.425781)"/>
</clipPath>
</defs>
</svg>
