<svg width="435" height="134" viewBox="0 0 435 134" fill="none" xmlns="http://www.w3.org/2000/svg">
<path d="M23.4 133C17.5333 133 12.2 131.6 7.4 128.8C2.73333 126 0.400001 121.733 0.400001 116C0.400001 114.133 0.733334 112 1.4 109.6C2.2 106.8 3.4 104.8 5 103.6C5.93333 102.667 6.33333 102.467 6.2 103C6.2 103.4 6.06667 103.733 5.8 104C4.46667 105.467 3.8 107.533 3.8 110.2C3.8 115.667 5.93333 119.533 10.2 121.8C14.4667 124.067 19.2667 125.2 24.6 125.2C31.8 125.2 37.7333 123.867 42.4 121.2C50.4 116.667 54.4 111.733 54.4 106.4C54.4 105.2 54.0667 103.933 53.4 102.6C52.7333 101.267 51.8 100 50.6 98.8C49.4 97.4667 48.0667 96.1333 46.6 94.8C42.7333 91.3333 38.6667 88.0667 34.4 85C30.1333 81.9333 26.2667 78.4667 22.8 74.6C20.6667 72.2 18.9333 69.6 17.6 66.8C16.4 63.8667 15.8 60.6667 15.8 57.2C15.8 51.6 17.0667 46.0667 19.6 40.6C22.2667 35.1333 25.8 30 30.2 25.2C34.7333 20.4 39.7333 16.2 45.2 12.6C50.6667 8.86666 56.2667 6 62 3.99999C67.7333 1.86666 73.2 0.799994 78.4 0.799994C81.2 0.799994 84.3333 1.19999 87.8 1.99999C91.2667 2.66666 94.0667 3.73333 96.2 5.2C99.2667 7.46666 100.8 10.4 100.8 14C100.8 16.5333 100 19 98.4 21.4C96.8 23.8 94.7333 25.6 92.2 26.8C92.2 26.8 92 26.7333 91.6 26.6C91.3333 26.3333 91.4667 26.0667 92 25.8C93.4667 25 94.7333 23.8 95.8 22.2C97 20.6 97.6 18.9333 97.6 17.2C97.6 15.8667 97.2667 14.8 96.6 14C95.2667 12.1333 92.9333 10.6 89.6 9.39999C86.4 8.19999 83.4667 7.59999 80.8 7.59999C74.4 7.59999 68 9.06666 61.6 12C55.2 14.9333 49.3333 18.8667 44 23.8C38.6667 28.7333 34.3333 34.3333 31 40.6C27.8 46.8667 26.2 53.3333 26.2 60C26.2 64.2667 27 67.9333 28.6 71C30.2 73.9333 32.2667 76.5333 34.8 78.8C37.3333 81.0667 40 83.2667 42.8 85.4C45.7333 87.5333 48.4 89.8667 50.8 92.4C52.5333 94.1333 53.8667 96.1333 54.8 98.4C55.8667 100.533 56.4 103.067 56.4 106C56.4 110.8 54.8667 115.2 51.8 119.2C48.8667 123.067 45.2667 126.2 41 128.6C35.5333 131.533 29.6667 133 23.4 133ZM79.1359 133C75.2693 133 71.9359 131.533 69.1359 128.6C66.4693 125.667 65.1359 121.667 65.1359 116.6C65.1359 114.733 65.3359 112.733 65.7359 110.6C66.2693 108.333 67.0026 106 67.9359 103.6C69.9359 98.9333 72.6693 94.4667 76.1359 90.2C79.7359 85.9333 83.6026 82.4 87.7359 79.6C91.8693 76.8 95.8026 75.4 99.5359 75.4C99.9359 75.4 100.403 75.6 100.936 76C101.469 76.2667 101.869 76.5333 102.136 76.8L103.136 77.8C104.736 79.4 106.269 80.3333 107.736 80.6C109.336 80.8667 110.603 81.6667 111.536 83C113.136 85.5333 113.936 88.6 113.936 92.2C113.936 97.1333 112.403 102.533 109.336 108.4C106.403 114.133 102.403 119.333 97.3359 124C94.8026 126.267 92.0026 128.333 88.9359 130.2C85.8693 132.067 82.6026 133 79.1359 133ZM80.5359 130.8C83.7359 130.8 87.0026 129.733 90.3359 127.6C93.6693 125.333 96.7359 122.4 99.5359 118.8C102.469 115.2 104.936 111.4 106.936 107.4C109.069 103.4 110.403 99.6 110.936 96C111.069 95.3333 111.136 94.6667 111.136 94C111.269 93.2 111.336 92.5333 111.336 92C111.336 88.4 110.469 85.8 108.736 84.2C107.003 82.4667 104.936 81.6 102.536 81.6C100.003 81.6 97.4026 82.4 94.7359 84C92.2026 85.4667 89.0026 88.5333 85.1359 93.2C81.2693 97.7333 77.8026 102.467 74.7359 107.4C71.9359 111.8 70.5359 116.067 70.5359 120.2C70.5359 123.133 71.3359 125.667 72.9359 127.8C74.6693 129.8 77.2026 130.8 80.5359 130.8ZM131.68 133.6C128.346 133.6 125.48 132.4 123.08 130C120.68 127.733 119.48 124 119.48 118.8C119.48 112.133 121.213 104 124.68 94.4C128.146 84.8 132.546 74.7333 137.88 64.2C142.013 56.3333 146.413 48.8 151.08 41.6C155.746 34.4 160.346 28 164.88 22.4C169.413 16.6667 173.546 12.2 177.28 9C181.146 5.66666 184.28 3.99999 186.68 3.99999C188.946 3.99999 190.613 4.59999 191.68 5.79999C192.88 6.99999 193.88 8.33333 194.68 9.8C195.613 11.2667 196.813 12.4667 198.28 13.4C198.146 16.4667 196.546 20.3333 193.48 25C190.413 29.6667 186.746 34.7333 182.48 40.2C179.68 43.5333 175.68 48.2667 170.48 54.4C165.413 60.4 160.346 66.6 155.28 73C151.146 78.0667 147.48 82.9333 144.28 87.6C141.08 92.2667 138.613 96.1333 136.88 99.2C136.346 100.133 135.946 100.467 135.68 100.2C135.413 99.9333 135.413 99.5333 135.68 99C137.013 96.3333 139.08 92.9333 141.88 88.8C144.813 84.5333 148.08 80 151.68 75.2C155.28 70.4 158.813 65.8 162.28 61.4C165.746 56.8667 168.746 52.9333 171.28 49.6C173.813 46.2667 175.546 44.0667 176.48 43C178.48 40.4667 180.413 38.0667 182.28 35.8C184.146 33.4 185.813 31.1333 187.28 29C188.88 26.6 190.013 24.4667 190.68 22.6C191.48 20.7333 191.88 19.2 191.88 18C191.88 15.8667 191.013 14.8 189.28 14.8C188.08 14.8 186.546 15.4 184.68 16.6C182.946 17.8 180.946 19.7333 178.68 22.4C175.346 26.4 171.413 31.3333 166.88 37.2C162.48 42.9333 157.946 49.2667 153.28 56.2C148.613 63.1333 144.28 70.4 140.28 78C136.413 85.4667 133.213 93 130.68 100.6C128.28 108.067 127.08 115.267 127.08 122.2C127.08 125.4 127.746 127.667 129.08 129C130.413 130.333 132.013 131 133.88 131C135.88 131 137.946 130.467 140.08 129.4C142.346 128.2 144.213 126.733 145.68 125C147.946 122.6 150.146 119.933 152.28 117C154.546 114.067 156.546 111.333 158.28 108.8C160.146 106.133 161.48 104.133 162.28 102.8C162.68 102.133 163.08 101.8 163.48 101.8C164.146 101.8 164.146 102.333 163.48 103.4C161.346 107 158.813 110.8 155.88 114.8C153.08 118.667 150.546 122 148.28 124.8C146.146 127.467 143.546 129.6 140.48 131.2C137.546 132.8 134.613 133.6 131.68 133.6ZM165.705 130.6C162.771 130.6 160.505 129.933 158.905 128.6C157.438 127.267 156.838 125.533 157.105 123.4C157.371 121.933 157.771 120.267 158.305 118.4C158.838 116.533 159.505 114.667 160.305 112.8L165.105 101.6C164.971 101.333 164.838 101.133 164.705 101C164.705 100.733 164.705 100.533 164.705 100.4C164.571 99.8667 164.638 99.4 164.905 99C168.371 93.6667 171.571 89.2 174.505 85.6C177.438 82 179.371 80.2 180.305 80.2C182.171 80.2 184.371 81.4667 186.905 84C185.171 86.1333 183.371 88.5333 181.505 91.2C179.638 93.7333 177.838 96.3333 176.105 99C174.238 101.8 172.238 104.867 170.105 108.2C168.105 111.4 166.705 114.333 165.905 117C165.105 119.4 164.705 121.267 164.705 122.6C164.705 124.467 165.371 125.4 166.705 125.4C168.438 125.4 170.971 123.6 174.305 120C176.571 117.6 179.038 114.667 181.705 111.2C184.505 107.6 187.171 104 189.705 100.4C192.371 96.6667 194.838 93.2 197.105 90C199.505 86.6667 201.505 84 203.105 82C204.571 80.1333 205.905 79.2 207.105 79.2C208.838 79.2 210.838 80.6667 213.105 83.6C211.238 86.2667 208.971 89.7333 206.305 94C203.638 98.1333 201.171 102.4 198.905 106.8C196.771 111.067 195.371 114.867 194.705 118.2C194.571 118.733 194.438 119.267 194.305 119.8C194.305 120.333 194.305 120.933 194.305 121.6C194.305 125.467 195.305 127.4 197.305 127.4C198.371 127.4 199.638 126.8 201.105 125.6C202.705 124.4 204.238 123 205.705 121.4C207.171 119.8 208.305 118.467 209.105 117.4C213.371 111.667 217.438 105.733 221.305 99.6C222.105 98.4 222.638 97.8 222.905 97.8C223.171 97.8 223.238 98.0667 223.105 98.6C223.105 99 223.038 99.3333 222.905 99.6C220.238 104 217.105 108.8 213.505 114C210.038 119.2 206.571 123.467 203.105 126.8C201.238 128.667 199.371 129.6 197.505 129.6C193.905 129.6 191.238 128.733 189.505 127C187.771 125.267 186.905 123.333 186.905 121.2C186.905 119.867 187.105 118.467 187.505 117C187.905 115.4 188.371 113.8 188.905 112.2L194.305 98C192.305 100.533 190.638 102.667 189.305 104.4C187.971 106 186.771 107.533 185.705 109C184.771 110.333 183.705 111.867 182.505 113.6C181.305 115.2 180.038 116.8 178.705 118.4C176.171 121.733 173.705 124.6 171.305 127C168.905 129.4 167.038 130.6 165.705 130.6ZM227.136 133C224.336 133 221.869 131.867 219.736 129.6C217.736 127.333 216.736 124.067 216.736 119.8C216.736 116.6 217.469 112.733 218.936 108.2C220.536 103.533 222.469 98.6667 224.736 93.6C227.136 88.4 229.603 83.5333 232.136 79C234.803 74.3333 237.136 70.4 239.136 67.2C236.869 67.2 234.869 67.2 233.136 67.2C231.403 67.0667 230.003 67.0667 228.936 67.2C228.003 67.2 227.403 67.0667 227.136 66.8C227.003 66.4 227.003 66.1333 227.136 66C227.136 65.6 227.336 65.0667 227.736 64.4C228.269 63.7333 228.736 63.4 229.136 63.4H241.336C242.003 62.6 242.869 61.2 243.936 59.2C245.136 57.2 246.336 55.0667 247.536 52.8C248.736 50.5333 249.736 48.5333 250.536 46.8C251.469 44.9333 251.936 43.8 251.936 43.4C251.936 42.2 251.536 41.3333 250.736 40.8C250.203 40.5333 249.936 40.4 249.936 40.4C249.803 40.4 249.736 40.4 249.736 40.4C249.736 40.2667 249.669 40.2 249.536 40.2C249.403 40.0667 249.336 39.8667 249.336 39.6C249.336 39.2 249.536 38.9333 249.936 38.8C250.336 38.5333 250.669 38.4 250.936 38.4C251.736 38.4 252.469 38.6 253.136 39C253.936 39.2667 255.203 39.8667 256.936 40.8C257.736 41.2 258.536 41.6 259.336 42C260.269 42.2667 261.003 42.6 261.536 43L263.136 44C262.336 45.3333 261.069 47.2 259.336 49.6C257.736 52 256.136 54.4667 254.536 57C252.936 59.5333 251.603 61.6667 250.536 63.4H286.336C287.936 63.4 288.736 63.6 288.736 64C288.736 64.4 288.136 64.8667 286.936 65.4C285.869 65.8 285.069 66 284.536 66C282.803 66.1333 280.336 66.2 277.136 66.2C274.069 66.2 270.736 66.2667 267.136 66.4C263.669 66.4 260.403 66.5333 257.336 66.8C254.403 66.9333 252.336 67.2 251.136 67.6C249.136 68.2667 246.869 70.4667 244.336 74.2C241.803 77.8 239.336 82.0667 236.936 87C234.669 91.9333 232.603 96.7333 230.736 101.4C230.336 102.467 229.603 104.267 228.536 106.8C227.603 109.333 226.669 112.067 225.736 115C224.936 117.933 224.536 120.667 224.536 123.2C224.536 125.6 225.003 127.333 225.936 128.4C226.869 129.467 228.003 130 229.336 130C230.936 130 232.736 129.067 234.736 127.2C236.869 125.333 239.203 122.933 241.736 120C244.403 116.667 246.869 113.333 249.136 110C251.536 106.533 253.069 104.2 253.736 103C254.803 101.267 255.469 100.4 255.736 100.4C255.869 100.4 255.936 100.467 255.936 100.6C255.936 101 255.736 101.733 255.336 102.8C254.936 103.733 254.536 104.533 254.136 105.2C251.736 108.667 249.136 112.533 246.336 116.8C243.536 121.067 240.669 124.733 237.736 127.8C234.269 131.267 230.736 133 227.136 133ZM288.106 72.2C286.106 71.4 284.373 70.1333 282.906 68.4C281.573 66.5333 281.106 64.5333 281.506 62.4C281.773 61.2 282.106 60.4667 282.506 60.2C283.04 59.8 284.44 59.5333 286.706 59.4L297.306 57.6C298.506 57.3333 299.106 57.3333 299.106 57.6C299.106 58.1333 298.64 58.5333 297.706 58.8C295.573 59.3333 293.706 60.1333 292.106 61.2C290.506 62.2667 289.173 63.7333 288.106 65.6C287.84 66 287.706 66.6 287.706 67.4C287.706 68.2 287.84 69 288.106 69.8C288.506 70.4667 288.906 71.0667 289.306 71.6C289.706 72.1333 289.706 72.4 289.306 72.4C289.04 72.4 288.64 72.3333 288.106 72.2ZM264.706 132.8C260.173 132.8 256.973 131.4 255.106 128.6C253.373 125.667 252.506 122.2 252.506 118.2C252.506 115.133 252.906 112 253.706 108.8C254.64 105.6 255.773 102.733 257.106 100.2C255.906 99.6667 255.506 99.2 255.906 98.8C256.84 97.4667 257.973 95.8 259.306 93.8C260.773 91.8 262.24 89.8 263.706 87.8C265.44 85.5333 266.973 83.6667 268.306 82.2C269.773 80.7333 271.306 80 272.906 80C273.973 80 274.906 80.3333 275.706 81C276.64 81.6667 277.573 82.3333 278.506 83C275.44 86.2 272.373 90.1333 269.306 94.8C266.24 99.4667 263.706 104.4 261.706 109.6C259.84 114.667 258.906 119.667 258.906 124.6C258.906 126.733 259.373 128.267 260.306 129.2C261.373 130 262.64 130.4 264.106 130.4C267.173 130.4 269.906 129.333 272.306 127.2C274.84 124.933 277.773 121.667 281.106 117.4C284.573 113 287.84 108.4 290.906 103.6C291.706 102.533 292.306 101.933 292.706 101.8C293.24 101.667 293.306 101.933 292.906 102.6C291.84 104.733 290.173 107.467 287.906 110.8C285.773 114 283.506 117.2 281.106 120.4C278.706 123.6 276.64 126.067 274.906 127.8C273.173 129.533 271.373 130.8 269.506 131.6C267.773 132.4 266.173 132.8 264.706 132.8ZM298.277 133C294.41 133 291.077 131.533 288.277 128.6C285.61 125.667 284.277 121.667 284.277 116.6C284.277 114.733 284.477 112.733 284.877 110.6C285.41 108.333 286.143 106 287.077 103.6C289.077 98.9333 291.81 94.4667 295.277 90.2C298.877 85.9333 302.743 82.4 306.877 79.6C311.01 76.8 314.943 75.4 318.677 75.4C319.077 75.4 319.543 75.6 320.077 76C320.61 76.2667 321.01 76.5333 321.277 76.8L322.277 77.8C323.877 79.4 325.41 80.3333 326.877 80.6C328.477 80.8667 329.743 81.6667 330.677 83C332.277 85.5333 333.077 88.6 333.077 92.2C333.077 97.1333 331.543 102.533 328.477 108.4C325.543 114.133 321.543 119.333 316.477 124C313.943 126.267 311.143 128.333 308.077 130.2C305.01 132.067 301.743 133 298.277 133ZM299.677 130.8C302.877 130.8 306.143 129.733 309.477 127.6C312.81 125.333 315.877 122.4 318.677 118.8C321.61 115.2 324.077 111.4 326.077 107.4C328.21 103.4 329.543 99.6 330.077 96C330.21 95.3333 330.277 94.6667 330.277 94C330.41 93.2 330.477 92.5333 330.477 92C330.477 88.4 329.61 85.8 327.877 84.2C326.143 82.4667 324.077 81.6 321.677 81.6C319.143 81.6 316.543 82.4 313.877 84C311.343 85.4667 308.143 88.5333 304.277 93.2C300.41 97.7333 296.943 102.467 293.877 107.4C291.077 111.8 289.677 116.067 289.677 120.2C289.677 123.133 290.477 125.667 292.077 127.8C293.81 129.8 296.343 130.8 299.677 130.8ZM370.42 132.6C366.954 132.6 364.487 131.6 363.02 129.6C361.687 127.467 361.02 125 361.02 122.2C361.02 119 361.487 115.8 362.42 112.6C363.487 109.267 364.62 106.267 365.82 103.6C367.154 100.8 368.22 98.6667 369.02 97.2C371.287 92.9333 372.42 90.1333 372.42 88.8C372.42 87.3333 371.754 86.8667 370.42 87.4C369.354 87.8 367.887 88.9333 366.02 90.8C364.154 92.6667 362.22 94.8 360.22 97.2C358.22 99.6 356.42 101.8 354.82 103.8C353.354 105.8 352.42 107.133 352.02 107.8C348.287 113.133 345.687 117.533 344.22 121C342.754 124.467 341.687 127 341.02 128.6C340.754 129.267 340.02 129.6 338.82 129.6C337.62 129.6 336.42 129.133 335.22 128.2C334.02 127.133 333.42 125.6 333.42 123.6C333.42 122.533 334.02 120.667 335.22 118C336.42 115.2 337.887 111.933 339.62 108.2C341.22 104.6 342.82 101 344.42 97.4C346.02 93.6667 347.287 90.7333 348.22 88.6C347.287 87.8 346.82 87.2 346.82 86.8C346.82 86.4 346.887 86.0667 347.02 85.8C347.287 85.1333 347.82 84.0667 348.62 82.6C349.42 81 350.22 79.4667 351.02 78C351.82 76.4 352.354 75.4 352.62 75C353.02 74.7333 354.02 74.2667 355.62 73.6C357.354 72.9333 359.02 72.6 360.62 72.6H361.42C363.02 72.6 363.82 73.0667 363.82 74C363.82 74.9333 363.354 76.1333 362.42 77.6C362.02 78.2667 361.087 80 359.62 82.8C358.154 85.4667 356.487 88.5333 354.62 92C352.754 95.4667 351.02 98.8 349.42 102C347.954 105.067 346.887 107.4 346.22 109C345.82 110.2 345.62 111.4 345.62 112.6C345.754 113.667 346.087 113.8 346.62 113C350.354 107.4 353.82 102.6 357.02 98.6C360.22 94.6 363.42 90.8667 366.62 87.4C369.82 83.9333 373.354 80.3333 377.22 76.6C378.554 77.1333 379.954 77.4 381.42 77.4C382.887 77.4 384.154 77.8 385.22 78.6C385.754 79 386.02 79.6667 386.02 80.6C386.02 82.4667 384.887 85.2667 382.62 89C380.487 92.6 378.087 96.6667 375.42 101.2C373.42 104.667 371.42 108.667 369.42 113.2C367.42 117.733 366.42 121.667 366.42 125C366.42 126.733 366.687 128.2 367.22 129.4C367.887 130.467 368.887 131 370.22 131C371.42 131 372.754 130.533 374.22 129.6C375.287 128.933 377.62 126.733 381.22 123C384.82 119.133 388.754 113.933 393.02 107.4C393.42 107 393.687 106.8 393.82 106.8C394.087 106.8 394.22 106.933 394.22 107.2C394.22 107.467 394.02 108 393.62 108.8C389.22 116.267 384.82 122.133 380.42 126.4C376.154 130.533 372.82 132.6 370.42 132.6ZM404.294 130C401.227 130 398.427 129.267 395.894 127.8C393.494 126.2 392.294 123.933 392.294 121C392.294 119.933 392.494 118.8 392.894 117.6C393.294 116.267 393.827 115.267 394.494 114.6C394.494 116.067 394.96 117.4 395.894 118.6C396.827 119.667 397.894 120.533 399.094 121.2C400.294 121.733 401.427 122.133 402.494 122.4C403.694 122.667 404.76 122.8 405.694 122.8C408.76 122.8 411.16 121.733 412.894 119.6C414.627 117.333 415.494 114.933 415.494 112.4C415.494 110.133 414.894 108.133 413.694 106.4C412.894 105.333 412.027 104.4 411.094 103.6C410.16 102.667 409.16 101.733 408.094 100.8C407.294 100.133 406.56 99.3333 405.894 98.4C405.227 97.4667 404.36 96.0667 403.294 94.2L394.894 107C392.894 109.933 391.027 112.667 389.294 115.2C387.56 117.733 385.294 120.667 382.494 124C381.694 124.933 381.094 125.4 380.694 125.4C380.16 125.267 380.227 124.733 380.894 123.8C383.96 119.933 386.494 116.6 388.494 113.8C390.494 111 392.827 107.6 395.494 103.6C396.827 101.733 398.16 99.6 399.494 97.2C400.96 94.8 402.027 92.3333 402.694 89.8C402.694 85.6667 404.094 82.0667 406.894 79C409.694 75.8 413.094 73.4 417.094 71.8C421.227 70.0667 425.094 69.4 428.694 69.8C429.494 69.8 430.36 70.4 431.294 71.6C432.227 72.8 433.027 74.1333 433.694 75.6C434.36 76.9333 434.694 78 434.694 78.8C434.694 79.2 434.56 79.4 434.294 79.4C433.894 79.4 433.36 79.1333 432.694 78.6C431.627 77.6667 430.027 77.2 427.894 77.2C425.094 77.2 422.027 78 418.694 79.6C415.36 81.0667 412.427 83 409.894 85.4C407.494 87.6667 406.294 90.0667 406.294 92.6C406.294 94.4667 407.027 96.2 408.494 97.8C410.094 99.4 411.827 100.933 413.694 102.4C415.694 103.733 417.294 105.2 418.494 106.8C419.827 108.267 420.76 109.733 421.294 111.2C421.827 112.667 422.094 114.133 422.094 115.6C422.094 118.133 421.294 120.467 419.694 122.6C418.094 124.6 416.16 126.267 413.894 127.6C411.094 129.2 407.894 130 404.294 130Z" fill="#0012A5" fill-opacity="0.06"/>
</svg>
