<svg width="82" height="82" viewBox="0 0 82 82" fill="none" xmlns="http://www.w3.org/2000/svg">
<rect width="82" height="82" fill="#1E1E1E"/>
<g clip-path="url(#clip0_0_1)">
<rect width="1600" height="4600" transform="translate(-1303 -966)" fill="white"/>
<circle cx="41" cy="41" r="41" fill="url(#paint0_linear_0_1)"/>
<path d="M34 23.5H30.5C28.567 23.5 27 25.067 27 27V48C27 49.933 28.567 51.5 30.5 51.5H34C35.933 51.5 37.5 49.933 37.5 48V27C37.5 25.067 35.933 23.5 34 23.5Z" stroke="white" stroke-width="2" stroke-linecap="round" stroke-linejoin="round"/>
<path d="M51.5 35.75H48C46.067 35.75 44.5 37.317 44.5 39.25V48C44.5 49.933 46.067 51.5 48 51.5H51.5C53.433 51.5 55 49.933 55 48V39.25C55 37.317 53.433 35.75 51.5 35.75Z" stroke="white" stroke-width="2" stroke-linecap="round" stroke-linejoin="round"/>
<path d="M58.5 58.5H23.5" stroke="white" stroke-width="2" stroke-linecap="round" stroke-linejoin="round"/>
<path d="M-469.5 14C-469.5 9.85786 -466.142 6.5 -462 6.5H-19.0555C-16.9334 6.5 -14.9106 7.39903 -13.4885 8.97423L79.567 112.051C80.8112 113.429 81.5 115.22 81.5 117.077V223C81.5 227.142 78.1422 230.5 74 230.5H-462C-466.142 230.5 -469.5 227.142 -469.5 223V14Z" fill="#F2F2FF" stroke="#D5D5FF"/>
</g>
<defs>
<linearGradient id="paint0_linear_0_1" x1="41" y1="0" x2="41" y2="82" gradientUnits="userSpaceOnUse">
<stop stop-color="#0027B5"/>
<stop offset="1" stop-color="#00006A"/>
</linearGradient>
<clipPath id="clip0_0_1">
<rect width="1600" height="4600" fill="white" transform="translate(-1303 -966)"/>
</clipPath>
</defs>
</svg>
