<svg width="324" height="148" viewBox="0 0 324 148" fill="none" xmlns="http://www.w3.org/2000/svg">
<path d="M168.6 50.2C168.067 50.2 167.8 50.0667 167.8 49.8C167.8 49.4 168.267 48.9333 169.2 48.4C172.133 46.5333 174.933 43.9333 177.6 40.6C180.4 37.1333 181.8 33.3333 181.8 29.2C181.8 26 180.6 23.4667 178.2 21.6C175.933 19.7333 173 18.3333 169.4 17.4C165.933 16.3333 162.467 15.6667 159 15.4C155.533 15 152.667 14.8 150.4 14.8C138.667 14.8 127.267 16.0667 116.2 18.6C105.133 21 94.2667 23.8667 83.6 27.2C72.9333 30.5333 62.1333 33.6667 51.2 36.6C40.4 39.5333 29.2 41.5333 17.6 42.6C12.2667 43.1333 8.06667 41.7333 5 38.4C2.06667 34.9333 0.600001 30.8667 0.600001 26.2C0.600001 24.3333 1.86667 22.2667 4.4 20C7.06667 17.6 10.4667 15.2667 14.6 13C18.7333 10.7333 23.1333 8.66666 27.8 6.79999C32.6 4.79999 37.2667 3.19999 41.8 1.99999C46.3333 0.799992 50.2667 0.199992 53.6 0.199992H54.2C54.8667 0.199992 55.5333 0.266658 56.2 0.39999C57 0.533329 57.4 0.733331 57.4 0.999994C57.4 1.4 56.3333 1.8 54.2 2.19999C51.9333 2.59999 48.8 3.39999 44.8 4.6C40.8 5.8 36.5333 7.26666 32 9C27.4667 10.7333 23.1333 12.6667 19 14.8C14.8667 16.8 11.4667 18.8667 8.8 21C6.13333 23 4.8 24.9333 4.8 26.8C4.8 28.8 6.66667 30.3333 10.4 31.4C14.1333 32.4667 18.8667 33 24.6 33C34.6 33 44.8667 31.8 55.4 29.4C65.9333 26.8667 76.5333 24 87.2 20.8C98 17.4667 108.733 14.6 119.4 12.2C130.2 9.66666 140.667 8.39999 150.8 8.39999C155.867 8.39999 160.867 8.79999 165.8 9.59999C167.8 9.86666 169.867 10.2 172 10.6C174.133 11 176.067 11.7333 177.8 12.8C179.667 13.7333 181.133 15.0667 182.2 16.8C183.267 18.4 183.6 20.6667 183.2 23.6C183.867 24.6667 184.667 26.2667 185.6 28.4C186.667 30.4 187.2 32.5333 187.2 34.8C187.2 36.4 186.733 37.9333 185.8 39.4C184.867 40.8667 183.067 42.1333 180.4 43.2L176 45C175.333 45.2667 174.333 46.0667 173 47.4C171.8 48.6 170.867 49.4 170.2 49.8C169.667 50.0667 169.133 50.2 168.6 50.2ZM71 144.4C67.1333 144.4 64.4 142.8 62.8 139.6C61.3333 136.533 60.6 133.6 60.6 130.8C60.6 125.733 62 119.8 64.8 113C67.7333 106.067 71.4667 98.8 76 91.2C80.6667 83.6 85.6 76.2 90.8 69C96.1333 61.8 101.267 55.2667 106.2 49.4C111.133 43.5333 115.267 39 118.6 35.8C117.8 34.7333 117.4 33.7333 117.4 32.8C117.4 31.2 118.2 29.6 119.8 28C121.4 26.4 123.2 25 125.2 23.8C127.2 22.4667 128.733 21.4 129.8 20.6C131.667 20.7333 133.733 21.2667 136 22.2C138.267 23.1333 139.4 24.6 139.4 26.6C139.4 28.6 138.267 30.6667 136 32.8C133.867 34.9333 132.133 36.6 130.8 37.8C129.867 38.7333 128.867 39.6 127.8 40.4C126.867 41.2 125.933 42 125 42.8C124.067 43.6 123.2 44.4 122.4 45.2C121.733 45.8667 121.133 46.4667 120.6 47C117.267 50.4667 113.2 54.8667 108.4 60.2C103.733 65.4 98.9333 71.1333 94 77.4C89.0667 83.6667 84.4667 90.1333 80.2 96.8C75.9333 103.467 72.4667 110 69.8 116.4C67.1333 122.667 65.8 128.467 65.8 133.8C65.8 135.933 66.2 137.867 67 139.6C67.9333 141.467 69.5333 142.733 71.8 143.4C72.0667 143.533 72.2667 143.6 72.4 143.6C72.5333 143.733 72.6 143.8 72.6 143.8C72.6 144.2 72.0667 144.4 71 144.4ZM115.958 134.6C112.358 134.6 109.024 133.333 105.958 130.8C103.024 128.133 101.558 124.267 101.558 119.2C101.558 115.2 102.624 110.867 104.758 106.2C106.891 101.533 109.624 97.0667 112.958 92.8C116.424 88.5333 120.091 85 123.958 82.2C127.824 79.4 131.424 77.9333 134.758 77.8C135.291 78.3333 135.891 78.7333 136.558 79C137.358 79.2667 138.091 79.5333 138.758 79.8L143.958 81C146.891 81.8 148.358 83.6667 148.358 86.6C148.358 88.3333 147.758 90.2 146.558 92.2C145.491 94.2 143.824 95.9333 141.558 97.4C140.358 98.2 139.024 99 137.558 99.8C136.224 100.6 134.824 101.4 133.358 102.2L124.358 107C121.558 108.467 119.091 110.067 116.958 111.8C114.824 113.4 113.291 115.133 112.358 117C112.358 117 112.158 117.067 111.758 117.2C111.491 117.2 111.424 116.933 111.558 116.4C112.491 114.133 114.291 111.867 116.958 109.6C119.758 107.2 122.558 105.133 125.358 103.4C126.691 102.333 128.024 101.4 129.358 100.6C130.824 99.8 132.224 98.9333 133.558 98C134.891 97.0667 136.158 96.1333 137.358 95.2C138.691 94.1333 139.824 93.1333 140.758 92.2C141.824 91.1333 142.558 90.0667 142.958 89C143.491 87.9333 143.758 87 143.758 86.2C143.758 83.6667 142.291 82.4 139.358 82.4C137.491 82.4 135.358 83.2 132.958 84.8C130.024 86.8 127.224 89.2 124.558 92C121.891 94.6667 119.358 97.6 116.958 100.8C114.424 104.267 112.158 108.267 110.158 112.8C108.291 117.333 107.358 121.133 107.358 124.2C107.358 127.267 108.224 129.467 109.958 130.8C111.824 132 113.958 132.6 116.358 132.6C119.691 132.6 122.891 131.733 125.958 130C128.224 128.667 130.358 127 132.358 125C134.358 122.867 136.024 121 137.358 119.4C138.424 118.067 139.624 116.467 140.958 114.6C142.424 112.733 143.424 111.333 143.958 110.4C144.224 110.133 144.424 110.133 144.558 110.4C144.691 110.667 144.758 110.867 144.758 111C144.224 111.933 143.291 113.467 141.958 115.6C140.758 117.6 138.958 120.133 136.558 123.2C133.758 126.8 130.824 129.6 127.758 131.6C124.691 133.6 120.758 134.6 115.958 134.6ZM149.355 134.2C146.555 134.2 144.421 132.867 142.955 130.2C141.621 127.4 140.955 125 140.955 123C140.955 118.333 142.355 113.467 145.155 108.4C147.955 103.333 151.488 98.5333 155.755 94C160.155 89.4667 164.755 85.8 169.555 83C174.355 80.2 178.821 78.8 182.955 78.8C184.155 78.8 185.488 79.3333 186.955 80.4C188.555 81.3333 190.021 82.8667 191.355 85C191.621 85.2667 191.955 85.8667 192.355 86.8C192.755 87.6 192.755 88.3333 192.355 89L192.155 88.6C191.888 87.9333 191.288 87.4 190.355 87C189.421 86.4667 188.021 86.2 186.155 86.2C183.088 86.2 179.621 87.2667 175.755 89.4C172.021 91.5333 168.221 94.4 164.355 98C160.621 101.6 157.221 105.533 154.155 109.8C151.088 114.067 148.821 118.4 147.355 122.8C146.421 125.067 145.955 127 145.955 128.6C145.955 130.6 146.688 131.6 148.155 131.6C149.221 131.6 150.488 131.067 151.955 130C154.755 127.867 157.688 125.133 160.755 121.8C163.821 118.467 166.755 115 169.555 111.4C172.488 107.8 175.021 104.467 177.155 101.4C179.421 98.3333 181.021 96.0667 181.955 94.6C182.355 94.0667 182.821 93.8 183.355 93.8C184.021 93.6667 184.821 93.6 185.755 93.6C188.421 93.6 190.088 94.0667 190.755 95C191.555 95.8 191.621 96.6667 190.955 97.6C189.221 100.133 187.355 103.067 185.355 106.4C183.488 109.733 181.821 113 180.355 116.2C179.021 119.4 178.355 122.267 178.355 124.8C178.355 126.8 179.155 127.8 180.755 127.8C182.221 127.8 183.821 126.933 185.555 125.2C187.155 123.733 189.021 121.6 191.155 118.8C193.421 116 195.621 113.067 197.755 110C200.021 106.933 201.888 104.267 203.355 102C203.888 101.333 204.288 101.067 204.555 101.2C204.955 101.2 204.955 101.6 204.555 102.4C202.421 105.733 200.221 109.2 197.955 112.8C195.688 116.267 193.288 119.533 190.755 122.6C185.955 128.733 182.355 131.8 179.955 131.8C177.821 131.8 175.821 131.133 173.955 129.8C172.088 128.467 171.155 126.533 171.155 124C171.155 121.333 171.688 118.267 172.755 114.8C173.955 111.2 175.021 108.4 175.955 106.4C173.155 110.667 169.955 114.933 166.355 119.2C162.755 123.467 159.355 127.067 156.155 130C153.088 132.8 150.821 134.2 149.355 134.2ZM256.461 147.6C252.861 147.6 250.461 146.467 249.261 144.2C248.061 142.067 247.461 139.933 247.461 137.8C247.461 134.333 248.128 130.733 249.461 127C250.928 123.133 252.528 119.333 254.261 115.6C257.328 109.333 259.728 104.6 261.461 101.4C263.194 98.2 264.394 95.8 265.061 94.2C265.861 92.6 266.261 91.1333 266.261 89.8C266.261 88.4667 265.928 87.6 265.261 87.2C264.594 86.8 263.928 86.6 263.261 86.6C262.328 86.6 261.261 87 260.061 87.8C258.861 88.4667 257.728 89.3333 256.661 90.4C254.394 92.8 251.928 95.8667 249.261 99.6C246.594 103.2 243.994 107 241.461 111C239.061 114.867 236.928 118.4 235.061 121.6C233.328 124.8 232.128 127.067 231.461 128.4C230.261 130.8 228.861 132 227.261 132C225.394 132 223.461 130.667 221.461 128C222.394 125.867 223.461 123.467 224.661 120.8C225.861 118 227.061 115.133 228.261 112.2C229.728 108.733 231.061 104.933 232.261 100.8C233.594 96.6667 234.261 93.2 234.261 90.4C234.261 87.6 233.528 86.2 232.061 86.2C230.861 86.2 229.261 87.2 227.261 89.2C225.394 90.9333 223.061 93.6 220.261 97.2C217.594 100.667 214.861 104.533 212.061 108.8C209.261 113.067 206.794 117.2 204.661 121.2C202.661 125.067 201.394 128.267 200.861 130.8C200.594 131.467 199.994 131.8 199.061 131.8C197.861 131.8 196.594 131.267 195.261 130.2C193.928 129.133 193.328 127.4 193.461 125C193.461 124.6 193.994 123.133 195.061 120.6C196.128 117.933 197.394 114.867 198.861 111.4C200.461 107.933 201.994 104.533 203.461 101.2C204.928 97.8667 206.128 95.2 207.061 93.2C206.128 92.4 205.594 91.8 205.461 91.4C205.461 91 205.528 90.6 205.661 90.2C206.061 89.6667 206.661 88.6667 207.461 87.2C208.261 85.6 209.061 84.0667 209.861 82.6C210.661 81 211.128 79.9333 211.261 79.4C211.794 79.1333 212.861 78.7333 214.461 78.2C216.194 77.5333 217.861 77.2 219.461 77.2H220.261C221.861 77.2 222.661 77.6667 222.661 78.6C222.661 79.5333 222.194 80.7333 221.261 82.2C220.861 82.8667 219.994 84.4667 218.661 87C217.328 89.4 215.794 92.2 214.061 95.4C212.328 98.6 210.728 101.667 209.261 104.6C207.928 107.4 206.928 109.6 206.261 111.2C205.594 112.667 205.394 114.2 205.661 115.8C208.328 111.4 211.528 106.533 215.261 101.2C218.994 95.7333 222.928 90.8667 227.061 86.6C228.661 84.7333 230.394 83.8 232.261 83.8C235.994 83.8 238.661 84.6667 240.261 86.4C241.994 88.1333 242.861 90.0667 242.861 92.2C242.861 94.7333 242.128 97.6667 240.661 101C240.128 102.333 239.194 104.733 237.861 108.2C236.528 111.533 235.194 114.8 233.861 118C235.861 115.2 238.328 111.667 241.261 107.4C244.328 103.133 247.461 98.9333 250.661 94.8C253.994 90.5333 256.994 87 259.661 84.2C262.328 81.4 264.261 80 265.461 80C268.394 80 270.994 81.0667 273.261 83.2C275.661 85.2 276.861 86.9333 276.861 88.4C276.861 90.5333 275.861 93.3333 273.861 96.8C271.861 100.267 268.528 105.733 263.861 113.2C261.194 117.467 258.528 122.267 255.861 127.6C253.328 132.8 252.061 137.333 252.061 141.2C252.061 144.667 253.061 146.4 255.061 146.4C256.261 146.4 257.528 145.8 258.861 144.6C259.794 143.8 260.728 142.933 261.661 142C262.594 141.067 263.528 140.267 264.461 139.6C263.394 142 262.261 143.933 261.061 145.4C259.861 146.867 258.328 147.6 256.461 147.6ZM293.255 132C290.188 132 287.388 131.267 284.855 129.8C282.455 128.2 281.255 125.933 281.255 123C281.255 121.933 281.455 120.8 281.855 119.6C282.255 118.267 282.788 117.267 283.455 116.6C283.455 118.067 283.921 119.4 284.855 120.6C285.788 121.667 286.855 122.533 288.055 123.2C289.255 123.733 290.388 124.133 291.455 124.4C292.655 124.667 293.721 124.8 294.655 124.8C297.721 124.8 300.121 123.733 301.855 121.6C303.588 119.333 304.455 116.933 304.455 114.4C304.455 112.133 303.855 110.133 302.655 108.4C301.855 107.333 300.988 106.4 300.055 105.6C299.121 104.667 298.121 103.733 297.055 102.8C296.255 102.133 295.521 101.333 294.855 100.4C294.188 99.4667 293.321 98.0667 292.255 96.2L283.855 109C281.855 111.933 279.988 114.667 278.255 117.2C276.521 119.733 274.255 122.667 271.455 126C270.655 126.933 270.055 127.4 269.655 127.4C269.121 127.267 269.188 126.733 269.855 125.8C272.921 121.933 275.455 118.6 277.455 115.8C279.455 113 281.788 109.6 284.455 105.6C285.788 103.733 287.121 101.6 288.455 99.2C289.921 96.8 290.988 94.3333 291.655 91.8C291.655 87.6667 293.055 84.0667 295.855 81C298.655 77.8 302.055 75.4 306.055 73.8C310.188 72.0667 314.055 71.4 317.655 71.8C318.455 71.8 319.321 72.4 320.255 73.6C321.188 74.8 321.988 76.1333 322.655 77.6C323.321 78.9333 323.655 80 323.655 80.8C323.655 81.2 323.521 81.4 323.255 81.4C322.855 81.4 322.321 81.1333 321.655 80.6C320.588 79.6667 318.988 79.2 316.855 79.2C314.055 79.2 310.988 80 307.655 81.6C304.321 83.0667 301.388 85 298.855 87.4C296.455 89.6667 295.255 92.0667 295.255 94.6C295.255 96.4667 295.988 98.2 297.455 99.8C299.055 101.4 300.788 102.933 302.655 104.4C304.655 105.733 306.255 107.2 307.455 108.8C308.788 110.267 309.721 111.733 310.255 113.2C310.788 114.667 311.055 116.133 311.055 117.6C311.055 120.133 310.255 122.467 308.655 124.6C307.055 126.6 305.121 128.267 302.855 129.6C300.055 131.2 296.855 132 293.255 132Z" fill="#0012A5" fill-opacity="0.06"/>
</svg>
