<svg width="615" height="148" viewBox="0 0 615 148" fill="none" xmlns="http://www.w3.org/2000/svg">
<path d="M168.6 50.2C168.067 50.2 167.8 50.0667 167.8 49.8C167.8 49.4 168.267 48.9333 169.2 48.4C172.133 46.5333 174.933 43.9333 177.6 40.6C180.4 37.1333 181.8 33.3333 181.8 29.2C181.8 26 180.6 23.4667 178.2 21.6C175.933 19.7333 173 18.3333 169.4 17.4C165.933 16.3333 162.467 15.6667 159 15.4C155.533 15 152.667 14.8 150.4 14.8C138.667 14.8 127.267 16.0667 116.2 18.6C105.133 21 94.2667 23.8667 83.6 27.2C72.9333 30.5333 62.1333 33.6667 51.2 36.6C40.4 39.5333 29.2 41.5333 17.6 42.6C12.2667 43.1333 8.06667 41.7333 5 38.4C2.06667 34.9333 0.600001 30.8667 0.600001 26.2C0.600001 24.3333 1.86667 22.2667 4.4 20C7.06667 17.6 10.4667 15.2667 14.6 13C18.7333 10.7333 23.1333 8.66666 27.8 6.79999C32.6 4.79999 37.2667 3.19999 41.8 1.99999C46.3333 0.799992 50.2667 0.199992 53.6 0.199992H54.2C54.8667 0.199992 55.5333 0.266658 56.2 0.39999C57 0.533329 57.4 0.733331 57.4 0.999994C57.4 1.4 56.3333 1.8 54.2 2.19999C51.9333 2.59999 48.8 3.39999 44.8 4.6C40.8 5.8 36.5333 7.26666 32 9C27.4667 10.7333 23.1333 12.6667 19 14.8C14.8667 16.8 11.4667 18.8667 8.8 21C6.13333 23 4.8 24.9333 4.8 26.8C4.8 28.8 6.66667 30.3333 10.4 31.4C14.1333 32.4667 18.8667 33 24.6 33C34.6 33 44.8667 31.8 55.4 29.4C65.9333 26.8667 76.5333 24 87.2 20.8C98 17.4667 108.733 14.6 119.4 12.2C130.2 9.66666 140.667 8.39999 150.8 8.39999C155.867 8.39999 160.867 8.79999 165.8 9.59999C167.8 9.86666 169.867 10.2 172 10.6C174.133 11 176.067 11.7333 177.8 12.8C179.667 13.7333 181.133 15.0667 182.2 16.8C183.267 18.4 183.6 20.6667 183.2 23.6C183.867 24.6667 184.667 26.2667 185.6 28.4C186.667 30.4 187.2 32.5333 187.2 34.8C187.2 36.4 186.733 37.9333 185.8 39.4C184.867 40.8667 183.067 42.1333 180.4 43.2L176 45C175.333 45.2667 174.333 46.0667 173 47.4C171.8 48.6 170.867 49.4 170.2 49.8C169.667 50.0667 169.133 50.2 168.6 50.2ZM71 144.4C67.1333 144.4 64.4 142.8 62.8 139.6C61.3333 136.533 60.6 133.6 60.6 130.8C60.6 125.733 62 119.8 64.8 113C67.7333 106.067 71.4667 98.8 76 91.2C80.6667 83.6 85.6 76.2 90.8 69C96.1333 61.8 101.267 55.2667 106.2 49.4C111.133 43.5333 115.267 39 118.6 35.8C117.8 34.7333 117.4 33.7333 117.4 32.8C117.4 31.2 118.2 29.6 119.8 28C121.4 26.4 123.2 25 125.2 23.8C127.2 22.4667 128.733 21.4 129.8 20.6C131.667 20.7333 133.733 21.2667 136 22.2C138.267 23.1333 139.4 24.6 139.4 26.6C139.4 28.6 138.267 30.6667 136 32.8C133.867 34.9333 132.133 36.6 130.8 37.8C129.867 38.7333 128.867 39.6 127.8 40.4C126.867 41.2 125.933 42 125 42.8C124.067 43.6 123.2 44.4 122.4 45.2C121.733 45.8667 121.133 46.4667 120.6 47C117.267 50.4667 113.2 54.8667 108.4 60.2C103.733 65.4 98.9333 71.1333 94 77.4C89.0667 83.6667 84.4667 90.1333 80.2 96.8C75.9333 103.467 72.4667 110 69.8 116.4C67.1333 122.667 65.8 128.467 65.8 133.8C65.8 135.933 66.2 137.867 67 139.6C67.9333 141.467 69.5333 142.733 71.8 143.4C72.0667 143.533 72.2667 143.6 72.4 143.6C72.5333 143.733 72.6 143.8 72.6 143.8C72.6 144.2 72.0667 144.4 71 144.4ZM115.958 134.6C112.358 134.6 109.024 133.333 105.958 130.8C103.024 128.133 101.558 124.267 101.558 119.2C101.558 115.2 102.624 110.867 104.758 106.2C106.891 101.533 109.624 97.0667 112.958 92.8C116.424 88.5333 120.091 85 123.958 82.2C127.824 79.4 131.424 77.9333 134.758 77.8C135.291 78.3333 135.891 78.7333 136.558 79C137.358 79.2667 138.091 79.5333 138.758 79.8L143.958 81C146.891 81.8 148.358 83.6667 148.358 86.6C148.358 88.3333 147.758 90.2 146.558 92.2C145.491 94.2 143.824 95.9333 141.558 97.4C140.358 98.2 139.024 99 137.558 99.8C136.224 100.6 134.824 101.4 133.358 102.2L124.358 107C121.558 108.467 119.091 110.067 116.958 111.8C114.824 113.4 113.291 115.133 112.358 117C112.358 117 112.158 117.067 111.758 117.2C111.491 117.2 111.424 116.933 111.558 116.4C112.491 114.133 114.291 111.867 116.958 109.6C119.758 107.2 122.558 105.133 125.358 103.4C126.691 102.333 128.024 101.4 129.358 100.6C130.824 99.8 132.224 98.9333 133.558 98C134.891 97.0667 136.158 96.1333 137.358 95.2C138.691 94.1333 139.824 93.1333 140.758 92.2C141.824 91.1333 142.558 90.0667 142.958 89C143.491 87.9333 143.758 87 143.758 86.2C143.758 83.6667 142.291 82.4 139.358 82.4C137.491 82.4 135.358 83.2 132.958 84.8C130.024 86.8 127.224 89.2 124.558 92C121.891 94.6667 119.358 97.6 116.958 100.8C114.424 104.267 112.158 108.267 110.158 112.8C108.291 117.333 107.358 121.133 107.358 124.2C107.358 127.267 108.224 129.467 109.958 130.8C111.824 132 113.958 132.6 116.358 132.6C119.691 132.6 122.891 131.733 125.958 130C128.224 128.667 130.358 127 132.358 125C134.358 122.867 136.024 121 137.358 119.4C138.424 118.067 139.624 116.467 140.958 114.6C142.424 112.733 143.424 111.333 143.958 110.4C144.224 110.133 144.424 110.133 144.558 110.4C144.691 110.667 144.758 110.867 144.758 111C144.224 111.933 143.291 113.467 141.958 115.6C140.758 117.6 138.958 120.133 136.558 123.2C133.758 126.8 130.824 129.6 127.758 131.6C124.691 133.6 120.758 134.6 115.958 134.6ZM155.755 132C152.688 132 149.888 131.267 147.355 129.8C144.955 128.2 143.755 125.933 143.755 123C143.755 121.933 143.955 120.8 144.355 119.6C144.755 118.267 145.288 117.267 145.955 116.6C145.955 118.067 146.421 119.4 147.355 120.6C148.288 121.667 149.355 122.533 150.555 123.2C151.755 123.733 152.888 124.133 153.955 124.4C155.155 124.667 156.221 124.8 157.155 124.8C160.221 124.8 162.621 123.733 164.355 121.6C166.088 119.333 166.955 116.933 166.955 114.4C166.955 112.133 166.355 110.133 165.155 108.4C164.355 107.333 163.488 106.4 162.555 105.6C161.621 104.667 160.621 103.733 159.555 102.8C158.755 102.133 158.021 101.333 157.355 100.4C156.688 99.4667 155.821 98.0667 154.755 96.2L146.355 109C144.355 111.933 142.488 114.667 140.755 117.2C139.021 119.733 136.755 122.667 133.955 126C133.155 126.933 132.555 127.4 132.155 127.4C131.621 127.267 131.688 126.733 132.355 125.8C135.421 121.933 137.955 118.6 139.955 115.8C141.955 113 144.288 109.6 146.955 105.6C148.288 103.733 149.621 101.6 150.955 99.2C152.421 96.8 153.488 94.3333 154.155 91.8C154.155 87.6667 155.555 84.0667 158.355 81C161.155 77.8 164.555 75.4 168.555 73.8C172.688 72.0667 176.555 71.4 180.155 71.8C180.955 71.8 181.821 72.4 182.755 73.6C183.688 74.8 184.488 76.1333 185.155 77.6C185.821 78.9333 186.155 80 186.155 80.8C186.155 81.2 186.021 81.4 185.755 81.4C185.355 81.4 184.821 81.1333 184.155 80.6C183.088 79.6667 181.488 79.2 179.355 79.2C176.555 79.2 173.488 80 170.155 81.6C166.821 83.0667 163.888 85 161.355 87.4C158.955 89.6667 157.755 92.0667 157.755 94.6C157.755 96.4667 158.488 98.2 159.955 99.8C161.555 101.4 163.288 102.933 165.155 104.4C167.155 105.733 168.755 107.2 169.955 108.8C171.288 110.267 172.221 111.733 172.755 113.2C173.288 114.667 173.555 116.133 173.555 117.6C173.555 120.133 172.755 122.467 171.155 124.6C169.555 126.6 167.621 128.267 165.355 129.6C162.555 131.2 159.355 132 155.755 132ZM194.222 135C191.422 135 188.955 133.867 186.822 131.6C184.822 129.333 183.822 126.067 183.822 121.8C183.822 118.6 184.555 114.733 186.022 110.2C187.622 105.533 189.555 100.667 191.822 95.6C194.222 90.4 196.689 85.5333 199.222 81C201.889 76.3333 204.222 72.4 206.222 69.2C203.955 69.2 201.955 69.2 200.222 69.2C198.489 69.0667 197.089 69.0667 196.022 69.2C195.089 69.2 194.489 69.0667 194.222 68.8C194.089 68.4 194.089 68.1333 194.222 68C194.222 67.6 194.422 67.0667 194.822 66.4C195.355 65.7333 195.822 65.4 196.222 65.4H208.422C209.089 64.6 209.955 63.2 211.022 61.2C212.222 59.2 213.422 57.0667 214.622 54.8C215.822 52.5333 216.822 50.5333 217.622 48.8C218.555 46.9333 219.022 45.8 219.022 45.4C219.022 44.2 218.622 43.3333 217.822 42.8C217.289 42.5333 217.022 42.4 217.022 42.4C216.889 42.4 216.822 42.4 216.822 42.4C216.822 42.2667 216.755 42.2 216.622 42.2C216.489 42.0667 216.422 41.8667 216.422 41.6C216.422 41.2 216.622 40.9333 217.022 40.8C217.422 40.5333 217.755 40.4 218.022 40.4C218.822 40.4 219.555 40.6 220.222 41C221.022 41.2667 222.289 41.8667 224.022 42.8C224.822 43.2 225.622 43.6 226.422 44C227.355 44.2667 228.089 44.6 228.622 45L230.222 46C229.422 47.3333 228.155 49.2 226.422 51.6C224.822 54 223.222 56.4667 221.622 59C220.022 61.5333 218.689 63.6667 217.622 65.4H253.422C255.022 65.4 255.822 65.6 255.822 66C255.822 66.4 255.222 66.8667 254.022 67.4C252.955 67.8 252.155 68 251.622 68C249.889 68.1333 247.422 68.2 244.222 68.2C241.155 68.2 237.822 68.2667 234.222 68.4C230.755 68.4 227.489 68.5333 224.422 68.8C221.489 68.9333 219.422 69.2 218.222 69.6C216.222 70.2667 213.955 72.4667 211.422 76.2C208.889 79.8 206.422 84.0667 204.022 89C201.755 93.9333 199.689 98.7333 197.822 103.4C197.422 104.467 196.689 106.267 195.622 108.8C194.689 111.333 193.755 114.067 192.822 117C192.022 119.933 191.622 122.667 191.622 125.2C191.622 127.6 192.089 129.333 193.022 130.4C193.955 131.467 195.089 132 196.422 132C198.022 132 199.822 131.067 201.822 129.2C203.955 127.333 206.289 124.933 208.822 122C211.489 118.667 213.955 115.333 216.222 112C218.622 108.533 220.155 106.2 220.822 105C221.889 103.267 222.555 102.4 222.822 102.4C222.955 102.4 223.022 102.467 223.022 102.6C223.022 103 222.822 103.733 222.422 104.8C222.022 105.733 221.622 106.533 221.222 107.2C218.822 110.667 216.222 114.533 213.422 118.8C210.622 123.067 207.755 126.733 204.822 129.8C201.355 133.267 197.822 135 194.222 135ZM255.192 74.2C253.192 73.4 251.459 72.1333 249.992 70.4C248.659 68.5333 248.192 66.5333 248.592 64.4C248.859 63.2 249.192 62.4667 249.592 62.2C250.126 61.8 251.526 61.5333 253.792 61.4L264.392 59.6C265.592 59.3333 266.192 59.3333 266.192 59.6C266.192 60.1333 265.726 60.5333 264.792 60.8C262.659 61.3333 260.792 62.1333 259.192 63.2C257.592 64.2667 256.259 65.7333 255.192 67.6C254.926 68 254.792 68.6 254.792 69.4C254.792 70.2 254.926 71 255.192 71.8C255.592 72.4667 255.992 73.0667 256.392 73.6C256.792 74.1333 256.792 74.4 256.392 74.4C256.126 74.4 255.726 74.3333 255.192 74.2ZM231.792 134.8C227.259 134.8 224.059 133.4 222.192 130.6C220.459 127.667 219.592 124.2 219.592 120.2C219.592 117.133 219.992 114 220.792 110.8C221.726 107.6 222.859 104.733 224.192 102.2C222.992 101.667 222.592 101.2 222.992 100.8C223.926 99.4667 225.059 97.8 226.392 95.8C227.859 93.8 229.326 91.8 230.792 89.8C232.526 87.5333 234.059 85.6667 235.392 84.2C236.859 82.7333 238.392 82 239.992 82C241.059 82 241.992 82.3333 242.792 83C243.726 83.6667 244.659 84.3333 245.592 85C242.526 88.2 239.459 92.1333 236.392 96.8C233.326 101.467 230.792 106.4 228.792 111.6C226.926 116.667 225.992 121.667 225.992 126.6C225.992 128.733 226.459 130.267 227.392 131.2C228.459 132 229.726 132.4 231.192 132.4C234.259 132.4 236.992 131.333 239.392 129.2C241.926 126.933 244.859 123.667 248.192 119.4C251.659 115 254.926 110.4 257.992 105.6C258.792 104.533 259.392 103.933 259.792 103.8C260.326 103.667 260.392 103.933 259.992 104.6C258.926 106.733 257.259 109.467 254.992 112.8C252.859 116 250.592 119.2 248.192 122.4C245.792 125.6 243.726 128.067 241.992 129.8C240.259 131.533 238.459 132.8 236.592 133.6C234.859 134.4 233.259 134.8 231.792 134.8ZM310.563 147.6C306.963 147.6 304.563 146.467 303.362 144.2C302.163 142.067 301.563 139.933 301.563 137.8C301.563 134.333 302.229 130.733 303.563 127C305.029 123.133 306.629 119.333 308.363 115.6C311.429 109.333 313.829 104.6 315.563 101.4C317.296 98.2 318.496 95.8 319.163 94.2C319.963 92.6 320.363 91.1333 320.363 89.8C320.363 88.4667 320.029 87.6 319.363 87.2C318.696 86.8 318.029 86.6 317.363 86.6C316.429 86.6 315.363 87 314.163 87.8C312.963 88.4667 311.829 89.3333 310.763 90.4C308.496 92.8 306.029 95.8667 303.362 99.6C300.696 103.2 298.096 107 295.563 111C293.163 114.867 291.029 118.4 289.163 121.6C287.429 124.8 286.229 127.067 285.563 128.4C284.363 130.8 282.963 132 281.363 132C279.496 132 277.563 130.667 275.563 128C276.496 125.867 277.563 123.467 278.763 120.8C279.963 118 281.163 115.133 282.363 112.2C283.829 108.733 285.163 104.933 286.363 100.8C287.696 96.6667 288.363 93.2 288.363 90.4C288.363 87.6 287.629 86.2 286.163 86.2C284.963 86.2 283.363 87.2 281.363 89.2C279.496 90.9333 277.163 93.6 274.363 97.2C271.696 100.667 268.963 104.533 266.163 108.8C263.363 113.067 260.896 117.2 258.763 121.2C256.763 125.067 255.496 128.267 254.963 130.8C254.696 131.467 254.096 131.8 253.163 131.8C251.963 131.8 250.696 131.267 249.363 130.2C248.029 129.133 247.429 127.4 247.563 125C247.563 124.6 248.096 123.133 249.163 120.6C250.229 117.933 251.496 114.867 252.963 111.4C254.563 107.933 256.096 104.533 257.563 101.2C259.029 97.8667 260.229 95.2 261.163 93.2C260.229 92.4 259.696 91.8 259.563 91.4C259.563 91 259.629 90.6 259.763 90.2C260.163 89.6667 260.763 88.6667 261.563 87.2C262.363 85.6 263.163 84.0667 263.963 82.6C264.763 81 265.229 79.9333 265.363 79.4C265.896 79.1333 266.963 78.7333 268.563 78.2C270.296 77.5333 271.963 77.2 273.563 77.2H274.363C275.963 77.2 276.763 77.6667 276.763 78.6C276.763 79.5333 276.296 80.7333 275.363 82.2C274.963 82.8667 274.096 84.4667 272.763 87C271.429 89.4 269.896 92.2 268.163 95.4C266.429 98.6 264.829 101.667 263.363 104.6C262.029 107.4 261.029 109.6 260.363 111.2C259.696 112.667 259.496 114.2 259.763 115.8C262.429 111.4 265.629 106.533 269.363 101.2C273.096 95.7333 277.029 90.8667 281.163 86.6C282.763 84.7333 284.496 83.8 286.363 83.8C290.096 83.8 292.763 84.6667 294.363 86.4C296.096 88.1333 296.963 90.0667 296.963 92.2C296.963 94.7333 296.229 97.6667 294.763 101C294.229 102.333 293.296 104.733 291.963 108.2C290.629 111.533 289.296 114.8 287.963 118C289.963 115.2 292.429 111.667 295.363 107.4C298.429 103.133 301.563 98.9333 304.763 94.8C308.096 90.5333 311.096 87 313.763 84.2C316.429 81.4 318.363 80 319.563 80C322.496 80 325.096 81.0667 327.363 83.2C329.763 85.2 330.963 86.9333 330.963 88.4C330.963 90.5333 329.963 93.3333 327.963 96.8C325.963 100.267 322.629 105.733 317.963 113.2C315.296 117.467 312.629 122.267 309.963 127.6C307.429 132.8 306.163 137.333 306.163 141.2C306.163 144.667 307.163 146.4 309.163 146.4C310.363 146.4 311.629 145.8 312.963 144.6C313.896 143.8 314.829 142.933 315.763 142C316.696 141.067 317.629 140.267 318.563 139.6C317.496 142 316.363 143.933 315.163 145.4C313.963 146.867 312.429 147.6 310.563 147.6ZM348.956 135C345.09 135 341.756 133.533 338.956 130.6C336.29 127.667 334.956 123.667 334.956 118.6C334.956 116.733 335.156 114.733 335.556 112.6C336.09 110.333 336.823 108 337.756 105.6C339.756 100.933 342.49 96.4667 345.956 92.2C349.556 87.9333 353.423 84.4 357.556 81.6C361.69 78.8 365.623 77.4 369.356 77.4C369.756 77.4 370.223 77.6 370.756 78C371.29 78.2667 371.69 78.5333 371.956 78.8L372.956 79.8C374.556 81.4 376.09 82.3333 377.556 82.6C379.156 82.8667 380.423 83.6667 381.356 85C382.956 87.5333 383.756 90.6 383.756 94.2C383.756 99.1333 382.223 104.533 379.156 110.4C376.223 116.133 372.223 121.333 367.156 126C364.623 128.267 361.823 130.333 358.756 132.2C355.69 134.067 352.423 135 348.956 135ZM350.356 132.8C353.556 132.8 356.823 131.733 360.156 129.6C363.49 127.333 366.556 124.4 369.356 120.8C372.29 117.2 374.756 113.4 376.756 109.4C378.89 105.4 380.223 101.6 380.756 98C380.89 97.3333 380.956 96.6667 380.956 96C381.09 95.2 381.156 94.5333 381.156 94C381.156 90.4 380.29 87.8 378.556 86.2C376.823 84.4667 374.756 83.6 372.356 83.6C369.823 83.6 367.223 84.4 364.556 86C362.023 87.4667 358.823 90.5333 354.956 95.2C351.09 99.7333 347.623 104.467 344.556 109.4C341.756 113.8 340.356 118.067 340.356 122.2C340.356 125.133 341.156 127.667 342.756 129.8C344.49 131.8 347.023 132.8 350.356 132.8ZM421.1 134.6C417.633 134.6 415.167 133.6 413.7 131.6C412.367 129.467 411.7 127 411.7 124.2C411.7 121 412.167 117.8 413.1 114.6C414.167 111.267 415.3 108.267 416.5 105.6C417.833 102.8 418.9 100.667 419.7 99.2C421.967 94.9333 423.1 92.1333 423.1 90.8C423.1 89.3333 422.433 88.8667 421.1 89.4C420.033 89.8 418.567 90.9333 416.7 92.8C414.833 94.6667 412.9 96.8 410.9 99.2C408.9 101.6 407.1 103.8 405.5 105.8C404.033 107.8 403.1 109.133 402.7 109.8C398.967 115.133 396.367 119.533 394.9 123C393.433 126.467 392.367 129 391.7 130.6C391.433 131.267 390.7 131.6 389.5 131.6C388.3 131.6 387.1 131.133 385.9 130.2C384.7 129.133 384.1 127.6 384.1 125.6C384.1 124.533 384.7 122.667 385.9 120C387.1 117.2 388.567 113.933 390.3 110.2C391.9 106.6 393.5 103 395.1 99.4C396.7 95.6667 397.967 92.7333 398.9 90.6C397.967 89.8 397.5 89.2 397.5 88.8C397.5 88.4 397.567 88.0667 397.7 87.8C397.967 87.1333 398.5 86.0667 399.3 84.6C400.1 83 400.9 81.4667 401.7 80C402.5 78.4 403.033 77.4 403.3 77C403.7 76.7333 404.7 76.2667 406.3 75.6C408.033 74.9333 409.7 74.6 411.3 74.6H412.1C413.7 74.6 414.5 75.0667 414.5 76C414.5 76.9333 414.033 78.1333 413.1 79.6C412.7 80.2667 411.767 82 410.3 84.8C408.833 87.4667 407.167 90.5333 405.3 94C403.433 97.4667 401.7 100.8 400.1 104C398.633 107.067 397.567 109.4 396.9 111C396.5 112.2 396.3 113.4 396.3 114.6C396.433 115.667 396.767 115.8 397.3 115C401.033 109.4 404.5 104.6 407.7 100.6C410.9 96.6 414.1 92.8667 417.3 89.4C420.5 85.9333 424.033 82.3333 427.9 78.6C429.233 79.1333 430.633 79.4 432.1 79.4C433.567 79.4 434.833 79.8 435.9 80.6C436.433 81 436.7 81.6667 436.7 82.6C436.7 84.4667 435.567 87.2667 433.3 91C431.167 94.6 428.767 98.6667 426.1 103.2C424.1 106.667 422.1 110.667 420.1 115.2C418.1 119.733 417.1 123.667 417.1 127C417.1 128.733 417.367 130.2 417.9 131.4C418.567 132.467 419.567 133 420.9 133C422.1 133 423.433 132.533 424.9 131.6C425.967 130.933 428.3 128.733 431.9 125C435.5 121.133 439.433 115.933 443.7 109.4C444.1 109 444.367 108.8 444.5 108.8C444.767 108.8 444.9 108.933 444.9 109.2C444.9 109.467 444.7 110 444.3 110.8C439.9 118.267 435.5 124.133 431.1 128.4C426.833 132.533 423.5 134.6 421.1 134.6ZM480.973 74.2C478.973 73.4 477.24 72.1333 475.773 70.4C474.44 68.5333 473.973 66.5333 474.373 64.4C474.64 63.2 474.973 62.4667 475.373 62.2C475.907 61.8 477.307 61.5333 479.573 61.4L490.173 59.6C491.373 59.3333 491.973 59.3333 491.973 59.6C491.973 60.1333 491.507 60.5333 490.573 60.8C488.44 61.3333 486.573 62.1333 484.973 63.2C483.373 64.2667 482.04 65.7333 480.973 67.6C480.707 68 480.573 68.6 480.573 69.4C480.573 70.2 480.707 71 480.973 71.8C481.373 72.4667 481.773 73.0667 482.173 73.6C482.573 74.1333 482.573 74.4 482.173 74.4C481.907 74.4 481.507 74.3333 480.973 74.2ZM457.573 134.8C453.04 134.8 449.84 133.4 447.973 130.6C446.24 127.667 445.373 124.2 445.373 120.2C445.373 117.133 445.773 114 446.573 110.8C447.507 107.6 448.64 104.733 449.973 102.2C448.773 101.667 448.373 101.2 448.773 100.8C449.707 99.4667 450.84 97.8 452.173 95.8C453.64 93.8 455.107 91.8 456.573 89.8C458.307 87.5333 459.84 85.6667 461.173 84.2C462.64 82.7333 464.173 82 465.773 82C466.84 82 467.773 82.3333 468.573 83C469.507 83.6667 470.44 84.3333 471.373 85C468.307 88.2 465.24 92.1333 462.173 96.8C459.107 101.467 456.573 106.4 454.573 111.6C452.707 116.667 451.773 121.667 451.773 126.6C451.773 128.733 452.24 130.267 453.173 131.2C454.24 132 455.507 132.4 456.973 132.4C460.04 132.4 462.773 131.333 465.173 129.2C467.707 126.933 470.64 123.667 473.973 119.4C477.44 115 480.707 110.4 483.773 105.6C484.573 104.533 485.173 103.933 485.573 103.8C486.107 103.667 486.173 103.933 485.773 104.6C484.707 106.733 483.04 109.467 480.773 112.8C478.64 116 476.373 119.2 473.973 122.4C471.573 125.6 469.507 128.067 467.773 129.8C466.04 131.533 464.24 132.8 462.373 133.6C460.64 134.4 459.04 134.8 457.573 134.8ZM483.144 134.2C480.344 134.2 478.21 132.867 476.744 130.2C475.41 127.4 474.744 125 474.744 123C474.744 118.333 476.144 113.467 478.944 108.4C481.744 103.333 485.277 98.5333 489.544 94C493.944 89.4667 498.544 85.8 503.344 83C508.144 80.2 512.61 78.8 516.744 78.8C517.944 78.8 519.277 79.3333 520.744 80.4C522.344 81.3333 523.81 82.8667 525.144 85C525.41 85.2667 525.744 85.8667 526.144 86.8C526.544 87.6 526.544 88.3333 526.144 89L525.944 88.6C525.677 87.9333 525.077 87.4 524.144 87C523.21 86.4667 521.81 86.2 519.944 86.2C516.877 86.2 513.41 87.2667 509.544 89.4C505.81 91.5333 502.01 94.4 498.144 98C494.41 101.6 491.01 105.533 487.944 109.8C484.877 114.067 482.61 118.4 481.144 122.8C480.21 125.067 479.744 127 479.744 128.6C479.744 130.6 480.477 131.6 481.944 131.6C483.01 131.6 484.277 131.067 485.744 130C488.544 127.867 491.477 125.133 494.544 121.8C497.61 118.467 500.544 115 503.344 111.4C506.277 107.8 508.81 104.467 510.944 101.4C513.21 98.3333 514.81 96.0667 515.744 94.6C516.144 94.0667 516.61 93.8 517.144 93.8C517.81 93.6667 518.61 93.6 519.544 93.6C522.21 93.6 523.877 94.0667 524.544 95C525.344 95.8 525.41 96.6667 524.744 97.6C523.01 100.133 521.144 103.067 519.144 106.4C517.277 109.733 515.61 113 514.144 116.2C512.81 119.4 512.144 122.267 512.144 124.8C512.144 126.8 512.944 127.8 514.544 127.8C516.01 127.8 517.61 126.933 519.344 125.2C520.944 123.733 522.81 121.6 524.944 118.8C527.21 116 529.41 113.067 531.544 110C533.81 106.933 535.677 104.267 537.144 102C537.677 101.333 538.077 101.067 538.344 101.2C538.744 101.2 538.744 101.6 538.344 102.4C536.21 105.733 534.01 109.2 531.744 112.8C529.477 116.267 527.077 119.533 524.544 122.6C519.744 128.733 516.144 131.8 513.744 131.8C511.61 131.8 509.61 131.133 507.744 129.8C505.877 128.467 504.944 126.533 504.944 124C504.944 121.333 505.477 118.267 506.544 114.8C507.744 111.2 508.81 108.4 509.744 106.4C506.944 110.667 503.744 114.933 500.144 119.2C496.544 123.467 493.144 127.067 489.944 130C486.877 132.8 484.61 134.2 483.144 134.2ZM545.25 135.6C541.917 135.6 539.05 134.4 536.65 132C534.25 129.733 533.05 126 533.05 120.8C533.05 114.133 534.783 106 538.25 96.4C541.717 86.8 546.117 76.7333 551.45 66.2C555.583 58.3333 559.983 50.8 564.65 43.6C569.317 36.4 573.917 30 578.45 24.4C582.983 18.6667 587.117 14.2 590.85 11C594.717 7.66666 597.85 5.99999 600.25 5.99999C602.517 5.99999 604.183 6.59999 605.25 7.79999C606.45 8.99999 607.45 10.3333 608.25 11.8C609.183 13.2667 610.383 14.4667 611.85 15.4C611.717 18.4667 610.117 22.3333 607.05 27C603.983 31.6667 600.317 36.7333 596.05 42.2C593.25 45.5333 589.25 50.2667 584.05 56.4C578.983 62.4 573.917 68.6 568.85 75C564.717 80.0667 561.05 84.9333 557.85 89.6C554.65 94.2667 552.183 98.1333 550.45 101.2C549.917 102.133 549.517 102.467 549.25 102.2C548.983 101.933 548.983 101.533 549.25 101C550.583 98.3333 552.65 94.9333 555.45 90.8C558.383 86.5333 561.65 82 565.25 77.2C568.85 72.4 572.383 67.8 575.85 63.4C579.317 58.8667 582.317 54.9333 584.85 51.6C587.383 48.2667 589.117 46.0667 590.05 45C592.05 42.4667 593.983 40.0667 595.85 37.8C597.717 35.4 599.383 33.1333 600.85 31C602.45 28.6 603.583 26.4667 604.25 24.6C605.05 22.7333 605.45 21.2 605.45 20C605.45 17.8667 604.583 16.8 602.85 16.8C601.65 16.8 600.117 17.4 598.25 18.6C596.517 19.8 594.517 21.7333 592.25 24.4C588.917 28.4 584.983 33.3333 580.45 39.2C576.05 44.9333 571.517 51.2667 566.85 58.2C562.183 65.1333 557.85 72.4 553.85 80C549.983 87.4667 546.783 95 544.25 102.6C541.85 110.067 540.65 117.267 540.65 124.2C540.65 127.4 541.317 129.667 542.65 131C543.983 132.333 545.583 133 547.45 133C549.45 133 551.517 132.467 553.65 131.4C555.917 130.2 557.783 128.733 559.25 127C561.517 124.6 563.717 121.933 565.85 119C568.117 116.067 570.117 113.333 571.85 110.8C573.717 108.133 575.05 106.133 575.85 104.8C576.25 104.133 576.65 103.8 577.05 103.8C577.717 103.8 577.717 104.333 577.05 105.4C574.917 109 572.383 112.8 569.45 116.8C566.65 120.667 564.117 124 561.85 126.8C559.717 129.467 557.117 131.6 554.05 133.2C551.117 134.8 548.183 135.6 545.25 135.6ZM584.075 132C581.008 132 578.208 131.267 575.675 129.8C573.275 128.2 572.075 125.933 572.075 123C572.075 121.933 572.275 120.8 572.675 119.6C573.075 118.267 573.608 117.267 574.275 116.6C574.275 118.067 574.742 119.4 575.675 120.6C576.608 121.667 577.675 122.533 578.875 123.2C580.075 123.733 581.208 124.133 582.275 124.4C583.475 124.667 584.542 124.8 585.475 124.8C588.542 124.8 590.942 123.733 592.675 121.6C594.408 119.333 595.275 116.933 595.275 114.4C595.275 112.133 594.675 110.133 593.475 108.4C592.675 107.333 591.808 106.4 590.875 105.6C589.942 104.667 588.942 103.733 587.875 102.8C587.075 102.133 586.342 101.333 585.675 100.4C585.008 99.4667 584.142 98.0667 583.075 96.2L574.675 109C572.675 111.933 570.808 114.667 569.075 117.2C567.342 119.733 565.075 122.667 562.275 126C561.475 126.933 560.875 127.4 560.475 127.4C559.942 127.267 560.008 126.733 560.675 125.8C563.742 121.933 566.275 118.6 568.275 115.8C570.275 113 572.608 109.6 575.275 105.6C576.608 103.733 577.942 101.6 579.275 99.2C580.742 96.8 581.808 94.3333 582.475 91.8C582.475 87.6667 583.875 84.0667 586.675 81C589.475 77.8 592.875 75.4 596.875 73.8C601.008 72.0667 604.875 71.4 608.475 71.8C609.275 71.8 610.142 72.4 611.075 73.6C612.008 74.8 612.808 76.1333 613.475 77.6C614.142 78.9333 614.475 80 614.475 80.8C614.475 81.2 614.342 81.4 614.075 81.4C613.675 81.4 613.142 81.1333 612.475 80.6C611.408 79.6667 609.808 79.2 607.675 79.2C604.875 79.2 601.808 80 598.475 81.6C595.142 83.0667 592.208 85 589.675 87.4C587.275 89.6667 586.075 92.0667 586.075 94.6C586.075 96.4667 586.808 98.2 588.275 99.8C589.875 101.4 591.608 102.933 593.475 104.4C595.475 105.733 597.075 107.2 598.275 108.8C599.608 110.267 600.542 111.733 601.075 113.2C601.608 114.667 601.875 116.133 601.875 117.6C601.875 120.133 601.075 122.467 599.475 124.6C597.875 126.6 595.942 128.267 593.675 129.6C590.875 131.2 587.675 132 584.075 132Z" fill="#0012A5" fill-opacity="0.06"/>
</svg>
