<svg width="82" height="82" viewBox="0 0 82 82" fill="none" xmlns="http://www.w3.org/2000/svg">
<rect width="82" height="82" fill="#1E1E1E"/>
<g clip-path="url(#clip0_0_1)">
<rect width="1600" height="4600" transform="translate(-685 -966)" fill="white"/>
<circle cx="41" cy="41" r="41" fill="url(#paint0_linear_0_1)"/>
<path d="M-469.5 14C-469.5 9.85786 -466.142 6.5 -462 6.5H-19.0555C-16.9334 6.5 -14.9106 7.39903 -13.4885 8.97423L79.567 112.051C80.8112 113.429 81.5 115.22 81.5 117.077V223C81.5 227.142 78.1422 230.5 74 230.5H-462C-466.142 230.5 -469.5 227.142 -469.5 223V14Z" fill="#F2F2FF" stroke="#D5D5FF"/>
<path d="M55.7352 28.0148C54.8572 27.1338 53.814 26.4348 52.6653 25.9578C51.5167 25.4809 50.2852 25.2354 49.0414 25.2354C47.7976 25.2354 46.5661 25.4809 45.4175 25.9578C44.2688 26.4348 43.2256 27.1338 42.3477 28.0148L41.0002 29.3798L39.6527 28.0148C38.7747 27.1338 37.7315 26.4348 36.5828 25.9578C35.4342 25.4809 34.2027 25.2354 32.9589 25.2354C31.7151 25.2354 30.4836 25.4809 29.335 25.9578C28.1863 26.4348 27.1431 27.1338 26.2652 28.0148C22.5552 31.7248 22.3277 37.9898 27.0002 42.7498L41.0002 56.7498L55.0002 42.7498C59.6727 37.9898 59.4452 31.7248 55.7352 28.0148Z" stroke="white" stroke-width="2" stroke-linecap="round" stroke-linejoin="round"/>
<path d="M41 29.3799L35.5225 34.8749C34.83 35.573 34.4414 36.5165 34.4414 37.4999C34.4414 38.4832 34.83 39.4267 35.5225 40.1249C36.2206 40.8174 37.1641 41.2059 38.1475 41.2059C39.1308 41.2059 40.0743 40.8174 40.7725 40.1249L44.7275 36.2574C45.7104 35.2849 47.0373 34.7394 48.42 34.7394C49.8027 34.7394 51.1296 35.2849 52.1125 36.2574L56.3125 40.4574" stroke="white" stroke-width="2" stroke-linecap="round" stroke-linejoin="round"/>
<path d="M51.5 46.25L48 42.75" stroke="white" stroke-width="2" stroke-linecap="round" stroke-linejoin="round"/>
<path d="M46.25 51.5L42.75 48" stroke="white" stroke-width="2" stroke-linecap="round" stroke-linejoin="round"/>
</g>
<defs>
<linearGradient id="paint0_linear_0_1" x1="41" y1="0" x2="41" y2="82" gradientUnits="userSpaceOnUse">
<stop stop-color="#0027B5"/>
<stop offset="1" stop-color="#00006A"/>
</linearGradient>
<clipPath id="clip0_0_1">
<rect width="1600" height="4600" fill="white" transform="translate(-685 -966)"/>
</clipPath>
</defs>
</svg>
