<svg width="298" height="144" viewBox="0 0 298 144" fill="none" xmlns="http://www.w3.org/2000/svg">
<path d="M11.4 143.4C10.0667 142.867 8.6 142.467 7 142.2C6.06667 142.067 4.86667 141.667 3.4 141C2.06667 140.333 1.06667 138.333 0.4 135C0.266667 134.6 0.2 134 0.2 133.2C0.2 132.133 0.333334 131.2 0.6 130.4C0.866667 129.467 1.2 128.533 1.6 127.6C2.8 124.667 4.13333 121.8 5.6 119C7.06667 116.2 8.53333 113.4 10 110.6C13.8667 103 17.6 94.6 21.2 85.4C24.8 76.2 27.9333 66.8 30.6 57.2C33.2667 47.4667 35.0667 38.1333 36 29.2C36 28.8 36 28.3333 36 27.8C36.1333 27.1333 36.2 26.5333 36.2 26C36.2 23.7333 35.8 21.3333 35 18.8C34.3333 16.2667 32.8 15 30.4 15C26 15 22.1333 18.5333 18.8 25.6C18.6667 26.1333 18.3333 26.4667 17.8 26.6C17.2667 26.7333 17.0667 26.3333 17.2 25.4C17.3333 25.1333 17.4667 24.8 17.6 24.4C17.7333 24 17.8667 23.6 18 23.2C18.2667 22.1333 18.6 20.8667 19 19.4C19.5333 17.8 20.0667 16.2667 20.6 14.8C21.6667 11.6 23.1333 10 25 10C25.8 10 27.0667 10.4667 28.8 11.4C30.6667 12.2 32.5333 13.1333 34.4 14.2C36.2667 15.1333 37.5333 15.8667 38.2 16.4C39.4 17.3333 40.2667 18.4 40.8 19.6C41.4667 20.6667 41.9333 21.9333 42.2 23.4C42.6 25.4 42.8 27.5333 42.8 29.8C42.8 35.1333 42 41.3333 40.4 48.4C38.8 55.4667 36.8 62.7333 34.4 70.2C32.5333 76.2 30.3333 82.4 27.8 88.8C25.4 95.0667 23.0667 100.933 20.8 106.4C18.5333 111.867 16.7333 116.333 15.4 119.8C15.2667 120.2 15 120.933 14.6 122C14.3333 123.067 14.2 124.067 14.2 125C14.2 126.333 14.7333 126.8 15.8 126.4C16.4667 126.133 17.1333 125.8 17.8 125.4C18.6 125 20 123.733 22 121.6C30.8 111.6 39.0667 101.2 46.8 90.4C54.6667 79.6 62.5333 68.8667 70.4 58.2C78.2667 47.4 86.6 37.1333 95.4 27.4C102.333 19.6667 109.867 13.2 118 7.99999C126.133 2.79999 135 0.199994 144.6 0.199994C148.467 0.199994 152.533 0.86666 156.8 2.19999C161.2 3.53332 165.133 5.53333 168.6 8.2C172.067 10.7333 174.333 14.0667 175.4 18.2C175.4 18.3333 175.4 18.4667 175.4 18.6C175.533 18.6 175.6 18.6667 175.6 18.8C175.6 19.3333 175.333 19.6 174.8 19.6C174.4 19.4667 174.067 19.1333 173.8 18.6C173.133 15.6667 171.467 13.4 168.8 11.8C166.133 10.2 163.2 9.13333 160 8.59999C156.8 7.93333 154 7.59999 151.6 7.59999C144.4 7.59999 136.8 9.79999 128.8 14.2C120.8 18.4667 112.667 24.2 104.4 31.4C96.2667 38.6 88.2 46.6667 80.2 55.6C72.2 64.5333 64.4667 73.6667 57 83C49.6667 92.2 42.8667 101 36.6 109.4C30.3333 117.667 24.8 124.8 20 130.8C18.4 132.8 16.7333 134.933 15 137.2C13.4 139.467 12.2 141.533 11.4 143.4ZM67.6125 136.2C64.8125 136.2 62.6792 134.867 61.2125 132.2C59.8792 129.4 59.2125 127 59.2125 125C59.2125 120.333 60.6125 115.467 63.4125 110.4C66.2125 105.333 69.7458 100.533 74.0125 96C78.4125 91.4667 83.0125 87.8 87.8125 85C92.6125 82.2 97.0792 80.8 101.213 80.8C102.413 80.8 103.746 81.3333 105.213 82.4C106.813 83.3333 108.279 84.8667 109.613 87C109.879 87.2667 110.213 87.8667 110.613 88.8C111.013 89.6 111.013 90.3333 110.613 91L110.413 90.6C110.146 89.9333 109.546 89.4 108.613 89C107.679 88.4667 106.279 88.2 104.413 88.2C101.346 88.2 97.8792 89.2667 94.0125 91.4C90.2792 93.5333 86.4792 96.4 82.6125 100C78.8792 103.6 75.4792 107.533 72.4125 111.8C69.3458 116.067 67.0792 120.4 65.6125 124.8C64.6792 127.067 64.2125 129 64.2125 130.6C64.2125 132.6 64.9458 133.6 66.4125 133.6C67.4792 133.6 68.7458 133.067 70.2125 132C73.0125 129.867 75.9458 127.133 79.0125 123.8C82.0792 120.467 85.0125 117 87.8125 113.4C90.7458 109.8 93.2792 106.467 95.4125 103.4C97.6792 100.333 99.2792 98.0667 100.213 96.6C100.613 96.0667 101.079 95.8 101.613 95.8C102.279 95.6667 103.079 95.6 104.013 95.6C106.679 95.6 108.346 96.0667 109.013 97C109.813 97.8 109.879 98.6667 109.213 99.6C107.479 102.133 105.613 105.067 103.613 108.4C101.746 111.733 100.079 115 98.6125 118.2C97.2792 121.4 96.6125 124.267 96.6125 126.8C96.6125 128.8 97.4125 129.8 99.0125 129.8C100.479 129.8 102.079 128.933 103.813 127.2C105.413 125.733 107.279 123.6 109.413 120.8C111.679 118 113.879 115.067 116.013 112C118.279 108.933 120.146 106.267 121.613 104C122.146 103.333 122.546 103.067 122.813 103.2C123.213 103.2 123.213 103.6 122.813 104.4C120.679 107.733 118.479 111.2 116.213 114.8C113.946 118.267 111.546 121.533 109.013 124.6C104.213 130.733 100.613 133.8 98.2125 133.8C96.0792 133.8 94.0792 133.133 92.2125 131.8C90.3458 130.467 89.4125 128.533 89.4125 126C89.4125 123.333 89.9458 120.267 91.0125 116.8C92.2125 113.2 93.2792 110.4 94.2125 108.4C91.4125 112.667 88.2125 116.933 84.6125 121.2C81.0125 125.467 77.6125 129.067 74.4125 132C71.3458 134.8 69.0792 136.2 67.6125 136.2ZM129.719 137.6C126.385 137.6 123.519 136.4 121.119 134C118.719 131.733 117.519 128 117.519 122.8C117.519 116.133 119.252 108 122.719 98.4C126.185 88.8 130.585 78.7333 135.919 68.2C140.052 60.3333 144.452 52.8 149.119 45.6C153.785 38.4 158.385 32 162.919 26.4C167.452 20.6667 171.585 16.2 175.319 13C179.185 9.66666 182.319 7.99999 184.719 7.99999C186.985 7.99999 188.652 8.59999 189.719 9.79999C190.919 11 191.919 12.3333 192.719 13.8C193.652 15.2667 194.852 16.4667 196.319 17.4C196.185 20.4667 194.585 24.3333 191.519 29C188.452 33.6667 184.785 38.7333 180.519 44.2C177.719 47.5333 173.719 52.2667 168.519 58.4C163.452 64.4 158.385 70.6 153.319 77C149.185 82.0667 145.519 86.9333 142.319 91.6C139.119 96.2667 136.652 100.133 134.919 103.2C134.385 104.133 133.985 104.467 133.719 104.2C133.452 103.933 133.452 103.533 133.719 103C135.052 100.333 137.119 96.9333 139.919 92.8C142.852 88.5333 146.119 84 149.719 79.2C153.319 74.4 156.852 69.8 160.319 65.4C163.785 60.8667 166.785 56.9333 169.319 53.6C171.852 50.2667 173.585 48.0667 174.519 47C176.519 44.4667 178.452 42.0667 180.319 39.8C182.185 37.4 183.852 35.1333 185.319 33C186.919 30.6 188.052 28.4667 188.719 26.6C189.519 24.7333 189.919 23.2 189.919 22C189.919 19.8667 189.052 18.8 187.319 18.8C186.119 18.8 184.585 19.4 182.719 20.6C180.985 21.8 178.985 23.7333 176.719 26.4C173.385 30.4 169.452 35.3333 164.919 41.2C160.519 46.9333 155.985 53.2667 151.319 60.2C146.652 67.1333 142.319 74.4 138.319 82C134.452 89.4667 131.252 97 128.719 104.6C126.319 112.067 125.119 119.267 125.119 126.2C125.119 129.4 125.785 131.667 127.119 133C128.452 134.333 130.052 135 131.919 135C133.919 135 135.985 134.467 138.119 133.4C140.385 132.2 142.252 130.733 143.719 129C145.985 126.6 148.185 123.933 150.319 121C152.585 118.067 154.585 115.333 156.319 112.8C158.185 110.133 159.519 108.133 160.319 106.8C160.719 106.133 161.119 105.8 161.519 105.8C162.185 105.8 162.185 106.333 161.519 107.4C159.385 111 156.852 114.8 153.919 118.8C151.119 122.667 148.585 126 146.319 128.8C144.185 131.467 141.585 133.6 138.519 135.2C135.585 136.8 132.652 137.6 129.719 137.6ZM163.744 134.6C160.81 134.6 158.544 133.933 156.944 132.6C155.477 131.267 154.877 129.533 155.144 127.4C155.41 125.933 155.81 124.267 156.344 122.4C156.877 120.533 157.544 118.667 158.344 116.8L163.144 105.6C163.01 105.333 162.877 105.133 162.744 105C162.744 104.733 162.744 104.533 162.744 104.4C162.61 103.867 162.677 103.4 162.944 103C166.41 97.6667 169.61 93.2 172.544 89.6C175.477 86 177.41 84.2 178.344 84.2C180.21 84.2 182.41 85.4667 184.944 88C183.21 90.1333 181.41 92.5333 179.544 95.2C177.677 97.7333 175.877 100.333 174.144 103C172.277 105.8 170.277 108.867 168.144 112.2C166.144 115.4 164.744 118.333 163.944 121C163.144 123.4 162.744 125.267 162.744 126.6C162.744 128.467 163.41 129.4 164.744 129.4C166.477 129.4 169.01 127.6 172.344 124C174.61 121.6 177.077 118.667 179.744 115.2C182.544 111.6 185.21 108 187.744 104.4C190.41 100.667 192.877 97.2 195.144 94C197.544 90.6667 199.544 88 201.144 86C202.61 84.1333 203.944 83.2 205.144 83.2C206.877 83.2 208.877 84.6667 211.144 87.6C209.277 90.2667 207.01 93.7333 204.344 98C201.677 102.133 199.21 106.4 196.944 110.8C194.81 115.067 193.41 118.867 192.744 122.2C192.61 122.733 192.477 123.267 192.344 123.8C192.344 124.333 192.344 124.933 192.344 125.6C192.344 129.467 193.344 131.4 195.344 131.4C196.41 131.4 197.677 130.8 199.144 129.6C200.744 128.4 202.277 127 203.744 125.4C205.21 123.8 206.344 122.467 207.144 121.4C211.41 115.667 215.477 109.733 219.344 103.6C220.144 102.4 220.677 101.8 220.944 101.8C221.21 101.8 221.277 102.067 221.144 102.6C221.144 103 221.077 103.333 220.944 103.6C218.277 108 215.144 112.8 211.544 118C208.077 123.2 204.61 127.467 201.144 130.8C199.277 132.667 197.41 133.6 195.544 133.6C191.944 133.6 189.277 132.733 187.544 131C185.81 129.267 184.944 127.333 184.944 125.2C184.944 123.867 185.144 122.467 185.544 121C185.944 119.4 186.41 117.8 186.944 116.2L192.344 102C190.344 104.533 188.677 106.667 187.344 108.4C186.01 110 184.81 111.533 183.744 113C182.81 114.333 181.744 115.867 180.544 117.6C179.344 119.2 178.077 120.8 176.744 122.4C174.21 125.733 171.744 128.6 169.344 131C166.944 133.4 165.077 134.6 163.744 134.6ZM227.575 136.6C223.975 136.6 220.642 135.333 217.575 132.8C214.642 130.133 213.175 126.267 213.175 121.2C213.175 117.2 214.242 112.867 216.375 108.2C218.508 103.533 221.242 99.0667 224.575 94.8C228.042 90.5333 231.708 87 235.575 84.2C239.442 81.4 243.042 79.9333 246.375 79.8C246.908 80.3333 247.508 80.7333 248.175 81C248.975 81.2667 249.708 81.5333 250.375 81.8L255.575 83C258.508 83.8 259.975 85.6667 259.975 88.6C259.975 90.3333 259.375 92.2 258.175 94.2C257.108 96.2 255.442 97.9333 253.175 99.4C251.975 100.2 250.642 101 249.175 101.8C247.842 102.6 246.442 103.4 244.975 104.2L235.975 109C233.175 110.467 230.708 112.067 228.575 113.8C226.442 115.4 224.908 117.133 223.975 119C223.975 119 223.775 119.067 223.375 119.2C223.108 119.2 223.042 118.933 223.175 118.4C224.108 116.133 225.908 113.867 228.575 111.6C231.375 109.2 234.175 107.133 236.975 105.4C238.308 104.333 239.642 103.4 240.975 102.6C242.442 101.8 243.842 100.933 245.175 100C246.508 99.0667 247.775 98.1333 248.975 97.2C250.308 96.1333 251.442 95.1333 252.375 94.2C253.442 93.1333 254.175 92.0667 254.575 91C255.108 89.9333 255.375 89 255.375 88.2C255.375 85.6667 253.908 84.4 250.975 84.4C249.108 84.4 246.975 85.2 244.575 86.8C241.642 88.8 238.842 91.2 236.175 94C233.508 96.6667 230.975 99.6 228.575 102.8C226.042 106.267 223.775 110.267 221.775 114.8C219.908 119.333 218.975 123.133 218.975 126.2C218.975 129.267 219.842 131.467 221.575 132.8C223.442 134 225.575 134.6 227.975 134.6C231.308 134.6 234.508 133.733 237.575 132C239.842 130.667 241.975 129 243.975 127C245.975 124.867 247.642 123 248.975 121.4C250.042 120.067 251.242 118.467 252.575 116.6C254.042 114.733 255.042 113.333 255.575 112.4C255.842 112.133 256.042 112.133 256.175 112.4C256.308 112.667 256.375 112.867 256.375 113C255.842 113.933 254.908 115.467 253.575 117.6C252.375 119.6 250.575 122.133 248.175 125.2C245.375 128.8 242.442 131.6 239.375 133.6C236.308 135.6 232.375 136.6 227.575 136.6ZM267.372 134C264.305 134 261.505 133.267 258.972 131.8C256.572 130.2 255.372 127.933 255.372 125C255.372 123.933 255.572 122.8 255.972 121.6C256.372 120.267 256.905 119.267 257.572 118.6C257.572 120.067 258.039 121.4 258.972 122.6C259.905 123.667 260.972 124.533 262.172 125.2C263.372 125.733 264.505 126.133 265.572 126.4C266.772 126.667 267.839 126.8 268.772 126.8C271.839 126.8 274.239 125.733 275.972 123.6C277.705 121.333 278.572 118.933 278.572 116.4C278.572 114.133 277.972 112.133 276.772 110.4C275.972 109.333 275.105 108.4 274.172 107.6C273.239 106.667 272.239 105.733 271.172 104.8C270.372 104.133 269.639 103.333 268.972 102.4C268.305 101.467 267.439 100.067 266.372 98.2L257.972 111C255.972 113.933 254.105 116.667 252.372 119.2C250.639 121.733 248.372 124.667 245.572 128C244.772 128.933 244.172 129.4 243.772 129.4C243.239 129.267 243.305 128.733 243.972 127.8C247.039 123.933 249.572 120.6 251.572 117.8C253.572 115 255.905 111.6 258.572 107.6C259.905 105.733 261.239 103.6 262.572 101.2C264.039 98.8 265.105 96.3333 265.772 93.8C265.772 89.6667 267.172 86.0667 269.972 83C272.772 79.8 276.172 77.4 280.172 75.8C284.305 74.0667 288.172 73.4 291.772 73.8C292.572 73.8 293.439 74.4 294.372 75.6C295.305 76.8 296.105 78.1333 296.772 79.6C297.439 80.9333 297.772 82 297.772 82.8C297.772 83.2 297.639 83.4 297.372 83.4C296.972 83.4 296.439 83.1333 295.772 82.6C294.705 81.6667 293.105 81.2 290.972 81.2C288.172 81.2 285.105 82 281.772 83.6C278.439 85.0667 275.505 87 272.972 89.4C270.572 91.6667 269.372 94.0667 269.372 96.6C269.372 98.4667 270.105 100.2 271.572 101.8C273.172 103.4 274.905 104.933 276.772 106.4C278.772 107.733 280.372 109.2 281.572 110.8C282.905 112.267 283.839 113.733 284.372 115.2C284.905 116.667 285.172 118.133 285.172 119.6C285.172 122.133 284.372 124.467 282.772 126.6C281.172 128.6 279.239 130.267 276.972 131.6C274.172 133.2 270.972 134 267.372 134Z" fill="#0012A5" fill-opacity="0.06"/>
</svg>
