<svg width="37" height="29" viewBox="0 0 37 29" fill="none" xmlns="http://www.w3.org/2000/svg">
<rect width="37" height="29" fill="#1E1E1E"/>
<g clip-path="url(#clip0_0_1)">
<rect width="1600" height="9730" transform="translate(-258 -1157)" fill="white"/>
<g filter="url(#filter0_d_0_1)">
<path d="M-43 -32C-43 -40.2843 -36.2843 -47 -28 -47H288.801C292.169 -47 295.439 -45.8666 298.084 -43.7824L321.283 -25.5042C324.893 -22.66 327 -18.3177 327 -13.7219V218C327 226.284 320.284 233 312 233H-28C-36.2843 233 -43 226.284 -43 218V-32Z" fill="white"/>
<path d="M-42.7145 220.927C-42.8401 220.292 -42.9257 219.643 -42.9684 218.982L-42.4694 218.95C-42.4897 218.636 -42.5 218.319 -42.5 218V217.008H-43V215.024H-42.5V213.04H-43V211.056H-42.5V209.072H-43V207.087H-42.5V205.103H-43V203.119H-42.5V201.135H-43V199.151H-42.5V197.167H-43V195.183H-42.5V193.198H-43V191.214H-42.5V189.23H-43V187.246H-42.5V185.262H-43V183.278H-42.5V181.294H-43V179.31H-42.5V177.325H-43V175.341H-42.5V173.357H-43V171.373H-42.5V169.389H-43V167.405H-42.5V165.421H-43V163.437H-42.5V161.452H-43V159.468H-42.5V157.484H-43V155.5H-42.5V153.516H-43V151.532H-42.5V149.548H-43V147.563H-42.5V145.579H-43V143.595H-42.5V141.611H-43V139.627H-42.5V137.643H-43V135.659H-42.5V133.675H-43V131.69H-42.5V129.706H-43V127.722H-42.5V125.738H-43V123.754H-42.5V121.77H-43V119.786H-42.5V117.801H-43V115.817H-42.5V113.833H-43V111.849H-42.5V109.865H-43V107.881H-42.5V105.897H-43V103.913H-42.5V101.928H-43V99.9443H-42.5V97.9602H-43V95.9761H-42.5V93.9919H-43V92.0078H-42.5V90.0237H-43V88.0396H-42.5V86.0555H-43V84.0713H-42.5V82.0872H-43V80.1031H-42.5V78.1189H-43V76.1348H-42.5V74.1507H-43V72.1666H-42.5V70.1825H-43V68.1983H-42.5V66.2142H-43V64.2301H-42.5V62.246H-43V60.2618H-42.5V58.2777H-43V56.2936H-42.5V54.3095H-43V52.3254H-42.5V50.3412H-43V48.3571H-42.5V46.373H-43V44.3889H-42.5V42.4047H-43V40.4206H-42.5V38.4365H-43V36.4524H-42.5V34.4682H-43V32.4841H-42.5V30.5H-43V28.5159H-42.5V26.5317H-43V24.5476H-42.5V22.5635H-43V20.5794H-42.5V18.5952H-43V16.6111H-42.5V14.627H-43V12.6429H-42.5V10.6587H-43V8.67459H-42.5V6.69047H-43V4.70634H-42.5V2.72221H-43V0.738087H-42.5V-1.24604H-43V-3.23017H-42.5V-5.21429H-43V-7.19842H-42.5V-9.18255H-43V-11.1667H-42.5V-13.1508H-43V-15.1349H-42.5V-17.1191H-43V-19.1032H-42.5V-21.0873H-43V-23.0714H-42.5V-25.0556H-43V-27.0397H-42.5V-29.0238H-43V-31.0079H-42.5V-32C-42.5 -32.3192 -42.4897 -32.6358 -42.4694 -32.9497L-42.9684 -32.982C-42.9257 -33.6431 -42.8401 -34.2925 -42.7145 -34.9274L-42.224 -34.8304C-42.1001 -35.4566 -41.9359 -36.0683 -41.7342 -36.6627L-42.2077 -36.8234C-41.996 -37.4469 -41.7445 -38.0521 -41.4561 -38.6358L-41.0078 -38.4143C-40.7265 -38.9836 -40.4089 -39.5319 -40.058 -40.0561L-40.4735 -40.3342C-40.1086 -40.8792 -39.709 -41.3989 -39.2778 -41.8903L-38.902 -41.5604C-38.4844 -42.0362 -38.0362 -42.4844 -37.5604 -42.902L-37.8903 -43.2778C-37.3989 -43.709 -36.8792 -44.1086 -36.3342 -44.4735L-36.0561 -44.058C-35.5319 -44.4089 -34.9836 -44.7265 -34.4143 -45.0078L-34.6358 -45.4561C-34.0521 -45.7445 -33.4469 -45.996 -32.8234 -46.2077L-32.6627 -45.7342C-32.0683 -45.9359 -31.4566 -46.1001 -30.8304 -46.224L-30.9274 -46.7145C-30.2924 -46.8401 -29.643 -46.9257 -28.982 -46.9684L-28.9497 -46.4694C-28.6358 -46.4897 -28.3192 -46.5 -28 -46.5H-26.9972V-47H-24.9921V-46.5H-22.9871V-47H-20.982V-46.5H-18.9769V-47H-16.9719V-46.5H-14.9668V-47H-12.9617V-46.5H-10.9567V-47H-8.9516V-46.5H-6.94653V-47H-4.94147V-46.5H-2.93641V-47H-0.931335V-46.5H1.07373V-47H3.0788V-46.5H5.08385V-47H7.08892V-46.5H9.09399V-47H11.0991V-46.5H13.1041V-47H15.1092V-46.5H17.1143V-47H19.1193V-46.5H21.1244V-47H23.1294V-46.5H25.1345V-47H27.1396V-46.5H29.1447V-47H31.1497V-46.5H33.1548V-47H35.1599V-46.5H37.1649V-47H39.17V-46.5H41.1751V-47H43.1801V-46.5H45.1852V-47H47.1903V-46.5H49.1953V-47H51.2004V-46.5H53.2055V-47H55.2105V-46.5H57.2156V-47H59.2206V-46.5H61.2257V-47H63.2308V-46.5H65.2359V-47H67.2409V-46.5H69.246V-47H71.2511V-46.5H73.2561V-47H75.2612V-46.5H77.2662V-47H79.2713V-46.5H81.2764V-47H83.2815V-46.5H85.2865V-47H87.2916V-46.5H89.2966V-47H91.3017V-46.5H93.3068V-47H95.3118V-46.5H97.3169V-47H99.322V-46.5H101.327V-47H103.332V-46.5H105.337V-47H107.342V-46.5H109.347V-47H111.352V-46.5H113.357V-47H115.363V-46.5H117.368V-47H119.373V-46.5H121.378V-47H123.383V-46.5H125.388V-47H127.393V-46.5H129.398V-47H131.403V-46.5H133.408V-47H135.413V-46.5H137.418V-47H139.423V-46.5H141.428V-47H143.433V-46.5H145.438V-47H147.444V-46.5H149.449V-47H151.454V-46.5H153.459V-47H155.464V-46.5H157.469V-47H159.474V-46.5H161.479V-47H163.484V-46.5H165.489V-47H167.494V-46.5H169.499V-47H171.504V-46.5H173.509V-47H175.514V-46.5H177.52V-47H179.525V-46.5H181.53V-47H183.535V-46.5H185.54V-47H187.545V-46.5H189.55V-47H191.555V-46.5H193.56V-47H195.565V-46.5H197.57V-47H199.575V-46.5H201.58V-47H203.585V-46.5H205.59V-47H207.596V-46.5H209.601V-47H211.606V-46.5H213.611V-47H215.616V-46.5H217.621V-47H219.626V-46.5H221.631V-47H223.636V-46.5H225.641V-47H227.646V-46.5H229.651V-47H231.656V-46.5H233.661V-47H235.666V-46.5H237.672V-47H239.677V-46.5H241.682V-47H243.687V-46.5H245.692V-47H247.697V-46.5H249.702V-47H251.707V-46.5H253.712V-47H255.717V-46.5H257.722V-47H259.727V-46.5H261.732V-47H263.737V-46.5H265.743V-47H267.748V-46.5H269.753V-47H271.758V-46.5H273.763V-47H275.768V-46.5H277.773V-47H279.778V-46.5H281.783V-47H283.788V-46.5H285.793V-47H287.798V-46.5H288.801C289.07 -46.5 289.339 -46.4925 289.607 -46.4776L289.635 -46.9768C290.192 -46.9458 290.745 -46.8839 291.292 -46.7918L291.209 -46.2987C291.74 -46.2093 292.264 -46.0905 292.781 -45.9431L292.918 -46.4239C293.453 -46.2712 293.979 -46.0889 294.493 -45.8778L294.304 -45.4152C294.8 -45.2115 295.286 -44.98 295.759 -44.7216L295.999 -45.1603C296.485 -44.8942 296.958 -44.6006 297.415 -44.2802L297.128 -43.8708C297.347 -43.7168 297.563 -43.5564 297.774 -43.3896L298.603 -42.7368L298.912 -43.1296L300.57 -41.824L300.26 -41.4313L301.917 -40.1257L302.227 -40.5184L303.884 -39.2128L303.574 -38.8201L305.231 -37.5145L305.541 -37.9073L307.198 -36.6017L306.888 -36.2089L308.546 -34.9033L308.855 -35.2961L310.512 -33.9905L310.203 -33.5978L311.86 -32.2922L312.169 -32.6849L313.826 -31.3793L313.517 -30.9866L315.174 -29.681L315.483 -30.0738L317.14 -28.7682L316.831 -28.3754L318.488 -27.0699L318.797 -27.4626L320.455 -26.157L320.145 -25.7643L320.974 -25.1115C321.261 -24.8853 321.538 -24.6493 321.805 -24.4042L322.143 -24.7725C322.701 -24.2603 323.217 -23.7096 323.686 -23.126L323.297 -22.8126C323.754 -22.2438 324.167 -21.6427 324.532 -21.015L324.965 -21.2665C325.343 -20.6154 325.673 -19.9367 325.95 -19.2363L325.485 -19.0524C325.752 -18.3771 325.968 -17.6808 326.132 -16.9693L326.619 -17.0813C326.787 -16.3512 326.901 -15.6057 326.958 -14.8503L326.459 -14.8127C326.486 -14.4512 326.5 -14.0874 326.5 -13.7219V-12.7232H327V-10.7256H326.5V-8.72799H327V-6.7304H326.5V-4.7328H327V-2.73518H326.5V-0.737579H327V1.26002H326.5V3.25763H327V5.25523H326.5V7.25283H327V9.25045H326.5V11.248H327V13.2456H326.5V15.2433H327V17.2409H326.5V19.2385H327V21.2361H326.5V23.2337H327V25.2313H326.5V27.2289H327V29.2265H326.5V31.2241H327V33.2217H326.5V35.2193H327V37.2169H326.5V39.2145H327V41.2121H326.5V43.2097H327V45.2073H326.5V47.2049H327V49.2025H326.5V51.2001H327V53.1977H326.5V55.1953H327V57.193H326.5V59.1906H327V61.1882H326.5V63.1858H327V65.1834H326.5V67.181H327V69.1786H326.5V71.1762H327V73.1738H326.5V75.1714H327V77.169H326.5V79.1666H327V81.1642H326.5V83.1618H327V85.1594H326.5V87.157H327V89.1546H326.5V91.1522H327V93.1498H326.5V95.1474H327V97.145H326.5V99.1426H327V101.14H326.5V103.138H327V105.135H326.5V107.133H327V109.131H326.5V111.128H327V113.126H326.5V115.123H327V117.121H326.5V119.119H327V121.116H326.5V123.114H327V125.111H326.5V127.109H327V129.107H326.5V131.104H327V133.102H326.5V135.1H327V137.097H326.5V139.095H327V141.092H326.5V143.09H327V145.088H326.5V147.085H327V149.083H326.5V151.08H327V153.078H326.5V155.076H327V157.073H326.5V159.071H327V161.068H326.5V163.066H327V165.064H326.5V167.061H327V169.059H326.5V171.056H327V173.054H326.5V175.052H327V177.049H326.5V179.047H327V181.044H326.5V183.042H327V185.04H326.5V187.037H327V189.035H326.5V191.032H327V193.03H326.5V195.028H327V197.025H326.5V199.023H327V201.02H326.5V203.018H327V205.016H326.5V207.013H327V209.011H326.5V211.008H327V213.006H326.5V215.004H327V217.001H326.5V218C326.5 218.319 326.49 218.636 326.469 218.95L326.968 218.982C326.926 219.643 326.84 220.292 326.714 220.927L326.224 220.83C326.1 221.457 325.936 222.068 325.734 222.663L326.208 222.823C325.996 223.447 325.745 224.052 325.456 224.636L325.008 224.414C324.727 224.984 324.409 225.532 324.058 226.056L324.473 226.334C324.109 226.879 323.709 227.399 323.278 227.89L322.902 227.56C322.484 228.036 322.036 228.484 321.56 228.902L321.89 229.278C321.399 229.709 320.879 230.109 320.334 230.473L320.056 230.058C319.532 230.409 318.984 230.727 318.414 231.008L318.636 231.456C318.052 231.745 317.447 231.996 316.823 232.208L316.663 231.734C316.068 231.936 315.457 232.1 314.83 232.224L314.927 232.714C314.292 232.84 313.643 232.926 312.982 232.968L312.95 232.469C312.636 232.49 312.319 232.5 312 232.5H311V233H309V232.5H307V233H305V232.5H303V233H301V232.5H299V233H297V232.5H295V233H293V232.5H291V233H289V232.5H287V233H285V232.5H283V233H281V232.5H279V233H277V232.5H275V233H273V232.5H271V233H269V232.5H267V233H265V232.5H263V233H261V232.5H259V233H257V232.5H255V233H253V232.5H251V233H249V232.5H247V233H245V232.5H243V233H241V232.5H239V233H237V232.5H235V233H233V232.5H231V233H229V232.5H227V233H225V232.5H223V233H221V232.5H219V233H217V232.5H215V233H213V232.5H211V233H209V232.5H207V233H205V232.5H203V233H201V232.5H199V233H197V232.5H195V233H193V232.5H191V233H189V232.5H187V233H185V232.5H183V233H181V232.5H179V233H177V232.5H175V233H173V232.5H171V233H169V232.5H167V233H165V232.5H163V233H161V232.5H159V233H157V232.5H155V233H153V232.5H151V233H149V232.5H147V233H145V232.5H143V233H141V232.5H139V233H137V232.5H135V233H133V232.5H131V233H129V232.5H127V233H125V232.5H123V233H121V232.5H119V233H117V232.5H115V233H113V232.5H111V233H109V232.5H107V233H105V232.5H103V233H101V232.5H99V233H97V232.5H95V233H93V232.5H91V233H89V232.5H87V233H85V232.5H83V233H81V232.5H79V233H77V232.5H75V233H73V232.5H71V233H69V232.5H67V233H65V232.5H63V233H61V232.5H59V233H57V232.5H55V233H53V232.5H51V233H49V232.5H47V233H45V232.5H43V233H41V232.5H39V233H37V232.5H35V233H33V232.5H31V233H29V232.5H27V233H25V232.5H23V233H21V232.5H19V233H17V232.5H15V233H13V232.5H11V233H8.99999V232.5H6.99999V233H4.99999V232.5H2.99999V233H0.999992V232.5H-1.00001V233H-3.00001V232.5H-5.00001V233H-7.00001V232.5H-9.00001V233H-11V232.5H-13V233H-15V232.5H-17V233H-19V232.5H-21V233H-23V232.5H-25V233H-27V232.5H-28C-28.3192 232.5 -28.6359 232.49 -28.9497 232.469L-28.982 232.968C-29.6431 232.926 -30.2925 232.84 -30.9274 232.714L-30.8304 232.224C-31.4566 232.1 -32.0683 231.936 -32.6627 231.734L-32.8234 232.208C-33.4469 231.996 -34.0521 231.745 -34.6358 231.456L-34.4143 231.008C-34.9836 230.727 -35.5319 230.409 -36.0561 230.058L-36.3342 230.473C-36.8792 230.109 -37.3989 229.709 -37.8903 229.278L-37.5604 228.902C-38.0362 228.484 -38.4844 228.036 -38.902 227.56L-39.2778 227.89C-39.709 227.399 -40.1086 226.879 -40.4735 226.334L-40.058 226.056C-40.4089 225.532 -40.7265 224.984 -41.0078 224.414L-41.4561 224.636C-41.7445 224.052 -41.996 223.447 -42.2077 222.823L-41.7342 222.663C-41.9359 222.068 -42.1001 221.457 -42.224 220.83L-42.7145 220.927Z" stroke="#10B35E" stroke-dasharray="2 2"/>
</g>
<rect width="85.8716" height="85.8716" rx="15" transform="matrix(1 0 -0.0165799 0.999863 -24 -28)" fill="#F2F2FF"/>
<path d="M8.25217 26.9966C4.11003 26.9966 1.64118 23.6392 1.70985 19.4976C1.77853 15.356 5.19207 11.9986 9.3342 11.9986H10.1675L10.1952 10.3322C10.2715 5.73045 14.0643 2 18.6667 2C23.269 2 26.9381 5.73045 26.8618 10.3322L26.8342 11.9986H27.6675C31.8097 11.9986 35.1119 15.356 35.0432 19.4976C34.9745 23.6392 32.3943 26.9966 28.2522 26.9966" stroke="#10B35E" stroke-width="2.5" stroke-linecap="round" stroke-linejoin="round"/>
<path d="M13.238 27.83L13.3485 21.1643C13.3561 20.7041 13.7354 20.3311 14.1956 20.3311H22.529C22.9892 20.3311 23.3561 20.7041 23.3485 21.1643L23.238 27.83C23.2303 28.2902 22.851 28.6632 22.3908 28.6632H14.0575C13.5972 28.6632 13.2303 28.2902 13.238 27.83Z" stroke="#10B35E" stroke-width="2.5" stroke-linecap="round" stroke-linejoin="round"/>
<path d="M15.0294 20.3304L15.057 18.6639C15.0876 16.8232 16.6047 15.3311 18.4456 15.3311V15.3311C20.2866 15.3311 21.7542 16.8232 21.7237 18.6639L21.6961 20.3304" stroke="#10B35E" stroke-width="2.5" stroke-linecap="round" stroke-linejoin="round"/>
</g>
<defs>
<filter id="filter0_d_0_1" x="-50" y="-51" width="386" height="296" filterUnits="userSpaceOnUse" color-interpolation-filters="sRGB">
<feFlood flood-opacity="0" result="BackgroundImageFix"/>
<feColorMatrix in="SourceAlpha" type="matrix" values="0 0 0 0 0 0 0 0 0 0 0 0 0 0 0 0 0 0 127 0" result="hardAlpha"/>
<feOffset dx="1" dy="4"/>
<feGaussianBlur stdDeviation="4"/>
<feComposite in2="hardAlpha" operator="out"/>
<feColorMatrix type="matrix" values="0 0 0 0 0 0 0 0 0 0 0 0 0 0 0 0 0 0 0.22 0"/>
<feBlend mode="normal" in2="BackgroundImageFix" result="effect1_dropShadow_0_1"/>
<feBlend mode="normal" in="SourceGraphic" in2="effect1_dropShadow_0_1" result="shape"/>
</filter>
<clipPath id="clip0_0_1">
<rect width="1600" height="9730" fill="white" transform="translate(-258 -1157)"/>
</clipPath>
</defs>
</svg>
